<svg width="846" height="48" viewBox="0 0 846 48" fill="none" xmlns="http://www.w3.org/2000/svg">
<path d="M9.35975 33.9142C8.51084 33.9142 8.08638 33.7256 8.08638 33.3483C8.08638 33.1282 8.19642 32.9553 8.41651 32.8295C8.6366 32.6723 8.99818 32.5465 9.50124 32.4522C10.7589 32.2321 11.6707 31.8548 12.2366 31.3203C12.8026 30.7858 13.0856 29.9998 13.0856 28.9622V10.2861C13.0856 8.30526 13.0227 6.98473 12.8969 6.32446C12.7711 5.66419 12.5353 5.28689 12.1895 5.19257C11.6864 5.06681 10.7117 5.00392 9.26543 5.00392H7.42611C6.57719 5.00392 5.744 5.19257 4.92652 5.56987C4.14049 5.94716 3.55883 6.45022 3.18153 7.07905C2.30117 8.39959 1.57802 9.05986 1.01208 9.05986C0.697664 9.05986 0.540457 8.83977 0.540457 8.39959C0.540457 8.14806 0.634782 7.8022 0.82343 7.36202C1.32649 6.38734 1.68807 5.5227 1.90816 4.76811C2.12825 3.98208 2.30117 3.07028 2.42694 2.03272C2.52126 1.27812 2.83568 0.900828 3.37018 0.900828C3.52738 0.900828 3.74747 1.12092 4.03045 1.5611C4.34486 2.00127 4.54923 2.29997 4.64355 2.45717C4.86364 2.74015 5.30382 2.96023 5.96409 3.11744C6.6558 3.27465 7.33179 3.35325 7.99206 3.35325L25.0175 3.30609C26.8097 3.30609 28.146 3.086 29.0263 2.64582C29.4036 2.39429 29.6551 2.20564 29.7809 2.07988C29.8438 2.04844 29.9853 1.95411 30.2054 1.79691C30.4569 1.60826 30.7399 1.51393 31.0543 1.51393C31.18 1.51393 31.2744 1.62398 31.3372 1.84407C31.4001 2.03272 31.4316 2.25281 31.4316 2.50433C31.4316 2.72443 31.3844 3.11744 31.2901 3.68339L30.96 5.09825C30.8656 5.4441 30.787 5.78996 30.7241 6.13581C30.6613 6.45022 30.6298 6.8118 30.6298 7.22054V7.8808C30.6298 8.28954 30.5512 8.66684 30.394 9.01269C30.2682 9.32711 30.0953 9.48431 29.8752 9.48431C29.6237 9.48431 29.4193 9.34283 29.2621 9.05986C29.1364 8.74544 28.9791 8.24238 28.7905 7.55067C28.6019 6.70176 28.1617 6.07293 27.47 5.66419C26.8097 5.22401 25.7721 5.00392 24.3573 5.00392H20.3957C19.704 5.00392 19.2009 5.11397 18.8865 5.33406C18.5721 5.5227 18.352 5.9786 18.2262 6.70176C18.1319 7.42491 18.0847 8.61968 18.0847 10.2861V28.9622C18.0847 29.9683 18.3677 30.7387 18.9336 31.2732C19.531 31.7762 20.4585 32.1692 21.7162 32.4522C22.1878 32.5465 22.5337 32.6723 22.7538 32.8295C22.9739 32.9553 23.0839 33.1282 23.0839 33.3483C23.0839 33.7256 22.6752 33.9142 21.8577 33.9142C20.6944 33.9142 19.6096 33.8671 18.6035 33.7727C17.3459 33.7099 16.4026 33.6784 15.7738 33.6784C15.0506 33.6784 14.0288 33.7099 12.7083 33.7727C11.6707 33.8671 10.5545 33.9142 9.35975 33.9142ZM33.2101 33.8671C32.5813 33.8671 32.2669 33.6784 32.2669 33.3011C32.2669 33.1125 32.3455 32.9553 32.5027 32.8295C32.6599 32.7037 32.9428 32.578 33.3516 32.4522C33.9804 32.2636 34.452 32.0592 34.7664 31.8391C35.1123 31.5876 35.2852 31.1631 35.2852 30.5657V7.31486C35.2852 6.37162 35.1437 5.60131 34.8608 5.00392C34.5778 4.40654 34.059 4.04496 33.3044 3.9192C33.0214 3.85631 32.88 3.6205 32.88 3.21177C32.88 2.89735 33.0057 2.69299 33.2573 2.59866C34.0433 2.41001 35.0023 2.11132 36.1341 1.70258C37.2975 1.29384 38.3193 0.916549 39.1997 0.570695C39.3883 0.507811 39.5298 0.476369 39.6241 0.476369C39.8757 0.476369 40.0014 0.617855 40.0014 0.900828C40.0014 1.05803 39.9385 1.51393 39.8128 2.26853C39.687 2.99168 39.6241 4.29649 39.6241 6.18297V15.3324C39.6241 16.0556 39.7185 16.5901 39.9071 16.9359C41.0075 16.087 42.1237 15.3796 43.2556 14.8136C44.4189 14.2162 45.6609 13.9175 46.9814 13.9175C48.5849 13.9175 49.9054 14.5306 50.943 15.7569C52.012 16.9516 52.5465 18.508 52.5465 20.4259V30.4714C52.5465 31.0374 52.7037 31.4618 53.0181 31.7448C53.364 32.0278 53.8356 32.2636 54.433 32.4522C54.8103 32.578 55.0775 32.7037 55.2348 32.8295C55.392 32.9553 55.4706 33.1125 55.4706 33.3011C55.4706 33.6784 55.1404 33.8671 54.4802 33.8671C53.5998 33.8671 52.8767 33.8199 52.3107 33.7256C51.619 33.6627 50.9902 33.6313 50.4242 33.6313C49.8583 33.6313 49.2295 33.6627 48.5377 33.7256C48.0347 33.8199 47.3273 33.8671 46.4155 33.8671C45.7552 33.8671 45.4251 33.6784 45.4251 33.3011C45.4251 33.081 45.5037 32.9238 45.6609 32.8295C45.8181 32.7037 46.0853 32.578 46.4626 32.4522C47.0286 32.2636 47.4687 32.0278 47.7832 31.7448C48.0976 31.4618 48.2548 31.0216 48.2548 30.4242V20.8975C48.2548 19.8285 47.8303 18.901 46.9814 18.115C46.1639 17.2975 45.2836 16.8887 44.3403 16.8887C43.7115 16.8887 43.0512 16.9831 42.3595 17.1717C41.6678 17.3289 41.1019 17.5805 40.6617 17.9263C40.253 18.2407 39.97 18.5866 39.8128 18.9639C39.687 19.3412 39.6241 19.9228 39.6241 20.7089V30.5657C39.6556 31.1317 39.8128 31.5404 40.0957 31.7919C40.3787 32.0435 40.8032 32.2636 41.3691 32.4522C42.0608 32.6723 42.4067 32.9553 42.4067 33.3011C42.4067 33.6784 42.0923 33.8671 41.4634 33.8671C40.5831 33.8671 39.8599 33.8199 39.294 33.7256C38.5394 33.6627 37.9106 33.6313 37.4075 33.6313C36.873 33.6313 36.2285 33.6627 35.4739 33.7256C34.8136 33.8199 34.059 33.8671 33.2101 33.8671ZM66.4711 34.433C64.7733 34.433 63.2641 33.9928 61.9435 33.1125C60.623 32.2321 59.5854 31.0216 58.8308 29.481C58.1077 27.9089 57.7461 26.1168 57.7461 24.1045C57.7461 22.2809 58.1706 20.5988 59.0195 19.0582C59.8999 17.4861 61.0632 16.2442 62.5095 15.3324C63.9872 14.3892 65.575 13.9175 67.2728 13.9175C69.2222 13.9175 70.8257 14.4992 72.0834 15.6625C73.3725 16.8259 74.017 18.2879 74.017 20.0486C74.017 20.5831 73.8912 20.9761 73.6397 21.2277C73.4196 21.4792 73.0581 21.605 72.555 21.605H62.7925C62.3523 21.605 62.0379 21.7307 61.8492 21.9822C61.692 22.2338 61.6134 22.6897 61.6134 23.3499C61.6134 24.7334 61.9121 26.0067 62.5095 27.1701C63.1069 28.3334 63.9243 29.2609 64.9619 29.9526C66.0309 30.6129 67.1942 30.943 68.4519 30.943C70.2126 30.943 71.7847 30.2513 73.1681 28.8679C73.3253 28.6164 73.4982 28.4906 73.6869 28.4906C73.9699 28.4906 74.1113 28.6635 74.1113 29.0094C74.1113 29.481 73.8912 30.0784 73.4511 30.8015C72.7908 31.8705 71.8318 32.7509 70.5742 33.4426C69.348 34.1029 67.9803 34.433 66.4711 34.433ZM66.6126 20.0014C68.0274 20.0014 69.1122 19.9228 69.8668 19.7656C70.1497 19.6713 70.2912 19.2783 70.2912 18.5866C70.2912 17.7062 69.9296 16.9674 69.2065 16.37C68.4833 15.7411 67.6187 15.4267 66.6126 15.4267C65.9523 15.4267 65.2763 15.6311 64.5846 16.0398C63.8929 16.4486 63.327 16.9674 62.8868 17.5962C62.478 18.225 62.2737 18.8381 62.2737 19.4355C62.2737 19.8128 62.478 20.0014 62.8868 20.0014H66.6126ZM100.3 47.2139C100.079 47.2139 99.8751 47.1668 99.6864 47.0724C99.4978 46.9781 99.4034 46.8523 99.4034 46.6951C99.4034 46.3493 99.765 46.0506 100.488 45.7991C101.211 45.579 101.746 45.3432 102.092 45.0916C102.469 44.8401 102.658 44.4314 102.658 43.8654V33.0653C102.658 32.2164 102.563 31.7919 102.375 31.7919C102.186 31.7919 102.045 31.8391 101.95 31.9334C101.258 32.4994 100.362 33.0496 99.262 33.5841C98.1615 34.1186 97.1082 34.3859 96.1021 34.3859C94.4357 34.3859 92.8951 34.0086 91.4802 33.254C90.0654 32.4679 88.9335 31.3832 88.0846 29.9998C87.2671 28.5849 86.8584 26.95 86.8584 25.0949C86.8584 22.9569 87.33 21.039 88.2732 19.3412C89.2165 17.6433 90.5684 16.3071 92.3291 15.3324C94.0899 14.3577 96.1493 13.8704 98.5074 13.8704C100.048 13.8704 101.447 14.059 102.705 14.4363C103.994 14.7822 104.686 14.9551 104.78 14.9551C105.094 14.9551 105.346 14.8765 105.535 14.7193C105.755 14.5621 105.975 14.3106 106.195 13.9647C106.352 13.8075 106.509 13.7289 106.666 13.7289C106.855 13.7289 107.028 13.7918 107.185 13.9175C107.342 14.0119 107.421 14.1219 107.421 14.2477C107.421 14.4363 107.374 14.7507 107.28 15.1909C107.028 16.8573 106.902 18.3193 106.902 19.577V44.0069C106.902 44.51 107.075 44.8715 107.421 45.0916C107.798 45.3117 108.38 45.5475 109.166 45.7991C109.889 46.0506 110.251 46.3493 110.251 46.6951C110.251 46.8838 110.156 47.0096 109.968 47.0724C109.779 47.1668 109.559 47.2139 109.307 47.2139C108.427 47.2139 107.625 47.1668 106.902 47.0724C105.959 47.0096 105.236 46.9781 104.733 46.9781C104.23 46.9781 103.538 47.0096 102.658 47.0724C101.997 47.1668 101.211 47.2139 100.3 47.2139ZM98.1772 31.6505C99.0576 31.6505 99.9222 31.4933 100.771 31.1788C101.652 30.833 102.296 30.4242 102.705 29.9526C102.705 24.7334 102.689 21.6364 102.658 20.6617C102.626 19.2468 102.107 18.0521 101.101 17.0774C100.095 16.0713 98.8847 15.5682 97.4698 15.5682C96.4322 15.5682 95.4733 15.9141 94.5929 16.6058C93.7126 17.266 93.0051 18.225 92.4706 19.4827C91.9676 20.7403 91.716 22.1866 91.716 23.8216C91.716 25.5508 92.0305 27.0129 92.6593 28.2076C93.3195 29.371 94.137 30.2356 95.1117 30.8015C96.1178 31.3675 97.1397 31.6505 98.1772 31.6505ZM127.198 34.6688C126.947 34.6688 126.821 34.5273 126.821 34.2444L126.915 32.8767C127.009 32.3107 127.057 31.7919 127.057 31.3203V30.943C124.856 33.2382 122.293 34.3859 119.369 34.3859C117.829 34.3859 116.555 33.8514 115.549 32.7823C114.574 31.7133 114.087 30.267 114.087 28.4434V19.1054C114.087 18.4137 113.93 17.8634 113.615 17.4547C113.301 17.0145 112.798 16.6844 112.106 16.4643C111.666 16.3385 111.446 16.0713 111.446 15.6625C111.446 15.1909 111.682 14.9237 112.153 14.8608C113.222 14.7979 114.118 14.7036 114.842 14.5778C115.565 14.452 116.477 14.2477 117.577 13.9647C117.891 13.9018 118.096 13.8704 118.19 13.8704C118.567 13.8704 118.74 14.0905 118.709 14.5306C118.489 15.8826 118.379 17.0931 118.379 18.1621V27.3116C118.379 28.4434 118.74 29.4181 119.463 30.2356C120.187 31.0216 121.02 31.4304 121.963 31.4618C122.781 31.4618 123.457 31.3989 123.991 31.2732C124.526 31.1474 125.044 30.8801 125.547 30.4714C126.679 29.591 127.245 28.4749 127.245 27.1229V18.8696C127.245 18.0521 126.931 17.4547 126.302 17.0774C125.705 16.6687 125.044 16.4486 124.321 16.4171C123.629 16.4171 123.284 16.1342 123.284 15.5682C123.284 15.0337 123.629 14.7665 124.321 14.7665C126.05 14.7036 127.34 14.625 128.188 14.5306C129.069 14.4049 129.965 14.2162 130.877 13.9647C131.065 13.9018 131.238 13.8704 131.395 13.8704C131.584 13.8704 131.741 13.9175 131.867 14.0119C131.993 14.1062 132.056 14.232 132.056 14.3892C132.056 14.4835 132.04 14.5778 132.009 14.6721C131.977 14.735 131.946 14.8136 131.914 14.9079C131.851 15.2852 131.773 15.8355 131.678 16.5586C131.616 17.2818 131.584 17.832 131.584 18.2093V29.1037C131.584 30.55 131.867 31.2732 132.433 31.2732L134.32 31.1788C134.823 31.1788 135.074 31.4146 135.074 31.8863C135.074 32.3264 134.838 32.578 134.367 32.6409C133.172 32.7981 132.103 33.0182 131.16 33.3011C130.248 33.5841 129.273 33.93 128.236 34.3387C127.795 34.5588 127.45 34.6688 127.198 34.6688ZM137.487 33.8671C136.889 33.8671 136.591 33.6784 136.591 33.3011C136.591 32.9553 136.921 32.688 137.581 32.4994C138.367 32.2793 138.917 32.0592 139.232 31.8391C139.546 31.5876 139.703 31.2103 139.703 30.7072V20.5202C139.703 18.508 138.996 17.3918 137.581 17.1717C137.267 17.1403 137.109 16.9045 137.109 16.4643C137.109 16.087 137.251 15.8826 137.534 15.8512C139.578 15.411 141.511 14.5778 143.335 13.3516C143.712 13.1315 143.964 13.0215 144.089 13.0215C144.341 13.0215 144.467 13.1472 144.467 13.3988C144.467 13.5874 144.404 14.3106 144.278 15.5682C144.089 17.4547 143.995 18.9167 143.995 19.9543V30.7072C143.995 31.1788 144.152 31.5561 144.467 31.8391C144.813 32.0906 145.363 32.3107 146.117 32.4994C146.778 32.688 147.108 32.9553 147.108 33.3011C147.108 33.6784 146.825 33.8671 146.259 33.8671C145.441 33.8671 144.671 33.8199 143.948 33.7256C143.068 33.6627 142.36 33.6313 141.826 33.6313C141.291 33.6313 140.615 33.6627 139.798 33.7256C139.137 33.8199 138.367 33.8671 137.487 33.8671ZM141.731 9.76729C140.945 9.76729 140.269 9.50003 139.703 8.96553C139.169 8.39959 138.902 7.7236 138.902 6.93757C138.902 6.12009 139.169 5.4441 139.703 4.9096C140.269 4.34366 140.945 4.06068 141.731 4.06068C142.549 4.06068 143.241 4.34366 143.806 4.9096C144.372 5.4441 144.655 6.12009 144.655 6.93757C144.655 7.7236 144.372 8.39959 143.806 8.96553C143.241 9.50003 142.549 9.76729 141.731 9.76729ZM157.894 34.433C156.29 34.433 154.828 34.0243 153.507 33.2068C152.218 32.3579 151.197 31.2103 150.442 29.764C149.719 28.3177 149.357 26.6984 149.357 24.9063C149.357 22.894 149.813 21.0547 150.725 19.3883C151.637 17.6905 152.863 16.3542 154.404 15.3796C155.944 14.4049 157.642 13.9175 159.497 13.9175C161.761 13.9175 163.679 14.5621 165.251 15.8512C165.597 16.1342 165.77 16.4328 165.77 16.7473C165.77 17.1246 165.518 17.5647 165.015 18.0678C164.512 18.5394 164.056 18.7752 163.647 18.7752C163.459 18.7752 163.254 18.7123 163.034 18.5866C162.846 18.4608 162.657 18.3193 162.468 18.1621C161.682 17.5333 160.865 16.9988 160.016 16.5586C159.198 16.1184 158.507 15.8983 157.941 15.8983C156.526 15.8983 155.394 16.5429 154.545 17.832C153.728 19.1211 153.319 20.8975 153.319 23.1613C153.319 25.3936 153.948 27.2487 155.205 28.7264C156.494 30.1727 158.129 30.8959 160.11 30.8959C161.022 30.8959 161.808 30.7544 162.468 30.4714C163.16 30.157 163.883 29.6382 164.638 28.9151C164.952 28.7264 165.156 28.6321 165.251 28.6321C165.408 28.6321 165.534 28.695 165.628 28.8207C165.722 28.9465 165.77 29.1037 165.77 29.2924C165.77 29.6697 165.581 30.1413 165.204 30.7072C164.481 31.7448 163.474 32.6251 162.185 33.3483C160.896 34.0714 159.466 34.433 157.894 34.433ZM168.895 33.8671C168.203 33.8671 167.858 33.6784 167.858 33.3011C167.858 33.1125 167.921 32.971 168.046 32.8767C168.203 32.7823 168.376 32.7037 168.565 32.6409C168.754 32.5465 168.879 32.4837 168.942 32.4522C169.571 32.2636 170.043 32.0592 170.357 31.8391C170.703 31.5876 170.876 31.1631 170.876 30.5657V7.31486C170.876 6.24586 170.719 5.45982 170.404 4.95676C170.121 4.42226 169.603 4.06068 168.848 3.87204C168.565 3.80915 168.424 3.58906 168.424 3.21177C168.424 2.86591 168.549 2.66154 168.801 2.59866C170.184 2.31569 171.458 1.93839 172.621 1.46677C173.816 0.995151 174.523 0.712179 174.743 0.617856C174.932 0.523532 175.089 0.476369 175.215 0.476369C175.435 0.476369 175.545 0.633576 175.545 0.947989C175.545 1.16808 175.482 1.73402 175.356 2.64582C175.262 3.55762 175.215 4.73667 175.215 6.18297V22.4067C175.215 22.7211 175.309 22.8783 175.498 22.8783C175.907 22.8783 176.363 22.6425 176.866 22.1709C177.997 21.1648 179.019 20.1901 179.931 19.2468C180.874 18.3036 181.519 17.5962 181.865 17.1246C182.148 16.7473 182.289 16.4957 182.289 16.37C182.289 16.2128 182.163 16.0713 181.912 15.9455C181.66 15.7883 181.346 15.6783 180.969 15.6154C180.591 15.5839 180.403 15.4267 180.403 15.1438C180.403 14.735 180.749 14.5306 181.44 14.5306H183.751C184.254 14.5306 185.386 14.4206 187.147 14.2005C188.09 14.0747 188.672 14.0119 188.892 14.0119C189.301 14.0119 189.505 14.1848 189.505 14.5306C189.505 14.9079 189.128 15.2066 188.373 15.4267C187.273 15.7097 186.125 16.2285 184.93 16.9831C184.459 17.266 183.641 17.8792 182.478 18.8224C181.315 19.7342 180.23 20.646 179.224 21.5578C179.035 21.6836 178.941 21.8408 178.941 22.0294C178.941 22.1552 179.004 22.2809 179.129 22.4067C181.204 25.0478 183.453 27.626 185.874 30.1413C186.345 30.6129 186.927 31.0688 187.619 31.509C188.31 31.9177 188.939 32.2321 189.505 32.4522C189.977 32.6094 190.322 32.7352 190.543 32.8295C190.763 32.9238 190.873 33.081 190.873 33.3011C190.873 33.6784 190.558 33.8671 189.929 33.8671L185.355 33.8199C183.217 33.757 181.582 33.7256 180.45 33.7256C179.853 33.7256 179.554 33.5527 179.554 33.2068C179.554 32.8295 179.853 32.5623 180.45 32.405C180.827 32.2793 181.094 32.1535 181.252 32.0278C181.44 31.8705 181.535 31.6662 181.535 31.4146C181.535 31.226 181.409 30.9745 181.157 30.6601L175.828 24.246C175.702 24.0574 175.576 23.963 175.451 23.963C175.294 23.963 175.215 24.0731 175.215 24.2932C175.183 24.922 175.168 25.9281 175.168 27.3116C175.168 28.7893 175.183 29.8897 175.215 30.6129C175.215 31.1474 175.341 31.5561 175.592 31.8391C175.844 32.0906 176.237 32.295 176.771 32.4522C177.117 32.578 177.369 32.7037 177.526 32.8295C177.715 32.9238 177.809 33.081 177.809 33.3011C177.809 33.4898 177.699 33.6313 177.479 33.7256C177.259 33.8199 177.039 33.8671 176.818 33.8671C176.001 33.8671 175.325 33.8199 174.79 33.7256C174.099 33.6627 173.501 33.6313 172.998 33.6313C172.464 33.6313 171.819 33.6627 171.065 33.7256C170.467 33.8199 169.744 33.8671 168.895 33.8671ZM212.944 34.3859C211.78 34.3859 210.35 34.1658 208.652 33.7256L207.614 33.4426C206.797 33.1911 206.278 33.0653 206.058 33.0653C205.681 33.0653 205.256 33.2697 204.785 33.6784C204.533 33.8671 204.36 33.9614 204.266 33.9614C204.077 33.9614 203.904 33.8985 203.747 33.7727C203.59 33.647 203.511 33.5055 203.511 33.3483C203.511 33.1282 203.559 32.7823 203.653 32.3107C203.684 32.1221 203.731 31.7448 203.794 31.1788C203.889 30.5815 203.936 30.0312 203.936 29.5282L203.841 7.31486C203.841 6.46595 203.669 5.74279 203.323 5.14541C202.977 4.51658 202.474 4.09212 201.814 3.87204C201.405 3.74627 201.2 3.51046 201.2 3.16461C201.2 2.85019 201.389 2.66154 201.766 2.59866C202.71 2.41001 204.612 1.74974 207.473 0.617856C207.662 0.523532 207.819 0.476369 207.945 0.476369C208.196 0.476369 208.322 0.617855 208.322 0.900828C208.322 1.02659 208.29 1.51393 208.228 2.36285C208.196 3.18032 208.18 4.10784 208.18 5.14541L208.133 14.9551C208.133 15.9298 208.275 16.4171 208.558 16.4171C209.532 15.6625 210.617 15.0652 211.812 14.625C213.038 14.1534 214.154 13.9175 215.16 13.9175C216.732 13.9175 218.179 14.342 219.499 15.1909C220.82 16.0084 221.857 17.1403 222.612 18.5866C223.367 20.0014 223.744 21.5892 223.744 23.3499C223.744 25.5194 223.288 27.4373 222.376 29.1037C221.464 30.7701 220.191 32.0749 218.556 33.0182C216.921 33.93 215.05 34.3859 212.944 34.3859ZM213.934 32.7352C215.506 32.7352 216.764 31.9492 217.707 30.3771C218.65 28.805 219.122 26.8399 219.122 24.4818C219.122 23.1613 218.902 21.8722 218.462 20.6145C218.022 19.3255 217.361 18.2564 216.481 17.4075C215.601 16.5586 214.516 16.1342 213.227 16.1342C212.221 16.1342 211.277 16.2914 210.397 16.6058C209.517 16.9202 208.762 17.3446 208.133 17.8792V27.3587C208.133 28.9308 208.715 30.2199 209.878 31.226C211.042 32.2321 212.394 32.7352 213.934 32.7352ZM227.394 33.8671C226.765 33.8671 226.451 33.6784 226.451 33.3011C226.451 33.081 226.529 32.9081 226.686 32.7823C226.875 32.6566 227.158 32.5465 227.535 32.4522C228.164 32.3264 228.62 32.1221 228.903 31.8391C229.186 31.5247 229.327 31.1317 229.327 30.6601V20.2844C229.327 19.4355 229.202 18.7595 228.95 18.2564C228.699 17.7219 228.243 17.3761 227.582 17.2189C227.457 17.1874 227.331 17.1088 227.205 16.9831C227.111 16.8573 227.064 16.7001 227.064 16.5115C227.064 16.197 227.221 15.9769 227.535 15.8512C228.353 15.6311 229.249 15.301 230.223 14.8608C231.23 14.4206 232.094 13.9961 232.817 13.5874C233.226 13.3359 233.509 13.2101 233.666 13.2101C233.886 13.2101 233.996 13.3359 233.996 13.5874L233.855 17.2189C233.855 17.3446 233.886 17.4075 233.949 17.4075C234.767 16.37 235.663 15.5211 236.638 14.8608C237.644 14.2005 238.618 13.8704 239.562 13.8704C240.379 13.8704 241.008 14.0433 241.448 14.3892C241.888 14.7036 242.108 15.128 242.108 15.6625C242.108 16.2599 241.872 16.8887 241.401 17.549C240.961 18.2093 240.473 18.5394 239.939 18.5394C239.687 18.5394 239.184 18.3665 238.43 18.0206C238.304 17.9578 238.068 17.8634 237.722 17.7377C237.408 17.5805 237.125 17.5019 236.873 17.5019C235.962 17.5019 235.207 17.8163 234.61 18.4451C234.012 19.0739 233.713 20.1429 233.713 21.6521V30.5186C233.713 30.9902 233.902 31.3675 234.279 31.6505C234.657 31.9334 235.286 32.2164 236.166 32.4994C236.543 32.5937 236.81 32.7037 236.968 32.8295C237.156 32.9553 237.251 33.1125 237.251 33.3011C237.251 33.6784 236.952 33.8671 236.355 33.8671C235.443 33.8671 234.61 33.8199 233.855 33.7256C232.912 33.6627 232.189 33.6313 231.685 33.6313C231.182 33.6313 230.522 33.6627 229.705 33.7256C229.044 33.8199 228.274 33.8671 227.394 33.8671ZM253.21 34.3859C251.418 34.3859 249.783 33.9771 248.305 33.1596C246.859 32.3422 245.711 31.1946 244.863 29.7168C244.014 28.2391 243.589 26.5884 243.589 24.7648C243.589 22.9412 244.061 21.1962 245.004 19.5298C245.947 17.832 247.236 16.4643 248.871 15.4267C250.506 14.3892 252.283 13.8704 254.201 13.8704C256.024 13.8704 257.691 14.3106 259.2 15.1909C260.74 16.0713 261.951 17.2503 262.831 18.7281C263.712 20.2058 264.152 21.7936 264.152 23.4914C264.152 25.4408 263.727 27.2487 262.878 28.9151C262.061 30.5815 260.819 31.9177 259.153 32.9238C257.518 33.8985 255.537 34.3859 253.21 34.3859ZM254.201 32.7352C256.15 32.7352 257.533 31.9963 258.351 30.5186C259.011 29.2924 259.341 27.3273 259.341 24.6233C259.341 23.0513 259.09 21.5735 258.587 20.1901C258.084 18.8067 257.376 17.6905 256.464 16.8416C255.584 15.9927 254.562 15.5682 253.399 15.5682C252.644 15.5682 251.984 15.694 251.418 15.9455C250.852 16.1656 250.333 16.5586 249.862 17.1246C249.327 17.8163 248.95 18.7123 248.73 19.8128C248.51 20.8818 248.4 22.1709 248.4 23.6801C248.4 25.2207 248.651 26.6827 249.154 28.0661C249.657 29.4496 250.349 30.5815 251.229 31.4618C252.141 32.3107 253.132 32.7352 254.201 32.7352ZM275.725 34.9518C275.505 34.9518 275.348 34.8103 275.254 34.5273L268.604 18.1621C268.384 17.5333 268.054 16.9988 267.613 16.5586C267.173 16.1184 266.702 15.8197 266.198 15.6625C265.507 15.4424 265.161 15.1438 265.161 14.7665C265.161 14.452 265.491 14.2948 266.151 14.2948C266.843 14.2948 267.503 14.342 268.132 14.4363C268.887 14.4992 269.516 14.5306 270.019 14.5306C270.522 14.5306 271.213 14.4992 272.094 14.4363C272.785 14.342 273.509 14.2948 274.263 14.2948C274.483 14.2948 274.703 14.342 274.923 14.4363C275.144 14.4992 275.254 14.6093 275.254 14.7665C275.254 14.9551 275.175 15.1123 275.018 15.2381C274.892 15.3324 274.735 15.4267 274.546 15.5211C274.389 15.5839 274.263 15.6311 274.169 15.6625C273.509 15.8512 273.178 16.4643 273.178 17.5019C273.178 17.8792 273.273 18.3508 273.461 18.9167L276.81 27.6417C276.873 27.736 276.936 27.7832 276.999 27.7832C277.093 27.7832 277.156 27.736 277.187 27.6417L280.394 20.0958C280.614 19.4669 280.724 18.8067 280.724 18.115C280.724 17.5805 280.504 17.1088 280.064 16.7001C279.624 16.2599 279.105 15.9141 278.508 15.6625C278.162 15.5368 277.91 15.4267 277.753 15.3324C277.596 15.2066 277.517 15.018 277.517 14.7665C277.517 14.452 277.863 14.2948 278.555 14.2948C278.869 14.2948 279.404 14.3263 280.158 14.3892C280.756 14.4835 281.463 14.5306 282.281 14.5306C283.193 14.5306 283.994 14.4835 284.686 14.3892C285.566 14.3263 286.179 14.2948 286.525 14.2948C287.186 14.2948 287.516 14.4678 287.516 14.8136C287.516 15.0337 287.421 15.2066 287.233 15.3324C287.076 15.4267 286.808 15.5368 286.431 15.6625C285.991 15.8197 285.645 16.0241 285.393 16.2756C285.142 16.4957 285.016 16.8416 285.016 17.3132C285.016 17.8477 285.126 18.3822 285.346 18.9167L288.648 27.4059C288.742 27.6574 288.836 27.7832 288.931 27.7832C289.025 27.7832 289.119 27.6731 289.214 27.453L292.468 19.6713C292.688 19.1368 292.798 18.508 292.798 17.7848C292.798 17.2818 292.641 16.8416 292.326 16.4643C292.012 16.087 291.65 15.8355 291.242 15.7097C290.864 15.5839 290.581 15.4582 290.393 15.3324C290.235 15.2066 290.157 15.0337 290.157 14.8136C290.157 14.4992 290.487 14.342 291.147 14.342C291.713 14.342 292.311 14.3734 292.939 14.4363C293.568 14.4992 294.118 14.5306 294.59 14.5306C295.125 14.5306 295.643 14.4992 296.146 14.4363C296.649 14.3734 297.09 14.342 297.467 14.342C298.127 14.342 298.457 14.4992 298.457 14.8136C298.457 15.1595 298.127 15.4582 297.467 15.7097C296.964 15.8669 296.476 16.2285 296.005 16.7944C295.565 17.3289 295.187 17.9735 294.873 18.7281L288.365 34.5273C288.27 34.7789 288.082 34.9046 287.799 34.9046C287.61 34.9046 287.437 34.7789 287.28 34.5273L282.045 21.8879C282.013 21.6993 281.935 21.605 281.809 21.605C281.746 21.605 281.668 21.715 281.573 21.9351L276.291 34.5273C276.134 34.8103 275.945 34.9518 275.725 34.9518ZM300.39 33.8671C300.107 33.8671 299.871 33.8199 299.683 33.7256C299.526 33.6313 299.447 33.4898 299.447 33.3011C299.447 33.081 299.526 32.9081 299.683 32.7823C299.871 32.6566 300.154 32.5465 300.532 32.4522C301.161 32.295 301.632 32.1064 301.947 31.8863C302.292 31.6347 302.465 31.226 302.465 30.6601V20.2844C302.465 19.3726 302.355 18.6809 302.135 18.2093C301.915 17.7062 301.475 17.3604 300.815 17.1717C300.5 17.1088 300.343 16.8887 300.343 16.5115C300.343 16.1027 300.485 15.8826 300.768 15.8512C302.78 15.3167 304.603 14.5149 306.238 13.4459C306.49 13.2573 306.694 13.163 306.851 13.163C307.071 13.163 307.182 13.3044 307.182 13.5874L307.087 14.5306C307.056 14.7507 307.024 15.0337 306.993 15.3796C306.961 15.7254 306.946 16.087 306.946 16.4643C306.946 16.8101 306.977 17.0145 307.04 17.0774C308.141 16.0084 309.288 15.2224 310.483 14.7193C311.678 14.1848 312.998 13.9175 314.444 13.9175C316.017 13.9175 317.321 14.5464 318.359 15.804C319.396 17.0302 319.915 18.6023 319.915 20.5202V30.7072C319.915 31.2732 320.072 31.6505 320.387 31.8391C320.701 32.0278 321.204 32.2321 321.896 32.4522C322.588 32.7037 322.934 33.0024 322.934 33.3483C322.934 33.6941 322.635 33.8671 322.038 33.8671C321.157 33.8671 320.403 33.8199 319.774 33.7256C318.956 33.6627 318.296 33.6313 317.793 33.6313C317.29 33.6313 316.63 33.6627 315.812 33.7256C315.215 33.8199 314.46 33.8671 313.548 33.8671C313.328 33.8671 313.124 33.8199 312.935 33.7256C312.747 33.6627 312.652 33.5369 312.652 33.3483C312.652 33.0024 312.998 32.7037 313.69 32.4522C314.382 32.2321 314.869 32.0278 315.152 31.8391C315.466 31.6505 315.624 31.2732 315.624 30.7072V20.9447C315.624 19.6556 315.278 18.6495 314.586 17.9263C313.894 17.1717 312.967 16.7787 311.803 16.7473C310.074 16.7473 308.534 17.2975 307.182 18.3979C306.93 18.6495 306.804 18.9796 306.804 19.3883V30.7072C306.804 31.2732 306.961 31.6662 307.276 31.8863C307.59 32.1064 308.062 32.295 308.691 32.4522C309.382 32.6409 309.728 32.9238 309.728 33.3011C309.728 33.6784 309.43 33.8671 308.832 33.8671C307.983 33.8671 307.244 33.8199 306.616 33.7256C305.861 33.6627 305.216 33.6313 304.682 33.6313C304.179 33.6313 303.519 33.6627 302.701 33.7256C302.041 33.8199 301.271 33.8671 300.39 33.8671ZM335.946 33.8671C335.317 33.8671 335.003 33.6784 335.003 33.3011C335.003 33.081 335.081 32.9081 335.239 32.7823C335.396 32.6566 335.647 32.5623 335.993 32.4994C336.779 32.2793 337.314 32.0435 337.597 31.7919C337.88 31.509 338.021 31.0688 338.021 30.4714V17.1246C337.046 17.1246 336.229 17.0931 335.569 17.0302C335.443 16.9988 335.301 16.873 335.144 16.6529C334.987 16.4014 334.908 16.1813 334.908 15.9927C334.908 15.8669 335.034 15.7569 335.286 15.6625C335.977 15.3481 336.889 14.9079 338.021 14.342C338.084 11.0407 338.681 8.35243 339.813 6.2773C340.977 4.20217 342.391 2.70871 344.058 1.79691C345.724 0.885107 347.375 0.429208 349.01 0.429208C350.865 0.429208 352.248 0.69646 353.16 1.23096C354.072 1.76546 354.528 2.53578 354.528 3.5419C354.528 4.20217 354.371 4.72095 354.056 5.09825C353.742 5.4441 353.333 5.61703 352.83 5.61703C352.578 5.61703 352.327 5.5227 352.075 5.33406C351.855 5.14541 351.557 4.84672 351.179 4.43798C350.613 3.84059 350.016 3.36897 349.387 3.02312C348.758 2.64582 347.972 2.45717 347.029 2.45717C345.583 2.45717 344.435 3.086 343.586 4.34365C342.769 5.60131 342.36 7.47207 342.36 9.95593V14.0119C342.36 14.3577 342.564 14.5306 342.973 14.5306H348.633C348.853 14.5306 349.01 14.5935 349.104 14.7193C349.23 14.8136 349.293 14.9551 349.293 15.1438C349.293 15.7411 349.199 16.2285 349.01 16.6058C348.853 16.8573 348.711 16.9831 348.585 16.9831H343.539C343.067 16.9831 342.753 17.046 342.596 17.1717C342.439 17.2975 342.36 17.5019 342.36 17.7848V30.1884C342.36 30.9116 342.564 31.4304 342.973 31.7448C343.382 32.0592 344.215 32.295 345.473 32.4522C345.819 32.5151 346.07 32.6094 346.227 32.7352C346.385 32.8609 346.463 33.0339 346.463 33.254C346.463 33.4426 346.385 33.5998 346.227 33.7256C346.07 33.8199 345.866 33.8671 345.614 33.8671C344.64 33.8671 343.696 33.8199 342.784 33.7256C341.653 33.6627 340.819 33.6313 340.285 33.6313C339.75 33.6313 339.074 33.6627 338.257 33.7256C337.597 33.8199 336.826 33.8671 335.946 33.8671ZM359.509 34.3859C357.717 34.3859 356.082 33.9771 354.604 33.1596C353.158 32.3422 352.01 31.1946 351.161 29.7168C350.312 28.2391 349.888 26.5884 349.888 24.7648C349.888 22.9412 350.359 21.1962 351.303 19.5298C352.246 17.832 353.535 16.4643 355.17 15.4267C356.805 14.3892 358.581 13.8704 360.499 13.8704C362.323 13.8704 363.989 14.3106 365.498 15.1909C367.039 16.0713 368.25 17.2503 369.13 18.7281C370.01 20.2058 370.45 21.7936 370.45 23.4914C370.45 25.4408 370.026 27.2487 369.177 28.9151C368.36 30.5815 367.118 31.9177 365.451 32.9238C363.816 33.8985 361.836 34.3859 359.509 34.3859ZM360.499 32.7352C362.449 32.7352 363.832 31.9963 364.65 30.5186C365.31 29.2924 365.64 27.3273 365.64 24.6233C365.64 23.0513 365.388 21.5735 364.885 20.1901C364.382 18.8067 363.675 17.6905 362.763 16.8416C361.883 15.9927 360.861 15.5682 359.698 15.5682C358.943 15.5682 358.283 15.694 357.717 15.9455C357.151 16.1656 356.632 16.5586 356.16 17.1246C355.626 17.8163 355.249 18.7123 355.029 19.8128C354.808 20.8818 354.698 22.1709 354.698 23.6801C354.698 25.2207 354.95 26.6827 355.453 28.0661C355.956 29.4496 356.648 30.5815 357.528 31.4618C358.44 32.3107 359.43 32.7352 360.499 32.7352ZM371.81 33.9142C371.149 33.9142 370.819 33.757 370.819 33.4426C370.819 33.2225 370.898 33.0496 371.055 32.9238C371.212 32.7981 371.464 32.6723 371.81 32.5465C372.281 32.3893 372.737 32.1378 373.177 31.7919C373.618 31.4146 374.136 30.8015 374.734 29.9526L378.648 24.6233C378.837 24.4032 378.931 24.1989 378.931 24.0102C378.931 23.8216 378.868 23.6486 378.743 23.4914L374.97 17.832C374.529 17.1403 374.152 16.6529 373.838 16.37C373.555 16.0556 373.193 15.8355 372.753 15.7097C372.407 15.5839 372.14 15.4582 371.951 15.3324C371.794 15.2066 371.715 15.0337 371.715 14.8136C371.715 14.4992 372.03 14.342 372.659 14.342C373.35 14.342 374.042 14.3734 374.734 14.4363C375.425 14.4992 376.149 14.5306 376.903 14.5306L378.507 14.4835C379.136 14.4206 379.686 14.3892 380.157 14.3892C380.881 14.3892 381.242 14.5621 381.242 14.9079C381.242 15.0652 381.179 15.1909 381.053 15.2852C380.959 15.3481 380.818 15.411 380.629 15.4739C380.472 15.5368 380.362 15.5839 380.299 15.6154C379.922 15.7411 379.639 15.8669 379.45 15.9927C379.293 16.1184 379.214 16.3071 379.214 16.5586C379.214 16.9045 379.419 17.3918 379.827 18.0206L381.997 21.2748C382.154 21.4635 382.295 21.4635 382.421 21.2748L384.496 18.0206C384.811 17.549 384.968 17.0774 384.968 16.6058C384.968 16.1656 384.732 15.8826 384.26 15.7569C384.198 15.7254 384.056 15.6625 383.836 15.5682C383.647 15.4739 383.49 15.3796 383.364 15.2852C383.27 15.1595 383.223 15.018 383.223 14.8608C383.223 14.5464 383.584 14.3892 384.308 14.3892L385.675 14.4363C385.958 14.4678 386.367 14.4835 386.902 14.4835C387.467 14.4835 388.096 14.452 388.788 14.3892C389.228 14.3263 389.59 14.2948 389.873 14.2948C390.564 14.2948 390.91 14.452 390.91 14.7665C390.91 15.1438 390.564 15.4424 389.873 15.6625C388.584 16.1027 387.562 16.8573 386.807 17.9263L383.695 22.4067C383.6 22.5325 383.553 22.6582 383.553 22.784C383.553 22.9098 383.6 23.067 383.695 23.2556L388.081 30.2828C388.804 31.4461 389.668 32.185 390.674 32.4994C391.02 32.6251 391.272 32.7509 391.429 32.8767C391.586 33.0024 391.665 33.1754 391.665 33.3955C391.665 33.7099 391.335 33.8671 390.674 33.8671C390.014 33.8671 389.307 33.8356 388.552 33.7727C387.735 33.7099 386.949 33.6784 386.194 33.6784C385.722 33.6784 385.047 33.7099 384.166 33.7727L382.091 33.8199C381.714 33.8199 381.431 33.7727 381.242 33.6784C381.053 33.5527 380.959 33.4269 380.959 33.3011C380.959 33.0496 381.053 32.8609 381.242 32.7352C381.431 32.578 381.729 32.4522 382.138 32.3579C383.019 32.1064 383.459 31.6505 383.459 30.9902C383.459 30.6129 383.333 30.2356 383.081 29.8583L380.44 25.6609C380.409 25.6294 380.362 25.6137 380.299 25.6137C380.236 25.6137 380.189 25.6294 380.157 25.6609L377.328 30.0469C377.076 30.4557 376.95 30.8801 376.95 31.3203C376.95 31.9177 377.202 32.295 377.705 32.4522C378.051 32.578 378.302 32.7037 378.46 32.8295C378.648 32.9238 378.743 33.081 378.743 33.3011C378.743 33.647 378.381 33.8199 377.658 33.8199L376.243 33.7727C375.929 33.7413 375.52 33.7256 375.017 33.7256C374.419 33.7256 373.743 33.757 372.989 33.8199C372.486 33.8828 372.093 33.9142 371.81 33.9142ZM402.038 47.2611C401.692 47.2611 401.393 47.2139 401.142 47.1196C400.859 47.0253 400.717 46.8838 400.717 46.6951C400.717 46.5065 400.796 46.3336 400.953 46.1764C401.079 46.0191 401.221 45.9091 401.378 45.8462C401.975 45.6261 402.51 45.296 402.981 44.8558C403.484 44.4471 403.94 43.8183 404.349 42.9693C404.915 41.7431 405.308 39.9667 405.528 37.64C405.748 35.3448 405.858 33.0496 405.858 30.7544V20.5202C405.858 18.5394 405.135 17.4233 403.689 17.1717C403.563 17.1403 403.453 17.0617 403.359 16.9359C403.296 16.7787 403.264 16.6215 403.264 16.4643C403.264 16.3071 403.296 16.1813 403.359 16.087C403.453 15.9612 403.563 15.8826 403.689 15.8512C404.821 15.5997 405.811 15.2695 406.66 14.8608C407.509 14.4206 408.421 13.9175 409.395 13.3516C409.898 13.1315 410.15 13.0215 410.15 13.0215C410.433 13.0215 410.574 13.1472 410.574 13.3988C410.291 16.2285 410.15 18.618 410.15 20.5674L410.197 29.4338C410.197 31.5404 410.087 33.5527 409.867 35.4706C409.678 37.4199 409.269 39.2278 408.641 40.8942C407.98 42.5292 406.974 43.9912 405.622 45.2803C404.302 46.6008 403.107 47.2611 402.038 47.2611ZM407.697 9.76729C406.911 9.76729 406.235 9.50003 405.669 8.96553C405.135 8.39959 404.868 7.7236 404.868 6.93757C404.868 6.12009 405.135 5.4441 405.669 4.9096C406.235 4.34366 406.911 4.06068 407.697 4.06068C408.515 4.06068 409.207 4.34366 409.773 4.9096C410.339 5.4441 410.621 6.12009 410.621 6.93757C410.621 7.7236 410.339 8.39959 409.773 8.96553C409.207 9.50003 408.515 9.76729 407.697 9.76729ZM430.205 34.6688C429.953 34.6688 429.827 34.5273 429.827 34.2444L429.922 32.8767C430.016 32.3107 430.063 31.7919 430.063 31.3203V30.943C427.862 33.2382 425.3 34.3859 422.376 34.3859C420.835 34.3859 419.562 33.8514 418.556 32.7823C417.581 31.7133 417.094 30.267 417.094 28.4434V19.1054C417.094 18.4137 416.937 17.8634 416.622 17.4547C416.308 17.0145 415.805 16.6844 415.113 16.4643C414.673 16.3385 414.453 16.0713 414.453 15.6625C414.453 15.1909 414.688 14.9237 415.16 14.8608C416.229 14.7979 417.125 14.7036 417.848 14.5778C418.571 14.452 419.483 14.2477 420.584 13.9647C420.898 13.9018 421.103 13.8704 421.197 13.8704C421.574 13.8704 421.747 14.0905 421.716 14.5306C421.496 15.8826 421.385 17.0931 421.385 18.1621V27.3116C421.385 28.4434 421.747 29.4181 422.47 30.2356C423.193 31.0216 424.027 31.4304 424.97 31.4618C425.787 31.4618 426.463 31.3989 426.998 31.2732C427.532 31.1474 428.051 30.8801 428.554 30.4714C429.686 29.591 430.252 28.4749 430.252 27.1229V18.8696C430.252 18.0521 429.938 17.4547 429.309 17.0774C428.711 16.6687 428.051 16.4486 427.328 16.4171C426.636 16.4171 426.29 16.1342 426.29 15.5682C426.29 15.0337 426.636 14.7665 427.328 14.7665C429.057 14.7036 430.346 14.625 431.195 14.5306C432.076 14.4049 432.972 14.2162 433.883 13.9647C434.072 13.9018 434.245 13.8704 434.402 13.8704C434.591 13.8704 434.748 13.9175 434.874 14.0119C435 14.1062 435.062 14.232 435.062 14.3892C435.062 14.4835 435.047 14.5778 435.015 14.6721C434.984 14.735 434.952 14.8136 434.921 14.9079C434.858 15.2852 434.779 15.8355 434.685 16.5586C434.622 17.2818 434.591 17.832 434.591 18.2093V29.1037C434.591 30.55 434.874 31.2732 435.44 31.2732L437.326 31.1788C437.829 31.1788 438.081 31.4146 438.081 31.8863C438.081 32.3264 437.845 32.578 437.373 32.6409C436.179 32.7981 435.11 33.0182 434.166 33.3011C433.255 33.5841 432.28 33.93 431.242 34.3387C430.802 34.5588 430.456 34.6688 430.205 34.6688ZM440.541 33.8671C439.912 33.8671 439.597 33.6784 439.597 33.3011C439.597 33.081 439.676 32.9238 439.833 32.8295C440.022 32.7037 440.305 32.578 440.682 32.4522C441.342 32.2321 441.83 32.0278 442.144 31.8391C442.459 31.619 442.616 31.226 442.616 30.6601V20.2844C442.616 19.3726 442.506 18.6652 442.286 18.1621C442.066 17.6276 441.625 17.2975 440.965 17.1717C440.651 17.1088 440.493 16.8887 440.493 16.5115C440.493 16.1027 440.635 15.8826 440.918 15.8512C442.05 15.5682 443.009 15.2381 443.795 14.8608C444.581 14.4835 445.493 13.9804 446.53 13.3516C446.782 13.2258 446.939 13.163 447.002 13.163C447.222 13.163 447.332 13.2887 447.332 13.5402L447.238 14.5778C447.206 14.7979 447.175 15.0809 447.143 15.4267C447.112 15.7726 447.096 16.1342 447.096 16.5115C447.096 16.8259 447.128 17.0145 447.19 17.0774H447.285C449.454 14.9708 451.859 13.9175 454.501 13.9175C456.701 13.9175 458.258 15.0494 459.17 17.3132H459.311C461.575 15.0494 464.074 13.9175 466.81 13.9175C468.288 13.9175 469.467 14.5621 470.347 15.8512C471.259 17.1088 471.715 18.6652 471.715 20.5202V30.7072C471.715 31.2732 471.856 31.6505 472.139 31.8391C472.454 32.0278 472.957 32.2321 473.648 32.4522C473.994 32.5465 474.246 32.6566 474.403 32.7823C474.592 32.9081 474.686 33.081 474.686 33.3011C474.686 33.6784 474.387 33.8671 473.79 33.8671C472.941 33.8671 472.202 33.8199 471.573 33.7256C470.819 33.6627 470.174 33.6313 469.64 33.6313C469.105 33.6313 468.461 33.6627 467.706 33.7256C467.109 33.8199 466.37 33.8671 465.489 33.8671C464.892 33.8671 464.593 33.6784 464.593 33.3011C464.593 33.081 464.672 32.9081 464.829 32.7823C465.018 32.6566 465.285 32.5465 465.631 32.4522C466.197 32.295 466.621 32.1064 466.904 31.8863C467.219 31.6662 467.376 31.3046 467.376 30.8015V20.9447C467.376 19.8128 467.046 18.8224 466.385 17.9735C465.725 17.1246 464.939 16.7001 464.027 16.7001C462.581 16.7001 461.37 17.1088 460.396 17.9263C459.673 18.4923 459.311 19.4512 459.311 20.8032V30.7072C459.311 31.2732 459.468 31.6662 459.783 31.8863C460.097 32.1064 460.569 32.295 461.198 32.4522C461.543 32.578 461.795 32.7037 461.952 32.8295C462.141 32.9238 462.235 33.081 462.235 33.3011C462.235 33.6784 461.936 33.8671 461.339 33.8671C460.49 33.8671 459.751 33.8199 459.122 33.7256C458.368 33.6627 457.723 33.6313 457.189 33.6313C456.654 33.6313 456.01 33.6627 455.255 33.7256C454.658 33.8199 453.919 33.8671 453.039 33.8671C452.787 33.8671 452.567 33.8199 452.378 33.7256C452.221 33.6313 452.142 33.4898 452.142 33.3011C452.142 33.081 452.221 32.9238 452.378 32.8295C452.567 32.7037 452.834 32.578 453.18 32.4522C453.746 32.295 454.186 32.1064 454.501 31.8863C454.815 31.6662 454.972 31.3046 454.972 30.8015V20.9447C454.972 19.8128 454.642 18.8381 453.982 18.0206C453.353 17.1717 452.567 16.7315 451.624 16.7001C450.24 16.7001 449.03 17.1088 447.992 17.9263C447.3 18.3979 446.955 19.3412 446.955 20.756V30.7072C446.955 31.2417 447.096 31.619 447.379 31.8391C447.662 32.0592 448.102 32.2636 448.7 32.4522C449.045 32.578 449.297 32.7037 449.454 32.8295C449.643 32.9238 449.737 33.081 449.737 33.3011C449.737 33.6784 449.438 33.8671 448.841 33.8671C447.961 33.8671 447.238 33.8199 446.672 33.7256C445.917 33.6627 445.288 33.6313 444.785 33.6313C444.282 33.6313 443.622 33.6627 442.804 33.7256C442.207 33.8199 441.452 33.8671 440.541 33.8671ZM477.52 46.7895C477.3 46.7895 477.079 46.7423 476.859 46.648C476.639 46.5537 476.529 46.4279 476.529 46.2707C476.529 45.9248 476.891 45.6261 477.614 45.3746C478.306 45.1545 478.793 44.9344 479.076 44.7143C479.39 44.4942 479.548 44.1169 479.548 43.5824V20.1429C479.548 19.577 479.359 18.9482 478.982 18.2564C478.604 17.5333 478.101 17.1088 477.473 16.9831C477.158 16.8887 477.001 16.6529 477.001 16.2756C477.001 15.8983 477.142 15.6783 477.425 15.6154C479.186 15.2066 481.151 14.5306 483.321 13.5874C483.383 13.556 483.431 13.5245 483.462 13.4931C483.525 13.4616 483.604 13.4459 483.698 13.4459C483.792 13.4459 483.871 13.5088 483.934 13.6346C483.997 13.7289 484.028 13.8232 484.028 13.9175L483.934 15.0966C483.839 15.6625 483.792 16.2128 483.792 16.7473C483.792 16.9988 483.808 17.1403 483.839 17.1717C484.185 16.8259 484.783 16.4014 485.632 15.8983C486.48 15.3953 487.424 14.9551 488.461 14.5778C489.53 14.2005 490.521 14.0119 491.432 14.0119C493.005 14.0119 494.372 14.452 495.536 15.3324C496.73 16.1813 497.642 17.2975 498.271 18.6809C498.931 20.0643 499.261 21.5106 499.261 23.0198C499.261 24.9063 498.774 26.7299 497.799 28.4906C496.825 30.2513 495.52 31.6819 493.885 32.7823C492.25 33.8828 490.458 34.433 488.508 34.433C487.848 34.433 487.062 34.2915 486.15 34.0086C485.239 33.757 484.547 33.4583 484.075 33.1125C484.012 33.1125 483.965 33.3483 483.934 33.8199C483.902 34.323 483.887 34.716 483.887 34.999V43.441C483.887 43.9755 484.075 44.3528 484.452 44.5728C484.83 44.8244 485.239 45.013 485.679 45.1388C486.119 45.296 486.402 45.3903 486.528 45.4218C486.873 45.5475 487.141 45.6576 487.329 45.7519C487.518 45.8777 487.612 46.0506 487.612 46.2707C487.612 46.4279 487.502 46.5537 487.282 46.648C487.094 46.7423 486.873 46.7895 486.622 46.7895C485.71 46.7895 484.861 46.7423 484.075 46.648C483.069 46.5851 482.299 46.5537 481.764 46.5537C481.198 46.5537 480.538 46.5851 479.783 46.648C479.123 46.7423 478.369 46.7895 477.52 46.7895ZM488.933 32.7352C489.593 32.7352 490.348 32.4679 491.197 31.9334C492.077 31.3675 492.832 30.4871 493.46 29.2924C494.121 28.0661 494.451 26.5098 494.451 24.6233C494.451 21.5106 493.838 19.3883 492.612 18.2564C491.385 17.0931 490.08 16.5115 488.697 16.5115C488.037 16.5115 487.329 16.6529 486.575 16.9359C485.852 17.2189 485.239 17.549 484.735 17.9263C484.232 18.3036 483.981 18.618 483.981 18.8696L483.934 23.6801C483.902 24.4347 483.887 25.2836 483.887 26.2268C483.887 27.2958 484.122 28.3334 484.594 29.3395C485.097 30.3456 485.742 31.1631 486.528 31.7919C487.314 32.4208 488.115 32.7352 488.933 32.7352ZM507.858 34.3859C505.751 34.3859 504.022 33.8356 502.67 32.7352C502.481 32.3893 502.324 31.7919 502.198 30.943C502.104 30.0627 502.057 29.2138 502.057 28.3963C502.057 28.0819 502.293 27.9247 502.764 27.9247C502.921 27.9247 503.063 27.9718 503.189 28.0661C503.346 28.129 503.456 28.2234 503.519 28.3491C503.959 29.7954 504.604 30.9116 505.453 31.6976C506.301 32.4522 507.245 32.8295 508.282 32.8295C509.163 32.8295 509.886 32.5465 510.452 31.9806C511.018 31.3832 511.301 30.6758 511.301 29.8583C511.301 29.0408 511.018 28.3491 510.452 27.7832C509.917 27.1858 508.99 26.4941 507.669 25.708C506.034 24.7648 504.824 23.8373 504.038 22.9255C503.252 21.9822 502.859 20.8661 502.859 19.577C502.859 17.9106 503.472 16.5429 504.698 15.4739C505.924 14.4049 507.575 13.8704 509.65 13.8704C510.562 13.8704 511.379 13.9647 512.102 14.1534C512.857 14.342 513.407 14.5621 513.753 14.8136C514.005 15.1595 514.209 15.7254 514.366 16.5115C514.555 17.266 514.649 18.0521 514.649 18.8696C514.649 18.9953 514.586 19.0896 514.46 19.1525C514.335 19.2154 514.193 19.2468 514.036 19.2468C513.816 19.2468 513.596 19.1997 513.376 19.1054C513.187 18.9796 513.077 18.8538 513.046 18.7281C512.165 16.4957 510.908 15.3796 509.273 15.3796C508.487 15.3796 507.795 15.6311 507.198 16.1342C506.632 16.6058 506.349 17.2346 506.349 18.0206C506.349 18.7123 506.6 19.3412 507.103 19.9071C507.606 20.4416 508.439 21.039 509.603 21.6993C511.615 22.8312 513.03 23.8687 513.847 24.812C514.696 25.7238 515.121 26.9028 515.121 28.3491C515.121 30.2042 514.46 31.6819 513.14 32.7823C511.819 33.8514 510.059 34.3859 507.858 34.3859ZM537.656 34.3859C535.864 34.3859 534.229 33.9771 532.751 33.1596C531.305 32.3422 530.157 31.1946 529.308 29.7168C528.459 28.2391 528.035 26.5884 528.035 24.7648C528.035 22.9412 528.507 21.1962 529.45 19.5298C530.393 17.832 531.682 16.4643 533.317 15.4267C534.952 14.3892 536.728 13.8704 538.646 13.8704C540.47 13.8704 542.136 14.3106 543.646 15.1909C545.186 16.0713 546.397 17.2503 547.277 18.7281C548.157 20.2058 548.598 21.7936 548.598 23.4914C548.598 25.4408 548.173 27.2487 547.324 28.9151C546.507 30.5815 545.265 31.9177 543.598 32.9238C541.963 33.8985 539.983 34.3859 537.656 34.3859ZM538.646 32.7352C540.596 32.7352 541.979 31.9963 542.797 30.5186C543.457 29.2924 543.787 27.3273 543.787 24.6233C543.787 23.0513 543.536 21.5735 543.032 20.1901C542.529 18.8067 541.822 17.6905 540.91 16.8416C540.03 15.9927 539.008 15.5682 537.845 15.5682C537.09 15.5682 536.43 15.694 535.864 15.9455C535.298 16.1656 534.779 16.5586 534.308 17.1246C533.773 17.8163 533.396 18.7123 533.176 19.8128C532.956 20.8818 532.845 22.1709 532.845 23.6801C532.845 25.2207 533.097 26.6827 533.6 28.0661C534.103 29.4496 534.795 30.5815 535.675 31.4618C536.587 32.3107 537.577 32.7352 538.646 32.7352ZM559.888 34.716C559.731 34.716 559.542 34.433 559.322 33.8671C559.102 33.3011 558.961 32.9553 558.898 32.8295L557.577 29.3395C556.76 27.2644 555.848 25.0949 554.842 22.8312L552.861 18.1621C552.609 17.5333 552.264 16.9988 551.823 16.5586C551.415 16.087 550.959 15.7726 550.456 15.6154C550.141 15.4896 549.921 15.3796 549.795 15.2852C549.67 15.1595 549.607 14.9865 549.607 14.7665C549.607 14.452 549.937 14.2948 550.597 14.2948C551.478 14.2948 552.169 14.342 552.672 14.4363C553.301 14.4992 553.899 14.5306 554.464 14.5306C555.03 14.5306 555.691 14.4992 556.445 14.4363C557.074 14.342 557.813 14.2948 558.662 14.2948C558.882 14.2948 559.102 14.342 559.322 14.4363C559.542 14.4992 559.652 14.6093 559.652 14.7665C559.652 14.9865 559.574 15.1438 559.416 15.2381C559.291 15.3324 559.134 15.4267 558.945 15.5211C558.756 15.5839 558.63 15.6311 558.568 15.6625C558.253 15.7883 558.002 16.0241 557.813 16.37C557.656 16.7158 557.577 17.1246 557.577 17.5962C557.577 18.225 557.64 18.6809 557.766 18.9639L561.303 28.1133C561.366 28.1447 561.413 28.1447 561.444 28.1133L564.746 19.5298C564.966 18.9953 565.076 18.3979 565.076 17.7377C565.076 17.1717 564.966 16.7315 564.746 16.4171C564.557 16.0713 564.227 15.8197 563.755 15.6625C563.347 15.5368 563.064 15.4267 562.906 15.3324C562.749 15.2066 562.671 15.0337 562.671 14.8136C562.671 14.4678 563.001 14.2948 563.661 14.2948C563.944 14.2948 564.337 14.3263 564.84 14.3892C565.72 14.452 566.459 14.4835 567.057 14.4835C567.623 14.4835 568.22 14.452 568.849 14.3892C569.289 14.3263 569.682 14.2948 570.028 14.2948C570.688 14.2948 571.018 14.452 571.018 14.7665C571.018 14.9865 570.94 15.1595 570.783 15.2852C570.625 15.411 570.358 15.5368 569.981 15.6625C569.478 15.8197 568.943 16.197 568.377 16.7944C567.843 17.3604 567.434 18.0206 567.151 18.7752L563.472 27.7832C563.189 28.3806 562.875 29.1194 562.529 29.9998C562.183 30.8487 561.932 31.509 561.775 31.9806C561.712 32.1378 561.523 32.578 561.209 33.3011C560.894 33.9928 560.643 34.4645 560.454 34.716H559.888ZM579.726 34.433C578.029 34.433 576.519 33.9928 575.199 33.1125C573.878 32.2321 572.841 31.0216 572.086 29.481C571.363 27.9089 571.001 26.1168 571.001 24.1045C571.001 22.2809 571.426 20.5988 572.275 19.0582C573.155 17.4861 574.318 16.2442 575.765 15.3324C577.243 14.3892 578.83 13.9175 580.528 13.9175C582.477 13.9175 584.081 14.4992 585.339 15.6625C586.628 16.8259 587.272 18.2879 587.272 20.0486C587.272 20.5831 587.147 20.9761 586.895 21.2277C586.675 21.4792 586.313 21.605 585.81 21.605H576.048C575.608 21.605 575.293 21.7307 575.104 21.9822C574.947 22.2338 574.869 22.6897 574.869 23.3499C574.869 24.7334 575.167 26.0067 575.765 27.1701C576.362 28.3334 577.18 29.2609 578.217 29.9526C579.286 30.6129 580.45 30.943 581.707 30.943C583.468 30.943 585.04 30.2513 586.423 28.8679C586.581 28.6164 586.754 28.4906 586.942 28.4906C587.225 28.4906 587.367 28.6635 587.367 29.0094C587.367 29.481 587.147 30.0784 586.706 30.8015C586.046 31.8705 585.087 32.7509 583.829 33.4426C582.603 34.1029 581.236 34.433 579.726 34.433ZM579.868 20.0014C581.283 20.0014 582.367 19.9228 583.122 19.7656C583.405 19.6713 583.546 19.2783 583.546 18.5866C583.546 17.7062 583.185 16.9674 582.462 16.37C581.739 15.7411 580.874 15.4267 579.868 15.4267C579.208 15.4267 578.532 15.6311 577.84 16.0398C577.148 16.4486 576.582 16.9674 576.142 17.5962C575.733 18.225 575.529 18.8381 575.529 19.4355C575.529 19.8128 575.733 20.0014 576.142 20.0014H579.868ZM590.781 33.8671C590.152 33.8671 589.837 33.6784 589.837 33.3011C589.837 33.081 589.916 32.9081 590.073 32.7823C590.262 32.6566 590.545 32.5465 590.922 32.4522C591.551 32.3264 592.007 32.1221 592.29 31.8391C592.573 31.5247 592.714 31.1317 592.714 30.6601V20.2844C592.714 19.4355 592.589 18.7595 592.337 18.2564C592.086 17.7219 591.63 17.3761 590.969 17.2189C590.844 17.1874 590.718 17.1088 590.592 16.9831C590.498 16.8573 590.451 16.7001 590.451 16.5115C590.451 16.197 590.608 15.9769 590.922 15.8512C591.74 15.6311 592.636 15.301 593.61 14.8608C594.617 14.4206 595.481 13.9961 596.204 13.5874C596.613 13.3359 596.896 13.2101 597.053 13.2101C597.273 13.2101 597.383 13.3359 597.383 13.5874L597.242 17.2189C597.242 17.3446 597.273 17.4075 597.336 17.4075C598.154 16.37 599.05 15.5211 600.024 14.8608C601.031 14.2005 602.005 13.8704 602.949 13.8704C603.766 13.8704 604.395 14.0433 604.835 14.3892C605.275 14.7036 605.495 15.128 605.495 15.6625C605.495 16.2599 605.259 16.8887 604.788 17.549C604.348 18.2093 603.86 18.5394 603.326 18.5394C603.074 18.5394 602.571 18.3665 601.817 18.0206C601.691 17.9578 601.455 17.8634 601.109 17.7377C600.795 17.5805 600.512 17.5019 600.26 17.5019C599.348 17.5019 598.594 17.8163 597.997 18.4451C597.399 19.0739 597.1 20.1429 597.1 21.6521V30.5186C597.1 30.9902 597.289 31.3675 597.666 31.6505C598.044 31.9334 598.672 32.2164 599.553 32.4994C599.93 32.5937 600.197 32.7037 600.355 32.8295C600.543 32.9553 600.638 33.1125 600.638 33.3011C600.638 33.6784 600.339 33.8671 599.742 33.8671C598.83 33.8671 597.997 33.8199 597.242 33.7256C596.299 33.6627 595.576 33.6313 595.072 33.6313C594.569 33.6313 593.909 33.6627 593.092 33.7256C592.431 33.8199 591.661 33.8671 590.781 33.8671ZM625.171 34.3859C623.442 34.3859 622.105 33.8985 621.162 32.9238C620.25 31.9492 619.795 30.5186 619.795 28.6321V17.6905C619.795 17.439 619.684 17.266 619.464 17.1717C619.244 17.046 618.851 16.9831 618.285 16.9831H617.908C617.719 16.9831 617.562 16.8573 617.436 16.6058C617.311 16.3542 617.248 16.087 617.248 15.804C617.248 15.7097 617.279 15.6154 617.342 15.5211C617.436 15.4267 617.515 15.3638 617.578 15.3324C618.458 14.8293 619.37 14.1848 620.313 13.3988C621.257 12.6127 622.058 11.8739 622.719 11.1821C622.75 11.1507 622.86 11.0407 623.049 10.852C623.237 10.6634 623.442 10.569 623.662 10.569C624.133 10.569 624.354 10.8048 624.322 11.2765L624.039 13.5874V13.7761C624.039 14.059 624.133 14.2634 624.322 14.3892C624.511 14.4835 624.794 14.5306 625.171 14.5306H630.642C630.736 14.5306 630.83 14.6407 630.925 14.8608C631.019 15.0809 631.066 15.301 631.066 15.5211C631.066 15.8669 631.019 16.197 630.925 16.5115C630.83 16.8259 630.72 16.9831 630.595 16.9831H626.02C625.234 16.9831 624.715 17.0617 624.464 17.2189C624.243 17.3761 624.133 17.7377 624.133 18.3036V27.453C624.133 28.7736 624.401 29.7954 624.935 30.5186C625.47 31.2103 626.224 31.5561 627.199 31.5561C628.016 31.5561 628.661 31.4933 629.133 31.3675C629.636 31.2417 630.107 31.0374 630.547 30.7544L630.783 30.6601C631.035 30.6601 631.161 30.9116 631.161 31.4146C631.161 31.6347 630.846 31.9963 630.217 32.4994C629.62 32.971 628.865 33.3955 627.954 33.7727C627.042 34.1815 626.114 34.3859 625.171 34.3859ZM633.328 33.8671C632.699 33.8671 632.385 33.6784 632.385 33.3011C632.385 33.1125 632.464 32.9553 632.621 32.8295C632.778 32.7037 633.061 32.578 633.47 32.4522C634.099 32.2636 634.57 32.0592 634.885 31.8391C635.23 31.5876 635.403 31.1631 635.403 30.5657V7.31486C635.403 6.37162 635.262 5.60131 634.979 5.00392C634.696 4.40654 634.177 4.04496 633.423 3.9192C633.14 3.85631 632.998 3.6205 632.998 3.21177C632.998 2.89735 633.124 2.69299 633.375 2.59866C634.161 2.41001 635.12 2.11132 636.252 1.70258C637.416 1.29384 638.437 0.916549 639.318 0.570695C639.506 0.507811 639.648 0.476369 639.742 0.476369C639.994 0.476369 640.12 0.617855 640.12 0.900828C640.12 1.05803 640.057 1.51393 639.931 2.26853C639.805 2.99168 639.742 4.29649 639.742 6.18297V15.3324C639.742 16.0556 639.837 16.5901 640.025 16.9359C641.126 16.087 642.242 15.3796 643.374 14.8136C644.537 14.2162 645.779 13.9175 647.1 13.9175C648.703 13.9175 650.024 14.5306 651.061 15.7569C652.13 16.9516 652.665 18.508 652.665 20.4259V30.4714C652.665 31.0374 652.822 31.4618 653.136 31.7448C653.482 32.0278 653.954 32.2636 654.551 32.4522C654.928 32.578 655.196 32.7037 655.353 32.8295C655.51 32.9553 655.589 33.1125 655.589 33.3011C655.589 33.6784 655.259 33.8671 654.598 33.8671C653.718 33.8671 652.995 33.8199 652.429 33.7256C651.737 33.6627 651.108 33.6313 650.542 33.6313C649.976 33.6313 649.348 33.6627 648.656 33.7256C648.153 33.8199 647.445 33.8671 646.534 33.8671C645.873 33.8671 645.543 33.6784 645.543 33.3011C645.543 33.081 645.622 32.9238 645.779 32.8295C645.936 32.7037 646.203 32.578 646.581 32.4522C647.147 32.2636 647.587 32.0278 647.901 31.7448C648.216 31.4618 648.373 31.0216 648.373 30.4242V20.8975C648.373 19.8285 647.948 18.901 647.1 18.115C646.282 17.2975 645.402 16.8887 644.458 16.8887C643.83 16.8887 643.169 16.9831 642.478 17.1717C641.786 17.3289 641.22 17.5805 640.78 17.9263C640.371 18.2407 640.088 18.5866 639.931 18.9639C639.805 19.3412 639.742 19.9228 639.742 20.7089V30.5657C639.774 31.1317 639.931 31.5404 640.214 31.7919C640.497 32.0435 640.921 32.2636 641.487 32.4522C642.179 32.6723 642.525 32.9553 642.525 33.3011C642.525 33.6784 642.21 33.8671 641.582 33.8671C640.701 33.8671 639.978 33.8199 639.412 33.7256C638.658 33.6627 638.029 33.6313 637.526 33.6313C636.991 33.6313 636.347 33.6627 635.592 33.7256C634.932 33.8199 634.177 33.8671 633.328 33.8671ZM666.589 34.433C664.891 34.433 663.382 33.9928 662.062 33.1125C660.741 32.2321 659.704 31.0216 658.949 29.481C658.226 27.9089 657.864 26.1168 657.864 24.1045C657.864 22.2809 658.289 20.5988 659.138 19.0582C660.018 17.4861 661.181 16.2442 662.628 15.3324C664.105 14.3892 665.693 13.9175 667.391 13.9175C669.34 13.9175 670.944 14.4992 672.202 15.6625C673.491 16.8259 674.135 18.2879 674.135 20.0486C674.135 20.5831 674.009 20.9761 673.758 21.2277C673.538 21.4792 673.176 21.605 672.673 21.605H662.911C662.47 21.605 662.156 21.7307 661.967 21.9822C661.81 22.2338 661.732 22.6897 661.732 23.3499C661.732 24.7334 662.03 26.0067 662.628 27.1701C663.225 28.3334 664.042 29.2609 665.08 29.9526C666.149 30.6129 667.312 30.943 668.57 30.943C670.331 30.943 671.903 30.2513 673.286 28.8679C673.443 28.6164 673.616 28.4906 673.805 28.4906C674.088 28.4906 674.229 28.6635 674.229 29.0094C674.229 29.481 674.009 30.0784 673.569 30.8015C672.909 31.8705 671.95 32.7509 670.692 33.4426C669.466 34.1029 668.098 34.433 666.589 34.433ZM666.731 20.0014C668.146 20.0014 669.23 19.9228 669.985 19.7656C670.268 19.6713 670.409 19.2783 670.409 18.5866C670.409 17.7062 670.048 16.9674 669.325 16.37C668.601 15.7411 667.737 15.4267 666.731 15.4267C666.07 15.4267 665.394 15.6311 664.703 16.0398C664.011 16.4486 663.445 16.9674 663.005 17.5962C662.596 18.225 662.392 18.8381 662.392 19.4355C662.392 19.8128 662.596 20.0014 663.005 20.0014H666.731ZM783.826 34.6217C783.763 34.6217 783.653 34.5431 783.495 34.3859C783.338 34.2286 783.26 34.1186 783.26 34.0557C783.26 33.8671 783.291 33.5212 783.354 33.0182C783.448 32.3893 783.495 31.8234 783.495 31.3203V31.0374C782.929 31.9492 782.096 32.7352 780.996 33.3955C779.895 34.0557 778.669 34.3859 777.317 34.3859C775.588 34.3859 774.047 33.93 772.695 33.0182C771.375 32.1064 770.337 30.9116 769.583 29.4338C768.828 27.9247 768.451 26.3369 768.451 24.6705C768.451 22.7211 768.891 20.929 769.771 19.294C770.683 17.6591 771.956 16.3542 773.591 15.3796C775.258 14.4049 777.16 13.9175 779.298 13.9175C780.336 13.9175 781.405 14.0905 782.505 14.4363L783.118 14.5778C783.212 14.5778 783.291 14.4992 783.354 14.342C783.417 14.1534 783.448 13.9018 783.448 13.5874V7.31486C783.448 6.15153 783.275 5.33406 782.929 4.86244C782.584 4.35938 782.018 4.02924 781.232 3.87204C781.106 3.84059 780.996 3.76199 780.902 3.63623C780.807 3.51046 780.76 3.36897 780.76 3.21177C780.76 2.89735 780.902 2.69299 781.184 2.59866C783.071 2.15848 784.957 1.54538 786.844 0.759341C787.221 0.602134 787.488 0.523531 787.646 0.523531C787.897 0.523531 788.023 0.649296 788.023 0.900828C788.023 0.995152 787.976 1.48249 787.881 2.36285C787.787 3.21177 787.74 4.48514 787.74 6.18297L787.646 28.3963C787.646 29.4967 787.724 30.2828 787.881 30.7544C788.039 31.1946 788.306 31.4146 788.683 31.4146L790.664 31.2732H790.9C791.088 31.2732 791.214 31.3046 791.277 31.3675C791.371 31.4304 791.419 31.5561 791.419 31.7448C791.419 31.9649 791.34 32.185 791.183 32.405C791.026 32.5937 790.868 32.688 790.711 32.688C788.793 32.9081 786.765 33.4583 784.627 34.3387C784.25 34.5273 783.983 34.6217 783.826 34.6217ZM779.251 31.6505C779.974 31.6505 780.713 31.4775 781.467 31.1317C782.222 30.7544 782.867 30.267 783.401 29.6697V20.4731C783.401 19.7185 783.165 18.9796 782.694 18.2564C782.222 17.5333 781.577 16.9516 780.76 16.5115C779.974 16.0398 779.109 15.804 778.166 15.804C777.349 15.804 776.531 16.0713 775.714 16.6058C774.928 17.1088 774.267 17.942 773.733 19.1054C773.198 20.2687 772.931 21.7464 772.931 23.5386C772.931 25.488 773.277 27.0757 773.969 28.302C774.66 29.4967 775.494 30.3614 776.468 30.8959C777.443 31.3989 778.37 31.6505 779.251 31.6505ZM802.482 34.3859C800.69 34.3859 799.055 33.9771 797.577 33.1596C796.131 32.3422 794.983 31.1946 794.134 29.7168C793.285 28.2391 792.861 26.5884 792.861 24.7648C792.861 22.9412 793.332 21.1962 794.276 19.5298C795.219 17.832 796.508 16.4643 798.143 15.4267C799.778 14.3892 801.554 13.8704 803.472 13.8704C805.296 13.8704 806.962 14.3106 808.471 15.1909C810.012 16.0713 811.222 17.2503 812.103 18.7281C812.983 20.2058 813.423 21.7936 813.423 23.4914C813.423 25.4408 812.999 27.2487 812.15 28.9151C811.332 30.5815 810.09 31.9177 808.424 32.9238C806.789 33.8985 804.808 34.3859 802.482 34.3859ZM803.472 32.7352C805.421 32.7352 806.805 31.9963 807.622 30.5186C808.283 29.2924 808.613 27.3273 808.613 24.6233C808.613 23.0513 808.361 21.5735 807.858 20.1901C807.355 18.8067 806.648 17.6905 805.736 16.8416C804.856 15.9927 803.834 15.5682 802.67 15.5682C801.916 15.5682 801.255 15.694 800.69 15.9455C800.124 16.1656 799.605 16.5586 799.133 17.1246C798.599 17.8163 798.221 18.7123 798.001 19.8128C797.781 20.8818 797.671 22.1709 797.671 23.6801C797.671 25.2207 797.923 26.6827 798.426 28.0661C798.929 29.4496 799.621 30.5815 800.501 31.4618C801.413 32.3107 802.403 32.7352 803.472 32.7352ZM836.111 15.0494C836.299 15.0494 836.456 15.128 836.582 15.2852C836.708 15.4424 836.771 15.6468 836.771 15.8983C836.771 16.0556 836.724 16.2599 836.629 16.5115C836.535 16.7315 836.409 16.9202 836.252 17.0774C836.063 17.266 835.906 17.3604 835.78 17.3604H834.507C833.69 17.3604 833.202 17.4861 833.045 17.7377C832.856 18.115 832.762 18.8381 832.762 19.9071C832.762 21.5106 832.385 23.0041 831.63 24.3875C830.907 25.7395 829.917 26.8242 828.659 27.6417C827.433 28.4592 826.096 28.8679 824.65 28.8679C823.77 28.8679 822.858 28.695 821.915 28.3491C821.443 28.6006 821.05 28.8993 820.736 29.2452C820.453 29.5596 820.311 29.8426 820.311 30.0941C820.311 30.6915 820.814 31.1631 821.82 31.509C822.827 31.8548 824.43 32.1064 826.631 32.2636C829.712 32.4522 831.976 32.9396 833.422 33.7256C834.869 34.5116 835.592 35.6278 835.592 37.0741C835.592 38.709 835.042 40.3283 833.941 41.9318C832.841 43.5353 831.41 44.8401 829.649 45.8462C827.92 46.8838 826.175 47.4026 824.414 47.4026C821.616 47.4026 819.399 46.8995 817.765 45.8934C816.161 44.9187 815.359 43.5667 815.359 41.8375C815.359 40.9571 815.485 40.2339 815.737 39.668C815.988 39.1335 816.413 38.6147 817.01 38.1117L820.547 35.3763C819.195 35.0304 818.22 34.5588 817.623 33.9614C817.026 33.364 816.727 32.5937 816.727 31.6505C816.727 30.9902 817.104 30.3928 817.859 29.8583C818.519 29.3552 819.069 28.9308 819.51 28.5849C819.95 28.2391 820.264 27.9404 820.453 27.6888C819.321 26.9971 818.393 26.1168 817.67 25.0478C816.978 23.9473 816.633 22.7683 816.633 21.5106C816.633 20.0329 817.026 18.7123 817.812 17.549C818.629 16.3857 819.698 15.4739 821.019 14.8136C822.371 14.1534 823.801 13.8232 825.31 13.8232C826.191 13.8232 827.323 14.0119 828.706 14.3892C829.335 14.5778 829.807 14.7036 830.121 14.7665C831.19 15.0494 832.322 15.1909 833.517 15.1909C833.862 15.1909 834.381 15.1595 835.073 15.0966L836.111 15.0494ZM825.027 27.0757C826.128 27.0757 827.04 26.4941 827.763 25.3307C828.486 24.1674 828.848 22.674 828.848 20.8504C828.848 19.3726 828.439 18.0992 827.621 17.0302C826.804 15.9612 825.845 15.4267 824.744 15.4267C823.707 15.4267 822.795 15.977 822.009 17.0774C821.255 18.1778 820.877 19.4669 820.877 20.9447C820.877 22.6425 821.286 24.0888 822.103 25.2836C822.921 26.4784 823.896 27.0757 825.027 27.0757ZM831.724 39.1492C831.724 38.206 831.221 37.4985 830.215 37.0269C829.209 36.5553 827.464 36.2252 824.98 36.0365L822.528 35.7536C821.333 36.5396 820.468 37.3256 819.934 38.1117C819.431 38.8977 819.179 39.8095 819.179 40.847C819.179 42.1361 819.73 43.2051 820.83 44.0541C821.93 44.903 823.298 45.3274 824.933 45.3274C826.914 45.3274 828.423 44.903 829.461 44.0541C830.184 43.4881 830.734 42.765 831.111 41.8846C831.52 41.0357 831.724 40.1239 831.724 39.1492ZM842.053 34.6688C841.236 34.6688 840.528 34.3701 839.931 33.7727C839.334 33.1754 839.035 32.4679 839.035 31.6505C839.035 30.8015 839.334 30.0784 839.931 29.481C840.528 28.8836 841.236 28.5849 842.053 28.5849C842.871 28.5849 843.578 28.8836 844.176 29.481C844.773 30.0784 845.072 30.8015 845.072 31.6505C845.072 32.4679 844.773 33.1754 844.176 33.7727C843.578 34.3701 842.871 34.6688 842.053 34.6688Z" fill="white"/>
<path d="M687.307 33.8671C686.678 33.8671 686.363 33.6941 686.363 33.3483C686.363 33.1282 686.442 32.971 686.599 32.8767C686.788 32.7509 687.071 32.6094 687.448 32.4522C688.14 32.2321 688.627 32.0278 688.91 31.8391C689.224 31.619 689.382 31.226 689.382 30.6601V7.31486C689.382 5.30262 688.69 4.15501 687.307 3.87204C687.055 3.80915 686.929 3.58906 686.929 3.21177C686.929 2.86591 687.039 2.66154 687.259 2.59866C688.611 2.31569 689.885 1.93839 691.08 1.46677C692.306 0.96371 693.045 0.665018 693.296 0.570695C693.485 0.507811 693.626 0.476369 693.721 0.476369C693.815 0.476369 693.878 0.523532 693.909 0.617856C693.972 0.712179 694.004 0.806503 694.004 0.900828C694.004 1.08948 693.956 1.6397 693.862 2.5515C693.768 3.43186 693.721 4.64235 693.721 6.18297V30.6601C693.721 31.226 693.878 31.619 694.192 31.8391C694.507 32.0592 694.994 32.2636 695.654 32.4522C696.377 32.7037 696.739 33.0024 696.739 33.3483C696.739 33.6627 696.425 33.8199 695.796 33.8199C695.167 33.8199 694.412 33.7885 693.532 33.7256C692.714 33.6627 692.038 33.6313 691.504 33.6313C691.001 33.6313 690.341 33.6627 689.523 33.7256C688.926 33.8199 688.187 33.8671 687.307 33.8671ZM703.288 34.3859C702.659 34.3859 702.015 34.1658 701.354 33.7256C700.725 33.3168 700.207 32.7981 699.798 32.1692C699.389 31.509 699.185 30.8644 699.185 30.2356C699.185 29.2295 699.468 28.412 700.034 27.7832C700.6 27.1543 701.511 26.5727 702.769 26.0382L707.344 24.1045C707.973 23.853 708.35 23.6329 708.476 23.4443C708.601 23.2556 708.68 22.8312 708.712 22.1709L708.806 19.294C708.837 18.4137 708.617 17.7062 708.146 17.1717C707.705 16.6058 707.077 16.3228 706.259 16.3228C705.819 16.3228 705.363 16.4014 704.891 16.5586C704.451 16.7158 704.09 16.9202 703.807 17.1717C703.555 17.4233 703.429 17.832 703.429 18.3979L703.477 19.4355C703.477 19.687 703.021 20.0486 702.109 20.5202C701.228 20.9604 700.521 21.1805 699.987 21.1805C699.798 21.1805 699.641 21.1176 699.515 20.9918C699.421 20.8661 699.373 20.7246 699.373 20.5674C699.373 19.5298 700.034 18.4451 701.354 17.3132C702.455 16.3385 703.712 15.5368 705.127 14.9079C706.542 14.2477 707.753 13.9175 708.759 13.9175C710.079 13.9175 711.148 14.3734 711.966 15.2852C712.783 16.1656 713.176 17.3132 713.145 18.7281L712.909 29.3867C712.878 30.0784 713.019 30.6443 713.333 31.0845C713.648 31.5247 714.041 31.7448 714.512 31.7448C715.267 31.7448 715.833 31.5561 716.21 31.1788C716.336 31.0531 716.446 30.9902 716.54 30.9902C716.698 30.9902 716.823 31.0531 716.918 31.1788C717.043 31.2732 717.106 31.3832 717.106 31.509C717.106 31.8548 716.886 32.2478 716.446 32.688C715.912 33.2225 715.33 33.6313 714.701 33.9142C714.104 34.2286 713.522 34.3859 712.956 34.3859C711.353 34.3859 710.095 33.5369 709.183 31.8391H709.042C708.004 32.7509 707.029 33.3955 706.118 33.7727C705.206 34.1815 704.263 34.3859 703.288 34.3859ZM705.74 31.8391C706.621 31.8391 707.391 31.509 708.051 30.8487C708.366 30.5343 708.539 29.9683 708.57 29.1509L708.664 26.4626V26.2268C708.664 25.7866 708.523 25.5666 708.24 25.5666C708.051 25.5666 707.784 25.6452 707.438 25.8024C706.055 26.3369 705.064 26.8871 704.467 27.453C703.901 28.019 703.618 28.6635 703.618 29.3867C703.618 30.1727 703.822 30.7858 704.231 31.226C704.671 31.6347 705.174 31.8391 705.74 31.8391ZM718.721 33.9614C718.563 33.9614 718.39 33.8514 718.202 33.6313C718.013 33.3797 717.919 33.1596 717.919 32.971C717.919 32.7509 718.516 31.7919 719.711 30.0941C723.107 25.0635 725.999 20.6303 728.389 16.7944C728.452 16.6687 728.483 16.5901 728.483 16.5586C728.483 16.4014 728.294 16.3228 727.917 16.3228L724.003 16.1813C723.217 16.1813 722.525 16.48 721.928 17.0774C721.707 17.2975 721.142 18.0521 720.23 19.3412L719.522 20.3316C719.428 20.4259 719.271 20.4731 719.051 20.4731C718.831 20.4731 718.642 20.4259 718.485 20.3316C718.328 20.2058 718.28 20.0486 718.343 19.86C719.004 17.3446 719.334 15.6311 719.334 14.7193C719.334 14.4678 719.428 14.2477 719.617 14.059C719.805 13.8704 719.978 13.7761 720.135 13.7761C720.324 13.7761 720.591 13.9175 720.937 14.2005C721.157 14.3892 721.865 14.4835 723.059 14.4835L724.899 14.4363C728.011 14.4363 731.061 14.3892 734.048 14.2948C734.268 14.2948 734.441 14.4206 734.567 14.6721C734.693 14.9237 734.693 15.128 734.567 15.2852C733.624 16.5115 733.011 17.3289 732.728 17.7377L724.003 31.1788C723.908 31.3046 723.861 31.4146 723.861 31.509C723.861 31.7605 724.081 31.8863 724.521 31.8863H729.143C729.929 31.8863 730.668 31.5247 731.36 30.8015C731.737 30.4242 732.146 29.9212 732.586 29.2924C733.026 28.6635 733.482 27.9718 733.954 27.2172C734.111 27.0286 734.284 26.9343 734.473 26.9343C734.661 26.9343 734.819 26.9971 734.944 27.1229C735.102 27.2172 735.18 27.3587 735.18 27.5474C735.18 27.7989 734.991 28.6635 734.614 30.1413C734.237 31.5876 733.938 32.6251 733.718 33.254C733.624 33.7256 733.357 33.9614 732.916 33.9614L730.747 33.9142C728.232 33.7885 725.528 33.7256 722.635 33.7256C722.069 33.7256 721.566 33.7413 721.126 33.7727C720.717 33.8042 720.387 33.8356 720.135 33.8671L718.721 33.9614ZM738.974 47.1196C738.219 47.1196 737.559 46.9152 736.993 46.5065C736.427 46.1292 736.144 45.579 736.144 44.8558C736.144 44.227 736.285 43.6768 736.568 43.2051C736.883 42.765 737.307 42.5449 737.842 42.5449C738.125 42.5449 738.518 42.6078 739.021 42.7335C739.147 42.765 739.288 42.7964 739.445 42.8279C739.602 42.8593 739.775 42.875 739.964 42.875C740.31 42.875 740.577 42.8121 740.766 42.6864C740.954 42.592 741.127 42.3877 741.285 42.0733C742.385 40.3125 743.533 37.9544 744.727 34.999C744.916 34.5273 745.01 34.0243 745.01 33.4898C745.01 32.8924 744.885 32.3107 744.633 31.7448L739.068 18.1621C738.502 16.8101 737.763 15.9927 736.851 15.7097C736.506 15.5525 736.254 15.411 736.097 15.2852C735.94 15.1595 735.861 14.9865 735.861 14.7665C735.861 14.4835 736.191 14.342 736.851 14.342C737.575 14.342 738.313 14.3734 739.068 14.4363C739.697 14.4992 740.247 14.5306 740.719 14.5306C741.285 14.5306 741.913 14.4992 742.605 14.4363C743.423 14.3734 744.161 14.342 744.822 14.342C745.073 14.342 745.293 14.3892 745.482 14.4835C745.702 14.5778 745.812 14.7036 745.812 14.8608C745.812 15.2695 745.403 15.6154 744.586 15.8983C744.209 15.9927 743.941 16.1656 743.784 16.4171C743.627 16.6687 743.548 17.0302 743.548 17.5019C743.548 17.942 743.706 18.4765 744.02 19.1054L747.51 27.736C747.573 27.8932 747.651 27.9718 747.746 27.9718C747.809 27.9718 747.872 27.8932 747.934 27.736L750.906 19.577C751 19.3569 751.079 19.0739 751.141 18.7281C751.204 18.3822 751.236 18.0678 751.236 17.7848C751.236 16.873 750.874 16.2599 750.151 15.9455C749.742 15.7569 749.428 15.5839 749.208 15.4267C748.988 15.2695 748.878 15.0809 748.878 14.8608C748.878 14.7036 748.988 14.5778 749.208 14.4835C749.428 14.3892 749.648 14.342 749.868 14.342C750.214 14.342 750.701 14.3734 751.33 14.4363C752.022 14.4992 752.651 14.5306 753.217 14.5306C753.72 14.5306 754.254 14.4992 754.82 14.4363C755.323 14.3734 755.779 14.342 756.188 14.342C756.848 14.342 757.178 14.4835 757.178 14.7665C757.178 14.9865 757.1 15.1595 756.942 15.2852C756.785 15.411 756.534 15.5525 756.188 15.7097C755.653 15.8669 755.135 16.2285 754.631 16.7944C754.128 17.3604 753.72 18.0206 753.405 18.7752L746.755 34.6217C745.592 37.5143 744.161 40.9414 742.464 44.903C742.149 45.6261 741.678 46.1764 741.049 46.5537C740.451 46.9309 739.76 47.1196 738.974 47.1196Z" fill="#9CF159"/>
</svg>
