<svg width="870" height="48" viewBox="0 0 870 48" fill="none" xmlns="http://www.w3.org/2000/svg">
<path d="M9.28206 33.8215C8.96765 33.8215 8.68468 33.7586 8.43315 33.6328C8.21306 33.5385 8.10301 33.397 8.10301 33.2084C8.10301 32.7367 8.52747 32.4066 9.37639 32.218C10.634 31.9664 11.5301 31.6206 12.0646 31.1804C12.5991 30.7088 12.8664 29.9699 12.8664 28.9638V9.86316C12.8664 8.03956 12.8035 6.82907 12.6777 6.23169C12.552 5.6343 12.3319 5.28845 12.0175 5.19412C11.483 5.00547 10.634 4.91115 9.47071 4.91115H8.00869C7.09689 4.91115 6.21653 5.13124 5.36761 5.57142C4.5187 6.0116 3.85843 6.57754 3.38681 7.26925C3.10384 7.74087 2.72654 8.22821 2.25492 8.73127C1.81474 9.20289 1.40601 9.4387 1.02871 9.4387C0.651414 9.4387 0.462766 9.18717 0.462766 8.68411C0.462766 8.3697 0.55709 7.9924 0.745738 7.55222C1.28024 6.45178 1.67326 5.50854 1.92479 4.7225C2.17632 3.90503 2.36497 2.96179 2.49073 1.89278C2.6165 1.13819 2.96235 0.760893 3.5283 0.760893C3.6855 0.760893 3.92131 0.980982 4.23573 1.42116C4.55014 1.8299 4.78595 2.12859 4.94316 2.31724C5.19469 2.56877 5.66631 2.77314 6.35802 2.93035C7.04973 3.08755 7.69427 3.16616 8.29166 3.16616L25.6944 3.11899C27.1722 3.11899 28.3827 2.8989 29.3259 2.45873C29.546 2.33296 29.8447 2.11287 30.222 1.79846C30.4735 1.57837 30.6779 1.42116 30.8351 1.32684C31.0237 1.20107 31.2281 1.13819 31.4482 1.13819C31.7626 1.13819 31.9198 1.43688 31.9198 2.03427C31.9198 2.19147 31.8727 2.55305 31.7783 3.11899C31.7783 3.11899 31.6683 3.55917 31.4482 4.43953C31.1338 5.60286 30.9766 6.56182 30.9766 7.31641V8.11817C30.9766 8.58979 30.898 8.9828 30.7408 9.29722C30.615 9.58019 30.4264 9.72167 30.1748 9.72167C29.9233 9.72167 29.7032 9.58019 29.5146 9.29722C29.3259 9.01424 29.153 8.54262 28.9958 7.88236C28.7128 6.84479 28.2255 6.0902 27.5338 5.61858C26.8735 5.14696 25.8516 4.91115 24.4682 4.91115H21.2612C20.6009 4.91115 20.1136 5.03691 19.7992 5.28845C19.5162 5.50853 19.3118 5.98015 19.1861 6.7033C19.0603 7.39501 18.9974 8.5269 18.9974 10.099V28.9166C18.9974 29.8913 19.2647 30.6144 19.7992 31.0861C20.3337 31.5577 21.2298 31.935 22.4874 32.218C22.9276 32.3123 23.242 32.438 23.4307 32.5952C23.6508 32.721 23.7608 32.9097 23.7608 33.1612C23.7608 33.3498 23.6508 33.507 23.4307 33.6328C23.2106 33.7271 22.9433 33.7743 22.6289 33.7743C21.8743 33.7743 20.711 33.7429 19.1389 33.68C17.6926 33.6171 16.6393 33.5857 15.9791 33.5857C15.3502 33.5857 14.2812 33.6171 12.7721 33.68C11.6402 33.7743 10.4768 33.8215 9.28206 33.8215ZM33.548 33.7743C33.265 33.7743 33.0292 33.7271 32.8406 33.6328C32.6834 33.507 32.6048 33.3498 32.6048 33.1612C32.6048 32.9411 32.6834 32.7682 32.8406 32.6424C33.0292 32.5166 33.3122 32.3909 33.6895 32.2651C34.3812 32.0136 34.8686 31.7935 35.1515 31.6048C35.4345 31.3848 35.576 30.9917 35.576 30.4258V7.4579C35.576 6.48322 35.4345 5.7129 35.1515 5.14696C34.9 4.58101 34.3969 4.21944 33.6423 4.06223C33.3279 3.99935 33.1707 3.76354 33.1707 3.3548C33.1707 3.00895 33.3122 2.78886 33.5952 2.69454C34.9472 2.38012 37.1481 1.65697 40.1979 0.525083C40.3865 0.430758 40.5437 0.383596 40.6695 0.383596C40.9839 0.383596 41.1411 0.540803 41.1411 0.855216C41.1411 1.04386 41.0782 1.49977 40.9525 2.22292C40.8581 2.91462 40.811 3.8893 40.811 5.14696V15.1925C40.811 15.9471 40.9053 16.4344 41.0939 16.6545C42.2258 15.7427 43.3263 15.0038 44.3953 14.4379C45.4957 13.8405 46.7219 13.5418 48.0739 13.5418C49.7403 13.5418 51.108 14.1549 52.177 15.3811C53.2775 16.5759 53.8277 18.1637 53.8277 20.1445V30.2843C53.8277 30.8817 53.9692 31.3062 54.2521 31.5577C54.5351 31.8092 54.9753 32.045 55.5727 32.2651C55.95 32.3909 56.2172 32.5166 56.3744 32.6424C56.5316 32.7682 56.6102 32.9411 56.6102 33.1612C56.6102 33.5699 56.2801 33.7743 55.6198 33.7743C54.6766 33.7743 53.8748 33.7271 53.2146 33.6328C52.46 33.5699 51.784 33.5385 51.1866 33.5385C50.5263 33.5385 49.8504 33.5699 49.1586 33.6328C48.5927 33.7271 47.8381 33.7743 46.8949 33.7743C46.2032 33.7743 45.8573 33.5542 45.8573 33.114C45.8573 32.8939 45.9359 32.7367 46.0931 32.6424C46.2503 32.5166 46.5019 32.3909 46.8477 32.2651C47.3822 32.0765 47.7909 31.8407 48.0739 31.5577C48.3883 31.2747 48.5455 30.8345 48.5455 30.2371V20.8519C48.5455 19.7829 48.184 18.8711 47.4608 18.1165C46.7691 17.3619 45.9831 16.9846 45.1027 16.9846C44.5368 16.9846 43.9394 17.0789 43.3106 17.2676C42.6817 17.4248 42.1315 17.6763 41.6599 18.0222C41.314 18.2737 41.0782 18.5567 40.9525 18.8711C40.8581 19.1541 40.811 19.6257 40.811 20.286V30.3786C40.8424 30.9446 40.9839 31.3533 41.2354 31.6048C41.5184 31.8249 41.9271 32.0293 42.4616 32.218C43.1219 32.438 43.452 32.7367 43.452 33.114C43.452 33.5542 43.1691 33.7743 42.6031 33.7743C41.7228 33.7743 40.921 33.7271 40.1979 33.6328C39.3175 33.5699 38.6258 33.5385 38.1227 33.5385C37.5882 33.5385 36.8808 33.5699 36.0004 33.6328C35.3087 33.7271 34.4913 33.7743 33.548 33.7743ZM67.501 34.2931C65.8031 34.2931 64.2782 33.8529 62.9263 32.9725C61.6057 32.0922 60.5682 30.8817 59.8136 29.3411C59.059 27.769 58.6817 25.9926 58.6817 24.0118C58.6817 22.1253 59.1219 20.3803 60.0022 18.7768C60.914 17.1733 62.1245 15.8999 63.6337 14.9567C65.1429 14.0134 66.7935 13.5418 68.5857 13.5418C70.5665 13.5418 72.2172 14.1392 73.5377 15.334C74.8583 16.5287 75.5185 18.0379 75.5185 19.8615C75.5185 20.4274 75.3928 20.8519 75.1412 21.1349C74.9211 21.4179 74.5596 21.5593 74.0565 21.5593H64.4826C64.0424 21.5593 63.728 21.6851 63.5394 21.9366C63.3507 22.1882 63.2564 22.6126 63.2564 23.21C63.2564 24.5305 63.5394 25.7253 64.1053 26.7943C64.6713 27.8633 65.4416 28.7122 66.4163 29.3411C67.4224 29.9699 68.5385 30.2843 69.7648 30.2843C71.3997 30.2843 72.9718 29.6083 74.481 28.2563C74.7325 28.0048 74.9369 27.879 75.0941 27.879C75.2198 27.879 75.3299 27.9419 75.4242 28.0677C75.5185 28.162 75.5657 28.2878 75.5657 28.445C75.5657 28.8537 75.377 29.3882 74.9997 30.0485C74.4338 31.2433 73.4748 32.2494 72.1229 33.0669C70.7709 33.8843 69.2303 34.2931 67.501 34.2931ZM67.8311 19.72C69.2145 19.72 70.2207 19.6414 70.8495 19.4842C71.1325 19.4213 71.2739 19.0126 71.2739 18.258C71.2739 17.4091 70.9438 16.7017 70.2835 16.1357C69.6547 15.5383 68.8687 15.2396 67.9254 15.2396C67.2652 15.2396 66.6206 15.444 65.9918 15.8527C65.363 16.23 64.8442 16.7331 64.4354 17.3619C64.0582 17.9593 63.8695 18.5567 63.8695 19.1541C63.8695 19.5314 64.0896 19.72 64.5298 19.72H67.8311ZM101.637 47.1211C101.417 47.1211 101.213 47.074 101.024 46.9797C100.867 46.8853 100.789 46.7439 100.789 46.5552C100.789 46.1779 101.15 45.8792 101.873 45.6591C102.659 45.4076 103.225 45.1403 103.571 44.8574C103.948 44.5744 104.137 44.1342 104.137 43.5368V32.9725C104.137 32.1551 104.043 31.7463 103.854 31.7463C103.634 31.8407 103.492 31.9035 103.43 31.935C102.675 32.5009 101.763 33.0354 100.694 33.5385C99.6252 34.0415 98.6348 34.2931 97.723 34.2931C96.0566 34.2931 94.516 33.9001 93.1011 33.114C91.7177 32.2966 90.6173 31.1647 89.7998 29.7184C89.0137 28.2721 88.6207 26.6214 88.6207 24.7664C88.6207 22.6912 89.0766 20.8047 89.9884 19.1069C90.9002 17.3776 92.2365 16.0099 93.9972 15.0038C95.7579 13.9977 97.8488 13.4946 100.27 13.4946C101.213 13.4946 102.062 13.5732 102.816 13.7304C103.571 13.8562 104.451 14.0606 105.458 14.3436C106.275 14.5322 106.731 14.6265 106.825 14.6265C107.36 14.6265 107.863 14.3436 108.334 13.7776C108.586 13.589 108.775 13.4946 108.9 13.4946C109.152 13.4946 109.356 13.5575 109.513 13.6833C109.671 13.7776 109.749 13.9034 109.749 14.0606C109.749 14.3121 109.655 14.9409 109.466 15.9471C109.309 16.9217 109.231 18.0222 109.231 19.2484L109.278 43.8198C109.278 44.3229 109.435 44.7002 109.749 44.9517C110.095 45.2032 110.614 45.4233 111.306 45.612C112.029 45.8321 112.39 46.1465 112.39 46.5552C112.39 46.7439 112.296 46.8853 112.107 46.9797C111.919 47.074 111.699 47.1211 111.447 47.1211C110.504 47.1211 109.655 47.074 108.9 46.9797C107.894 46.9168 107.14 46.8853 106.637 46.8853C106.102 46.8853 105.332 46.9168 104.326 46.9797C103.477 47.074 102.581 47.1211 101.637 47.1211ZM100.034 31.369C100.82 31.369 101.606 31.2276 102.392 30.9446C103.21 30.6616 103.807 30.2843 104.184 29.8127C104.184 24.7192 104.168 21.6222 104.137 20.5218C104.106 19.044 103.618 17.8178 102.675 16.8431C101.763 15.837 100.647 15.334 99.3265 15.334C98.4147 15.334 97.5658 15.6955 96.7798 16.4187C96.0252 17.1104 95.4278 18.0851 94.9876 19.3427C94.5474 20.5689 94.3273 21.9524 94.3273 23.493C94.3273 25.065 94.5946 26.4485 95.1291 27.6432C95.6636 28.838 96.3553 29.7655 97.2042 30.4258C98.0846 31.0546 99.0278 31.369 100.034 31.369ZM129.05 34.5761C128.799 34.5761 128.673 34.4346 128.673 34.1516L128.767 32.6896C128.862 32.1236 128.909 31.6206 128.909 31.1804L128.862 30.7559C127.887 31.8564 126.739 32.7367 125.419 33.397C124.098 34.0258 122.731 34.3402 121.316 34.3402C119.775 34.3402 118.502 33.7586 117.496 32.5952C116.521 31.4005 116.034 29.8756 116.034 28.0205V18.9654C116.034 18.2108 115.876 17.6292 115.562 17.2204C115.279 16.7803 114.792 16.4658 114.1 16.2772C113.628 16.2143 113.393 15.9471 113.393 15.4754C113.393 14.9724 113.628 14.6894 114.1 14.6265C115.232 14.5636 116.238 14.4693 117.118 14.3436C117.999 14.1863 119.052 13.9663 120.278 13.6833C120.593 13.5575 120.844 13.4946 121.033 13.4946C121.442 13.4946 121.63 13.7147 121.599 14.1549C121.379 15.5069 121.269 16.7174 121.269 17.7864V26.8886C121.269 28.0205 121.583 28.9638 122.212 29.7184C122.841 30.473 123.611 30.866 124.523 30.8974C125.906 30.8974 126.975 30.5516 127.73 29.8599C128.044 29.6083 128.343 29.2153 128.626 28.6808C128.909 28.1463 129.05 27.5018 129.05 26.7472V18.8239C129.05 18.0065 128.783 17.3934 128.249 16.9846C127.714 16.5444 127.07 16.3086 126.315 16.2772C125.592 16.2143 125.23 15.8842 125.23 15.2868C125.23 15.0038 125.325 14.7995 125.513 14.6737C125.733 14.5165 126.001 14.4379 126.315 14.4379C128.327 14.3436 129.805 14.2492 130.748 14.1549C131.691 14.0291 132.619 13.8405 133.531 13.589L134.097 13.4946C134.568 13.4946 134.804 13.6676 134.804 14.0134C134.804 14.0763 134.741 14.2964 134.615 14.6737C134.553 15.0195 134.474 15.554 134.38 16.2772C134.317 17.0003 134.285 17.5506 134.285 17.9279V28.8694C134.285 30.19 134.568 30.8503 135.134 30.8503L136.738 30.8031C137.304 30.8031 137.587 31.0703 137.587 31.6048C137.587 31.8878 137.524 32.1079 137.398 32.2651C137.304 32.3909 137.115 32.4695 136.832 32.5009C134.82 32.6896 132.603 33.287 130.182 34.2931C129.679 34.4817 129.302 34.5761 129.05 34.5761ZM139.896 33.7743C139.645 33.7743 139.44 33.7271 139.283 33.6328C139.126 33.507 139.047 33.3498 139.047 33.1612C139.047 32.7525 139.362 32.4695 139.99 32.3123C140.776 32.1236 141.327 31.9193 141.641 31.6992C141.956 31.4476 142.113 31.0703 142.113 30.5673V20.3331C142.113 19.327 141.956 18.5724 141.641 18.0693C141.327 17.5663 140.792 17.2519 140.038 17.1261C139.88 17.0947 139.755 17.0161 139.66 16.8903C139.566 16.7331 139.519 16.5602 139.519 16.3715C139.519 15.9628 139.692 15.727 140.038 15.6641C142.113 15.1925 144.282 14.3278 146.546 13.0702C146.986 12.8501 147.269 12.74 147.395 12.74C147.741 12.74 147.914 12.8972 147.914 13.2117L147.772 14.8152C147.521 16.8274 147.395 18.5252 147.395 19.9087V30.5201C147.395 30.9917 147.536 31.3533 147.819 31.6048C148.134 31.8249 148.7 32.0607 149.517 32.3123C149.863 32.438 150.115 32.5638 150.272 32.6896C150.429 32.7839 150.508 32.9411 150.508 33.1612C150.508 33.5385 150.225 33.7271 149.659 33.7271C149.061 33.7271 148.197 33.6957 147.065 33.6328C146.059 33.5699 145.273 33.5385 144.707 33.5385C144.204 33.5385 143.449 33.5699 142.443 33.6328C141.657 33.7271 140.808 33.7743 139.896 33.7743ZM144.612 10.0046C143.701 10.0046 142.93 9.69023 142.301 9.06141C141.673 8.43258 141.358 7.67799 141.358 6.79763C141.358 5.85439 141.673 5.06836 142.301 4.43953C142.93 3.77926 143.701 3.44913 144.612 3.44913C145.556 3.44913 146.342 3.77926 146.97 4.43953C147.599 5.06836 147.914 5.85439 147.914 6.79763C147.914 7.70943 147.599 8.47974 146.97 9.10857C146.342 9.70595 145.556 10.0046 144.612 10.0046ZM161.18 34.2931C159.545 34.2931 158.068 33.8686 156.747 33.0197C155.426 32.1393 154.373 30.9603 153.587 29.4826C152.833 27.9734 152.455 26.307 152.455 24.4834C152.455 22.5026 152.911 20.679 153.823 19.0126C154.766 17.3148 156.024 15.9785 157.596 15.0038C159.199 14.0291 160.944 13.5418 162.831 13.5418C163.994 13.5418 165.095 13.7462 166.132 14.1549C167.17 14.5322 168.082 15.0824 168.868 15.8056C169.182 16.0885 169.339 16.3715 169.339 16.6545C169.339 17.0003 169.072 17.4405 168.537 17.975C168.003 18.5095 167.547 18.7768 167.17 18.7768C166.95 18.7768 166.73 18.7139 166.51 18.5881C166.321 18.4624 166.085 18.2737 165.802 18.0222C164.985 17.3619 164.151 16.8274 163.302 16.4187C162.485 15.9785 161.778 15.7584 161.18 15.7584C159.86 15.7584 158.838 16.3401 158.115 17.5034C157.423 18.6353 157.077 20.3174 157.077 22.5497C157.077 24.845 157.659 26.6843 158.822 28.0677C160.017 29.4511 161.589 30.1428 163.538 30.1428C164.45 30.1428 165.236 30.0013 165.896 29.7184C166.588 29.4354 167.327 28.9481 168.113 28.2563C168.144 28.2249 168.223 28.162 168.349 28.0677C168.506 27.9419 168.663 27.879 168.82 27.879C169.166 27.879 169.339 28.1149 169.339 28.5865C169.339 28.9638 169.182 29.4197 168.868 29.9542C168.207 31.0546 167.17 32.0607 165.755 32.9725C164.371 33.8529 162.847 34.2931 161.18 34.2931ZM172.041 33.7743C171.381 33.7743 171.051 33.5699 171.051 33.1612C171.051 32.9411 171.13 32.7839 171.287 32.6896C171.476 32.5638 171.758 32.4223 172.136 32.2651C172.827 32.0136 173.315 31.7935 173.598 31.6048C173.881 31.3848 174.022 30.9917 174.022 30.4258V7.4579C174.022 6.42033 173.881 5.6343 173.598 5.0998C173.315 4.56529 172.796 4.21944 172.041 4.06223C171.884 4.03079 171.758 3.95219 171.664 3.82642C171.601 3.70066 171.57 3.54345 171.57 3.3548C171.57 2.97751 171.711 2.75742 171.994 2.69454C173.503 2.38012 175.704 1.65697 178.597 0.525083C178.817 0.430758 178.99 0.383596 179.116 0.383596C179.399 0.383596 179.54 0.556524 179.54 0.90238C179.54 1.15391 179.493 1.67269 179.399 2.45873C179.304 3.24476 179.242 4.14084 179.21 5.14696L179.257 22.0781C179.257 22.424 179.367 22.5969 179.587 22.5969C179.839 22.5969 180.2 22.4083 180.672 22.031C181.741 21.0877 182.732 20.1288 183.643 19.1541C184.587 18.148 185.247 17.3934 185.624 16.8903C185.907 16.513 186.049 16.2458 186.049 16.0885C186.049 15.9313 185.923 15.7899 185.671 15.6641C185.42 15.5069 185.074 15.3968 184.634 15.334C184.256 15.2396 184.068 15.051 184.068 14.768C184.068 14.5794 184.162 14.4379 184.351 14.3436C184.571 14.2178 184.822 14.1549 185.105 14.1549H187.416C188.611 14.1549 190.215 14.0291 192.227 13.7776C192.447 13.7462 192.651 13.7304 192.84 13.7304C193.029 13.7304 193.217 13.7147 193.406 13.6833C193.563 13.6833 193.689 13.7304 193.783 13.8248C193.909 13.9191 193.972 14.0449 193.972 14.2021C193.972 14.6422 193.594 14.9567 192.84 15.1453C191.708 15.4283 190.45 15.9785 189.067 16.796C188.438 17.1418 187.589 17.7392 186.52 18.5881C185.483 19.4056 184.539 20.2074 183.69 20.9934C183.533 21.1506 183.455 21.3078 183.455 21.465C183.455 21.6222 183.533 21.7794 183.69 21.9366C186.615 25.7096 188.8 28.3507 190.246 29.8599C190.718 30.3629 191.315 30.8503 192.038 31.3219C192.761 31.7621 193.39 32.0765 193.925 32.2651C194.05 32.2966 194.239 32.3594 194.491 32.4538C194.742 32.5481 194.931 32.6581 195.057 32.7839C195.214 32.8782 195.292 33.004 195.292 33.1612C195.292 33.5699 194.962 33.7743 194.302 33.7743C193.107 33.7743 191.378 33.7429 189.114 33.68L184.256 33.6328C183.659 33.6328 183.36 33.4442 183.36 33.0669C183.36 32.6896 183.675 32.3909 184.304 32.1708C184.618 32.045 184.838 31.9193 184.964 31.7935C185.121 31.6677 185.215 31.5105 185.247 31.3219C185.247 31.1647 185.09 30.8503 184.775 30.3786L179.823 24.0589C179.729 23.9017 179.619 23.8231 179.493 23.8231C179.336 23.886 179.257 24.0118 179.257 24.2004C179.226 24.7978 179.21 25.7725 179.21 27.1245C179.21 28.6336 179.226 29.7341 179.257 30.4258C179.257 30.9603 179.367 31.3533 179.587 31.6048C179.839 31.8564 180.216 32.0607 180.719 32.218C181.411 32.4695 181.757 32.7682 181.757 33.114C181.757 33.3341 181.647 33.507 181.427 33.6328C181.238 33.7271 181.034 33.7743 180.814 33.7743C179.965 33.7743 179.21 33.7271 178.55 33.6328C177.732 33.5699 177.056 33.5385 176.522 33.5385C176.019 33.5385 175.327 33.5699 174.447 33.6328C173.755 33.7271 172.953 33.7743 172.041 33.7743ZM218.17 34.2931C216.755 34.2931 215.278 34.0573 213.737 33.5857C213.454 33.5228 213.014 33.4127 212.417 33.2555C211.851 33.0983 211.458 33.0197 211.238 33.0197C210.766 33.0197 210.294 33.2241 209.823 33.6328C209.603 33.8215 209.398 33.9158 209.21 33.9158C208.989 33.9158 208.801 33.8529 208.644 33.7271C208.486 33.6328 208.408 33.507 208.408 33.3498C208.408 33.0983 208.486 32.5481 208.644 31.6992C208.801 30.8503 208.864 29.9699 208.832 29.0581L208.738 7.4579C208.738 5.53998 208.078 4.40809 206.757 4.06223C206.38 3.93647 206.191 3.68494 206.191 3.30764C206.191 2.96179 206.364 2.75742 206.71 2.69454C207.685 2.50589 209.524 1.9085 212.228 0.90238L213.124 0.572244C213.376 0.446479 213.564 0.383596 213.69 0.383596C213.816 0.383596 213.91 0.430758 213.973 0.525083C214.067 0.619406 214.114 0.72945 214.114 0.855216C214.114 1.04386 214.083 1.51549 214.02 2.27008C213.957 2.99323 213.926 3.7321 213.926 4.48669V14.4379C213.926 15.3811 214.067 15.8527 214.35 15.8527C215.325 15.1296 216.378 14.5636 217.51 14.1549C218.642 13.7462 219.695 13.5418 220.67 13.5418C222.273 13.5418 223.735 13.9663 225.056 14.8152C226.377 15.6326 227.414 16.7803 228.169 18.258C228.923 19.7043 229.301 21.3235 229.301 23.1157C229.301 25.3166 228.829 27.2659 227.886 28.9638C226.942 30.6302 225.622 31.935 223.924 32.8782C222.258 33.8215 220.34 34.2931 218.17 34.2931ZM219.066 32.4538C220.481 32.4538 221.597 31.6834 222.415 30.1428C223.264 28.5708 223.688 26.6214 223.688 24.2947C223.688 22.9742 223.484 21.6851 223.075 20.4275C222.698 19.1384 222.1 18.0693 221.283 17.2204C220.497 16.3715 219.522 15.9471 218.359 15.9471C217.542 15.9471 216.724 16.0885 215.907 16.3715C215.121 16.623 214.46 16.9689 213.926 17.4091V27.1245C213.926 28.6651 214.429 29.9385 215.435 30.9446C216.472 31.9507 217.683 32.4538 219.066 32.4538ZM232.659 33.7743C232.376 33.7743 232.14 33.7271 231.951 33.6328C231.794 33.507 231.715 33.3498 231.715 33.1612C231.715 32.9097 231.794 32.721 231.951 32.5952C232.14 32.4695 232.423 32.3594 232.8 32.2651C233.46 32.0765 233.916 31.8564 234.168 31.6048C234.451 31.3219 234.592 30.9446 234.592 30.473V19.8615C234.592 19.0755 234.467 18.4624 234.215 18.0222C233.995 17.5506 233.586 17.2362 232.989 17.0789C232.611 16.9532 232.423 16.6859 232.423 16.2772C232.423 15.8999 232.596 15.6641 232.942 15.5698C233.853 15.3497 234.86 15.0195 235.96 14.5794C237.092 14.1392 238.035 13.7147 238.79 13.306C239.293 13.023 239.607 12.8815 239.733 12.8815C239.984 12.8815 240.11 13.0387 240.11 13.3531L239.969 17.0318C239.969 17.0947 239.984 17.1576 240.016 17.2204C240.047 17.2833 240.079 17.3148 240.11 17.3148C240.928 16.2458 241.855 15.3497 242.893 14.6265C243.93 13.8719 244.952 13.4946 245.958 13.4946C246.839 13.4946 247.515 13.6833 247.986 14.0606C248.458 14.4064 248.694 14.8781 248.694 15.4754C248.694 16.1357 248.426 16.8431 247.892 17.5977C247.389 18.3523 246.839 18.7296 246.241 18.7296C245.895 18.7296 245.345 18.541 244.591 18.1637C243.773 17.7864 243.207 17.5977 242.893 17.5977C241.981 17.5977 241.242 17.9279 240.676 18.5881C240.11 19.217 239.827 20.3174 239.827 21.8895V30.19C239.827 30.7245 240.016 31.1489 240.393 31.4634C240.771 31.7463 241.415 32.0293 242.327 32.3123C242.704 32.4066 242.971 32.5166 243.129 32.6424C243.286 32.7682 243.364 32.9411 243.364 33.1612C243.364 33.5699 243.081 33.7743 242.516 33.7743C241.541 33.7743 240.629 33.7271 239.78 33.6328C238.711 33.5699 237.909 33.5385 237.375 33.5385C236.903 33.5385 236.164 33.5699 235.158 33.6328C234.404 33.7271 233.57 33.7743 232.659 33.7743ZM259.63 34.2931C257.806 34.2931 256.14 33.8843 254.631 33.0669C253.121 32.218 251.927 31.0546 251.046 29.5769C250.197 28.0677 249.773 26.3856 249.773 24.5305C249.773 22.6126 250.245 20.8047 251.188 19.1069C252.162 17.4091 253.483 16.0571 255.149 15.051C256.816 14.0134 258.639 13.4946 260.62 13.4946C262.475 13.4946 264.173 13.9505 265.714 14.8623C267.286 15.7427 268.528 16.9375 269.439 18.4466C270.351 19.9244 270.807 21.5279 270.807 23.2572C270.807 25.2694 270.383 27.1245 269.534 28.8223C268.685 30.4887 267.412 31.8249 265.714 32.8311C264.047 33.8057 262.019 34.2931 259.63 34.2931ZM260.573 32.4538C262.239 32.4538 263.434 31.8092 264.157 30.5201C264.818 29.3253 265.148 27.2817 265.148 24.3891C265.148 22.7541 264.928 21.2606 264.487 19.9087C264.047 18.5252 263.418 17.4248 262.601 16.6073C261.815 15.7899 260.903 15.3811 259.866 15.3811C258.608 15.3811 257.618 15.8056 256.894 16.6545C256.328 17.2833 255.935 18.148 255.715 19.2484C255.527 20.3488 255.432 21.7323 255.432 23.3987C255.432 24.9393 255.652 26.4013 256.093 27.7847C256.564 29.1681 257.193 30.3 257.979 31.1804C258.765 32.0293 259.63 32.4538 260.573 32.4538ZM282.425 34.9533C282.11 34.9533 281.906 34.8119 281.811 34.5289L275.067 17.975C274.533 16.5916 273.715 15.727 272.615 15.3811C272.269 15.2553 272.017 15.1296 271.86 15.0038C271.734 14.8466 271.672 14.6422 271.672 14.3907C271.672 14.0763 272.033 13.9191 272.756 13.9191C273.574 13.9191 274.297 13.9663 274.926 14.0606C275.743 14.1235 276.419 14.1549 276.954 14.1549C277.52 14.1549 278.243 14.1235 279.123 14.0606C279.846 13.9663 280.632 13.9191 281.481 13.9191C281.733 13.9191 281.969 13.9663 282.189 14.0606C282.409 14.1235 282.519 14.2649 282.519 14.485C282.519 14.7051 282.44 14.8781 282.283 15.0038C282.126 15.0981 281.859 15.2082 281.481 15.334C280.821 15.554 280.491 16.1829 280.491 17.2204C280.491 17.7549 280.585 18.258 280.774 18.7296L283.839 26.7943C283.839 26.8572 283.887 26.8886 283.981 26.8886C284.075 26.8886 284.122 26.8572 284.122 26.7943L287.282 19.2956C287.502 18.6982 287.612 18.148 287.612 17.6449C287.612 17.2047 287.408 16.7803 286.999 16.3715C286.622 15.9313 286.15 15.6012 285.584 15.3811C284.956 15.161 284.641 14.8466 284.641 14.4379C284.641 14.092 285.018 13.9191 285.773 13.9191C286.433 13.9191 287.125 13.9663 287.848 14.0606C288.728 14.1235 289.357 14.1549 289.735 14.1549C290.552 14.1549 291.322 14.1077 292.046 14.0134C292.989 13.9505 293.696 13.9191 294.168 13.9191C294.419 13.9191 294.655 13.9663 294.875 14.0606C295.095 14.1235 295.205 14.2649 295.205 14.485C295.205 14.6737 295.143 14.8309 295.017 14.9567C294.891 15.051 294.734 15.1453 294.545 15.2396C294.356 15.3025 294.231 15.3497 294.168 15.3811C293.287 15.6641 292.847 16.1829 292.847 16.9375C292.847 17.4405 292.973 18.0379 293.225 18.7296L296.29 26.6528C296.353 26.8415 296.416 26.9358 296.479 26.9358C296.605 26.9358 296.683 26.8572 296.715 26.7L299.639 19.3899C299.922 18.7296 300.032 18.1008 299.969 17.5034C299.969 17.0003 299.827 16.5759 299.544 16.23C299.261 15.8527 298.915 15.5855 298.507 15.4283C298.161 15.3025 297.894 15.1767 297.705 15.051C297.548 14.9252 297.469 14.7523 297.469 14.5322C297.469 14.3436 297.579 14.2021 297.799 14.1077C298.019 14.0134 298.255 13.9663 298.507 13.9663C299.073 13.9663 299.67 13.9977 300.299 14.0606C300.991 14.1235 301.509 14.1549 301.855 14.1549C302.264 14.1549 302.814 14.1235 303.506 14.0606C303.6 14.0606 304.025 14.0291 304.779 13.9663C305.502 13.9663 305.864 14.1392 305.864 14.485C305.864 14.8938 305.55 15.2082 304.921 15.4283C304.386 15.6169 303.883 15.9785 303.412 16.513C302.971 17.0475 302.594 17.6921 302.28 18.4466L295.677 34.5289C295.551 34.7804 295.331 34.9062 295.017 34.9062C294.734 34.9062 294.545 34.7804 294.451 34.5289L288.839 21.4179C288.776 21.2921 288.713 21.2292 288.65 21.2292C288.618 21.2292 288.556 21.3078 288.461 21.465L283.085 34.5289C282.928 34.8119 282.707 34.9533 282.425 34.9533ZM307.867 33.7743C307.615 33.7743 307.395 33.7271 307.207 33.6328C307.018 33.507 306.924 33.3498 306.924 33.1612C306.924 32.9097 307.002 32.7367 307.16 32.6424C307.348 32.5166 307.631 32.3909 308.008 32.2651C308.669 32.0765 309.14 31.8721 309.423 31.652C309.738 31.4319 309.895 31.0389 309.895 30.473V19.9087C309.895 19.0912 309.785 18.4466 309.565 17.975C309.345 17.472 308.92 17.1576 308.291 17.0318C307.977 16.906 307.82 16.6388 307.82 16.23C307.82 15.8527 307.961 15.6169 308.244 15.5226C310.539 14.9881 312.583 14.2021 314.375 13.1645C314.438 13.1331 314.548 13.0702 314.705 12.9759C314.863 12.8501 315.004 12.7872 315.13 12.7872C315.381 12.7872 315.507 12.9601 315.507 13.306L315.413 14.2964C315.319 15.4283 315.271 16.0257 315.271 16.0885C315.271 16.4658 315.303 16.6859 315.366 16.7488C316.498 15.6798 317.629 14.8781 318.761 14.3436C319.893 13.809 321.167 13.5418 322.581 13.5418C324.216 13.5418 325.568 14.1706 326.637 15.4283C327.706 16.6545 328.241 18.258 328.241 20.2388V30.5201C328.241 31.0861 328.382 31.4791 328.665 31.6992C328.948 31.8878 329.42 32.0765 330.08 32.2651C330.395 32.3909 330.646 32.5324 330.835 32.6896C331.023 32.8153 331.118 32.9883 331.118 33.2084C331.118 33.397 331.023 33.5385 330.835 33.6328C330.646 33.7271 330.442 33.7743 330.222 33.7743C329.31 33.7743 328.492 33.7271 327.769 33.6328C326.889 33.5699 326.182 33.5385 325.647 33.5385C325.144 33.5385 324.421 33.5699 323.478 33.6328C322.786 33.7271 321.968 33.7743 321.025 33.7743C320.836 33.7743 320.648 33.7271 320.459 33.6328C320.302 33.5385 320.223 33.397 320.223 33.2084C320.223 32.7996 320.538 32.4852 321.167 32.2651C321.795 32.0765 322.251 31.8878 322.534 31.6992C322.817 31.4791 322.959 31.0861 322.959 30.5201V20.9462C322.959 19.6886 322.644 18.6982 322.016 17.975C321.418 17.2519 320.601 16.8903 319.563 16.8903C318.085 16.8903 316.733 17.3776 315.507 18.3523C315.256 18.5095 315.13 18.8239 315.13 19.2956V30.5201C315.13 31.0861 315.271 31.4791 315.554 31.6992C315.837 31.8878 316.293 32.0765 316.922 32.2651C317.582 32.4538 317.912 32.7525 317.912 33.1612C317.912 33.3498 317.834 33.507 317.677 33.6328C317.519 33.7271 317.315 33.7743 317.064 33.7743C316.183 33.7743 315.381 33.7271 314.658 33.6328C313.778 33.5699 313.086 33.5385 312.583 33.5385C312.112 33.5385 311.373 33.5699 310.367 33.6328C309.612 33.7271 308.779 33.7743 307.867 33.7743ZM344.528 33.7743C344.276 33.7743 344.056 33.7271 343.868 33.6328C343.679 33.507 343.585 33.3498 343.585 33.1612C343.585 32.9097 343.663 32.7367 343.821 32.6424C343.978 32.5166 344.214 32.4066 344.528 32.3123C345.377 32.0607 345.927 31.8249 346.179 31.6048C346.43 31.3533 346.556 30.9289 346.556 30.3315V16.9846C345.581 16.9846 344.764 16.9532 344.104 16.8903C343.946 16.8589 343.789 16.7017 343.632 16.4187C343.506 16.1357 343.443 15.8842 343.443 15.6641C343.443 15.4754 343.569 15.3497 343.821 15.2868L346.556 14.0606C346.65 10.8221 347.295 8.18105 348.49 6.13736C349.716 4.06223 351.178 2.58449 352.876 1.70413C354.605 0.792334 356.334 0.336435 358.064 0.336435C360.044 0.336435 361.506 0.619407 362.45 1.18535C363.393 1.7513 363.864 2.60021 363.864 3.7321C363.864 4.42381 363.707 4.97403 363.393 5.38277C363.078 5.76007 362.654 5.94871 362.119 5.94871C361.868 5.94871 361.616 5.85439 361.365 5.66574C361.113 5.44565 360.799 5.11552 360.422 4.67534C359.761 3.98363 359.101 3.43341 358.441 3.02467C357.781 2.61593 356.995 2.41156 356.083 2.41156C354.699 2.41156 353.63 3.00895 352.876 4.20372C352.153 5.39849 351.791 7.19065 351.791 9.58019V13.589C351.791 13.9663 352.011 14.1549 352.451 14.1549H357.969C358.189 14.1549 358.362 14.2335 358.488 14.3907C358.614 14.5165 358.677 14.6737 358.677 14.8623C358.677 15.4597 358.551 15.9785 358.299 16.4187C358.268 16.5444 358.205 16.6388 358.111 16.7017C358.048 16.7645 357.985 16.796 357.922 16.796H353.206C352.671 16.796 352.294 16.8746 352.074 17.0318C351.885 17.1576 351.791 17.3934 351.791 17.7392V29.8127C351.791 30.5987 351.98 31.1489 352.357 31.4634C352.766 31.7778 353.599 32.045 354.856 32.2651C355.202 32.328 355.454 32.4223 355.611 32.5481C355.768 32.6739 355.847 32.8625 355.847 33.114C355.847 33.3027 355.768 33.4599 355.611 33.5857C355.454 33.7114 355.25 33.7743 354.998 33.7743C353.992 33.7743 352.97 33.7271 351.932 33.6328C350.675 33.5699 349.779 33.5385 349.244 33.5385C348.773 33.5385 348.034 33.5699 347.028 33.6328C346.273 33.7271 345.44 33.7743 344.528 33.7743ZM368.784 34.2931C366.96 34.2931 365.294 33.8843 363.785 33.0669C362.276 32.218 361.081 31.0546 360.201 29.5769C359.352 28.0677 358.927 26.3856 358.927 24.5305C358.927 22.6126 359.399 20.8047 360.342 19.1069C361.317 17.4091 362.637 16.0571 364.304 15.051C365.97 14.0134 367.794 13.4946 369.774 13.4946C371.629 13.4946 373.327 13.9505 374.868 14.8623C376.44 15.7427 377.682 16.9375 378.594 18.4466C379.506 19.9244 379.961 21.5279 379.961 23.2572C379.961 25.2694 379.537 27.1245 378.688 28.8223C377.839 30.4887 376.566 31.8249 374.868 32.8311C373.202 33.8057 371.174 34.2931 368.784 34.2931ZM369.727 32.4538C371.394 32.4538 372.588 31.8092 373.312 30.5201C373.972 29.3253 374.302 27.2817 374.302 24.3891C374.302 22.7541 374.082 21.2606 373.642 19.9087C373.202 18.5252 372.573 17.4248 371.755 16.6073C370.969 15.7899 370.057 15.3811 369.02 15.3811C367.762 15.3811 366.772 15.8056 366.049 16.6545C365.483 17.2833 365.09 18.148 364.87 19.2484C364.681 20.3488 364.587 21.7323 364.587 23.3987C364.587 24.9393 364.807 26.4013 365.247 27.7847C365.719 29.1681 366.347 30.3 367.133 31.1804C367.919 32.0293 368.784 32.4538 369.727 32.4538ZM381.268 33.8215C380.545 33.8215 380.183 33.6485 380.183 33.3027C380.183 33.0511 380.262 32.8625 380.419 32.7367C380.576 32.5795 380.828 32.4538 381.174 32.3594C381.582 32.2337 381.991 31.9979 382.4 31.652C382.809 31.3062 383.312 30.7245 383.909 29.907L388.012 24.2476C388.232 23.996 388.342 23.7917 388.342 23.6345C388.342 23.5087 388.264 23.3201 388.106 23.0685L384.428 17.6449C383.988 16.9217 383.61 16.403 383.296 16.0885C383.013 15.7741 382.636 15.5383 382.164 15.3811C381.535 15.161 381.221 14.8466 381.221 14.4379C381.221 14.092 381.598 13.9191 382.353 13.9191C383.013 13.9191 383.72 13.9505 384.475 14.0134C385.041 14.1077 385.78 14.1549 386.692 14.1549C387.226 14.1549 387.871 14.1235 388.625 14.0606C389.443 13.9977 390.134 13.9663 390.7 13.9663C391.455 13.9663 391.832 14.1549 391.832 14.5322C391.832 14.7208 391.754 14.8623 391.596 14.9567C391.471 15.051 391.313 15.1296 391.125 15.1925C390.968 15.2553 390.858 15.3025 390.795 15.334C390.417 15.4597 390.119 15.6012 389.899 15.7584C389.71 15.8842 389.616 16.0885 389.616 16.3715C389.616 16.7488 389.82 17.2204 390.229 17.7864L392.398 20.9934C392.461 21.1192 392.524 21.182 392.587 21.182C392.681 21.182 392.76 21.1192 392.823 20.9934L394.568 18.1165C394.945 17.4877 395.118 16.906 395.086 16.3715C395.086 15.8999 394.835 15.5855 394.332 15.4283C393.986 15.3025 393.734 15.1925 393.577 15.0981C393.42 14.9724 393.341 14.7995 393.341 14.5794C393.341 14.2021 393.703 14.0134 394.426 14.0134L396.171 14.0606C396.454 14.092 396.816 14.1077 397.256 14.1077C397.665 14.1077 398.183 14.0763 398.812 14.0134C399.378 13.9505 399.866 13.9191 400.274 13.9191C400.966 13.9191 401.312 14.0763 401.312 14.3907C401.312 14.6422 401.233 14.8466 401.076 15.0038C400.95 15.1296 400.714 15.2553 400.369 15.3811C399.394 15.6955 398.451 16.4501 397.539 17.6449L394.285 22.1253C394.127 22.3768 394.049 22.5497 394.049 22.6441C394.049 22.7698 394.127 22.9585 394.285 23.21L398.435 29.8127C399.252 31.1018 400.196 31.9193 401.265 32.2651C401.611 32.4223 401.862 32.5638 402.019 32.6896C402.176 32.8153 402.255 33.004 402.255 33.2555C402.255 33.5699 401.893 33.7271 401.17 33.7271C400.479 33.7271 399.661 33.6957 398.718 33.6328C398.026 33.5385 397.193 33.4913 396.218 33.4913C395.715 33.4913 394.961 33.5228 393.955 33.5857C392.948 33.6485 392.131 33.68 391.502 33.68C390.779 33.68 390.417 33.4913 390.417 33.114C390.417 32.8625 390.496 32.6896 390.653 32.5952C390.842 32.4695 391.125 32.3437 391.502 32.218C391.942 32.0922 392.272 31.9193 392.493 31.6992C392.744 31.4476 392.87 31.0861 392.87 30.6144C392.87 30.1743 392.713 29.7026 392.398 29.1996L389.851 25.3795C389.82 25.348 389.773 25.3323 389.71 25.3323C389.647 25.3323 389.6 25.348 389.568 25.3795L387.069 29.5297C386.723 30.0328 386.55 30.5358 386.55 31.0389C386.55 31.6992 386.817 32.1236 387.352 32.3123C387.415 32.3437 387.541 32.4066 387.729 32.5009C387.949 32.5952 388.106 32.7053 388.201 32.8311C388.327 32.9254 388.389 33.0511 388.389 33.2084C388.389 33.4284 388.264 33.5699 388.012 33.6328C387.792 33.7271 387.556 33.7743 387.305 33.7743L386.22 33.7271C385.78 33.6957 385.214 33.68 384.522 33.68L382.777 33.7271C382.211 33.79 381.708 33.8215 381.268 33.8215ZM413.248 47.1683C412.776 47.1683 412.399 47.1054 412.116 46.9797C411.801 46.8853 411.644 46.7281 411.644 46.508C411.644 46.1622 411.896 45.8478 412.399 45.5648C412.996 45.3447 413.515 45.0303 413.955 44.6216C414.427 44.2443 414.851 43.6469 415.228 42.8294C415.794 41.6346 416.187 39.9054 416.407 37.6416C416.627 35.3778 416.737 33.1455 416.737 30.9446V20.3331C416.737 19.3584 416.565 18.6196 416.219 18.1165C415.904 17.6134 415.386 17.2833 414.662 17.1261C414.505 17.0947 414.379 17.0161 414.285 16.8903C414.191 16.7331 414.144 16.5602 414.144 16.3715C414.144 16.2143 414.191 16.0728 414.285 15.9471C414.379 15.7899 414.489 15.6955 414.615 15.6641C416.344 15.2868 417.822 14.7837 419.048 14.1549C420.275 13.4946 420.966 13.1331 421.124 13.0702C421.627 12.8501 421.91 12.74 421.972 12.74C422.287 12.74 422.444 12.8972 422.444 13.2117L422.303 14.7208C422.083 17.4248 421.972 19.2956 421.972 20.3331L422.02 29.3411C422.02 31.4476 421.91 33.4599 421.69 35.3778C421.469 37.3272 421.014 39.135 420.322 40.8014C419.662 42.4364 418.608 43.8984 417.162 45.1875C415.747 46.508 414.442 47.1683 413.248 47.1683ZM419.096 10.0046C418.184 10.0046 417.413 9.69023 416.785 9.06141C416.156 8.43258 415.841 7.67799 415.841 6.79763C415.841 5.85439 416.156 5.06836 416.785 4.43953C417.413 3.77926 418.184 3.44913 419.096 3.44913C420.039 3.44913 420.825 3.77926 421.454 4.43953C422.083 5.06836 422.397 5.85439 422.397 6.79763C422.397 7.70943 422.083 8.47974 421.454 9.10857C420.825 9.70595 420.039 10.0046 419.096 10.0046ZM441.683 34.5761C441.431 34.5761 441.306 34.4346 441.306 34.1516L441.4 32.6896C441.494 32.1236 441.541 31.6206 441.541 31.1804L441.494 30.7559C440.52 31.8564 439.372 32.7367 438.051 33.397C436.731 34.0258 435.363 34.3402 433.948 34.3402C432.408 34.3402 431.134 33.7586 430.128 32.5952C429.153 31.4005 428.666 29.8756 428.666 28.0205V18.9654C428.666 18.2108 428.509 17.6292 428.195 17.2204C427.912 16.7803 427.424 16.4658 426.733 16.2772C426.261 16.2143 426.025 15.9471 426.025 15.4754C426.025 14.9724 426.261 14.6894 426.733 14.6265C427.864 14.5636 428.871 14.4693 429.751 14.3436C430.631 14.1863 431.685 13.9663 432.911 13.6833C433.225 13.5575 433.477 13.4946 433.665 13.4946C434.074 13.4946 434.263 13.7147 434.231 14.1549C434.011 15.5069 433.901 16.7174 433.901 17.7864V26.8886C433.901 28.0205 434.216 28.9638 434.844 29.7184C435.473 30.473 436.244 30.866 437.155 30.8974C438.539 30.8974 439.608 30.5516 440.362 29.8599C440.677 29.6083 440.975 29.2153 441.258 28.6808C441.541 28.1463 441.683 27.5018 441.683 26.7472V18.8239C441.683 18.0065 441.416 17.3934 440.881 16.9846C440.347 16.5444 439.702 16.3086 438.947 16.2772C438.224 16.2143 437.863 15.8842 437.863 15.2868C437.863 15.0038 437.957 14.7995 438.146 14.6737C438.366 14.5165 438.633 14.4379 438.947 14.4379C440.96 14.3436 442.437 14.2492 443.381 14.1549C444.324 14.0291 445.251 13.8405 446.163 13.589L446.729 13.4946C447.201 13.4946 447.437 13.6676 447.437 14.0134C447.437 14.0763 447.374 14.2964 447.248 14.6737C447.185 15.0195 447.106 15.554 447.012 16.2772C446.949 17.0003 446.918 17.5506 446.918 17.9279V28.8694C446.918 30.19 447.201 30.8503 447.767 30.8503L449.37 30.8031C449.936 30.8031 450.219 31.0703 450.219 31.6048C450.219 31.8878 450.156 32.1079 450.031 32.2651C449.936 32.3909 449.748 32.4695 449.465 32.5009C447.452 32.6896 445.236 33.287 442.815 34.2931C442.312 34.4817 441.934 34.5761 441.683 34.5761ZM452.623 33.7743C452.371 33.7743 452.151 33.7271 451.963 33.6328C451.774 33.507 451.68 33.3498 451.68 33.1612C451.68 32.8153 452.041 32.5166 452.764 32.2651C453.425 32.0765 453.896 31.8721 454.179 31.652C454.494 31.4319 454.651 31.0389 454.651 30.473V19.9087C454.651 19.0912 454.525 18.4309 454.274 17.9279C454.054 17.4248 453.645 17.1261 453.047 17.0318C452.733 16.9689 452.576 16.7017 452.576 16.23C452.576 15.8527 452.717 15.6169 453 15.5226C455.264 14.9881 457.371 14.1706 459.32 13.0702C459.572 12.8815 459.76 12.7872 459.886 12.7872C460.012 12.7872 460.106 12.8344 460.169 12.9287C460.232 13.023 460.263 13.1331 460.263 13.2588L460.169 14.2964C460.137 14.5165 460.106 14.7837 460.075 15.0981C460.043 15.4126 460.027 15.7584 460.027 16.1357C460.027 16.4501 460.059 16.6388 460.122 16.7017H460.216C461.222 15.727 462.291 14.9567 463.423 14.3907C464.586 13.8248 465.891 13.5418 467.338 13.5418C468.344 13.5418 469.255 13.8562 470.073 14.485C470.89 15.0824 471.504 15.9313 471.912 17.0318H472.101C474.27 14.7051 476.707 13.5418 479.411 13.5418C480.92 13.5418 482.146 14.1706 483.09 15.4283C484.033 16.6859 484.505 18.2894 484.505 20.2388V30.5201C484.505 31.0861 484.646 31.4791 484.929 31.6992C485.212 31.8878 485.684 32.0765 486.344 32.2651C487.036 32.4852 487.381 32.7839 487.381 33.1612C487.381 33.3498 487.287 33.507 487.098 33.6328C486.941 33.7271 486.737 33.7743 486.485 33.7743C485.574 33.7743 484.756 33.7271 484.033 33.6328C483.153 33.5699 482.445 33.5385 481.911 33.5385C481.376 33.5385 480.7 33.5699 479.883 33.6328C479.222 33.7271 478.452 33.7743 477.572 33.7743C477.32 33.7743 477.116 33.7271 476.959 33.6328C476.801 33.507 476.723 33.3498 476.723 33.1612C476.723 32.9097 476.801 32.7367 476.959 32.6424C477.116 32.5166 477.367 32.3909 477.713 32.2651C478.216 32.1393 478.594 31.9664 478.845 31.7463C479.097 31.5262 479.222 31.1647 479.222 30.6616V20.9462C479.222 19.7829 478.939 18.8239 478.373 18.0693C477.807 17.2833 477.1 16.8903 476.251 16.8903C475.056 16.8903 473.987 17.2676 473.044 18.0222C472.447 18.5252 472.148 19.3427 472.148 20.4746V30.5201C472.148 31.0861 472.274 31.4791 472.525 31.6992C472.808 31.8878 473.249 32.0765 473.846 32.2651C474.506 32.5166 474.836 32.8153 474.836 33.1612C474.836 33.3498 474.758 33.507 474.6 33.6328C474.443 33.7271 474.239 33.7743 473.987 33.7743C473.138 33.7743 472.352 33.7271 471.629 33.6328C470.812 33.5699 470.136 33.5385 469.601 33.5385C469.067 33.5385 468.391 33.5699 467.573 33.6328C466.882 33.7271 466.096 33.7743 465.215 33.7743C464.995 33.7743 464.791 33.7271 464.602 33.6328C464.445 33.507 464.366 33.3498 464.366 33.1612C464.366 32.9411 464.445 32.7682 464.602 32.6424C464.759 32.5166 465.011 32.3909 465.357 32.2651C465.891 32.1393 466.284 31.9664 466.536 31.7463C466.787 31.5262 466.913 31.1647 466.913 30.6616V20.9462C466.913 19.7829 466.63 18.8239 466.064 18.0693C465.498 17.3148 464.791 16.9217 463.942 16.8903C462.779 16.8903 461.694 17.2676 460.688 18.0222C460.153 18.3995 459.886 19.1855 459.886 20.3803V30.5201C459.886 31.0546 459.996 31.4476 460.216 31.6992C460.468 31.9193 460.861 32.1079 461.395 32.2651C462.055 32.5166 462.386 32.8153 462.386 33.1612C462.386 33.3498 462.307 33.507 462.15 33.6328C461.993 33.7271 461.788 33.7743 461.537 33.7743C460.656 33.7743 459.886 33.7271 459.226 33.6328C458.408 33.5699 457.732 33.5385 457.198 33.5385C456.663 33.5385 455.956 33.5699 455.075 33.6328C454.384 33.7271 453.566 33.7743 452.623 33.7743ZM489.969 46.3666C489.749 46.3666 489.529 46.3037 489.309 46.1779C489.12 46.0836 489.026 45.9421 489.026 45.7534C489.026 45.3762 489.388 45.0775 490.111 44.8574C490.771 44.6373 491.243 44.4015 491.526 44.1499C491.84 43.9299 491.997 43.5683 491.997 43.0652V20.003C491.997 19.4056 491.809 18.7925 491.431 18.1637C491.054 17.5348 490.551 17.1733 489.922 17.0789C489.608 16.9846 489.451 16.7174 489.451 16.2772C489.451 15.9313 489.592 15.6955 489.875 15.5698C492.296 15.0038 494.418 14.2964 496.242 13.4475C496.305 13.416 496.399 13.3689 496.525 13.306C496.651 13.2117 496.745 13.1645 496.808 13.1645C497.059 13.1645 497.185 13.3374 497.185 13.6833L497.091 14.8623C496.997 15.4283 496.949 15.9628 496.949 16.4658C496.949 16.7488 496.981 16.9217 497.044 16.9846C497.39 16.6073 497.971 16.1671 498.789 15.6641C499.638 15.1296 500.581 14.6737 501.618 14.2964C502.656 13.9191 503.631 13.7304 504.542 13.7304C506.146 13.7304 507.545 14.1706 508.74 15.051C509.935 15.8999 510.846 17.0318 511.475 18.4466C512.136 19.8301 512.466 21.3078 512.466 22.8799C512.466 24.7978 511.978 26.6528 511.004 28.445C510.029 30.2057 508.708 31.652 507.042 32.7839C505.376 33.8843 503.568 34.4346 501.618 34.4346C501.021 34.4346 500.298 34.3088 499.449 34.0573C498.6 33.8372 497.908 33.5699 497.374 33.2555C497.311 33.2555 497.264 33.4284 497.232 33.7743C497.201 34.1202 497.185 34.4031 497.185 34.6232V42.7822C497.185 43.3796 497.39 43.8041 497.798 44.0556C498.207 44.3071 498.867 44.5744 499.779 44.8574C500.471 45.0775 500.817 45.3762 500.817 45.7534C500.817 45.9421 500.722 46.0836 500.534 46.1779C500.376 46.3037 500.188 46.3666 499.968 46.3666C498.962 46.3666 498.018 46.3194 497.138 46.2251C496.006 46.1622 495.189 46.1307 494.686 46.1307C494.214 46.1307 493.475 46.1622 492.469 46.2251C491.714 46.3194 490.881 46.3666 489.969 46.3666ZM501.76 32.4538C502.357 32.4538 503.049 32.1865 503.835 31.652C504.621 31.1175 505.297 30.2529 505.863 29.0581C506.46 27.8633 506.759 26.3384 506.759 24.4834C506.759 21.4336 506.193 19.3584 505.061 18.258C503.961 17.1576 502.782 16.6073 501.524 16.6073C500.927 16.6073 500.298 16.7488 499.638 17.0318C498.977 17.2833 498.411 17.5977 497.94 17.975C497.5 18.3209 497.28 18.6196 497.28 18.8711L497.185 26.4642C497.185 27.376 497.39 28.3035 497.798 29.2467C498.207 30.19 498.757 30.9603 499.449 31.5577C500.172 32.1551 500.942 32.4538 501.76 32.4538ZM521.145 34.2931C518.976 34.2931 517.168 33.7586 515.722 32.6896C515.502 32.2808 515.329 31.6048 515.203 30.6616C515.077 29.7184 515.03 28.7751 515.061 27.8319C515.061 27.6432 515.14 27.5018 515.297 27.4074C515.454 27.3131 515.643 27.2659 515.863 27.2659C516.052 27.2659 516.225 27.3288 516.382 27.4546C516.571 27.5804 516.696 27.7218 516.759 27.879C517.294 29.3253 517.97 30.4572 518.787 31.2747C519.605 32.0607 520.532 32.4538 521.57 32.4538C522.419 32.4538 523.095 32.2022 523.598 31.6992C524.132 31.1647 524.399 30.5044 524.399 29.7184C524.399 28.9323 524.116 28.2563 523.551 27.6904C522.985 27.1245 522.12 26.5113 520.957 25.8511C519.29 24.9393 518.017 23.996 517.137 23.0214C516.288 22.0467 515.863 20.8362 515.863 19.3899C515.863 17.6606 516.523 16.2458 517.844 15.1453C519.164 14.0449 520.894 13.4946 523.032 13.4946C523.975 13.4946 524.84 13.6047 525.626 13.8248C526.443 14.0134 527.041 14.2335 527.418 14.485C527.669 14.7995 527.874 15.3654 528.031 16.1829C528.188 17.0003 528.267 17.8807 528.267 18.8239C528.267 18.9497 528.188 19.0598 528.031 19.1541C527.905 19.217 527.748 19.2484 527.559 19.2484C527.339 19.2484 527.119 19.2012 526.899 19.1069C526.679 18.9811 526.537 18.8397 526.475 18.6825C525.594 16.3244 524.352 15.1453 522.749 15.1453C521.994 15.1453 521.334 15.3811 520.768 15.8527C520.202 16.3244 519.919 16.9532 519.919 17.7392C519.919 18.368 520.171 18.9497 520.674 19.4842C521.208 20.0187 522.026 20.5847 523.126 21.182C525.201 22.3139 526.648 23.3672 527.465 24.3419C528.314 25.2851 528.738 26.5271 528.738 28.0677C528.738 29.9856 528.062 31.5105 526.71 32.6424C525.39 33.7429 523.535 34.2931 521.145 34.2931ZM551.813 34.2931C549.99 34.2931 548.323 33.8843 546.814 33.0669C545.305 32.218 544.11 31.0546 543.23 29.5769C542.381 28.0677 541.956 26.3856 541.956 24.5305C541.956 22.6126 542.428 20.8047 543.371 19.1069C544.346 17.4091 545.666 16.0571 547.333 15.051C548.999 14.0134 550.823 13.4946 552.804 13.4946C554.659 13.4946 556.356 13.9505 557.897 14.8623C559.469 15.7427 560.711 16.9375 561.623 18.4466C562.535 19.9244 562.991 21.5279 562.991 23.2572C562.991 25.2694 562.566 27.1245 561.717 28.8223C560.868 30.4887 559.595 31.8249 557.897 32.8311C556.231 33.8057 554.203 34.2931 551.813 34.2931ZM552.756 32.4538C554.423 32.4538 555.618 31.8092 556.341 30.5201C557.001 29.3253 557.331 27.2817 557.331 24.3891C557.331 22.7541 557.111 21.2606 556.671 19.9087C556.231 18.5252 555.602 17.4248 554.784 16.6073C553.998 15.7899 553.087 15.3811 552.049 15.3811C550.791 15.3811 549.801 15.8056 549.078 16.6545C548.512 17.2833 548.119 18.148 547.899 19.2484C547.71 20.3488 547.616 21.7323 547.616 23.3987C547.616 24.9393 547.836 26.4013 548.276 27.7847C548.748 29.1681 549.376 30.3 550.162 31.1804C550.948 32.0293 551.813 32.4538 552.756 32.4538ZM574.561 34.6232C574.403 34.6232 574.231 34.4503 574.042 34.1044C573.885 33.79 573.759 33.507 573.665 33.2555C573.57 32.9725 573.492 32.7682 573.429 32.6424C573.177 32.1079 572.69 30.8817 571.967 28.9638C571.558 27.9891 571.071 26.8729 570.505 25.6153C569.939 24.3576 569.53 23.4301 569.279 22.8327C568.618 21.4493 567.895 19.8301 567.109 17.975C566.449 16.4973 565.647 15.6169 564.704 15.334C564.389 15.2082 564.169 15.0824 564.044 14.9567C563.918 14.8309 563.855 14.6422 563.855 14.3907C563.855 14.0763 564.216 13.9191 564.94 13.9191C565.851 13.9191 566.59 13.9663 567.156 14.0606C567.911 14.1235 568.587 14.1549 569.184 14.1549C569.782 14.1549 570.52 14.1235 571.401 14.0606C572.124 13.9663 572.957 13.9191 573.9 13.9191C574.152 13.9191 574.388 13.9663 574.608 14.0606C574.828 14.1235 574.938 14.2649 574.938 14.485C574.938 14.7051 574.859 14.8781 574.702 15.0038C574.545 15.0981 574.278 15.2082 573.9 15.334C573.209 15.6169 572.863 16.2772 572.863 17.3148C572.863 17.975 572.926 18.4466 573.052 18.7296L576.353 27.2188C576.416 27.2502 576.463 27.2502 576.494 27.2188L579.56 19.2012C579.78 18.7296 579.89 18.1794 579.89 17.5506C579.89 16.4187 579.418 15.6955 578.475 15.3811C578.066 15.2239 577.783 15.0981 577.626 15.0038C577.469 14.8781 577.39 14.7051 577.39 14.485C577.39 14.1077 577.752 13.9191 578.475 13.9191C578.915 13.9191 579.418 13.9505 579.984 14.0134C580.802 14.0763 581.399 14.1077 581.776 14.1077C582.122 14.1077 582.641 14.0763 583.333 14.0134C583.899 13.9505 584.418 13.9191 584.889 13.9191C585.581 13.9191 585.927 14.092 585.927 14.4379C585.927 14.6894 585.848 14.8781 585.691 15.0038C585.565 15.1296 585.329 15.2553 584.983 15.3811C584.418 15.5698 583.883 15.9313 583.38 16.4658C582.877 17.0003 582.468 17.6449 582.154 18.3995L578.475 27.5018L578.098 28.3978L576.872 31.369C576.714 31.7778 576.494 32.2966 576.211 32.9254C575.928 33.5542 575.645 34.1202 575.362 34.6232H574.561ZM594.757 34.2931C593.06 34.2931 591.535 33.8529 590.183 32.9725C588.862 32.0922 587.825 30.8817 587.07 29.3411C586.315 27.769 585.938 25.9926 585.938 24.0118C585.938 22.1253 586.378 20.3803 587.259 18.7768C588.171 17.1733 589.381 15.8999 590.89 14.9567C592.399 14.0134 594.05 13.5418 595.842 13.5418C597.823 13.5418 599.474 14.1392 600.794 15.334C602.115 16.5287 602.775 18.0379 602.775 19.8615C602.775 20.4274 602.649 20.8519 602.398 21.1349C602.178 21.4179 601.816 21.5593 601.313 21.5593H591.739C591.299 21.5593 590.985 21.6851 590.796 21.9366C590.607 22.1882 590.513 22.6126 590.513 23.21C590.513 24.5305 590.796 25.7253 591.362 26.7943C591.928 27.8633 592.698 28.7122 593.673 29.3411C594.679 29.9699 595.795 30.2843 597.021 30.2843C598.656 30.2843 600.228 29.6083 601.737 28.2563C601.989 28.0048 602.193 27.879 602.351 27.879C602.476 27.879 602.586 27.9419 602.681 28.0677C602.775 28.162 602.822 28.2878 602.822 28.445C602.822 28.8537 602.634 29.3882 602.256 30.0485C601.69 31.2433 600.731 32.2494 599.379 33.0669C598.027 33.8843 596.487 34.2931 594.757 34.2931ZM595.088 19.72C596.471 19.72 597.477 19.6414 598.106 19.4842C598.389 19.4213 598.53 19.0126 598.53 18.258C598.53 17.4091 598.2 16.7017 597.54 16.1357C596.911 15.5383 596.125 15.2396 595.182 15.2396C594.522 15.2396 593.877 15.444 593.248 15.8527C592.619 16.23 592.101 16.7331 591.692 17.3619C591.315 17.9593 591.126 18.5567 591.126 19.1541C591.126 19.5314 591.346 19.72 591.786 19.72H595.088ZM606.086 33.7743C605.803 33.7743 605.567 33.7271 605.379 33.6328C605.221 33.507 605.143 33.3498 605.143 33.1612C605.143 32.9097 605.221 32.721 605.379 32.5952C605.567 32.4695 605.85 32.3594 606.227 32.2651C606.888 32.0765 607.344 31.8564 607.595 31.6048C607.878 31.3219 608.02 30.9446 608.02 30.473V19.8615C608.02 19.0755 607.894 18.4624 607.642 18.0222C607.422 17.5506 607.013 17.2362 606.416 17.0789C606.039 16.9532 605.85 16.6859 605.85 16.2772C605.85 15.8999 606.023 15.6641 606.369 15.5698C607.281 15.3497 608.287 15.0195 609.387 14.5794C610.519 14.1392 611.462 13.7147 612.217 13.306C612.72 13.023 613.034 12.8815 613.16 12.8815C613.412 12.8815 613.538 13.0387 613.538 13.3531L613.396 17.0318C613.396 17.0947 613.412 17.1576 613.443 17.2204C613.475 17.2833 613.506 17.3148 613.538 17.3148C614.355 16.2458 615.283 15.3497 616.32 14.6265C617.358 13.8719 618.38 13.4946 619.386 13.4946C620.266 13.4946 620.942 13.6833 621.414 14.0606C621.885 14.4064 622.121 14.8781 622.121 15.4754C622.121 16.1357 621.854 16.8431 621.319 17.5977C620.816 18.3523 620.266 18.7296 619.669 18.7296C619.323 18.7296 618.773 18.541 618.018 18.1637C617.2 17.7864 616.635 17.5977 616.32 17.5977C615.408 17.5977 614.669 17.9279 614.104 18.5881C613.538 19.217 613.255 20.3174 613.255 21.8895V30.19C613.255 30.7245 613.443 31.1489 613.821 31.4634C614.198 31.7463 614.842 32.0293 615.754 32.3123C616.131 32.4066 616.399 32.5166 616.556 32.6424C616.713 32.7682 616.792 32.9411 616.792 33.1612C616.792 33.5699 616.509 33.7743 615.943 33.7743C614.968 33.7743 614.056 33.7271 613.207 33.6328C612.138 33.5699 611.337 33.5385 610.802 33.5385C610.331 33.5385 609.592 33.5699 608.586 33.6328C607.831 33.7271 606.998 33.7743 606.086 33.7743ZM642.745 34.2931C640.859 34.2931 639.428 33.79 638.453 32.7839C637.479 31.7778 636.991 30.3158 636.991 28.3978V17.5034C636.991 17.2204 636.881 17.0318 636.661 16.9375C636.441 16.8117 636.048 16.7331 635.482 16.7017H634.963C634.775 16.7017 634.618 16.5602 634.492 16.2772C634.366 15.9942 634.303 15.6955 634.303 15.3811C634.303 15.161 634.398 15.0038 634.586 14.9095C635.529 14.4693 636.551 13.809 637.652 12.9287C638.784 12.0483 639.758 11.2151 640.576 10.4291C640.639 10.3662 640.764 10.2562 640.953 10.099C641.142 9.91032 641.362 9.816 641.613 9.816C642.148 9.816 642.384 10.0833 642.321 10.6178L642.038 13.2117V13.4003C642.038 13.6833 642.132 13.8877 642.321 14.0134C642.509 14.1077 642.808 14.1549 643.217 14.1549H648.735C648.829 14.1549 648.923 14.2649 649.018 14.485C649.112 14.7051 649.159 14.9252 649.159 15.1453C649.159 15.554 649.096 15.9313 648.971 16.2772C648.845 16.623 648.719 16.796 648.593 16.796H644.113C643.358 16.796 642.855 16.8746 642.604 17.0318C642.352 17.189 642.226 17.5191 642.226 18.0222V27.0773C642.226 28.4607 642.494 29.514 643.028 30.2371C643.563 30.9289 644.317 31.2747 645.292 31.2747C646.109 31.2747 646.738 31.2118 647.178 31.0861C647.619 30.9603 648.075 30.7559 648.546 30.473C648.609 30.4101 648.703 30.3786 648.829 30.3786C648.955 30.3786 649.049 30.473 649.112 30.6616C649.206 30.8188 649.254 31.0232 649.254 31.2747C649.254 31.4634 648.923 31.8092 648.263 32.3123C647.603 32.8153 646.77 33.2712 645.764 33.68C644.789 34.0887 643.783 34.2931 642.745 34.2931ZM651.398 33.7743C651.115 33.7743 650.879 33.7271 650.69 33.6328C650.533 33.507 650.455 33.3498 650.455 33.1612C650.455 32.9411 650.533 32.7682 650.69 32.6424C650.879 32.5166 651.162 32.3909 651.539 32.2651C652.231 32.0136 652.718 31.7935 653.001 31.6048C653.284 31.3848 653.426 30.9917 653.426 30.4258V7.4579C653.426 6.48322 653.284 5.7129 653.001 5.14696C652.75 4.58101 652.247 4.21944 651.492 4.06223C651.178 3.99935 651.021 3.76354 651.021 3.3548C651.021 3.00895 651.162 2.78886 651.445 2.69454C652.797 2.38012 654.998 1.65697 658.048 0.525083C658.236 0.430758 658.394 0.383596 658.519 0.383596C658.834 0.383596 658.991 0.540803 658.991 0.855216C658.991 1.04386 658.928 1.49977 658.802 2.22292C658.708 2.91462 658.661 3.8893 658.661 5.14696V15.1925C658.661 15.9471 658.755 16.4344 658.944 16.6545C660.076 15.7427 661.176 15.0038 662.245 14.4379C663.346 13.8405 664.572 13.5418 665.924 13.5418C667.59 13.5418 668.958 14.1549 670.027 15.3811C671.127 16.5759 671.678 18.1637 671.678 20.1445V30.2843C671.678 30.8817 671.819 31.3062 672.102 31.5577C672.385 31.8092 672.825 32.045 673.423 32.2651C673.8 32.3909 674.067 32.5166 674.224 32.6424C674.382 32.7682 674.46 32.9411 674.46 33.1612C674.46 33.5699 674.13 33.7743 673.47 33.7743C672.526 33.7743 671.725 33.7271 671.064 33.6328C670.31 33.5699 669.634 33.5385 669.037 33.5385C668.376 33.5385 667.7 33.5699 667.009 33.6328C666.443 33.7271 665.688 33.7743 664.745 33.7743C664.053 33.7743 663.707 33.5542 663.707 33.114C663.707 32.8939 663.786 32.7367 663.943 32.6424C664.1 32.5166 664.352 32.3909 664.698 32.2651C665.232 32.0765 665.641 31.8407 665.924 31.5577C666.238 31.2747 666.395 30.8345 666.395 30.2371V20.8519C666.395 19.7829 666.034 18.8711 665.311 18.1165C664.619 17.3619 663.833 16.9846 662.953 16.9846C662.387 16.9846 661.789 17.0789 661.16 17.2676C660.532 17.4248 659.981 17.6763 659.51 18.0222C659.164 18.2737 658.928 18.5567 658.802 18.8711C658.708 19.1541 658.661 19.6257 658.661 20.286V30.3786C658.692 30.9446 658.834 31.3533 659.085 31.6048C659.368 31.8249 659.777 32.0293 660.312 32.218C660.972 32.438 661.302 32.7367 661.302 33.114C661.302 33.5542 661.019 33.7743 660.453 33.7743C659.573 33.7743 658.771 33.7271 658.048 33.6328C657.167 33.5699 656.476 33.5385 655.973 33.5385C655.438 33.5385 654.731 33.5699 653.85 33.6328C653.159 33.7271 652.341 33.7743 651.398 33.7743ZM685.351 34.2931C683.653 34.2931 682.128 33.8529 680.776 32.9725C679.456 32.0922 678.418 30.8817 677.664 29.3411C676.909 27.769 676.532 25.9926 676.532 24.0118C676.532 22.1253 676.972 20.3803 677.852 18.7768C678.764 17.1733 679.974 15.8999 681.484 14.9567C682.993 14.0134 684.643 13.5418 686.436 13.5418C688.416 13.5418 690.067 14.1392 691.388 15.334C692.708 16.5287 693.368 18.0379 693.368 19.8615C693.368 20.4274 693.243 20.8519 692.991 21.1349C692.771 21.4179 692.409 21.5593 691.906 21.5593H682.333C681.892 21.5593 681.578 21.6851 681.389 21.9366C681.201 22.1882 681.106 22.6126 681.106 23.21C681.106 24.5305 681.389 25.7253 681.955 26.7943C682.521 27.8633 683.292 28.7122 684.266 29.3411C685.272 29.9699 686.388 30.2843 687.615 30.2843C689.25 30.2843 690.822 29.6083 692.331 28.2563C692.582 28.0048 692.787 27.879 692.944 27.879C693.07 27.879 693.18 27.9419 693.274 28.0677C693.368 28.162 693.416 28.2878 693.416 28.445C693.416 28.8537 693.227 29.3882 692.85 30.0485C692.284 31.2433 691.325 32.2494 689.973 33.0669C688.621 33.8843 687.08 34.2931 685.351 34.2931ZM685.681 19.72C687.064 19.72 688.071 19.6414 688.699 19.4842C688.982 19.4213 689.124 19.0126 689.124 18.258C689.124 17.4091 688.794 16.7017 688.133 16.1357C687.505 15.5383 686.719 15.2396 685.775 15.2396C685.115 15.2396 684.471 15.444 683.842 15.8527C683.213 16.23 682.694 16.7331 682.285 17.3619C681.908 17.9593 681.719 18.5567 681.719 19.1541C681.719 19.5314 681.94 19.72 682.38 19.72H685.681ZM806.595 34.5289C806.501 34.5289 806.359 34.4346 806.171 34.2459C806.014 34.0887 805.935 33.9629 805.935 33.8686C806.061 33.0826 806.155 32.2022 806.218 31.2276V30.9446C805.589 31.8878 804.709 32.6896 803.577 33.3498C802.476 33.9787 801.282 34.2931 799.993 34.2931C798.263 34.2931 796.707 33.8529 795.323 32.9725C793.972 32.0607 792.903 30.866 792.116 29.3882C791.362 27.879 790.985 26.2598 790.985 24.5305C790.985 22.4869 791.44 20.6475 792.352 19.0126C793.296 17.3462 794.6 16.0414 796.267 15.0981C797.965 14.1235 799.898 13.6361 802.068 13.6361C803.137 13.6361 804.159 13.7776 805.133 14.0606L805.746 14.2021C805.904 14.2021 805.982 13.9348 805.982 13.4003V7.4579C805.982 6.32601 805.825 5.52426 805.51 5.05264C805.228 4.54957 804.724 4.21944 804.001 4.06223C803.655 3.96791 803.483 3.7321 803.483 3.3548C803.483 3.00895 803.64 2.78886 803.954 2.69454C806.249 2.16003 808.293 1.49976 810.085 0.713731C810.557 0.493641 810.871 0.383596 811.028 0.383596C811.343 0.383596 811.5 0.540803 811.5 0.855216C811.5 0.886658 811.453 1.26396 811.359 1.98711C811.296 2.67881 811.249 3.7321 811.217 5.14696L811.076 28.1149C811.076 29.2153 811.154 30.0013 811.311 30.473C811.469 30.9131 811.736 31.1332 812.113 31.1332C812.585 31.1332 813.229 31.0861 814.047 30.9917H814.283C814.44 30.9917 814.55 31.0232 814.613 31.0861C814.707 31.1489 814.754 31.2747 814.754 31.4634C814.754 31.7149 814.66 31.9664 814.471 32.218C814.314 32.438 814.157 32.5481 814 32.5481C811.673 32.8625 809.472 33.4284 807.397 34.2459C807.02 34.4346 806.752 34.5289 806.595 34.5289ZM802.162 31.3219C802.791 31.3219 803.467 31.1804 804.19 30.8974C804.913 30.583 805.51 30.1585 805.982 29.624V19.8143C805.982 19.1855 805.746 18.541 805.275 17.8807C804.834 17.2204 804.253 16.6859 803.53 16.2772C802.807 15.837 802.052 15.6169 801.266 15.6169C800.48 15.6169 799.725 15.9156 799.002 16.513C798.279 17.0789 797.682 17.9436 797.21 19.1069C796.738 20.2388 796.503 21.6379 796.503 23.3043C796.503 25.0965 796.786 26.6057 797.351 27.8319C797.949 29.0267 798.688 29.907 799.568 30.473C800.448 31.0389 801.313 31.3219 802.162 31.3219ZM825.666 34.2931C823.842 34.2931 822.176 33.8843 820.667 33.0669C819.158 32.218 817.963 31.0546 817.082 29.5769C816.234 28.0677 815.809 26.3856 815.809 24.5305C815.809 22.6126 816.281 20.8047 817.224 19.1069C818.199 17.4091 819.519 16.0571 821.186 15.051C822.852 14.0134 824.676 13.4946 826.656 13.4946C828.511 13.4946 830.209 13.9505 831.75 14.8623C833.322 15.7427 834.564 16.9375 835.476 18.4466C836.387 19.9244 836.843 21.5279 836.843 23.2572C836.843 25.2694 836.419 27.1245 835.57 28.8223C834.721 30.4887 833.448 31.8249 831.75 32.8311C830.083 33.8057 828.056 34.2931 825.666 34.2931ZM826.609 32.4538C828.276 32.4538 829.47 31.8092 830.194 30.5201C830.854 29.3253 831.184 27.2817 831.184 24.3891C831.184 22.7541 830.964 21.2606 830.524 19.9087C830.083 18.5252 829.455 17.4248 828.637 16.6073C827.851 15.7899 826.939 15.3811 825.902 15.3811C824.644 15.3811 823.654 15.8056 822.931 16.6545C822.365 17.2833 821.972 18.148 821.752 19.2484C821.563 20.3488 821.469 21.7323 821.469 23.3987C821.469 24.9393 821.689 26.4013 822.129 27.7847C822.6 29.1681 823.229 30.3 824.015 31.1804C824.801 32.0293 825.666 32.4538 826.609 32.4538ZM860.282 14.6737C860.502 14.6737 860.675 14.7523 860.801 14.9095C860.926 15.0667 860.989 15.3025 860.989 15.6169C860.989 15.8056 860.926 16.0414 860.801 16.3244C860.706 16.5759 860.58 16.8117 860.423 17.0318C860.266 17.2204 860.109 17.3148 859.952 17.3148H858.678C857.798 17.3148 857.263 17.4405 857.075 17.6921C856.98 17.8807 856.918 18.1322 856.886 18.4466C856.855 18.7296 856.839 19.217 856.839 19.9087C856.839 21.5122 856.446 23.0056 855.66 24.3891C854.874 25.7725 853.821 26.8886 852.5 27.7376C851.18 28.555 849.749 28.9638 848.208 28.9638C847.202 28.9638 846.196 28.7751 845.19 28.3978C844.813 28.6179 844.514 28.8694 844.294 29.1524C844.074 29.4354 843.964 29.6712 843.964 29.8599C843.964 30.4258 844.451 30.866 845.426 31.1804C846.432 31.4948 848.114 31.7306 850.472 31.8878C853.711 32.1393 856.069 32.6581 857.546 33.4442C859.056 34.1988 859.81 35.2992 859.81 36.7455C859.81 38.4119 859.229 40.0626 858.065 41.6975C856.902 43.3325 855.393 44.6687 853.538 45.7063C851.714 46.7439 849.875 47.2626 848.02 47.2626C845.064 47.2626 842.753 46.7753 841.087 45.8006C839.42 44.8574 838.587 43.5211 838.587 41.7918C838.587 40.88 838.713 40.1412 838.965 39.5752C839.216 39.0093 839.688 38.4748 840.379 37.9717C840.977 37.4687 841.684 36.9342 842.502 36.3682L843.539 35.5665C842.282 35.1577 841.354 34.6232 840.757 33.9629C840.191 33.3027 839.908 32.4852 839.908 31.5105C839.908 30.8817 840.317 30.2843 841.134 29.7184C842.455 28.8066 843.303 28.1149 843.681 27.6432C842.517 26.9201 841.59 26.0083 840.898 24.9078C840.206 23.8074 839.861 22.6126 839.861 21.3235C839.861 19.8143 840.285 18.4624 841.134 17.2676C841.983 16.0728 843.099 15.1453 844.483 14.485C845.866 13.7933 847.344 13.4475 848.916 13.4475C849.765 13.4475 850.912 13.6361 852.359 14.0134C853.05 14.2021 853.648 14.3278 854.151 14.3907C855.283 14.6737 856.462 14.8152 857.688 14.8152C858.097 14.8152 858.647 14.7837 859.339 14.7208L860.282 14.6737ZM848.633 27.0301C849.67 27.0301 850.519 26.4642 851.18 25.3323C851.84 24.169 852.17 22.6755 852.17 20.8519C852.17 19.2484 851.808 17.9121 851.085 16.8431C850.362 15.7741 849.466 15.2396 848.397 15.2396C847.422 15.2396 846.573 15.7899 845.85 16.8903C845.159 17.9593 844.813 19.2641 844.813 20.8047C844.813 22.534 845.174 24.0118 845.897 25.238C846.652 26.4327 847.564 27.0301 848.633 27.0301ZM855.047 39.3394C855.047 38.4591 854.575 37.8145 853.632 37.4058C852.72 36.997 851.038 36.6826 848.586 36.4625C847.737 36.3997 846.778 36.2739 845.709 36.0852C844.64 36.7141 843.854 37.3901 843.351 38.1132C842.879 38.8364 842.643 39.6695 842.643 40.6128C842.643 41.8704 843.178 42.9237 844.247 43.7726C845.347 44.6216 846.731 45.046 848.397 45.046C850.472 45.046 851.981 44.6216 852.925 43.7726C853.585 43.2067 854.104 42.5307 854.481 41.7447C854.858 40.9586 855.047 40.1569 855.047 39.3394ZM866.344 34.8119C865.432 34.8119 864.63 34.466 863.939 33.7743C863.278 33.114 862.948 32.328 862.948 31.4162C862.948 30.4415 863.278 29.624 863.939 28.9638C864.63 28.2721 865.432 27.9262 866.344 27.9262C867.319 27.9262 868.136 28.2721 868.796 28.9638C869.488 29.624 869.834 30.4415 869.834 31.4162C869.834 32.328 869.488 33.114 868.796 33.7743C868.136 34.466 867.319 34.8119 866.344 34.8119Z" fill="white"/>
<path d="M706.942 33.7743C706.691 33.7743 706.471 33.7271 706.282 33.6328C706.093 33.5385 705.999 33.397 705.999 33.2084C705.999 32.9883 706.093 32.8153 706.282 32.6896C706.471 32.5324 706.738 32.3909 707.084 32.2651C707.178 32.2337 707.414 32.1551 707.791 32.0293C708.2 31.9035 708.499 31.7149 708.687 31.4634C708.876 31.2118 708.97 30.8817 708.97 30.473V7.4579C708.97 6.51466 708.813 5.76006 708.499 5.19412C708.216 4.59674 707.713 4.21944 706.989 4.06223C706.832 4.03079 706.706 3.95219 706.612 3.82642C706.549 3.70066 706.518 3.54345 706.518 3.3548C706.518 2.97751 706.659 2.75742 706.942 2.69454C708.231 2.41156 710.118 1.81418 712.602 0.90238L713.592 0.525083C713.781 0.430758 713.938 0.383596 714.064 0.383596C714.347 0.383596 714.488 0.540803 714.488 0.855216C714.488 1.07531 714.441 1.57837 714.347 2.3644C714.252 3.11899 714.205 4.04651 714.205 5.14696V30.4258C714.205 30.9603 714.331 31.3376 714.582 31.5577C714.834 31.7463 715.117 31.9035 715.431 32.0293C715.746 32.1236 715.95 32.1865 716.044 32.218C716.768 32.438 717.129 32.7525 717.129 33.1612C717.129 33.3498 717.035 33.4913 716.846 33.5857C716.689 33.68 716.469 33.7271 716.186 33.7271C715.526 33.7271 714.693 33.6957 713.686 33.6328C712.743 33.5699 712.004 33.5385 711.47 33.5385C710.935 33.5385 710.228 33.5699 709.347 33.6328C708.656 33.7271 707.854 33.7743 706.942 33.7743ZM723.804 34.2931C722.672 34.2931 721.65 33.8529 720.739 32.9725C719.858 32.0922 719.418 31.1175 719.418 30.0485C719.418 29.0109 719.717 28.162 720.314 27.5018C720.912 26.81 721.871 26.1812 723.191 25.6153L727.577 23.7288C728.206 23.4773 728.583 23.2572 728.709 23.0685C728.866 22.8484 728.945 22.424 728.945 21.7951L729.039 19.0126C729.071 18.1322 728.882 17.4248 728.473 16.8903C728.064 16.3558 727.483 16.0885 726.728 16.0885C726.319 16.0885 725.895 16.1671 725.455 16.3244C725.015 16.4816 724.669 16.6859 724.417 16.9375C724.197 17.1261 724.087 17.4877 724.087 18.0222L724.134 19.2012C724.134 19.5157 723.647 19.9087 722.672 20.3803C721.729 20.8205 720.943 21.0406 720.314 21.0406C720.094 21.0406 719.921 20.962 719.795 20.8047C719.67 20.6475 719.607 20.4589 719.607 20.2388C719.607 19.2641 720.298 18.1951 721.682 17.0318C722.814 16.0571 724.119 15.2396 725.596 14.5794C727.105 13.8877 728.363 13.5418 729.369 13.5418C730.878 13.5418 732.089 14.0449 733.001 15.051C733.913 16.0257 734.353 17.3148 734.321 18.9183L734.085 29.0109C734.054 29.7026 734.18 30.2843 734.463 30.7559C734.777 31.2275 735.154 31.4634 735.595 31.4634C736.286 31.4634 736.821 31.2747 737.198 30.8974C737.324 30.7717 737.434 30.7088 737.528 30.7088C737.686 30.7088 737.811 30.7717 737.906 30.8974C738.031 30.9917 738.094 31.1175 738.094 31.2747C738.094 31.6206 737.843 32.045 737.34 32.5481C736.805 33.114 736.208 33.5385 735.547 33.8215C734.887 34.1359 734.243 34.2931 733.614 34.2931C732.765 34.2931 732.01 34.073 731.35 33.6328C730.721 33.2241 730.124 32.5795 729.558 31.6992H729.416C728.379 32.611 727.42 33.2712 726.54 33.68C725.691 34.0887 724.779 34.2931 723.804 34.2931ZM726.445 31.4634C727.231 31.4634 727.86 31.1804 728.332 30.6144C728.615 30.3944 728.772 29.907 728.803 29.1524L728.898 26.1341V25.9454C728.898 25.5367 728.756 25.3323 728.473 25.3323C728.285 25.3323 728.049 25.3952 727.766 25.5209C726.571 26.024 725.722 26.5428 725.219 27.0773C724.747 27.5804 724.512 28.2563 724.512 29.1053C724.512 29.9227 724.7 30.5201 725.078 30.8974C725.455 31.2747 725.911 31.4634 726.445 31.4634ZM739.418 33.8686C739.292 33.8686 739.103 33.7271 738.852 33.4442C738.6 33.1612 738.474 32.9254 738.474 32.7367C738.474 32.5481 738.647 32.2022 738.993 31.6992C739.371 31.1647 739.606 30.8188 739.701 30.6616L740.361 29.7184L741.54 27.9262C744.653 23.1786 747.058 19.4213 748.756 16.6545C748.819 16.5287 748.85 16.4344 748.85 16.3715C748.85 16.2143 748.661 16.1357 748.284 16.1357L744.983 16.0885C744.197 16.0571 743.505 16.3401 742.908 16.9375C742.593 17.3148 741.964 18.1637 741.021 19.4842L740.219 20.6161C740.094 20.7419 739.921 20.8047 739.701 20.8047C739.481 20.8047 739.276 20.7419 739.088 20.6161C738.93 20.4903 738.868 20.3331 738.899 20.1445C739.591 17.3776 739.937 15.4754 739.937 14.4379C739.937 14.1549 740.031 13.9034 740.219 13.6833C740.44 13.4632 740.66 13.3531 740.88 13.3531C741.131 13.3531 741.414 13.5104 741.729 13.8248C741.98 14.0134 742.703 14.1077 743.898 14.1077L745.832 14.0606C749.102 14.0606 752.277 14.0134 755.358 13.9191C755.641 13.9191 755.862 14.1077 756.019 14.485C756.176 14.8309 756.176 15.0981 756.019 15.2868C755.39 16.0414 754.761 16.8903 754.132 17.8335L745.832 30.8503C745.737 30.976 745.69 31.0861 745.69 31.1804C745.69 31.4319 745.926 31.5577 746.398 31.5577H750.218C751.067 31.5577 751.837 31.1961 752.529 30.473C752.938 30.0642 753.346 29.5454 753.755 28.9166C754.164 28.2878 754.604 27.5646 755.076 26.7472C755.201 26.5271 755.421 26.417 755.736 26.417C755.924 26.417 756.097 26.4799 756.255 26.6057C756.443 26.7 756.538 26.8415 756.538 27.0301C756.538 27.3445 756.365 28.1935 756.019 29.5769C755.673 30.9289 755.343 32.1236 755.028 33.1612C754.965 33.3813 754.855 33.5542 754.698 33.68C754.572 33.8057 754.4 33.8686 754.179 33.8686L751.916 33.7743C751.318 33.7743 750.186 33.7429 748.52 33.68C746.885 33.6171 745.203 33.5857 743.474 33.5857C742.876 33.5857 742.043 33.6485 740.974 33.7743L739.418 33.8686ZM760.782 47.0268C759.996 47.0268 759.273 46.7753 758.612 46.2722C757.983 45.7692 757.669 45.1403 757.669 44.3858C757.669 43.7255 757.826 43.1438 758.141 42.6408C758.455 42.1377 758.895 41.8862 759.461 41.8862C759.87 41.8862 760.31 41.9648 760.782 42.122C761.348 42.2477 761.756 42.3106 762.008 42.3106C762.417 42.3106 762.715 42.232 762.904 42.0748C763.093 41.949 763.297 41.6818 763.517 41.2731C764.523 39.5438 765.482 37.5787 766.394 35.3778C766.677 34.7804 766.818 34.1516 766.818 33.4913C766.818 32.9568 766.661 32.2808 766.347 31.4634L760.64 18.0222C760.326 17.299 759.996 16.7331 759.65 16.3244C759.304 15.8842 758.88 15.5855 758.376 15.4283C758.031 15.3025 757.779 15.1767 757.622 15.051C757.496 14.9252 757.433 14.7366 757.433 14.485C757.433 14.1392 757.779 13.9663 758.471 13.9663C759.288 13.9663 760.137 13.9977 761.018 14.0606C761.709 14.1235 762.259 14.1549 762.668 14.1549C763.234 14.1549 763.957 14.1235 764.838 14.0606C765.718 13.9977 766.536 13.9663 767.29 13.9663C767.573 13.9663 767.825 14.0134 768.045 14.1077C768.265 14.2021 768.375 14.3593 768.375 14.5794C768.375 14.7995 768.265 14.9724 768.045 15.0981C767.825 15.2239 767.526 15.3654 767.149 15.5226C766.803 15.6484 766.536 15.837 766.347 16.0885C766.19 16.3401 766.111 16.7174 766.111 17.2204C766.111 17.5977 766.268 18.2266 766.583 19.1069L769.837 26.983C769.868 27.1087 769.931 27.1716 770.026 27.1716C770.088 27.1716 770.136 27.1087 770.167 26.983L772.855 19.2956C773.107 18.6667 773.233 18.0694 773.233 17.5034C773.233 16.5287 772.808 15.8842 771.959 15.5698C771.55 15.3811 771.252 15.2239 771.063 15.0981C770.874 14.9724 770.78 14.7995 770.78 14.5794C770.78 14.3593 770.89 14.2021 771.11 14.1077C771.33 14.0134 771.566 13.9663 771.818 13.9663C772.289 13.9663 772.902 13.9977 773.657 14.0606C774.286 14.1235 774.805 14.1549 775.213 14.1549C775.591 14.1549 776.094 14.1235 776.723 14.0606C777.288 13.9977 777.807 13.9663 778.279 13.9663C779.002 13.9663 779.364 14.1392 779.364 14.485C779.364 14.7366 779.285 14.9252 779.128 15.051C779.002 15.1767 778.766 15.3025 778.42 15.4283C777.886 15.5855 777.367 15.9471 776.864 16.513C776.361 17.0475 775.952 17.6763 775.638 18.3995L768.846 34.8119L764.743 44.5272C764.398 45.3447 763.879 45.9578 763.187 46.3666C762.495 46.8067 761.694 47.0268 760.782 47.0268Z" fill="#9CF159"/>
</svg>
