<svg width="897" height="48" viewBox="0 0 897 48" fill="none" xmlns="http://www.w3.org/2000/svg">
<path d="M9.34883 34.2548C9.0973 34.2548 8.84577 34.1919 8.59424 34.0661C8.37415 33.9404 8.2641 33.7831 8.2641 33.5945C8.2641 33.0914 8.6414 32.7613 9.39599 32.6041C10.6536 32.3211 11.534 31.9753 12.0371 31.5665C12.5716 31.1264 12.8388 30.4346 12.8388 29.4914V10.0135C12.8388 8.31566 12.7759 7.21522 12.6502 6.71215C12.5558 6.17765 12.3672 5.84752 12.0842 5.72175C11.7069 5.5331 10.9681 5.43878 9.86761 5.43878H8.83004C7.85536 5.43878 6.91212 5.67459 6.00032 6.14621C5.08853 6.61783 4.36537 7.23094 3.83087 7.98553C3.35925 8.67724 2.90335 9.2589 2.46317 9.73052C2.05444 10.1707 1.6457 10.3908 1.23696 10.3908C0.796783 10.3908 0.576694 10.1078 0.576694 9.54187C0.576694 9.07026 0.671018 8.67724 0.859666 8.36283C1.48849 7.13661 1.92867 6.09905 2.1802 5.25013C2.46317 4.40121 2.65182 3.44225 2.74615 2.37325C2.84047 1.55577 3.23349 1.14704 3.9252 1.14704C4.0824 1.14704 4.23961 1.25708 4.39682 1.47717C4.58546 1.69726 4.69551 1.83875 4.72695 1.90163C4.97848 2.24748 5.21429 2.53046 5.43438 2.75055C5.71735 2.97063 6.20469 3.15928 6.8964 3.31649C7.61955 3.44225 8.2641 3.50514 8.83004 3.50514H26.563C27.2861 3.50514 27.9307 3.44225 28.4966 3.31649C29.094 3.15928 29.5342 2.98635 29.8171 2.79771C30.0372 2.6405 30.3674 2.38897 30.8075 2.04312C30.9962 1.85447 31.2006 1.69726 31.4206 1.57149C31.6407 1.41429 31.8608 1.33568 32.0809 1.33568C32.4268 1.33568 32.5997 1.60294 32.5997 2.13744C32.5997 2.35753 32.5683 2.68766 32.5054 3.12784C32.3482 3.69379 32.2381 4.07108 32.1752 4.25973C32.1438 4.44838 32.018 4.95144 31.7979 5.76891C31.6093 6.55495 31.515 7.29382 31.515 7.98553V8.88161C31.515 10.0449 31.2477 10.6266 30.7132 10.6266C30.4302 10.6266 30.1944 10.4851 30.0058 10.2021C29.8171 9.91917 29.6128 9.43183 29.3927 8.74012C29.0154 7.57679 28.4809 6.7436 27.7892 6.24053C27.0975 5.70603 26.0913 5.43878 24.7708 5.43878H22.3184C21.721 5.43878 21.2651 5.56455 20.9507 5.81608C20.6363 6.03616 20.4005 6.50778 20.2433 7.23094C20.1175 7.92265 20.0546 8.99165 20.0546 10.438V29.4442C20.0546 30.3246 20.3061 30.9849 20.8092 31.425C21.3123 31.8652 22.1926 32.2582 23.4503 32.6041C23.8276 32.7299 24.1105 32.8556 24.2992 32.9814C24.4878 33.1072 24.5822 33.2958 24.5822 33.5473C24.5822 33.7674 24.4878 33.9404 24.2992 34.0661C24.1105 34.1919 23.8747 34.2548 23.5918 34.2548C22.4284 34.2548 21.1865 34.2076 19.866 34.1133C18.1681 34.0504 17.0205 34.019 16.4231 34.019C15.7943 34.019 14.6624 34.0504 13.0275 34.1133C11.7384 34.2076 10.5122 34.2548 9.34883 34.2548ZM34.1708 34.2548C33.542 34.2548 33.2275 34.0347 33.2275 33.5945C33.2275 33.3744 33.3061 33.2015 33.4633 33.0757C33.652 32.9185 33.935 32.777 34.3123 32.6513C34.9725 32.4312 35.4284 32.2268 35.68 32.0382C35.9315 31.8181 36.073 31.4093 36.1044 30.8119V8.17418C36.1044 7.1995 35.9787 6.42918 35.7271 5.86324C35.4756 5.29729 34.9883 4.93572 34.2651 4.77851C33.9192 4.71563 33.7463 4.47982 33.7463 4.07108C33.7463 3.66234 33.9035 3.42653 34.2179 3.36365C35.2241 3.14356 36.4503 2.78199 37.8966 2.27893C39.3743 1.74442 40.2547 1.43001 40.5377 1.33568L41.4337 1.00555C41.6538 0.911227 41.8582 0.864065 42.0468 0.864065C42.3612 0.864065 42.5185 1.05271 42.5185 1.43001C42.5185 1.6501 42.4713 2.07456 42.377 2.70338C42.3141 3.33221 42.2669 3.99248 42.2355 4.68419V15.5786C42.2355 16.3332 42.3298 16.7891 42.5185 16.9463C43.6189 16.0031 44.6879 15.2328 45.7255 14.6354C46.7945 14.038 48.0207 13.7393 49.4041 13.7393C51.1334 13.7393 52.5482 14.3524 53.6487 15.5786C54.7491 16.7734 55.2994 18.3926 55.2994 20.4363V30.7176C55.2994 31.315 55.4251 31.7395 55.6767 31.991C55.9596 32.2111 56.3998 32.4312 56.9972 32.6513C57.343 32.7456 57.5946 32.8713 57.7518 33.0286C57.9404 33.1543 58.0348 33.343 58.0348 33.5945C58.0348 34.0347 57.6889 34.2548 56.9972 34.2548C55.9596 34.2548 55.095 34.2076 54.4033 34.1133C53.5229 34.0504 52.7841 34.019 52.1867 34.019C51.5578 34.019 50.8347 34.0504 50.0172 34.1133C49.4513 34.2076 48.6652 34.2548 47.6591 34.2548C46.8731 34.2548 46.4801 34.019 46.4801 33.5473C46.4801 33.1386 46.8102 32.8399 47.4705 32.6513C48.005 32.4626 48.4137 32.2425 48.6967 31.991C48.9796 31.708 49.1211 31.2521 49.1211 30.6233V21.3324C49.1211 20.3263 48.8067 19.4616 48.1779 18.7385C47.5805 18.0153 46.8888 17.6537 46.1028 17.6537C44.908 17.6537 43.839 17.9996 42.8958 18.6913C42.6442 18.88 42.4713 19.1 42.377 19.3516C42.3141 19.5717 42.2826 19.9175 42.2826 20.3891V30.7176C42.2826 31.2836 42.4084 31.6923 42.6599 31.9438C42.9429 32.1954 43.3359 32.4154 43.839 32.6041C44.4993 32.8556 44.8294 33.17 44.8294 33.5473C44.8294 34.019 44.5464 34.2548 43.9805 34.2548C43.0687 34.2548 42.1883 34.2076 41.3394 34.1133C40.3333 34.0504 39.5787 34.019 39.0756 34.019C38.5726 34.019 37.818 34.0504 36.8119 34.1133C35.9629 34.2076 35.0826 34.2548 34.1708 34.2548ZM68.7214 34.7735C67.055 34.7735 65.5458 34.3334 64.1938 33.453C62.8418 32.5412 61.7728 31.2993 60.9868 29.7272C60.2322 28.1551 59.8549 26.3944 59.8549 24.4451C59.8549 22.4957 60.3108 20.7036 61.2226 19.0686C62.1344 17.4337 63.3763 16.1446 64.9484 15.2013C66.5519 14.2266 68.2812 13.7393 70.1362 13.7393C71.4568 13.7393 72.6673 14.0223 73.7677 14.5882C74.8682 15.1542 75.7328 15.9402 76.3616 16.9463C76.9904 17.9524 77.3049 19.0529 77.3049 20.2477C77.3049 20.8765 77.1791 21.3324 76.9276 21.6153C76.7075 21.8983 76.3459 22.0398 75.8428 22.0398H66.4104C65.9703 22.0398 65.6401 22.1656 65.42 22.4171C65.2314 22.6686 65.1371 23.0931 65.1371 23.6905C65.1371 25.5141 65.7187 27.0547 66.8821 28.3124C68.0454 29.5386 69.5074 30.1517 71.2681 30.1517C72.1485 30.1517 72.966 29.9945 73.7205 29.6801C74.4751 29.3342 75.2612 28.8469 76.0786 28.218C76.3931 27.9665 76.6131 27.8407 76.7389 27.8407C77.0533 27.8407 77.2105 28.0451 77.2105 28.4538C77.2105 28.8626 77.0848 29.3342 76.8332 29.8687C76.3302 31.1892 75.3398 32.3368 73.862 33.3115C72.4157 34.2862 70.7022 34.7735 68.7214 34.7735ZM69.2402 20.059C69.9633 20.059 70.5292 20.0433 70.938 20.0118C71.3467 19.9804 71.7083 19.9175 72.0227 19.8232C72.1799 19.7603 72.3057 19.6031 72.4 19.3516C72.4943 19.1 72.5415 18.8171 72.5415 18.5027C72.5415 17.6852 72.2428 17.0092 71.6454 16.4747C71.0795 15.9087 70.372 15.6258 69.5231 15.6258C68.5484 15.6258 67.6681 16.0345 66.8821 16.852C66.096 17.638 65.7187 18.4869 65.7502 19.3987C65.7502 19.8389 65.9703 20.059 66.4104 20.059H69.2402ZM103.258 47.6488C103.069 47.6488 102.881 47.5859 102.692 47.4601C102.535 47.3344 102.456 47.1772 102.456 46.9885C102.456 46.5798 102.818 46.2654 103.541 46.0453C104.421 45.7937 105.034 45.5108 105.38 45.1964C105.726 44.9134 105.899 44.4418 105.899 43.7815L105.946 33.4059C105.946 33.0914 105.915 32.8399 105.852 32.6513C105.789 32.4312 105.71 32.3211 105.616 32.3211C105.553 32.3526 105.475 32.384 105.38 32.4154C105.317 32.4469 105.254 32.4783 105.192 32.5098C104.437 33.0757 103.525 33.5945 102.456 34.0661C101.419 34.5377 100.475 34.7735 99.6265 34.7735C97.9601 34.7735 96.4509 34.3491 95.0989 33.5002C93.747 32.6513 92.678 31.4879 91.8919 30.0102C91.1059 28.501 90.7129 26.8346 90.7129 25.011C90.7129 22.9673 91.153 21.0966 92.0334 19.3987C92.9138 17.6695 94.2343 16.286 95.995 15.2485C97.7557 14.2109 99.8937 13.6921 102.409 13.6921C103.289 13.6921 104.091 13.7707 104.814 13.9279C105.537 14.0537 106.402 14.2424 107.408 14.4939C108.226 14.7454 108.807 14.8712 109.153 14.8712C109.782 14.8712 110.348 14.6197 110.851 14.1166C111.165 13.9279 111.386 13.8336 111.511 13.8336C111.794 13.8336 112.014 13.8965 112.172 14.0223C112.329 14.1166 112.407 14.2424 112.407 14.3996C112.407 14.5882 112.36 14.9026 112.266 15.3428C112.014 16.9463 111.889 18.3297 111.889 19.4931L111.936 44.206C111.936 44.709 112.077 45.0863 112.36 45.3378C112.643 45.5894 113.131 45.8095 113.822 45.9981C114.545 46.2182 114.907 46.5483 114.907 46.9885C114.907 47.1772 114.813 47.3344 114.624 47.4601C114.435 47.5859 114.215 47.6488 113.964 47.6488C112.989 47.6488 112.077 47.6016 111.228 47.5073C110.159 47.4444 109.358 47.413 108.823 47.413C108.289 47.413 107.424 47.4444 106.229 47.5073C105.223 47.6016 104.233 47.6488 103.258 47.6488ZM102.268 31.6137C102.991 31.6137 103.682 31.5037 104.343 31.2836C105.034 31.0635 105.569 30.7333 105.946 30.2932V20.9079C105.915 19.4302 105.459 18.204 104.578 17.2293C103.73 16.2232 102.723 15.7201 101.56 15.7201C100.334 15.7201 99.3278 16.4904 98.5418 18.031C97.7557 19.5717 97.3627 21.4739 97.3627 23.7376C97.3627 25.9385 97.8029 27.8093 98.6832 29.3499C99.595 30.8591 100.79 31.6137 102.268 31.6137ZM131.231 35.1037C130.98 35.1037 130.854 34.9465 130.854 34.6321C130.854 34.1919 130.901 33.6888 130.995 33.1229L131.09 31.6609C131.09 31.3779 131.058 31.205 130.995 31.1421C130.115 32.2111 128.999 33.0914 127.647 33.7831C126.326 34.4749 124.959 34.8207 123.544 34.8207C122.066 34.8207 120.824 34.1919 119.818 32.9342C118.843 31.6451 118.356 30.0573 118.356 28.1709V19.3516C118.356 18.5655 118.215 17.9682 117.932 17.5594C117.649 17.1192 117.161 16.8363 116.47 16.7105C116.281 16.6791 116.108 16.6005 115.951 16.4747C115.825 16.3175 115.762 16.0974 115.762 15.8144C115.762 15.3114 115.998 15.0441 116.47 15.0127C118.513 14.9183 120.793 14.541 123.308 13.8808C123.434 13.8493 123.591 13.8179 123.78 13.7865C124 13.7236 124.173 13.6921 124.298 13.6921C124.739 13.6921 124.943 13.9122 124.912 14.3524C124.66 15.6415 124.534 16.852 124.534 17.9839V27.039C124.534 28.1709 124.802 29.0827 125.336 29.7744C125.871 30.4661 126.562 30.8277 127.411 30.8591C128.637 30.8591 129.596 30.5132 130.288 29.8215C130.54 29.6014 130.76 29.2556 130.948 28.784C131.137 28.2809 131.231 27.6521 131.231 26.8975V19.3044C131.231 18.5184 130.995 17.9053 130.524 17.4651C130.052 16.9935 129.439 16.7262 128.685 16.6633C128.307 16.6319 128.024 16.5376 127.836 16.3804C127.647 16.2232 127.553 15.9716 127.553 15.6258C127.553 15.3114 127.663 15.0756 127.883 14.9183C128.103 14.7611 128.37 14.6825 128.685 14.6825C131.074 14.5253 132.772 14.3996 133.778 14.3052C134.784 14.2109 135.727 14.0537 136.608 13.8336C136.985 13.7393 137.189 13.6921 137.221 13.6921C137.692 13.6921 137.928 13.8808 137.928 14.2581C137.928 14.3524 137.865 14.5882 137.74 14.9655C137.677 15.3428 137.598 15.893 137.504 16.6162C137.441 17.3393 137.41 17.8896 137.41 18.2668V29.2084C137.41 30.4032 137.692 31.0006 138.258 31.0006L139.579 31.0478C139.862 31.0478 140.082 31.1264 140.239 31.2836C140.396 31.4408 140.475 31.6451 140.475 31.8967C140.475 32.2111 140.412 32.4469 140.286 32.6041C140.192 32.7613 139.988 32.8556 139.673 32.8871C137.347 33.1072 134.941 33.736 132.458 34.7735C132.363 34.805 132.175 34.8679 131.892 34.9622C131.64 35.0565 131.42 35.1037 131.231 35.1037ZM142.634 34.2548C142.446 34.2548 142.273 34.2076 142.115 34.1133C141.958 33.9875 141.88 33.8303 141.88 33.6417C141.88 33.17 142.163 32.8556 142.729 32.6984C143.577 32.5098 144.159 32.3054 144.474 32.0853C144.788 31.8338 144.945 31.4565 144.945 30.9534V20.7664C144.945 19.7289 144.788 18.9743 144.474 18.5027C144.159 18.031 143.64 17.7481 142.917 17.6537C142.729 17.6223 142.587 17.528 142.493 17.3708C142.398 17.2136 142.351 17.0249 142.351 16.8048C142.351 16.6162 142.398 16.4432 142.493 16.286C142.618 16.1288 142.744 16.0345 142.87 16.0031C144.285 15.7515 145.527 15.4057 146.596 14.9655C147.696 14.5253 148.891 13.9908 150.18 13.362C150.62 13.1105 150.935 12.9847 151.123 12.9847C151.312 12.9847 151.453 13.0476 151.548 13.1733C151.674 13.2677 151.736 13.3934 151.736 13.5506L151.548 15.2956C151.265 17.6852 151.123 19.4145 151.123 20.4835V30.9063C151.123 31.3464 151.281 31.6923 151.595 31.9438C151.909 32.1954 152.507 32.4469 153.387 32.6984C153.67 32.7927 153.874 32.9028 154 33.0286C154.157 33.1543 154.236 33.343 154.236 33.5945C154.236 34.0032 154 34.2076 153.529 34.2076C152.868 34.2076 151.909 34.1762 150.652 34.1133C149.394 34.0504 148.498 34.019 147.963 34.019C147.429 34.019 146.596 34.0504 145.464 34.1133C144.521 34.2076 143.577 34.2548 142.634 34.2548ZM147.822 10.8624C146.816 10.8624 145.951 10.5008 145.228 9.77768C144.505 9.05453 144.143 8.1899 144.143 7.18377C144.143 6.11477 144.505 5.21869 145.228 4.49554C145.951 3.77239 146.816 3.41081 147.822 3.41081C148.891 3.41081 149.787 3.77239 150.51 4.49554C151.265 5.21869 151.642 6.11477 151.642 7.18377C151.642 8.1899 151.265 9.05453 150.51 9.77768C149.787 10.5008 148.891 10.8624 147.822 10.8624ZM164.749 34.7735C163.115 34.7735 161.621 34.3334 160.269 33.453C158.917 32.5412 157.848 31.315 157.062 29.7744C156.307 28.2338 155.93 26.5202 155.93 24.6337C155.93 22.6215 156.386 20.7979 157.298 19.1629C158.241 17.4965 159.514 16.176 161.118 15.2013C162.722 14.2266 164.498 13.7393 166.447 13.7393C167.705 13.7393 168.884 13.9594 169.984 14.3996C171.116 14.8397 172.075 15.4686 172.861 16.286C173.144 16.569 173.286 16.852 173.286 17.135C173.286 17.4494 172.987 17.9053 172.39 18.5027C171.824 19.0686 171.368 19.3516 171.022 19.3516C170.739 19.3516 170.488 19.2887 170.267 19.1629C170.079 19.0372 169.796 18.8171 169.419 18.5027C168.601 17.8109 167.768 17.2607 166.919 16.852C166.101 16.4118 165.394 16.1917 164.797 16.1917C163.57 16.1917 162.659 16.6948 162.061 17.7009C161.464 18.707 161.165 20.3105 161.165 22.5114C161.165 24.8381 161.7 26.6617 162.769 27.9822C163.838 29.3028 165.347 29.963 167.296 29.963C168.208 29.963 169.01 29.8215 169.701 29.5386C170.393 29.2556 171.132 28.784 171.918 28.1237C172.012 28.0608 172.138 27.9822 172.295 27.8879C172.453 27.7621 172.594 27.6992 172.72 27.6992C173.097 27.6992 173.286 27.9508 173.286 28.4538C173.286 28.8311 173.16 29.2713 172.909 29.7744C172.563 30.4661 171.981 31.205 171.164 31.991C170.377 32.777 169.419 33.4373 168.287 33.9718C167.155 34.5063 165.976 34.7735 164.749 34.7735ZM175.518 34.2548C174.889 34.2548 174.574 34.0347 174.574 33.5945C174.574 33.1543 174.936 32.8399 175.659 32.6513C176.351 32.3997 176.822 32.1796 177.074 31.991C177.325 31.8023 177.451 31.4093 177.451 30.8119V8.17418C177.451 7.16805 177.325 6.39774 177.074 5.86324C176.822 5.29729 176.335 4.93572 175.612 4.77851C175.266 4.71563 175.093 4.47982 175.093 4.07108C175.093 3.66234 175.25 3.42653 175.565 3.36365C176.728 3.14356 178.772 2.49901 181.696 1.43001L182.78 1.00555C183.063 0.911227 183.268 0.864065 183.394 0.864065C183.708 0.864065 183.865 1.05271 183.865 1.43001L183.771 2.42041L183.582 4.68419L183.629 22.3228C183.629 22.7001 183.771 22.8887 184.054 22.8887C184.242 22.8887 184.494 22.763 184.808 22.5114C185.877 21.5682 186.884 20.5778 187.827 19.5402C188.77 18.5027 189.415 17.7166 189.76 17.1821C189.823 17.0878 189.902 16.962 189.996 16.8048C190.122 16.6162 190.185 16.4747 190.185 16.3804C190.185 16.1917 190.043 16.0188 189.76 15.8616C189.509 15.7044 189.147 15.5943 188.676 15.5314C188.298 15.4686 188.11 15.2956 188.11 15.0127C188.11 14.5725 188.456 14.3524 189.147 14.3524H191.458C192.307 14.3524 194.571 14.2109 198.25 13.9279C198.595 13.9279 198.768 14.1009 198.768 14.4467C198.768 14.9498 198.407 15.2799 197.684 15.4371C196.552 15.6887 195.2 16.2703 193.628 17.1821C192.81 17.6223 191.93 18.204 190.987 18.9271C190.043 19.6188 189.226 20.2948 188.534 20.9551C188.377 21.1123 188.298 21.2852 188.298 21.4739C188.298 21.5682 188.393 21.7411 188.581 21.9926L190.374 24.3507C192.166 26.8032 193.691 28.7368 194.948 30.1517C195.42 30.6862 196.033 31.1892 196.788 31.6609C197.542 32.1325 198.202 32.4783 198.768 32.6984C198.831 32.7299 198.988 32.7927 199.24 32.8871C199.492 32.95 199.68 33.0443 199.806 33.17C199.963 33.2958 200.042 33.4373 200.042 33.5945C200.042 34.0347 199.696 34.2548 199.004 34.2548C197.589 34.2548 195.656 34.2233 193.203 34.1604L188.393 34.1133C188.11 34.1133 187.874 34.0504 187.685 33.9246C187.528 33.7989 187.45 33.6417 187.45 33.453C187.45 33.2329 187.528 33.06 187.685 32.9342C187.874 32.777 188.141 32.6355 188.487 32.5098C188.99 32.3211 189.257 32.0696 189.289 31.7552C189.289 31.598 189.1 31.2521 188.723 30.7176L184.148 24.3979C184.085 24.335 184.007 24.3036 183.912 24.3036C183.724 24.3036 183.629 24.4136 183.629 24.6337V27.5578V30.8591C183.629 31.3622 183.739 31.7395 183.96 31.991C184.18 32.2111 184.541 32.4154 185.044 32.6041C185.705 32.8556 186.035 33.17 186.035 33.5473C186.035 33.7674 185.956 33.9404 185.799 34.0661C185.642 34.1919 185.437 34.2548 185.186 34.2548C184.242 34.2548 183.394 34.2076 182.639 34.1133C181.696 34.0504 180.957 34.019 180.422 34.019C179.919 34.019 179.165 34.0504 178.159 34.1133C177.31 34.2076 176.429 34.2548 175.518 34.2548ZM223.727 34.7735C222.469 34.7735 220.928 34.5377 219.105 34.0661C217.91 33.7203 217.155 33.5473 216.841 33.5473C216.338 33.5473 215.772 33.7517 215.143 34.1604C214.86 34.3805 214.64 34.4906 214.483 34.4906C214.2 34.4906 213.98 34.4277 213.823 34.3019C213.697 34.2076 213.634 34.0661 213.634 33.8775C213.634 33.6574 213.713 33.1072 213.87 32.2268C214.058 31.315 214.137 30.2932 214.106 29.1613L213.917 8.17418C213.917 7.23094 213.775 6.47634 213.493 5.9104C213.241 5.31301 212.769 4.93572 212.078 4.77851C211.7 4.71563 211.512 4.4641 211.512 4.02392C211.512 3.86671 211.559 3.72523 211.653 3.59946C211.748 3.4737 211.873 3.39509 212.031 3.36365C213.414 3.11212 215.772 2.34181 219.105 1.05271C219.419 0.926948 219.639 0.864065 219.765 0.864065C220.111 0.864065 220.284 1.05271 220.284 1.43001C220.284 1.6501 220.237 2.07456 220.142 2.70338C220.079 3.33221 220.048 3.89815 220.048 4.40121V14.4939C220.048 15.3742 220.19 15.8144 220.472 15.8144C221.447 15.1542 222.453 14.6511 223.491 14.3052C224.56 13.9279 225.566 13.7393 226.509 13.7393C228.144 13.7393 229.622 14.1638 230.942 15.0127C232.263 15.8616 233.301 17.0406 234.055 18.5498C234.841 20.0276 235.234 21.6782 235.234 23.5018C235.234 25.7027 234.747 27.6678 233.772 29.3971C232.829 31.0949 231.477 32.4154 229.716 33.3587C227.987 34.3019 225.99 34.7735 223.727 34.7735ZM224.576 32.7927C225.802 32.7927 226.776 32.0224 227.5 30.4818C228.254 28.9097 228.632 26.9918 228.632 24.728C228.632 22.5586 228.223 20.6249 227.405 18.9271C226.588 17.2293 225.409 16.3804 223.868 16.3804C223.208 16.3804 222.516 16.4747 221.793 16.6633C221.07 16.852 220.488 17.1192 220.048 17.4651V27.5106C220.048 29.0198 220.488 30.2774 221.369 31.2836C222.28 32.2897 223.349 32.7927 224.576 32.7927ZM238.299 34.2548C238.016 34.2548 237.781 34.2076 237.592 34.1133C237.435 33.9875 237.356 33.8146 237.356 33.5945C237.356 33.343 237.435 33.1543 237.592 33.0286C237.781 32.8713 238.064 32.7456 238.441 32.6513C239.133 32.4312 239.588 32.1954 239.809 31.9438C240.06 31.6923 240.186 31.3307 240.186 30.8591V20.0118C240.186 19.2887 240.076 18.7385 239.856 18.3612C239.667 17.9524 239.306 17.6695 238.771 17.5123C238.362 17.3865 238.158 17.1035 238.158 16.6633C238.158 16.2232 238.347 15.9559 238.724 15.8616C239.73 15.6415 240.83 15.3271 242.025 14.9183C243.251 14.4782 244.289 14.0537 245.138 13.645C245.609 13.2991 245.971 13.1262 246.223 13.1262C246.506 13.1262 246.647 13.2991 246.647 13.645L246.506 17.3708C246.506 17.6537 246.568 17.7952 246.694 17.7952C247.512 16.6633 248.455 15.7044 249.524 14.9183C250.593 14.1009 251.646 13.6921 252.684 13.6921C253.721 13.6921 254.476 13.8965 254.948 14.3052C255.451 14.6825 255.702 15.217 255.702 15.9087C255.702 16.6633 255.403 17.4651 254.806 18.314C254.24 19.1315 253.627 19.5402 252.967 19.5402C252.558 19.5402 251.945 19.3201 251.127 18.88C251.002 18.8171 250.734 18.707 250.326 18.5498C249.948 18.3612 249.634 18.2668 249.382 18.2668C247.37 18.2668 246.364 19.7603 246.364 22.7472V30.4346C246.364 31.032 246.553 31.4879 246.93 31.8023C247.307 32.1168 247.952 32.3997 248.864 32.6513C249.555 32.8399 249.901 33.1543 249.901 33.5945C249.901 33.7831 249.823 33.9404 249.665 34.0661C249.508 34.1919 249.32 34.2548 249.099 34.2548C248.093 34.2548 247.087 34.2076 246.081 34.1133C244.823 34.0504 243.943 34.019 243.44 34.019C242.906 34.019 242.104 34.0504 241.035 34.1133C240.186 34.2076 239.274 34.2548 238.299 34.2548ZM266.471 34.7735C264.616 34.7735 262.918 34.3491 261.378 33.5002C259.837 32.6513 258.627 31.4879 257.746 30.0102C256.866 28.501 256.426 26.8032 256.426 24.9167C256.426 22.9359 256.913 21.0808 257.888 19.3516C258.894 17.6223 260.23 16.2546 261.897 15.2485C263.594 14.2109 265.465 13.6921 267.509 13.6921C269.395 13.6921 271.14 14.148 272.744 15.0598C274.347 15.9402 275.605 17.1507 276.517 18.6913C277.46 20.2005 277.932 21.8197 277.932 23.549C277.932 25.6241 277.492 27.5106 276.611 29.2084C275.731 30.9063 274.426 32.2582 272.697 33.2644C270.999 34.2705 268.924 34.7735 266.471 34.7735ZM267.415 32.6984C268.704 32.6984 269.678 32.1639 270.339 31.0949C270.999 29.9945 271.329 27.8565 271.329 24.6809C271.329 22.1027 270.905 19.9804 270.056 18.314C269.238 16.6162 268.153 15.7673 266.801 15.7673C265.827 15.7673 265.009 16.0974 264.349 16.7577C263.815 17.355 263.437 18.2197 263.217 19.3516C263.028 20.4835 262.934 21.9455 262.934 23.7376C262.934 25.2468 263.123 26.6931 263.5 28.0765C263.909 29.46 264.443 30.5761 265.104 31.425C265.795 32.274 266.566 32.6984 267.415 32.6984ZM289.452 35.5281C289.295 35.5281 289.138 35.481 288.981 35.3867C288.824 35.3238 288.729 35.2137 288.698 35.0565L281.859 18.4083C281.231 16.9306 280.429 16.0031 279.454 15.6258C279.14 15.5 278.904 15.3742 278.747 15.2485C278.621 15.0913 278.558 14.8869 278.558 14.6354C278.558 14.2581 278.935 14.0694 279.69 14.0694C280.224 14.0694 280.712 14.1009 281.152 14.1638C281.592 14.1952 281.907 14.2109 282.095 14.2109C282.755 14.3052 283.494 14.3524 284.312 14.3524C285.129 14.3524 285.868 14.3052 286.528 14.2109C287.943 14.1166 288.808 14.0694 289.122 14.0694C289.374 14.0694 289.61 14.1166 289.83 14.2109C290.081 14.3052 290.207 14.4624 290.207 14.6825C290.207 14.9026 290.144 15.0598 290.018 15.1542C289.893 15.2485 289.735 15.3428 289.547 15.4371C289.39 15.5 289.264 15.5472 289.169 15.5786C288.824 15.7358 288.572 15.9559 288.415 16.2389C288.258 16.4904 288.179 16.8834 288.179 17.4179C288.179 18.0782 288.273 18.6441 288.462 19.1158L291.245 26.473C291.245 26.5359 291.276 26.5674 291.339 26.5674C291.433 26.5674 291.48 26.5359 291.48 26.473L294.593 19.0686C294.782 18.5027 294.876 18.0468 294.876 17.7009C294.876 17.355 294.703 16.9935 294.357 16.6162C294.011 16.2074 293.571 15.893 293.037 15.6729C292.722 15.5472 292.487 15.4214 292.329 15.2956C292.204 15.1384 292.141 14.9341 292.141 14.6825C292.141 14.3052 292.565 14.1166 293.414 14.1166C294.011 14.1166 294.845 14.148 295.914 14.2109C296.731 14.2738 297.281 14.3052 297.564 14.3052C298.099 14.3052 298.838 14.2738 299.781 14.2109C300.787 14.148 301.605 14.1166 302.233 14.1166C302.516 14.1166 302.768 14.1638 302.988 14.2581C303.239 14.3524 303.365 14.5096 303.365 14.7297C303.365 14.9498 303.302 15.107 303.177 15.2013C303.051 15.2956 302.894 15.39 302.705 15.4843C302.516 15.5472 302.375 15.5943 302.281 15.6258C301.903 15.783 301.605 15.9873 301.384 16.2389C301.196 16.459 301.101 16.7734 301.101 17.1821C301.101 17.6852 301.243 18.3297 301.526 19.1158L304.309 26.473C304.371 26.5674 304.434 26.6145 304.497 26.6145C304.56 26.6145 304.607 26.5831 304.639 26.5202L307.233 19.7289C307.516 19.0372 307.626 18.3926 307.563 17.7952C307.563 17.2922 307.437 16.852 307.185 16.4747C306.934 16.0974 306.604 15.8459 306.195 15.7201C305.818 15.5943 305.55 15.4843 305.393 15.39C305.236 15.2642 305.157 15.0756 305.157 14.824C305.157 14.4153 305.519 14.2109 306.242 14.2109L307.987 14.2581C308.364 14.2895 308.867 14.3052 309.496 14.3052C310.094 14.3052 310.565 14.2895 310.911 14.2581L312.562 14.2109C313.316 14.2109 313.694 14.3838 313.694 14.7297C313.694 15.0127 313.615 15.2328 313.458 15.39C313.332 15.5157 313.112 15.6415 312.798 15.7673C312.232 15.9559 311.713 16.3018 311.241 16.8048C310.77 17.3079 310.392 17.921 310.109 18.6441L303.46 35.0565C303.397 35.1823 303.287 35.2766 303.129 35.3395C303.004 35.4338 302.846 35.481 302.658 35.481C302.343 35.481 302.108 35.3395 301.95 35.0565L296.055 21.521C295.992 21.4581 295.945 21.4267 295.914 21.4267C295.851 21.4267 295.804 21.4739 295.772 21.5682L290.254 35.0565C290.128 35.3709 289.861 35.5281 289.452 35.5281ZM315.719 34.2548C315.499 34.2548 315.279 34.1919 315.059 34.0661C314.871 33.9404 314.776 33.7831 314.776 33.5945C314.776 33.2172 315.138 32.9028 315.861 32.6513C316.49 32.4626 316.946 32.2582 317.229 32.0382C317.512 31.8181 317.653 31.425 317.653 30.8591V20.059C317.653 18.4869 317.166 17.6066 316.191 17.4179C315.845 17.355 315.672 17.0721 315.672 16.569C315.672 16.1288 315.83 15.8616 316.144 15.7673C317.244 15.5157 318.439 15.1699 319.728 14.7297C321.017 14.2895 322.086 13.8493 322.935 13.4092C323.344 13.1576 323.627 13.0319 323.784 13.0319C324.067 13.0319 324.209 13.2205 324.209 13.5978L324.114 14.541C324.02 15.6729 323.973 16.2546 323.973 16.286C323.973 16.6948 324.004 16.9306 324.067 16.9935C325.23 15.893 326.347 15.0756 327.416 14.541C328.516 14.0065 329.758 13.7393 331.141 13.7393C332.839 13.7393 334.223 14.3524 335.292 15.5786C336.392 16.8048 336.942 18.4398 336.942 20.4835V30.8591C336.942 31.425 337.084 31.8181 337.367 32.0382C337.65 32.2582 338.106 32.4626 338.735 32.6513C339.363 32.8713 339.678 33.1858 339.678 33.5945C339.678 33.7831 339.599 33.9404 339.442 34.0661C339.285 34.1919 339.096 34.2548 338.876 34.2548C337.933 34.2548 337.037 34.2076 336.188 34.1133C335.182 34.0504 334.411 34.019 333.877 34.019C333.342 34.019 332.572 34.0504 331.566 34.1133C330.78 34.2076 329.9 34.2548 328.925 34.2548C328.705 34.2548 328.516 34.1919 328.359 34.0661C328.202 33.9404 328.123 33.7831 328.123 33.5945C328.123 33.1858 328.437 32.8713 329.066 32.6513C329.664 32.4626 330.088 32.2582 330.34 32.0382C330.591 31.8181 330.717 31.425 330.717 30.8591V21.4739C330.717 20.2791 330.45 19.3516 329.915 18.6913C329.381 17.9996 328.642 17.638 327.699 17.6066C327.038 17.6066 326.441 17.7166 325.906 17.9367C325.372 18.1254 324.806 18.4241 324.209 18.8328C323.957 19.0529 323.831 19.3516 323.831 19.7289V30.8591C323.831 31.425 323.957 31.8181 324.209 32.0382C324.46 32.2268 324.9 32.4312 325.529 32.6513C326.158 32.8713 326.472 33.1858 326.472 33.5945C326.472 33.7831 326.394 33.9404 326.237 34.0661C326.079 34.1919 325.891 34.2548 325.671 34.2548C324.727 34.2548 323.878 34.2076 323.124 34.1133C322.118 34.0504 321.363 34.019 320.86 34.019C320.326 34.019 319.524 34.0504 318.455 34.1133C317.606 34.2076 316.694 34.2548 315.719 34.2548ZM353.624 34.2548C353.404 34.2548 353.184 34.1919 352.964 34.0661C352.775 33.9404 352.681 33.7831 352.681 33.5945C352.681 33.343 352.744 33.1543 352.87 33.0286C353.027 32.8713 353.263 32.7456 353.577 32.6513C354.426 32.3997 354.96 32.1639 355.18 31.9438C355.432 31.7237 355.558 31.3464 355.558 30.8119V17.3708C354.583 17.3708 353.766 17.3393 353.105 17.2764C352.948 17.245 352.791 17.0721 352.634 16.7577C352.508 16.4432 352.445 16.1603 352.445 15.9087C352.445 15.7201 352.587 15.5629 352.87 15.4371C353.215 15.3114 354.111 14.9341 355.558 14.3052C355.715 11.1611 356.422 8.58291 357.68 6.57067C358.969 4.52698 360.51 3.06496 362.302 2.1846C364.094 1.2728 365.886 0.816903 367.678 0.816903C369.816 0.816903 371.357 1.1156 372.3 1.71298C373.275 2.31037 373.762 3.23789 373.762 4.49554C373.762 5.21869 373.589 5.80036 373.243 6.24053C372.929 6.64927 372.489 6.85364 371.923 6.85364C371.483 6.85364 370.901 6.41346 370.178 5.53311C369.455 4.74707 368.747 4.13396 368.056 3.69379C367.395 3.22217 366.609 2.98636 365.698 2.98636C363.057 2.98636 361.736 5.26585 361.736 9.82485V13.6921C361.736 14.1323 361.987 14.3524 362.491 14.3524H367.82C368.071 14.3524 368.26 14.431 368.386 14.5882C368.512 14.714 368.574 14.8869 368.574 15.107C368.574 15.7987 368.449 16.3646 368.197 16.8048C368.04 17.0564 367.914 17.1821 367.82 17.1821H363.481C362.789 17.1821 362.318 17.2607 362.066 17.4179C361.846 17.5751 361.736 17.8424 361.736 18.2197V30.0102C361.736 30.8591 361.925 31.4565 362.302 31.8023C362.679 32.1168 363.512 32.3997 364.801 32.6513C365.147 32.7141 365.383 32.8085 365.509 32.9342C365.666 33.06 365.745 33.2486 365.745 33.5002C365.745 33.6888 365.666 33.8618 365.509 34.019C365.352 34.1762 365.163 34.2548 364.943 34.2548C363.874 34.2548 362.774 34.2076 361.642 34.1133C360.258 34.0504 359.299 34.019 358.765 34.019C358.23 34.019 357.429 34.0504 356.359 34.1133C355.511 34.2076 354.599 34.2548 353.624 34.2548ZM378.665 34.7735C376.81 34.7735 375.112 34.3491 373.572 33.5002C372.031 32.6513 370.821 31.4879 369.94 30.0102C369.06 28.501 368.62 26.8032 368.62 24.9167C368.62 22.9359 369.107 21.0808 370.082 19.3516C371.088 17.6223 372.424 16.2546 374.091 15.2485C375.788 14.2109 377.659 13.6921 379.703 13.6921C381.589 13.6921 383.334 14.148 384.938 15.0598C386.541 15.9402 387.799 17.1507 388.711 18.6913C389.654 20.2005 390.126 21.8197 390.126 23.549C390.126 25.6241 389.685 27.5106 388.805 29.2084C387.925 30.9063 386.62 32.2582 384.891 33.2644C383.193 34.2705 381.118 34.7735 378.665 34.7735ZM379.609 32.6984C380.898 32.6984 381.872 32.1639 382.533 31.0949C383.193 29.9945 383.523 27.8565 383.523 24.6809C383.523 22.1027 383.099 19.9804 382.25 18.314C381.432 16.6162 380.347 15.7673 378.995 15.7673C378.021 15.7673 377.203 16.0974 376.543 16.7577C376.008 17.355 375.631 18.2197 375.411 19.3516C375.222 20.4835 375.128 21.9455 375.128 23.7376C375.128 25.2468 375.317 26.6931 375.694 28.0765C376.103 29.46 376.637 30.5761 377.298 31.425C377.989 32.274 378.76 32.6984 379.609 32.6984ZM391.332 34.3019C390.578 34.3019 390.2 34.129 390.2 33.7831C390.2 33.5002 390.263 33.2958 390.389 33.17C390.546 33.0128 390.782 32.8713 391.097 32.7456C391.474 32.6198 391.835 32.3997 392.181 32.0853C392.559 31.7395 393.046 31.1735 393.643 30.3875L397.982 24.4451C398.171 24.1935 398.265 23.9892 398.265 23.832C398.265 23.6748 398.187 23.4704 398.029 23.2189L394.492 17.9839C393.958 17.1978 393.549 16.6476 393.266 16.3332C392.983 16.0188 392.621 15.783 392.181 15.6258C391.867 15.5315 391.631 15.4214 391.474 15.2956C391.348 15.1384 391.285 14.9183 391.285 14.6354C391.285 14.2581 391.662 14.0694 392.417 14.0694C392.731 14.0694 393.549 14.1166 394.869 14.2109C395.467 14.3052 396.221 14.3524 397.133 14.3524C397.762 14.3524 398.517 14.321 399.397 14.2581C400.12 14.1638 400.953 14.1166 401.897 14.1166C402.18 14.1166 402.431 14.1638 402.651 14.2581C402.903 14.3524 403.029 14.5096 403.029 14.7297C403.029 14.9183 402.966 15.0598 402.84 15.1542C402.714 15.2485 402.557 15.3428 402.368 15.4371C402.18 15.5 402.038 15.5472 401.944 15.5786C401.504 15.7358 401.173 15.893 400.953 16.0502C400.733 16.2074 400.623 16.4275 400.623 16.7105C400.623 16.9935 400.828 17.4808 401.236 18.1725L403.406 21.3324C403.563 21.5525 403.705 21.5525 403.83 21.3324L405.292 18.8328C405.732 17.9524 405.937 17.2607 405.905 16.7577C405.905 16.2546 405.622 15.893 405.056 15.6729C404.962 15.6415 404.821 15.5943 404.632 15.5314C404.443 15.4371 404.302 15.3428 404.208 15.2485C404.113 15.1227 404.066 14.9655 404.066 14.7769C404.066 14.5568 404.192 14.3996 404.443 14.3052C404.695 14.2109 404.946 14.1638 405.198 14.1638L406.707 14.2109C407.116 14.2424 407.635 14.2581 408.264 14.2581C408.484 14.2581 408.971 14.2266 409.726 14.1638L411.282 14.0694C412.036 14.0694 412.414 14.2581 412.414 14.6354C412.414 14.8869 412.335 15.0913 412.178 15.2485C412.052 15.3742 411.832 15.5 411.518 15.6258C411.14 15.7515 410.747 15.9873 410.339 16.3332C409.961 16.6476 409.49 17.1821 408.924 17.9367L405.528 22.4643C405.339 22.7472 405.245 22.9516 405.245 23.0774C405.245 23.2346 405.339 23.4389 405.528 23.6905L409.49 29.9159C409.898 30.5761 410.37 31.1421 410.905 31.6137C411.439 32.0853 411.989 32.4312 412.555 32.6513C412.87 32.7456 413.09 32.8713 413.216 33.0286C413.373 33.1543 413.451 33.3587 413.451 33.6417C413.451 34.019 413.074 34.2076 412.319 34.2076C412.068 34.2076 411.14 34.1604 409.537 34.0661C408.751 33.9718 407.87 33.9246 406.896 33.9246C406.298 33.9246 405.465 33.9561 404.396 34.019C403.547 34.1133 402.604 34.1604 401.566 34.1604C401.221 34.1604 400.938 34.1133 400.718 34.019C400.529 33.8932 400.435 33.736 400.435 33.5473C400.435 33.2958 400.513 33.1229 400.67 33.0286C400.859 32.9028 401.142 32.777 401.519 32.6513C401.96 32.5255 402.29 32.3368 402.51 32.0853C402.761 31.8023 402.887 31.3936 402.887 30.8591C402.887 30.5132 402.856 30.2303 402.793 30.0102C402.73 29.7587 402.573 29.4757 402.321 29.1613L399.916 25.6241C399.884 25.5927 399.837 25.577 399.774 25.577C399.711 25.577 399.664 25.5927 399.633 25.6241L397.416 29.5386C396.976 30.2303 396.756 30.8434 396.756 31.3779C396.756 32.0696 397.039 32.5412 397.605 32.7927C397.982 32.9185 398.249 33.0443 398.407 33.17C398.564 33.2644 398.642 33.4216 398.642 33.6417C398.642 34.0504 398.265 34.2548 397.511 34.2548C396.882 34.2548 396.316 34.239 395.813 34.2076C395.341 34.1762 394.948 34.1604 394.634 34.1604C394.099 34.1604 392.999 34.2076 391.332 34.3019ZM425.109 47.6488C423.852 47.6488 423.223 47.3972 423.223 46.8942C423.223 46.5169 423.521 46.1868 424.119 45.9038C424.685 45.6523 425.172 45.3378 425.581 44.9605C426.021 44.6147 426.43 44.0487 426.807 43.2627C427.342 42.0994 427.719 40.3858 427.939 38.1221C428.159 35.8897 428.269 33.736 428.269 31.6609V20.7664C428.269 19.7289 428.096 18.99 427.75 18.5498C427.436 18.0782 426.917 17.7795 426.194 17.6537C426.037 17.6223 425.911 17.528 425.817 17.3708C425.722 17.2136 425.675 17.0249 425.675 16.8048C425.675 16.6162 425.722 16.4432 425.817 16.286C425.942 16.1288 426.068 16.0345 426.194 16.0031C427.577 15.7515 428.804 15.4057 429.873 14.9655C430.973 14.5253 432.168 13.9908 433.457 13.362C434.023 13.1105 434.353 12.9847 434.447 12.9847C434.825 12.9847 435.013 13.1733 435.013 13.5506L434.825 15.5786C434.573 17.7795 434.447 19.4616 434.447 20.6249L434.494 29.8215C434.494 31.9281 434.384 33.9404 434.164 35.8583C433.944 37.8076 433.457 39.6155 432.702 41.2819C431.979 42.9169 430.847 44.3789 429.307 45.668C427.797 46.9885 426.398 47.6488 425.109 47.6488ZM431.146 10.8624C430.14 10.8624 429.275 10.5008 428.552 9.77768C427.829 9.05453 427.467 8.1899 427.467 7.18377C427.467 6.11477 427.829 5.21869 428.552 4.49554C429.275 3.77239 430.14 3.41081 431.146 3.41081C432.215 3.41081 433.111 3.77239 433.834 4.49554C434.589 5.21869 434.966 6.11477 434.966 7.18377C434.966 8.1899 434.589 9.05453 433.834 9.77768C433.111 10.5008 432.215 10.8624 431.146 10.8624ZM453.766 35.1037C453.514 35.1037 453.389 34.9465 453.389 34.6321C453.389 34.1919 453.436 33.6888 453.53 33.1229L453.625 31.6609C453.625 31.3779 453.593 31.205 453.53 31.1421C452.65 32.2111 451.534 33.0914 450.182 33.7831C448.861 34.4749 447.493 34.8207 446.079 34.8207C444.601 34.8207 443.359 34.1919 442.353 32.9342C441.378 31.6451 440.891 30.0573 440.891 28.1709V19.3516C440.891 18.5655 440.749 17.9682 440.466 17.5594C440.183 17.1192 439.696 16.8363 439.004 16.7105C438.816 16.6791 438.643 16.6005 438.486 16.4747C438.36 16.3175 438.297 16.0974 438.297 15.8144C438.297 15.3114 438.533 15.0441 439.004 15.0127C441.048 14.9183 443.327 14.541 445.843 13.8808C445.969 13.8493 446.126 13.8179 446.314 13.7865C446.534 13.7236 446.707 13.6921 446.833 13.6921C447.273 13.6921 447.478 13.9122 447.446 14.3524C447.195 15.6415 447.069 16.852 447.069 17.9839V27.039C447.069 28.1709 447.336 29.0827 447.871 29.7744C448.405 30.4661 449.097 30.8277 449.946 30.8591C451.172 30.8591 452.131 30.5132 452.823 29.8215C453.074 29.6014 453.294 29.2556 453.483 28.784C453.672 28.2809 453.766 27.6521 453.766 26.8975V19.3044C453.766 18.5184 453.53 17.9053 453.059 17.4651C452.587 16.9935 451.974 16.7262 451.219 16.6633C450.842 16.6319 450.559 16.5376 450.37 16.3804C450.182 16.2232 450.087 15.9716 450.087 15.6258C450.087 15.3114 450.197 15.0756 450.417 14.9183C450.638 14.7611 450.905 14.6825 451.219 14.6825C453.609 14.5253 455.307 14.3996 456.313 14.3052C457.319 14.2109 458.262 14.0537 459.142 13.8336C459.52 13.7393 459.724 13.6921 459.756 13.6921C460.227 13.6921 460.463 13.8808 460.463 14.2581C460.463 14.3524 460.4 14.5882 460.274 14.9655C460.211 15.3428 460.133 15.893 460.039 16.6162C459.976 17.3393 459.944 17.8896 459.944 18.2668V29.2084C459.944 30.4032 460.227 31.0006 460.793 31.0006L462.114 31.0478C462.397 31.0478 462.617 31.1264 462.774 31.2836C462.931 31.4408 463.01 31.6451 463.01 31.8967C463.01 32.2111 462.947 32.4469 462.821 32.6041C462.727 32.7613 462.522 32.8556 462.208 32.8871C459.881 33.1072 457.476 33.736 454.992 34.7735C454.898 34.805 454.709 34.8679 454.426 34.9622C454.175 35.0565 453.955 35.1037 453.766 35.1037ZM465.358 34.2548C465.137 34.2548 464.917 34.1919 464.697 34.0661C464.509 33.9404 464.414 33.7831 464.414 33.5945C464.414 33.2172 464.776 32.9028 465.499 32.6513C466.128 32.4626 466.584 32.2582 466.867 32.0382C467.15 31.8181 467.291 31.425 467.291 30.8591V20.059C467.291 18.4555 466.804 17.5751 465.829 17.4179C465.483 17.355 465.31 17.0721 465.31 16.569C465.31 16.1288 465.468 15.8616 465.782 15.7673C468.958 14.9812 471.316 14.148 472.856 13.2677C472.919 13.2362 472.998 13.1891 473.092 13.1262C473.218 13.0633 473.328 13.0319 473.422 13.0319C473.705 13.0319 473.847 13.2048 473.847 13.5506L473.752 14.5882C473.721 14.8083 473.689 15.0756 473.658 15.39C473.627 15.6729 473.611 16.0031 473.611 16.3804C473.611 16.6948 473.642 16.8834 473.705 16.9463H473.8C474.837 15.9402 475.922 15.1542 477.054 14.5882C478.217 14.0223 479.475 13.7393 480.827 13.7393C481.77 13.7393 482.65 14.0851 483.468 14.7769C484.317 15.4371 484.945 16.3018 485.354 17.3708H485.543C487.555 14.9498 489.945 13.7393 492.711 13.7393C494.221 13.7393 495.463 14.3524 496.437 15.5786C497.443 16.8048 497.946 18.4398 497.946 20.4835V30.8591C497.946 31.425 498.088 31.8181 498.371 32.0382C498.654 32.2582 499.11 32.4626 499.739 32.6513C500.367 32.8713 500.682 33.1858 500.682 33.5945C500.682 33.7831 500.603 33.9404 500.446 34.0661C500.289 34.1919 500.1 34.2548 499.88 34.2548C498.937 34.2548 498.041 34.2076 497.192 34.1133C496.186 34.0504 495.415 34.019 494.881 34.019C494.346 34.019 493.639 34.0504 492.759 34.1133C492.067 34.2076 491.249 34.2548 490.306 34.2548C490.086 34.2548 489.897 34.1919 489.74 34.0661C489.583 33.9404 489.504 33.7831 489.504 33.5945C489.504 33.1229 489.819 32.8085 490.448 32.6513C490.888 32.5255 491.202 32.3683 491.391 32.1796C491.611 31.9595 491.721 31.6137 491.721 31.1421V21.4739C491.721 20.342 491.47 19.4302 490.967 18.7385C490.495 18.0153 489.882 17.638 489.127 17.6066C488.153 17.6066 487.225 17.9839 486.345 18.7385C485.904 19.1472 485.684 19.8075 485.684 20.7193V30.8591C485.684 31.4565 485.794 31.8652 486.014 32.0853C486.235 32.3054 486.612 32.4941 487.146 32.6513C487.775 32.8085 488.09 33.1229 488.09 33.5945C488.09 33.7831 488.011 33.9404 487.854 34.0661C487.697 34.1919 487.508 34.2548 487.288 34.2548C486.376 34.2548 485.543 34.2076 484.788 34.1133C483.845 34.0504 483.122 34.019 482.619 34.019C482.084 34.019 481.377 34.0504 480.497 34.1133C479.805 34.2076 478.987 34.2548 478.044 34.2548C477.855 34.2548 477.683 34.1919 477.525 34.0661C477.368 33.9404 477.29 33.7831 477.29 33.5945C477.29 33.1858 477.588 32.8713 478.186 32.6513C478.657 32.4941 478.987 32.3211 479.176 32.1325C479.396 31.9438 479.506 31.6137 479.506 31.1421V21.4739C479.506 20.3105 479.27 19.3987 478.799 18.7385C478.327 18.0468 477.698 17.6852 476.912 17.6537C475.969 17.6537 475.026 17.9996 474.083 18.6913C473.674 19.0057 473.469 19.6188 473.469 20.5306V30.8591C473.469 31.3936 473.564 31.7866 473.752 32.0382C473.941 32.2897 474.287 32.4941 474.79 32.6513C475.387 32.8713 475.686 33.1858 475.686 33.5945C475.686 33.7831 475.607 33.9404 475.45 34.0661C475.293 34.1919 475.12 34.2548 474.931 34.2548C474.02 34.2548 473.202 34.2076 472.479 34.1133C471.536 34.0504 470.813 34.019 470.31 34.019C469.775 34.019 469.005 34.0504 467.999 34.1133C467.213 34.2076 466.332 34.2548 465.358 34.2548ZM503.165 46.4697C502.913 46.4697 502.693 46.4068 502.504 46.2811C502.316 46.1553 502.221 45.9981 502.221 45.8095C502.221 45.5579 502.3 45.3536 502.457 45.1964C502.646 45.0706 502.929 44.9605 503.306 44.8662C503.998 44.6461 504.469 44.4103 504.721 44.1588C504.972 43.9387 505.098 43.5771 505.098 43.0741V20.4835C505.098 19.8861 504.91 19.3201 504.532 18.7856C504.186 18.2197 503.715 17.8738 503.117 17.7481C502.929 17.6852 502.787 17.6066 502.693 17.5123C502.599 17.3865 502.551 17.1821 502.551 16.8991C502.551 16.459 502.724 16.1917 503.07 16.0974C504.202 15.8459 505.397 15.5157 506.655 15.107C507.912 14.6983 508.981 14.2738 509.862 13.8336C509.956 13.8022 510.082 13.7393 510.239 13.645C510.427 13.5506 510.569 13.5035 510.663 13.5035C510.946 13.5035 511.088 13.6921 511.088 14.0694L510.993 15.107C510.899 16.2389 510.852 16.8048 510.852 16.8048C510.852 17.1192 510.883 17.3079 510.946 17.3708C511.292 16.9935 511.874 16.5533 512.691 16.0502C513.54 15.5157 514.468 15.0598 515.474 14.6825C516.511 14.2738 517.486 14.0694 518.398 14.0694C520.001 14.0694 521.401 14.5096 522.595 15.39C523.821 16.2703 524.749 17.4179 525.378 18.8328C526.038 20.2162 526.368 21.694 526.368 23.266C526.368 25.2154 525.881 27.1019 524.906 28.9255C523.932 30.7176 522.595 32.1796 520.897 33.3115C519.231 34.412 517.423 34.9622 515.474 34.9622C514.939 34.9622 514.279 34.8679 513.493 34.6792C512.707 34.4906 512.015 34.2548 511.418 33.9718C511.292 33.9718 511.229 34.2548 511.229 34.8207V42.6496C511.229 43.247 511.418 43.7029 511.795 44.0173C512.204 44.3317 512.864 44.6147 513.776 44.8662C514.468 45.0863 514.814 45.4007 514.814 45.8095C514.814 45.9981 514.719 46.1553 514.531 46.2811C514.373 46.4068 514.2 46.4697 514.012 46.4697C513.006 46.4697 512 46.4226 510.993 46.3282C509.673 46.2654 508.777 46.2339 508.305 46.2339C507.771 46.2339 506.969 46.2654 505.9 46.3282C505.051 46.4226 504.139 46.4697 503.165 46.4697ZM515.332 32.7927C515.867 32.7927 516.48 32.5255 517.172 31.991C517.863 31.4565 518.461 30.6076 518.964 29.4442C519.498 28.2809 519.766 26.7874 519.766 24.9639C519.766 21.9769 519.263 19.949 518.256 18.88C517.282 17.8109 516.228 17.2764 515.097 17.2764C514.531 17.2764 513.949 17.4022 513.352 17.6537C512.786 17.9053 512.298 18.2197 511.89 18.597C511.512 18.9428 511.324 19.2415 511.324 19.4931L511.229 27.2276C511.229 28.0137 511.386 28.8469 511.701 29.7272C512.047 30.6076 512.534 31.3464 513.163 31.9438C513.792 32.5098 514.515 32.7927 515.332 32.7927ZM535.224 34.7735C532.961 34.7735 531.074 34.239 529.565 33.17C529.282 32.7299 529.078 32.0224 528.952 31.0478C528.826 30.0416 528.779 28.9569 528.81 27.7936C528.81 27.4163 529.125 27.2276 529.754 27.2276C529.974 27.2276 530.178 27.3062 530.367 27.4634C530.555 27.5892 530.681 27.7464 530.744 27.9351C531.404 29.4442 532.127 30.6233 532.913 31.4722C533.699 32.2897 534.611 32.6984 535.649 32.6984C536.435 32.6984 537.064 32.4469 537.535 31.9438C538.007 31.4408 538.243 30.8434 538.243 30.1517C538.243 29.3971 537.96 28.7525 537.394 28.218C536.828 27.6835 536.01 27.1333 534.941 26.5674C533.275 25.7184 531.954 24.7752 530.98 23.7376C530.037 22.7001 529.565 21.3953 529.565 19.8232C529.565 17.9996 530.288 16.5219 531.734 15.39C533.181 14.2581 534.989 13.6921 537.158 13.6921C538.101 13.6921 539.013 13.8022 539.893 14.0223C540.805 14.2424 541.45 14.4782 541.827 14.7297C542.079 15.0441 542.283 15.6415 542.44 16.5219C542.597 17.3708 542.676 18.314 542.676 19.3516C542.676 19.5088 542.582 19.6345 542.393 19.7289C542.236 19.8232 542.047 19.8704 541.827 19.8704C541.607 19.8704 541.371 19.7918 541.12 19.6345C540.899 19.4773 540.758 19.3201 540.695 19.1629C540.286 17.9367 539.752 17.0249 539.092 16.4275C538.463 15.7987 537.755 15.4843 536.969 15.4843C536.246 15.4843 535.602 15.7201 535.036 16.1917C534.501 16.6319 534.234 17.2136 534.234 17.9367C534.234 18.5341 534.501 19.1 535.036 19.6345C535.602 20.1376 536.403 20.6721 537.441 21.2381C539.579 22.3699 541.057 23.4232 541.874 24.3979C542.723 25.3726 543.148 26.6617 543.148 28.2652C543.148 30.3403 542.456 31.9438 541.072 33.0757C539.72 34.2076 537.771 34.7735 535.224 34.7735ZM566.807 34.7735C564.952 34.7735 563.254 34.3491 561.713 33.5002C560.173 32.6513 558.962 31.4879 558.082 30.0102C557.201 28.501 556.761 26.8032 556.761 24.9167C556.761 22.9359 557.249 21.0808 558.223 19.3516C559.229 17.6223 560.566 16.2546 562.232 15.2485C563.93 14.2109 565.801 13.6921 567.844 13.6921C569.731 13.6921 571.476 14.148 573.079 15.0598C574.683 15.9402 575.94 17.1507 576.852 18.6913C577.795 20.2005 578.267 21.8197 578.267 23.549C578.267 25.6241 577.827 27.5106 576.947 29.2084C576.066 30.9063 574.761 32.2582 573.032 33.2644C571.334 34.2705 569.259 34.7735 566.807 34.7735ZM567.75 32.6984C569.039 32.6984 570.014 32.1639 570.674 31.0949C571.334 29.9945 571.664 27.8565 571.664 24.6809C571.664 22.1027 571.24 19.9804 570.391 18.314C569.574 16.6162 568.489 15.7673 567.137 15.7673C566.162 15.7673 565.345 16.0974 564.684 16.7577C564.15 17.355 563.773 18.2197 563.553 19.3516C563.364 20.4835 563.27 21.9455 563.27 23.7376C563.27 25.2468 563.458 26.6931 563.835 28.0765C564.244 29.46 564.779 30.5761 565.439 31.425C566.131 32.274 566.901 32.6984 567.75 32.6984ZM589.977 35.1037C589.819 35.1037 589.662 34.9779 589.505 34.7264C589.379 34.5063 589.238 34.2233 589.08 33.8775C588.923 33.5002 588.797 33.2172 588.703 33.0286L588.043 31.4722C587.949 31.2207 587.634 30.4661 587.1 29.2084C586.345 27.4792 585.418 25.4512 584.317 23.1245C584.034 22.4957 583.704 21.7883 583.327 21.0022C582.949 20.2162 582.556 19.3516 582.148 18.4083C581.802 17.6537 581.44 17.0564 581.063 16.6162C580.717 16.1446 580.277 15.8144 579.742 15.6258C579.428 15.5 579.208 15.3742 579.082 15.2485C578.956 15.0913 578.893 14.8869 578.893 14.6354C578.893 14.2581 579.271 14.0694 580.025 14.0694C580.34 14.0694 581.157 14.1166 582.478 14.2109C583.075 14.3052 583.814 14.3524 584.694 14.3524C585.575 14.3524 586.392 14.3052 587.147 14.2109C587.398 14.2109 587.791 14.1952 588.326 14.1638C588.892 14.1009 589.442 14.0694 589.977 14.0694C590.259 14.0694 590.511 14.1166 590.731 14.2109C590.983 14.3052 591.108 14.4624 591.108 14.6825C591.108 14.9026 591.046 15.0598 590.92 15.1542C590.794 15.2485 590.637 15.3428 590.448 15.4371C590.259 15.5 590.118 15.5472 590.024 15.5786C589.301 15.893 588.939 16.569 588.939 17.6066V18.031C588.939 18.5027 589.002 18.8642 589.128 19.1158L592.287 26.8975H592.429L595.211 19.4459C595.4 19.0372 595.494 18.5341 595.494 17.9367C595.494 16.7734 594.991 16.0031 593.985 15.6258C593.608 15.5 593.341 15.39 593.184 15.2956C593.026 15.1699 592.948 14.9812 592.948 14.7297C592.948 14.5096 593.058 14.3524 593.278 14.2581C593.498 14.1638 593.749 14.1166 594.032 14.1166C594.661 14.1166 595.29 14.148 595.919 14.2109L597.287 14.2581C597.821 14.2581 598.906 14.2109 600.541 14.1166C601.295 14.1166 601.673 14.3052 601.673 14.6825C601.673 14.9341 601.61 15.1384 601.484 15.2956C601.358 15.4214 601.122 15.5472 600.777 15.6729C600.211 15.8616 599.676 16.2232 599.173 16.7577C598.701 17.2607 598.308 17.8738 597.994 18.597L594.315 27.8407C593.907 28.8783 593.404 30.0259 592.806 31.2836C592.115 33.0128 591.533 34.2862 591.061 35.1037H589.977ZM610.624 34.7735C608.957 34.7735 607.448 34.3334 606.096 33.453C604.744 32.5412 603.675 31.2993 602.889 29.7272C602.135 28.1551 601.757 26.3944 601.757 24.4451C601.757 22.4957 602.213 20.7036 603.125 19.0686C604.037 17.4337 605.279 16.1446 606.851 15.2013C608.454 14.2266 610.184 13.7393 612.039 13.7393C613.359 13.7393 614.57 14.0223 615.67 14.5882C616.771 15.1542 617.635 15.9402 618.264 16.9463C618.893 17.9524 619.207 19.0529 619.207 20.2477C619.207 20.8765 619.082 21.3324 618.83 21.6153C618.61 21.8983 618.248 22.0398 617.745 22.0398H608.313C607.873 22.0398 607.543 22.1656 607.323 22.4171C607.134 22.6686 607.04 23.0931 607.04 23.6905C607.04 25.5141 607.621 27.0547 608.785 28.3124C609.948 29.5386 611.41 30.1517 613.171 30.1517C614.051 30.1517 614.868 29.9945 615.623 29.6801C616.378 29.3342 617.164 28.8469 617.981 28.218C618.296 27.9665 618.516 27.8407 618.641 27.8407C618.956 27.8407 619.113 28.0451 619.113 28.4538C619.113 28.8626 618.987 29.3342 618.736 29.8687C618.233 31.1892 617.242 32.3368 615.765 33.3115C614.318 34.2862 612.605 34.7735 610.624 34.7735ZM611.143 20.059C611.866 20.059 612.432 20.0433 612.84 20.0118C613.249 19.9804 613.611 19.9175 613.925 19.8232C614.082 19.7603 614.208 19.6031 614.303 19.3516C614.397 19.1 614.444 18.8171 614.444 18.5027C614.444 17.6852 614.145 17.0092 613.548 16.4747C612.982 15.9087 612.275 15.6258 611.426 15.6258C610.451 15.6258 609.571 16.0345 608.785 16.852C607.999 17.638 607.621 18.4869 607.653 19.3987C607.653 19.8389 607.873 20.059 608.313 20.059H611.143ZM622.32 34.2548C622.037 34.2548 621.801 34.2076 621.612 34.1133C621.455 33.9875 621.376 33.8146 621.376 33.5945C621.376 33.343 621.455 33.1543 621.612 33.0286C621.801 32.8713 622.084 32.7456 622.461 32.6513C623.153 32.4312 623.609 32.1954 623.829 31.9438C624.08 31.6923 624.206 31.3307 624.206 30.8591V20.0118C624.206 19.2887 624.096 18.7385 623.876 18.3612C623.687 17.9524 623.326 17.6695 622.791 17.5123C622.383 17.3865 622.178 17.1035 622.178 16.6633C622.178 16.2232 622.367 15.9559 622.744 15.8616C623.75 15.6415 624.851 15.3271 626.046 14.9183C627.272 14.4782 628.309 14.0537 629.158 13.645C629.63 13.2991 629.991 13.1262 630.243 13.1262C630.526 13.1262 630.667 13.2991 630.667 13.645L630.526 17.3708C630.526 17.6537 630.589 17.7952 630.715 17.7952C631.532 16.6633 632.475 15.7044 633.544 14.9183C634.613 14.1009 635.667 13.6921 636.704 13.6921C637.742 13.6921 638.496 13.8965 638.968 14.3052C639.471 14.6825 639.722 15.217 639.722 15.9087C639.722 16.6633 639.424 17.4651 638.826 18.314C638.26 19.1315 637.647 19.5402 636.987 19.5402C636.578 19.5402 635.965 19.3201 635.148 18.88C635.022 18.8171 634.755 18.707 634.346 18.5498C633.969 18.3612 633.654 18.2668 633.403 18.2668C631.391 18.2668 630.384 19.7603 630.384 22.7472V30.4346C630.384 31.032 630.573 31.4879 630.95 31.8023C631.328 32.1168 631.972 32.3997 632.884 32.6513C633.576 32.8399 633.922 33.1543 633.922 33.5945C633.922 33.7831 633.843 33.9404 633.686 34.0661C633.529 34.1919 633.34 34.2548 633.12 34.2548C632.114 34.2548 631.108 34.2076 630.101 34.1133C628.844 34.0504 627.963 34.019 627.46 34.019C626.926 34.019 626.124 34.0504 625.055 34.1133C624.206 34.2076 623.294 34.2548 622.32 34.2548ZM661.387 34.7735C659.343 34.7735 657.787 34.2548 656.718 33.2172C655.681 32.1796 655.162 30.6862 655.162 28.7368V17.8896C655.162 17.6066 655.052 17.4022 654.832 17.2764C654.612 17.1507 654.234 17.0721 653.7 17.0406H653.087C652.898 17.0406 652.725 16.8677 652.568 16.5219C652.411 16.176 652.332 15.8459 652.332 15.5314C652.332 15.3114 652.426 15.1542 652.615 15.0598C654.187 14.4939 656.482 12.8904 659.501 10.2493C659.564 10.1864 659.674 10.1078 659.831 10.0135C659.988 9.88773 660.13 9.7934 660.255 9.73052C660.381 9.66764 660.523 9.6362 660.68 9.6362C660.994 9.6362 661.199 9.69908 661.293 9.82485C661.387 9.95061 661.419 10.2021 661.387 10.5794L661.104 13.362V13.5506C661.104 14.0851 661.481 14.3524 662.236 14.3524H667.848C667.943 14.3524 668.037 14.4624 668.131 14.6825C668.226 14.9026 668.273 15.107 668.273 15.2956C668.273 15.7673 668.21 16.2074 668.084 16.6162C667.958 16.9935 667.817 17.1821 667.66 17.1821H663.274C662.55 17.1821 662.047 17.2764 661.764 17.4651C661.513 17.6223 661.387 17.921 661.387 18.3612V27.2748C661.387 28.6897 661.654 29.7587 662.189 30.4818C662.723 31.205 663.462 31.5665 664.406 31.5665C665.129 31.5665 665.679 31.5194 666.056 31.425C666.465 31.2993 666.795 31.1735 667.047 31.0478C667.33 30.922 667.503 30.8434 667.565 30.8119C667.691 30.7491 667.785 30.7176 667.848 30.7176C668.006 30.7176 668.131 30.8119 668.226 31.0006C668.32 31.1578 668.367 31.3779 668.367 31.6609C668.367 31.8809 668.006 32.2582 667.282 32.7927C666.591 33.2958 665.71 33.7517 664.641 34.1604C663.572 34.5692 662.488 34.7735 661.387 34.7735ZM670.489 34.2548C669.861 34.2548 669.546 34.0347 669.546 33.5945C669.546 33.3744 669.625 33.2015 669.782 33.0757C669.971 32.9185 670.254 32.777 670.631 32.6513C671.291 32.4312 671.747 32.2268 671.999 32.0382C672.25 31.8181 672.392 31.4093 672.423 30.8119V8.17418C672.423 7.1995 672.297 6.42918 672.046 5.86324C671.794 5.29729 671.307 4.93572 670.584 4.77851C670.238 4.71563 670.065 4.47982 670.065 4.07108C670.065 3.66234 670.222 3.42653 670.537 3.36365C671.543 3.14356 672.769 2.78199 674.215 2.27893C675.693 1.74442 676.573 1.43001 676.856 1.33568L677.752 1.00555C677.972 0.911227 678.177 0.864065 678.365 0.864065C678.68 0.864065 678.837 1.05271 678.837 1.43001C678.837 1.6501 678.79 2.07456 678.696 2.70338C678.633 3.33221 678.586 3.99248 678.554 4.68419V15.5786C678.554 16.3332 678.648 16.7891 678.837 16.9463C679.938 16.0031 681.007 15.2328 682.044 14.6354C683.113 14.038 684.339 13.7393 685.723 13.7393C687.452 13.7393 688.867 14.3524 689.967 15.5786C691.068 16.7734 691.618 18.3926 691.618 20.4363V30.7176C691.618 31.315 691.744 31.7395 691.995 31.991C692.278 32.2111 692.718 32.4312 693.316 32.6513C693.662 32.7456 693.913 32.8713 694.07 33.0286C694.259 33.1543 694.353 33.343 694.353 33.5945C694.353 34.0347 694.008 34.2548 693.316 34.2548C692.278 34.2548 691.414 34.2076 690.722 34.1133C689.842 34.0504 689.103 34.019 688.505 34.019C687.876 34.019 687.153 34.0504 686.336 34.1133C685.77 34.2076 684.984 34.2548 683.978 34.2548C683.192 34.2548 682.799 34.019 682.799 33.5473C682.799 33.1386 683.129 32.8399 683.789 32.6513C684.324 32.4626 684.732 32.2425 685.015 31.991C685.298 31.708 685.44 31.2521 685.44 30.6233V21.3324C685.44 20.3263 685.125 19.4616 684.497 18.7385C683.899 18.0153 683.207 17.6537 682.421 17.6537C681.227 17.6537 680.158 17.9996 679.214 18.6913C678.963 18.88 678.79 19.1 678.696 19.3516C678.633 19.5717 678.601 19.9175 678.601 20.3891V30.7176C678.601 31.2836 678.727 31.6923 678.979 31.9438C679.262 32.1954 679.655 32.4154 680.158 32.6041C680.818 32.8556 681.148 33.17 681.148 33.5473C681.148 34.019 680.865 34.2548 680.299 34.2548C679.387 34.2548 678.507 34.2076 677.658 34.1133C676.652 34.0504 675.897 34.019 675.394 34.019C674.891 34.019 674.137 34.0504 673.13 34.1133C672.282 34.2076 671.401 34.2548 670.489 34.2548ZM705.04 34.7735C703.374 34.7735 701.864 34.3334 700.512 33.453C699.16 32.5412 698.091 31.2993 697.305 29.7272C696.551 28.1551 696.174 26.3944 696.174 24.4451C696.174 22.4957 696.629 20.7036 697.541 19.0686C698.453 17.4337 699.695 16.1446 701.267 15.2013C702.871 14.2266 704.6 13.7393 706.455 13.7393C707.775 13.7393 708.986 14.0223 710.086 14.5882C711.187 15.1542 712.051 15.9402 712.68 16.9463C713.309 17.9524 713.624 19.0529 713.624 20.2477C713.624 20.8765 713.498 21.3324 713.246 21.6153C713.026 21.8983 712.665 22.0398 712.161 22.0398H702.729C702.289 22.0398 701.959 22.1656 701.739 22.4171C701.55 22.6686 701.456 23.0931 701.456 23.6905C701.456 25.5141 702.037 27.0547 703.201 28.3124C704.364 29.5386 705.826 30.1517 707.587 30.1517C708.467 30.1517 709.285 29.9945 710.039 29.6801C710.794 29.3342 711.58 28.8469 712.397 28.218C712.712 27.9665 712.932 27.8407 713.058 27.8407C713.372 27.8407 713.529 28.0451 713.529 28.4538C713.529 28.8626 713.403 29.3342 713.152 29.8687C712.649 31.1892 711.658 32.3368 710.181 33.3115C708.734 34.2862 707.021 34.7735 705.04 34.7735ZM705.559 20.059C706.282 20.059 706.848 20.0433 707.257 20.0118C707.665 19.9804 708.027 19.9175 708.341 19.8232C708.499 19.7603 708.624 19.6031 708.719 19.3516C708.813 19.1 708.86 18.8171 708.86 18.5027C708.86 17.6852 708.561 17.0092 707.964 16.4747C707.398 15.9087 706.691 15.6258 705.842 15.6258C704.867 15.6258 703.987 16.0345 703.201 16.852C702.415 17.638 702.037 18.4869 702.069 19.3987C702.069 19.8389 702.289 20.059 702.729 20.059H705.559ZM839.007 31.3307C839.196 31.3307 839.322 31.3622 839.385 31.425C839.448 31.4879 839.479 31.6137 839.479 31.8023C839.479 32.0539 839.385 32.3211 839.196 32.6041C839.007 32.8871 838.834 33.0286 838.677 33.0286C836.319 33.2801 833.93 33.846 831.509 34.7264C831.131 34.915 830.864 35.0094 830.707 35.0094C830.613 35.0094 830.471 34.8993 830.282 34.6792C830.125 34.4906 830.047 34.3334 830.047 34.2076C830.204 33.1072 830.282 32.274 830.282 31.708V31.425C829.622 32.4312 828.726 33.2486 827.594 33.8775C826.494 34.4749 825.315 34.7735 824.057 34.7735C822.359 34.7735 820.803 34.3334 819.388 33.453C818.005 32.5727 816.92 31.3779 816.134 29.8687C815.348 28.3595 814.955 26.7088 814.955 24.9167C814.955 22.8101 815.426 20.9236 816.37 19.2572C817.313 17.5594 818.633 16.2389 820.331 15.2956C822.06 14.321 824.026 13.8336 826.226 13.8336C827.107 13.8336 828.081 13.9751 829.15 14.2581L829.764 14.3996C829.889 14.3996 829.952 14.1952 829.952 13.7865V8.17418C829.952 7.04229 829.811 6.24053 829.528 5.76891C829.276 5.26585 828.805 4.93572 828.113 4.77851C827.736 4.68419 827.547 4.44838 827.547 4.07108C827.547 3.66234 827.72 3.42653 828.066 3.36365C829.198 3.11212 830.377 2.79771 831.603 2.42041C832.861 2.01167 833.898 1.63438 834.716 1.28852C835.344 1.00555 835.722 0.864065 835.848 0.864065C836.193 0.864065 836.366 1.05271 836.366 1.43001C836.335 1.55578 836.288 1.93307 836.225 2.5619C836.193 3.15928 836.162 3.86671 836.13 4.68419L835.895 28.4538C835.895 29.5543 835.973 30.3403 836.13 30.8119C836.288 31.2521 836.571 31.4722 836.979 31.4722L838.819 31.3307H839.007ZM826.462 31.5665C826.997 31.5665 827.61 31.4408 828.302 31.1892C828.993 30.9063 829.544 30.5447 829.952 30.1045L829.905 19.6817C829.905 19.1472 829.685 18.597 829.245 18.031C828.836 17.4651 828.302 16.9935 827.641 16.6162C827.012 16.2389 826.384 16.0502 825.755 16.0502C825 16.0502 824.293 16.3646 823.633 16.9935C823.004 17.5909 822.485 18.4712 822.076 19.6345C821.699 20.7979 821.51 22.1341 821.51 23.6433C821.51 25.2783 821.73 26.6931 822.171 27.8879C822.642 29.0827 823.255 29.9945 824.01 30.6233C824.764 31.2521 825.582 31.5665 826.462 31.5665ZM850.331 34.7735C848.476 34.7735 846.779 34.3491 845.238 33.5002C843.697 32.6513 842.487 31.4879 841.606 30.0102C840.726 28.501 840.286 26.8032 840.286 24.9167C840.286 22.9359 840.773 21.0808 841.748 19.3516C842.754 17.6223 844.09 16.2546 845.757 15.2485C847.455 14.2109 849.325 13.6921 851.369 13.6921C853.255 13.6921 855 14.148 856.604 15.0598C858.207 15.9402 859.465 17.1507 860.377 18.6913C861.32 20.2005 861.792 21.8197 861.792 23.549C861.792 25.6241 861.352 27.5106 860.471 29.2084C859.591 30.9063 858.286 32.2582 856.557 33.2644C854.859 34.2705 852.784 34.7735 850.331 34.7735ZM851.275 32.6984C852.564 32.6984 853.538 32.1639 854.199 31.0949C854.859 29.9945 855.189 27.8565 855.189 24.6809C855.189 22.1027 854.765 19.9804 853.916 18.314C853.098 16.6162 852.014 15.7673 850.662 15.7673C849.687 15.7673 848.869 16.0974 848.209 16.7577C847.675 17.355 847.297 18.2197 847.077 19.3516C846.889 20.4835 846.794 21.9455 846.794 23.7376C846.794 25.2468 846.983 26.6931 847.36 28.0765C847.769 29.46 848.303 30.5761 848.964 31.425C849.655 32.274 850.426 32.6984 851.275 32.6984ZM885.983 14.824C886.203 14.824 886.376 14.9183 886.501 15.107C886.659 15.2956 886.737 15.5472 886.737 15.8616C886.737 16.0817 886.674 16.3646 886.549 16.7105C886.423 17.0249 886.281 17.3079 886.124 17.5594C885.935 17.7795 885.731 17.8896 885.511 17.8896H884.238C883.452 17.8896 882.901 18.0153 882.587 18.2668C882.461 18.4241 882.383 18.6441 882.351 18.9271C882.351 19.1786 882.351 19.6974 882.351 20.4835C882.351 22.1184 881.927 23.6276 881.078 25.011C880.26 26.3944 879.144 27.5106 877.729 28.3595C876.314 29.177 874.789 29.5857 873.155 29.5857C872.18 29.5857 871.127 29.3814 869.995 28.9726C869.712 29.1613 869.476 29.3814 869.287 29.6329C869.13 29.853 869.051 30.0573 869.051 30.246C869.051 30.7491 869.523 31.1264 870.466 31.3779C871.41 31.6294 873.17 31.8495 875.748 32.0382C879.144 32.2897 881.612 32.8085 883.153 33.5945C884.693 34.3805 885.464 35.5124 885.464 36.9902C885.464 38.688 884.851 40.3701 883.624 42.0365C882.398 43.7029 880.81 45.0706 878.861 46.1396C876.943 47.2086 875.01 47.7431 873.06 47.7431C870.01 47.7431 867.621 47.2558 865.892 46.2811C864.162 45.3378 863.298 44.033 863.298 42.3666C863.298 41.3605 863.408 40.5745 863.628 40.0085C863.879 39.474 864.382 38.9238 865.137 38.3579C865.64 38.012 866.175 37.619 866.74 37.1788C867.306 36.7701 867.699 36.4714 867.92 36.2827C865.687 35.4024 864.571 33.9718 864.571 31.991C864.571 31.2993 864.995 30.6862 865.844 30.1517C867.196 29.1455 868.03 28.4853 868.344 28.1709C867.181 27.4477 866.237 26.5359 865.514 25.4355C864.823 24.3036 864.477 23.0774 864.477 21.7568C864.477 20.2162 864.917 18.8328 865.797 17.6066C866.678 16.3804 867.841 15.4214 869.287 14.7297C870.765 14.038 872.337 13.6921 874.003 13.6921C874.947 13.6921 876.141 13.8651 877.588 14.2109C878.468 14.3996 879.144 14.5253 879.616 14.5882C880.936 14.8397 882.194 14.9655 883.389 14.9655C883.797 14.9655 884.316 14.9341 884.945 14.8712L885.983 14.824ZM873.673 27.5106C874.648 27.5106 875.434 26.9604 876.031 25.8599C876.629 24.7595 876.927 23.2817 876.927 21.4267C876.927 19.6974 876.597 18.2983 875.937 17.2293C875.308 16.1603 874.491 15.6258 873.485 15.6258C872.573 15.6258 871.787 16.176 871.127 17.2764C870.498 18.3454 870.183 19.6817 870.183 21.2852C870.183 23.0145 870.513 24.4922 871.174 25.7184C871.865 26.9132 872.699 27.5106 873.673 27.5106ZM879.757 40.0557C879.757 39.5526 879.569 39.1439 879.191 38.8295C878.845 38.5151 878.232 38.2478 877.352 38.0277C876.503 37.8391 875.261 37.6504 873.626 37.4618C872.683 37.3989 871.567 37.2417 870.278 36.9902C869.366 37.5561 868.674 38.1535 868.203 38.7823C867.762 39.4111 867.542 40.1186 867.542 40.9046C867.542 42.1937 868.077 43.2627 869.146 44.1116C870.215 44.9605 871.582 45.385 873.249 45.385C875.45 45.385 876.99 44.9605 877.871 44.1116C878.468 43.5457 878.924 42.9011 879.238 42.178C879.584 41.4863 879.757 40.7788 879.757 40.0557ZM892.208 35.5281C891.17 35.5281 890.274 35.1508 889.52 34.3963C888.797 33.6731 888.435 32.7927 888.435 31.7552C888.435 30.6862 888.797 29.7744 889.52 29.0198C890.274 28.2338 891.17 27.8407 892.208 27.8407C893.308 27.8407 894.236 28.218 894.991 28.9726C895.745 29.7272 896.122 30.6547 896.122 31.7552C896.122 32.7927 895.745 33.6731 894.991 34.3963C894.236 35.1508 893.308 35.5281 892.208 35.5281Z" fill="white"/>
<path d="M727.645 34.2548C727.362 34.2548 727.126 34.2076 726.937 34.1133C726.78 33.9875 726.701 33.8146 726.701 33.5945C726.701 33.1543 727.063 32.8399 727.786 32.6513C728.478 32.3997 728.949 32.1796 729.201 31.991C729.452 31.8023 729.578 31.425 729.578 30.8591V8.17418C729.578 7.23094 729.437 6.47634 729.154 5.9104C728.902 5.31301 728.415 4.93572 727.692 4.77851C727.377 4.71563 727.22 4.47982 727.22 4.07108C727.22 3.66234 727.362 3.42653 727.645 3.36365C728.493 3.20645 729.515 2.92347 730.71 2.51474C731.936 2.106 733.021 1.7287 733.964 1.38285L734.955 1.00555C735.175 0.911227 735.379 0.864065 735.568 0.864065C735.882 0.864065 736.039 1.05271 736.039 1.43001C736.039 1.68154 735.992 2.13744 735.898 2.79771C735.835 3.45798 735.788 4.0868 735.756 4.68419V30.7648C735.756 31.2993 735.866 31.6766 736.087 31.8967C736.338 32.0853 736.621 32.2425 736.935 32.3683C737.25 32.4626 737.454 32.5255 737.549 32.5569C737.926 32.6827 738.193 32.8242 738.35 32.9814C738.539 33.1072 738.633 33.2801 738.633 33.5002C738.633 33.7203 738.539 33.8932 738.35 34.019C738.193 34.1133 737.973 34.1604 737.69 34.1604C737.03 34.1604 736.134 34.129 735.002 34.0661L732.549 34.019C732.046 34.019 731.292 34.0504 730.286 34.1133C729.437 34.2076 728.556 34.2548 727.645 34.2548ZM745.479 34.7735C744.222 34.7735 743.121 34.3491 742.178 33.5002C741.235 32.6198 740.763 31.5823 740.763 30.3875C740.763 29.3185 741.077 28.4381 741.706 27.7464C742.367 27.0233 743.388 26.363 744.772 25.7656L748.969 23.9263C749.598 23.6433 749.975 23.3918 750.101 23.1717C750.258 22.9516 750.337 22.5429 750.337 21.9455L750.384 19.2572C750.415 18.3454 750.258 17.638 749.912 17.135C749.567 16.6319 749.048 16.3804 748.356 16.3804C747.979 16.3804 747.57 16.4747 747.13 16.6633C746.721 16.8205 746.407 17.0092 746.187 17.2293C745.998 17.4494 745.904 17.7795 745.904 18.2197C745.904 18.4398 745.919 18.6756 745.951 18.9271C745.982 19.1472 745.998 19.3673 745.998 19.5874C745.998 19.9018 745.463 20.2948 744.394 20.7664C743.357 21.2381 742.492 21.4739 741.801 21.4739C741.549 21.4739 741.345 21.3795 741.187 21.1909C741.03 21.0022 740.952 20.7664 740.952 20.4835C740.952 19.9804 741.125 19.4931 741.47 19.0214C741.816 18.5498 742.382 17.9839 743.168 17.3236C744.394 16.3175 745.778 15.4686 747.319 14.7769C748.859 14.0851 750.148 13.7393 751.186 13.7393C752.852 13.7393 754.188 14.2895 755.195 15.39C756.201 16.459 756.688 17.8896 756.657 19.6817L756.421 29.2084C756.389 29.9316 756.515 30.5447 756.798 31.0478C757.081 31.5508 757.427 31.8023 757.836 31.8023C758.433 31.8023 758.952 31.598 759.392 31.1892C759.486 31.0949 759.581 31.0478 759.675 31.0478C759.832 31.0478 759.958 31.1106 760.052 31.2364C760.178 31.3307 760.241 31.4408 760.241 31.5665C760.241 31.9753 759.958 32.4626 759.392 33.0286C758.229 34.1919 756.908 34.7735 755.43 34.7735C754.519 34.7735 753.717 34.5535 753.025 34.1133C752.333 33.7045 751.673 33.0286 751.044 32.0853H750.95C749.912 33.06 748.969 33.7517 748.12 34.1604C747.303 34.5692 746.422 34.7735 745.479 34.7735ZM748.309 31.708C748.906 31.708 749.409 31.4722 749.818 31.0006C750.038 30.6547 750.148 30.246 750.148 29.7744L750.29 26.3787C750.29 25.8757 750.133 25.6241 749.818 25.6241C749.661 25.6241 749.472 25.687 749.252 25.8128C748.246 26.2844 747.539 26.756 747.13 27.2276C746.753 27.6992 746.564 28.4067 746.564 29.3499C746.564 30.1674 746.737 30.7648 747.083 31.1421C747.429 31.5194 747.837 31.708 748.309 31.708ZM761.413 34.3491C761.256 34.3491 761.036 34.1919 760.753 33.8775C760.47 33.5631 760.328 33.2801 760.328 33.0286C760.328 32.7456 760.721 32.0539 761.507 30.9534C761.885 30.4504 762.136 30.0888 762.262 29.8687L763.771 27.5106C765.783 24.4293 767.969 20.9708 770.327 17.135C770.389 17.0092 770.421 16.9149 770.421 16.852C770.421 16.6633 770.232 16.569 769.855 16.569L767.261 16.5219C766.444 16.5219 765.736 16.8205 765.139 17.4179C764.95 17.6066 764.62 18.031 764.148 18.6913C763.677 19.3516 763.331 19.8389 763.111 20.1533L762.12 21.521C761.963 21.6782 761.79 21.7568 761.602 21.7568C761.35 21.7568 761.114 21.694 760.894 21.5682C760.706 21.411 760.627 21.2381 760.658 21.0494C760.878 20.2948 761.13 19.2572 761.413 17.9367C761.696 16.5847 761.837 15.5157 761.837 14.7297C761.837 14.4153 761.947 14.1323 762.168 13.8808C762.419 13.6292 762.671 13.5035 762.922 13.5035C763.205 13.5035 763.504 13.6607 763.818 13.9751C764.038 14.1952 764.793 14.3052 766.082 14.3052L768.016 14.2581C771.852 14.2581 775.153 14.1952 777.92 14.0694C778.171 14.0694 778.391 14.2266 778.58 14.541C778.769 14.824 778.863 15.1384 778.863 15.4843C778.863 15.7044 778.831 15.8459 778.769 15.9087C778.234 16.5376 777.574 17.3865 776.788 18.4555L768.959 31.0949C768.865 31.2207 768.817 31.3464 768.817 31.4722C768.817 31.6923 769.085 31.8023 769.619 31.8023H772.59C773.062 31.8023 773.486 31.7237 773.864 31.5665C774.241 31.4093 774.603 31.1264 774.948 30.7176C775.389 30.246 775.75 29.7901 776.033 29.3499C776.348 28.8783 776.835 28.0451 777.495 26.8503C777.684 26.5674 777.935 26.4259 778.25 26.4259C778.501 26.4259 778.706 26.4888 778.863 26.6145C779.052 26.7403 779.146 26.9132 779.146 27.1333C779.146 27.542 778.973 28.4381 778.627 29.8215C778.281 31.1735 777.935 32.4312 777.59 33.5945C777.558 33.8146 777.448 33.9875 777.259 34.1133C777.102 34.2705 776.914 34.3491 776.693 34.3491L774.335 34.2548C773.738 34.2548 772.575 34.2233 770.845 34.1604C769.116 34.0976 767.355 34.0661 765.563 34.0661C764.934 34.0661 764.086 34.129 763.016 34.2548L761.413 34.3491ZM783.934 47.4601C783.054 47.4601 782.252 47.1772 781.529 46.6112C780.805 46.0453 780.444 45.3378 780.444 44.4889C780.444 43.7972 780.601 43.1841 780.916 42.6496C781.261 42.1151 781.749 41.8479 782.378 41.8479C782.566 41.8479 783.054 41.9265 783.84 42.0837C784.594 42.2723 785.113 42.3509 785.396 42.3195C785.836 42.288 786.151 42.178 786.339 41.9893C786.528 41.8321 786.764 41.502 787.047 40.9989C787.361 40.4959 787.707 39.8828 788.084 39.1596C788.461 38.4679 788.902 37.5404 789.405 36.3771C789.782 35.4653 789.971 34.7107 789.971 34.1133C789.971 33.7045 789.892 33.2958 789.735 32.8871C789.609 32.4469 789.468 32.0382 789.31 31.6609L783.509 18.5027C783.164 17.7166 782.818 17.1035 782.472 16.6633C782.126 16.2232 781.686 15.9087 781.151 15.7201C780.837 15.5943 780.601 15.4528 780.444 15.2956C780.318 15.1384 780.255 14.9341 780.255 14.6825C780.255 14.3367 780.648 14.1638 781.434 14.1638C782.346 14.1638 783.305 14.1952 784.311 14.2581C785.129 14.321 785.679 14.3524 785.962 14.3524C786.622 14.3524 787.424 14.321 788.367 14.2581C789.436 14.1952 790.348 14.1638 791.103 14.1638C791.386 14.1638 791.637 14.2109 791.857 14.3052C792.077 14.3996 792.187 14.5568 792.187 14.7769C792.187 14.9969 792.109 15.1699 791.951 15.2956C791.826 15.39 791.668 15.4843 791.48 15.5786C791.291 15.6415 791.165 15.6887 791.103 15.7201C790.725 15.8773 790.442 16.0974 790.254 16.3804C790.096 16.6319 790.018 17.0092 790.018 17.5123C790.018 18.1411 790.191 18.8642 790.537 19.6817L793.461 26.8032C793.492 26.8975 793.539 26.9447 793.602 26.9447C793.665 26.9447 793.712 26.8975 793.744 26.8032L796.149 19.5874C796.4 18.8957 796.526 18.2668 796.526 17.7009C796.526 17.1978 796.369 16.7734 796.055 16.4275C795.772 16.0817 795.441 15.8459 795.064 15.7201C794.687 15.5943 794.404 15.4686 794.215 15.3428C794.058 15.217 793.979 15.0284 793.979 14.7769C793.979 14.5568 794.089 14.3996 794.31 14.3052C794.53 14.2109 794.781 14.1638 795.064 14.1638C796.196 14.2266 796.872 14.2581 797.092 14.2581C797.784 14.321 798.255 14.3524 798.507 14.3524C798.727 14.3524 799.246 14.321 800.063 14.2581C800.221 14.2581 800.771 14.2266 801.714 14.1638C802.469 14.1638 802.846 14.3367 802.846 14.6825C802.846 14.9655 802.783 15.1856 802.657 15.3428C802.531 15.4686 802.311 15.5943 801.997 15.7201C801.4 15.9087 800.865 16.2546 800.393 16.7577C799.922 17.2607 799.529 17.8896 799.214 18.6441L792.187 35.5281C791.181 37.9491 789.892 40.9989 788.32 44.6776C787.943 45.5894 787.361 46.2811 786.575 46.7527C785.82 47.2243 784.94 47.4601 783.934 47.4601Z" fill="#9CF159"/>
</svg>
