<svg width="914" height="48" viewBox="0 0 914 48" fill="none" xmlns="http://www.w3.org/2000/svg">
<path d="M9.21355 33.7352C8.99346 33.7352 8.77337 33.6724 8.55328 33.5466C8.33319 33.3894 8.22315 33.2165 8.22315 33.0278C8.22315 32.4933 8.569 32.1474 9.26071 31.9902C10.5184 31.7073 11.383 31.3771 11.8546 30.9998C12.3577 30.5911 12.6092 29.9308 12.6092 29.019V9.30531C12.6092 7.67037 12.5463 6.6328 12.4206 6.19262C12.3262 5.721 12.1533 5.40659 11.9018 5.24938C11.5245 5.02929 10.8799 4.91925 9.96814 4.91925H9.16639C8.16026 4.91925 7.18558 5.1865 6.24234 5.721C5.2991 6.22406 4.52879 6.86861 3.9314 7.65465C3.3969 8.3778 2.90956 8.97518 2.46938 9.4468C2.0292 9.91842 1.60474 10.1542 1.19601 10.1542C0.692946 10.1542 0.441415 9.87126 0.441415 9.30531C0.441415 8.89658 0.55146 8.47212 0.771549 8.03194C1.43182 6.7114 1.90344 5.62668 2.18641 4.77776C2.46938 3.8974 2.65803 2.907 2.75235 1.80656C2.84668 0.989081 3.25541 0.580343 3.97857 0.580343C4.16721 0.580343 4.45019 0.831874 4.82748 1.33494C5.07901 1.71223 5.33054 1.9952 5.58207 2.18385C5.86505 2.40394 6.36811 2.59259 7.09126 2.7498C7.84585 2.87556 8.47468 2.93844 8.97774 2.93844L26.9936 2.89128C27.6539 2.89128 28.2513 2.8284 28.7858 2.70263C29.3203 2.54543 29.7133 2.38822 29.9648 2.23101C30.1535 2.13669 30.5151 1.85372 31.0496 1.3821C31.5526 0.879036 31.9771 0.627505 32.3229 0.627505C32.7002 0.627505 32.8889 0.879036 32.8889 1.3821C32.8889 1.5393 32.8574 1.838 32.7946 2.27818C32.7317 2.49827 32.5902 3.00133 32.3701 3.78736C32.15 4.57339 31.9771 5.28082 31.8513 5.90965C31.757 6.53848 31.7098 7.10442 31.7098 7.60748V8.59789C31.7098 9.19527 31.6469 9.63545 31.5212 9.91842C31.3954 10.2014 31.191 10.3429 30.9081 10.3429C30.5937 10.3429 30.3264 10.2014 30.1063 9.91842C29.9177 9.63545 29.7133 9.16383 29.4932 8.50356C29.0845 7.21447 28.5185 6.30267 27.7954 5.76816C27.1037 5.20222 26.0975 4.91925 24.777 4.91925H22.8434C22.2774 4.91925 21.8372 5.04501 21.5228 5.29655C21.2399 5.54808 21.0198 6.03542 20.8626 6.75857C20.7054 7.48172 20.6268 8.51928 20.6268 9.87126V28.9719C20.6268 29.8208 20.8468 30.4496 21.287 30.8584C21.7586 31.2356 22.639 31.6129 23.9281 31.9902C24.2739 32.116 24.5255 32.2418 24.6827 32.3675C24.8713 32.4933 24.9657 32.6977 24.9657 32.9806C24.9657 33.2007 24.8713 33.3737 24.6827 33.4994C24.5255 33.6252 24.3211 33.6881 24.0696 33.6881C23.4093 33.6881 22.1045 33.6566 20.1551 33.5938L16.5237 33.4994C15.9577 33.4994 14.7944 33.5309 13.0337 33.5938C11.6817 33.6881 10.4083 33.7352 9.21355 33.7352ZM34.359 33.7352C34.0446 33.7352 33.8088 33.6724 33.6516 33.5466C33.4944 33.4208 33.4158 33.2479 33.4158 33.0278C33.4158 32.6191 33.7773 32.2889 34.5005 32.0374C34.5948 32.006 34.8149 31.9274 35.1608 31.8016C35.5381 31.6758 35.8053 31.5029 35.9625 31.2828C36.1512 31.0313 36.2455 30.6854 36.2455 30.2452V7.84329C36.2455 6.86861 36.1197 6.0983 35.8682 5.53235C35.6481 4.96641 35.1765 4.60484 34.4533 4.44763C34.1075 4.38475 33.9345 4.13322 33.9345 3.69304C33.9345 3.2843 34.0918 3.04849 34.4062 2.98561C35.7267 2.73408 37.959 2.02665 41.1032 0.863317L42.0936 0.48602C42.3765 0.391696 42.5966 0.344533 42.7538 0.344533C43.0997 0.344533 43.2726 0.548902 43.2726 0.95764L43.1783 2.04237L43.0368 3.50439V15.0119C43.0368 15.7351 43.1154 16.1595 43.2726 16.2853C44.436 15.2792 45.505 14.4931 46.4796 13.9272C47.4858 13.3298 48.6963 13.0311 50.1111 13.0311C51.8718 13.0311 53.3181 13.6442 54.45 14.8704C55.5819 16.0652 56.1479 17.7002 56.1479 19.7753V30.1509C56.1479 30.7483 56.2736 31.157 56.5251 31.3771C56.7767 31.5972 57.2011 31.8173 57.7985 32.0374C58.1444 32.1632 58.3959 32.3047 58.5531 32.4619C58.7103 32.5876 58.7889 32.7763 58.7889 33.0278C58.7889 33.2165 58.6946 33.3894 58.506 33.5466C58.3487 33.6724 58.0972 33.7352 57.7514 33.7352C56.6824 33.7352 55.7706 33.6881 55.016 33.5938C54.0727 33.5309 53.2867 33.4994 52.6579 33.4994C51.9662 33.4994 51.2116 33.5309 50.3941 33.5938C49.7967 33.6881 48.9792 33.7352 47.9417 33.7352C47.1556 33.7352 46.7626 33.4837 46.7626 32.9806C46.7626 32.5405 47.077 32.2261 47.7059 32.0374C48.2089 31.8802 48.6019 31.6758 48.8849 31.4243C49.1679 31.1413 49.3094 30.6854 49.3094 30.0566V20.8128C49.3094 19.8382 49.0421 19.005 48.5076 18.3133C47.9731 17.6215 47.3286 17.2757 46.574 17.2757C45.505 17.2757 44.4988 17.6215 43.5556 18.3133C43.3669 18.439 43.2412 18.5962 43.1783 18.7849C43.1154 18.9735 43.084 19.2565 43.084 19.6338V30.1509C43.084 30.7169 43.2097 31.1256 43.4613 31.3771C43.7128 31.5972 44.0901 31.8016 44.5932 31.9902C45.222 32.2418 45.5364 32.5719 45.5364 32.9806C45.5364 33.2007 45.4578 33.3894 45.3006 33.5466C45.1748 33.6724 44.9862 33.7352 44.7346 33.7352C43.7914 33.7352 42.8639 33.6881 41.9521 33.5938C40.8202 33.5309 40.0027 33.4994 39.4997 33.4994C38.9652 33.4994 38.1634 33.5309 37.0944 33.5938C36.2455 33.6881 35.3337 33.7352 34.359 33.7352ZM69.4634 34.254C67.797 34.254 66.2721 33.7981 64.8887 32.8863C63.5367 31.9745 62.4677 30.7326 61.6816 29.1605C60.8956 27.5885 60.5026 25.8435 60.5026 23.9255C60.5026 21.9447 60.9742 20.1211 61.9175 18.4547C62.8607 16.7884 64.1341 15.4678 65.7376 14.4931C67.3725 13.5185 69.149 13.0311 71.0669 13.0311C72.3874 13.0311 73.5979 13.3298 74.6984 13.9272C75.8302 14.5246 76.7263 15.3263 77.3866 16.3325C78.0469 17.3386 78.377 18.4547 78.377 19.681C78.377 20.3098 78.2512 20.7814 77.9997 21.0958C77.7796 21.3788 77.418 21.5203 76.915 21.5203H67.5769C67.1367 21.5203 66.8066 21.646 66.5865 21.8976C66.3978 22.1491 66.3035 22.5736 66.3035 23.1709C66.3035 24.9002 66.8537 26.3465 67.9542 27.5099C69.0546 28.6732 70.4695 29.2548 72.1988 29.2548C73.0477 29.2548 73.8494 29.0976 74.604 28.7832C75.3586 28.4374 76.1761 27.95 77.0565 27.3212C77.3394 27.1011 77.5595 26.9911 77.7167 26.9911C78.0626 26.9911 78.2355 27.1954 78.2355 27.6042C78.2355 27.8871 78.1412 28.3116 77.9525 28.8775C77.4809 30.2924 76.4748 31.5501 74.9342 32.6505C73.425 33.7195 71.6014 34.254 69.4634 34.254ZM70.0765 19.4451C70.8311 19.4451 71.3813 19.4294 71.7272 19.398C72.1044 19.3665 72.4346 19.3037 72.7176 19.2093C72.8433 19.1779 72.9534 19.0207 73.0477 18.7377C73.1735 18.4547 73.2363 18.1403 73.2363 17.7945C73.2363 16.977 72.9691 16.3167 72.4346 15.8137C71.9315 15.2792 71.2713 15.0119 70.4538 15.0119C69.5105 15.0119 68.6616 15.4049 67.907 16.191C67.1524 16.977 66.8066 17.8259 66.8695 18.7377C66.8695 18.9578 66.9323 19.1307 67.0581 19.2565C67.1839 19.3823 67.3568 19.4451 67.5769 19.4451H70.0765ZM104.22 47.1292C104 47.1292 103.812 47.0506 103.654 46.8934C103.529 46.7677 103.466 46.6105 103.466 46.4218C103.466 45.9816 103.812 45.6672 104.503 45.4786C105.415 45.1956 106.044 44.8969 106.39 44.5825C106.767 44.2681 106.956 43.7807 106.956 43.1205L107.003 32.8863C107.003 32.5719 106.971 32.3204 106.909 32.1317C106.846 31.9431 106.767 31.8488 106.673 31.8488L106.248 32.0846C105.431 32.6505 104.503 33.1536 103.466 33.5938C102.46 34.0339 101.564 34.254 100.777 34.254C99.1111 34.254 97.6019 33.8138 96.2499 32.9335C94.9294 32.0531 93.8761 30.8584 93.0901 29.3492C92.3355 27.8085 91.9582 26.1422 91.9582 24.35C91.9582 22.3378 92.3826 20.467 93.2316 18.7377C94.1119 17.0084 95.4324 15.625 97.1932 14.5875C98.9539 13.5185 101.108 12.984 103.654 12.984C105.164 12.984 106.814 13.2512 108.606 13.7857C109.675 14.0372 110.336 14.163 110.587 14.163C111.216 14.163 111.813 13.9586 112.379 13.5499C112.725 13.3298 112.977 13.2198 113.134 13.2198C113.417 13.2198 113.637 13.2826 113.794 13.4084C113.951 13.5027 114.03 13.6442 114.03 13.8329C114.03 14.053 113.936 14.6346 113.747 15.5779C113.59 16.4897 113.511 17.5744 113.511 18.832L113.606 43.6393C113.606 44.1423 113.716 44.5039 113.936 44.724C114.187 44.9755 114.659 45.2113 115.351 45.4314C116.074 45.6515 116.435 45.9816 116.435 46.4218C116.435 46.6419 116.341 46.8148 116.152 46.9406C115.964 47.0664 115.744 47.1292 115.492 47.1292C114.517 47.1292 113.574 47.0821 112.662 46.9878C111.53 46.9249 110.697 46.8934 110.163 46.8934C109.628 46.8934 108.701 46.9249 107.38 46.9878C106.28 47.0821 105.226 47.1292 104.22 47.1292ZM103.607 30.9527C105.211 30.9527 106.343 30.5597 107.003 29.7736V20.3412C107.003 18.8635 106.594 17.6215 105.777 16.6154C104.959 15.6093 104 15.1062 102.9 15.1062C101.799 15.1062 100.903 15.8923 100.212 17.4643C99.5513 19.005 99.2211 20.8757 99.2211 23.0766C99.2211 25.1832 99.5827 27.0225 100.306 28.5946C101.06 30.1666 102.161 30.9527 103.607 30.9527ZM132.568 34.5842C132.285 34.5842 132.143 34.4269 132.143 34.1125C132.143 33.6409 132.19 33.1221 132.285 32.5562L132.379 31.1413C132.379 30.8269 132.348 30.6383 132.285 30.5754C131.499 31.6129 130.414 32.4933 129.03 33.2165C127.678 33.9396 126.311 34.3012 124.927 34.3012C123.984 34.3012 123.104 34.0025 122.286 33.4051C121.5 32.7763 120.871 31.9431 120.4 30.9055C119.96 29.868 119.74 28.7203 119.74 27.4627V18.7849C119.74 17.9988 119.598 17.4015 119.315 16.9927C119.064 16.5525 118.592 16.2696 117.9 16.1438C117.68 16.1124 117.491 16.018 117.334 15.8608C117.209 15.7036 117.146 15.4993 117.146 15.2477C117.146 15.0276 117.209 14.839 117.334 14.6818C117.46 14.5246 117.633 14.4303 117.853 14.3988C119.111 14.3359 120.29 14.2102 121.39 14.0215C122.522 13.8329 123.795 13.5656 125.21 13.2198C125.745 13.0626 126.122 12.984 126.342 12.984C126.782 12.984 126.987 13.204 126.955 13.6442C126.704 14.9333 126.578 16.1438 126.578 17.2757V26.2836C126.578 27.4155 126.814 28.3116 127.285 28.9719C127.789 29.6321 128.433 29.978 129.219 30.0094C130.288 30.0094 131.168 29.6636 131.86 28.9719C132.049 28.7832 132.206 28.4531 132.332 27.9815C132.458 27.4784 132.52 26.8653 132.52 26.1422V18.7849C132.52 17.9988 132.316 17.37 131.907 16.8984C131.499 16.3953 130.901 16.1281 130.115 16.0966C129.329 16.0338 128.936 15.6722 128.936 15.0119C128.936 14.6661 129.046 14.4145 129.266 14.2573C129.486 14.1001 129.769 14.0215 130.115 14.0215C132.725 13.8643 134.548 13.7385 135.586 13.6442C136.655 13.5185 137.63 13.3455 138.51 13.1254C138.887 13.0311 139.107 12.984 139.17 12.984C139.642 12.984 139.878 13.1726 139.878 13.5499C139.878 13.6442 139.815 13.9115 139.689 14.3517C139.626 14.7289 139.548 15.2792 139.453 16.0023C139.39 16.694 139.359 17.2443 139.359 17.653V28.5946C139.359 29.7265 139.642 30.2924 140.208 30.2924L141.34 30.3396C141.654 30.3396 141.89 30.4182 142.047 30.5754C142.204 30.7326 142.283 30.9527 142.283 31.2356C142.283 31.5815 142.22 31.8488 142.094 32.0374C141.969 32.1946 141.748 32.2889 141.434 32.3204C139.107 32.5405 136.576 33.185 133.841 34.254C133.275 34.4741 132.851 34.5842 132.568 34.5842ZM144.342 33.7352C144.154 33.7352 143.981 33.6724 143.823 33.5466C143.666 33.4208 143.588 33.2636 143.588 33.075C143.588 32.6033 143.855 32.2889 144.389 32.1317C145.27 31.9116 145.867 31.6915 146.182 31.4715C146.496 31.2199 146.653 30.8584 146.653 30.3867V20.1997C146.653 19.1307 146.496 18.3919 146.182 17.9831C145.867 17.5429 145.348 17.2757 144.625 17.1814C144.437 17.1499 144.295 17.0556 144.201 16.8984C144.106 16.7098 144.059 16.5054 144.059 16.2853C144.059 16.0652 144.106 15.8766 144.201 15.7193C144.327 15.5621 144.468 15.4678 144.625 15.4364C146.072 15.1534 147.361 14.7918 148.493 14.3517C149.624 13.9115 150.929 13.3612 152.407 12.701C152.973 12.4494 153.319 12.3237 153.445 12.3237C153.665 12.3237 153.822 12.3866 153.916 12.5123C154.042 12.6381 154.105 12.7953 154.105 12.984L153.869 15.0591C153.617 17.1971 153.492 18.8478 153.492 20.0111V30.3396C153.492 30.7483 153.649 31.0784 153.963 31.33C154.278 31.5815 154.875 31.8488 155.755 32.1317C156.038 32.2261 156.243 32.3361 156.369 32.4619C156.526 32.5876 156.604 32.7763 156.604 33.0278C156.604 33.468 156.369 33.6881 155.897 33.6881C155.3 33.6881 154.278 33.6566 152.831 33.5938C151.448 33.5309 150.505 33.4994 150.002 33.4994C149.467 33.4994 148.571 33.5309 147.313 33.5938C146.307 33.6881 145.317 33.7352 144.342 33.7352ZM149.813 10.5787C148.744 10.5787 147.817 10.1857 147.031 9.39964C146.244 8.61361 145.851 7.68609 145.851 6.61708C145.851 5.45375 146.229 4.47907 146.983 3.69304C147.769 2.907 148.713 2.51399 149.813 2.51399C150.976 2.51399 151.951 2.907 152.737 3.69304C153.523 4.47907 153.916 5.45375 153.916 6.61708C153.916 7.71753 153.523 8.66077 152.737 9.4468C151.951 10.2014 150.976 10.5787 149.813 10.5787ZM167.011 34.254C165.345 34.254 163.82 33.7981 162.437 32.8863C161.085 31.9745 160.016 30.7326 159.23 29.1605C158.444 27.5885 158.051 25.8435 158.051 23.9255C158.051 21.9447 158.522 20.1211 159.465 18.4547C160.409 16.7884 161.698 15.4678 163.333 14.4931C164.968 13.5185 166.76 13.0311 168.709 13.0311C169.998 13.0311 171.225 13.2669 172.388 13.7385C173.551 14.2102 174.542 14.8862 175.359 15.7665C175.611 16.0809 175.736 16.3639 175.736 16.6154C175.736 16.8984 175.438 17.3543 174.84 17.9831C174.243 18.5805 173.771 18.8792 173.425 18.8792C173.142 18.8792 172.875 18.8163 172.624 18.6906C172.404 18.5333 172.105 18.2975 171.728 17.9831C170.879 17.26 170.03 16.694 169.181 16.2853C168.363 15.8451 167.64 15.625 167.011 15.625C165.879 15.625 165.046 16.0966 164.512 17.0399C164.009 17.9517 163.757 19.4923 163.757 21.6618C163.757 23.9884 164.26 25.7963 165.266 27.0854C166.272 28.3745 167.735 29.019 169.652 29.019C170.533 29.019 171.319 28.8775 172.011 28.5946C172.734 28.3116 173.504 27.8557 174.321 27.2269C174.384 27.164 174.494 27.0697 174.652 26.9439C174.84 26.8181 175.013 26.7553 175.17 26.7553C175.548 26.7553 175.736 27.0068 175.736 27.5099C175.736 27.9186 175.642 28.343 175.453 28.7832C175.17 29.5064 174.604 30.2924 173.756 31.1413C172.938 31.9902 171.932 32.7291 170.737 33.3579C169.542 33.9553 168.3 34.254 167.011 34.254ZM177.686 33.7352C177.372 33.7352 177.136 33.6724 176.979 33.5466C176.822 33.4208 176.743 33.2479 176.743 33.0278C176.743 32.6191 177.105 32.2889 177.828 32.0374C177.922 32.006 178.142 31.9274 178.488 31.8016C178.865 31.6758 179.132 31.5029 179.29 31.2828C179.478 31.0313 179.573 30.6854 179.573 30.2452V7.84329C179.573 6.86861 179.447 6.0983 179.195 5.53235C178.975 4.96641 178.504 4.60484 177.781 4.44763C177.435 4.38475 177.262 4.13322 177.262 3.69304C177.262 3.2843 177.419 3.04849 177.733 2.98561C179.054 2.73408 181.286 2.02665 184.43 0.863317L185.421 0.48602C185.704 0.391696 185.924 0.344533 186.081 0.344533C186.427 0.344533 186.6 0.548902 186.6 0.95764L186.505 2.04237L186.364 3.50439L186.411 21.6146C186.411 22.0233 186.553 22.2277 186.836 22.2277C186.993 22.2277 187.181 22.1491 187.402 21.9919C188.439 21.0801 189.43 20.0897 190.373 19.0207C191.347 17.9517 192.008 17.1342 192.354 16.5683C192.637 16.1281 192.778 15.8451 192.778 15.7193C192.778 15.5307 192.637 15.3578 192.354 15.2006C192.102 15.0434 191.725 14.9333 191.222 14.8704C190.844 14.8075 190.656 14.6189 190.656 14.3045C190.656 13.8643 191.002 13.6442 191.693 13.6442H194.004C194.79 13.6442 195.954 13.5971 197.494 13.5027C199.066 13.4084 200.34 13.3141 201.314 13.2198C201.66 13.2198 201.833 13.4084 201.833 13.7857C201.833 14.2888 201.472 14.6189 200.748 14.7761C199.522 15.0591 198.092 15.6722 196.457 16.6154C194.476 17.6844 192.857 18.8478 191.599 20.1054C191.442 20.2626 191.363 20.4355 191.363 20.6242C191.363 20.75 191.41 20.8757 191.505 21.0015C191.599 21.0958 191.662 21.1587 191.693 21.1901C192.291 21.9762 192.967 22.9194 193.721 24.0199C193.91 24.2714 194.413 24.9788 195.23 26.1422C196.079 27.3055 196.975 28.4216 197.919 29.4907C198.39 30.0252 199.003 30.5439 199.758 31.047C200.544 31.5501 201.22 31.9116 201.786 32.1317C201.849 32.1632 202.006 32.2261 202.258 32.3204C202.509 32.3833 202.698 32.4776 202.824 32.6033C202.981 32.7291 203.059 32.8706 203.059 33.0278C203.059 33.4994 202.713 33.7352 202.022 33.7352C200.481 33.7352 198.39 33.7038 195.749 33.6409L190.986 33.5938C190.671 33.5938 190.436 33.5309 190.278 33.4051C190.121 33.2793 190.043 33.1064 190.043 32.8863C190.043 32.4776 190.404 32.1474 191.127 31.8959C191.536 31.7387 191.756 31.5186 191.788 31.2356C191.788 31.047 191.583 30.6697 191.175 30.1038L186.883 23.8312L186.694 23.7369C186.505 23.7998 186.411 23.9255 186.411 24.1142V26.9911V30.2924C186.411 30.764 186.505 31.1256 186.694 31.3771C186.914 31.6287 187.276 31.833 187.779 31.9902C188.408 32.2418 188.722 32.5719 188.722 32.9806C188.722 33.2007 188.643 33.3894 188.486 33.5466C188.361 33.6724 188.172 33.7352 187.92 33.7352C187.009 33.7352 186.097 33.6881 185.185 33.5938C184.116 33.5309 183.33 33.4994 182.827 33.4994C182.292 33.4994 181.491 33.5309 180.422 33.5938C179.573 33.6881 178.661 33.7352 177.686 33.7352ZM227.329 34.254C225.851 34.254 224.263 34.0025 222.565 33.4994C221.496 33.2165 220.773 33.075 220.396 33.075C219.767 33.075 219.17 33.2793 218.604 33.6881C218.258 33.9082 218.006 34.0182 217.849 34.0182C217.566 34.0182 217.346 33.9553 217.189 33.8296C217.032 33.7352 216.953 33.5938 216.953 33.4051C216.953 33.185 217.047 32.6191 217.236 31.7073C217.425 30.764 217.503 29.6636 217.472 28.4059L217.236 7.84329C217.236 6.83717 217.126 6.05114 216.906 5.48519C216.686 4.91925 216.214 4.57339 215.491 4.44763C215.114 4.38475 214.925 4.13322 214.925 3.69304C214.925 3.2843 215.098 3.04849 215.444 2.98561C216.796 2.73408 218.336 2.27818 220.066 1.61791C221.826 0.957639 222.801 0.596064 222.99 0.533182C223.304 0.407416 223.54 0.344533 223.697 0.344533C224.074 0.344533 224.263 0.548902 224.263 0.95764C224.263 1.20917 224.216 1.61791 224.122 2.18385C224.059 2.71835 224.027 3.15853 224.027 3.50439L223.98 13.6914C223.98 14.0687 224.012 14.3831 224.074 14.6346C224.169 14.8547 224.279 14.9648 224.405 14.9648C226.448 13.6757 228.398 13.0311 230.253 13.0311C231.888 13.0311 233.365 13.4713 234.686 14.3517C236.038 15.2006 237.091 16.3796 237.846 17.8888C238.632 19.3665 239.025 21.0329 239.025 22.888C239.025 25.1203 238.522 27.1011 237.516 28.8304C236.541 30.5282 235.173 31.8645 233.413 32.8392C231.652 33.7824 229.624 34.254 227.329 34.254ZM228.083 32.1317C229.184 32.1317 230.064 31.3614 230.724 29.8208C231.416 28.2487 231.762 26.3622 231.762 24.1613C231.762 21.9919 231.385 20.0583 230.63 18.3604C229.907 16.6626 228.822 15.8137 227.376 15.8137C226.873 15.8137 226.275 15.8923 225.584 16.0495C224.923 16.1752 224.389 16.3796 223.98 16.6626V26.8967C223.98 28.3745 224.389 29.6164 225.206 30.6225C226.024 31.6287 226.983 32.1317 228.083 32.1317ZM241.895 33.7352C241.643 33.7352 241.423 33.6724 241.234 33.5466C241.046 33.3894 240.951 33.2165 240.951 33.0278C240.951 32.5876 241.313 32.2575 242.036 32.0374C242.728 31.8173 243.184 31.5972 243.404 31.3771C243.655 31.1256 243.781 30.7483 243.781 30.2452V19.2565C243.781 18.5962 243.687 18.0932 243.498 17.7473C243.341 17.37 243.011 17.1028 242.508 16.9456C242.288 16.8827 242.115 16.7884 241.989 16.6626C241.895 16.5368 241.848 16.3325 241.848 16.0495C241.848 15.5779 242.052 15.2949 242.461 15.2006C243.593 14.949 244.787 14.6189 246.045 14.2102C247.303 13.8014 248.372 13.3927 249.252 12.984C249.849 12.6381 250.242 12.4652 250.431 12.4652C250.745 12.4652 250.903 12.6538 250.903 13.0311L250.855 14.446L250.761 16.8041C250.761 17.1185 250.824 17.2757 250.95 17.2757C251.799 16.1124 252.758 15.1062 253.827 14.2573C254.896 13.4084 255.98 12.984 257.081 12.984C259.187 12.984 260.241 13.77 260.241 15.3421C260.241 16.1595 259.926 17.0242 259.297 17.936C258.669 18.8163 258.008 19.2565 257.317 19.2565C257.034 19.2565 256.719 19.1936 256.373 19.0679C256.028 18.9106 255.682 18.7377 255.336 18.5491C254.455 18.1089 253.858 17.8888 253.544 17.8888C252.632 17.8888 251.909 18.2347 251.374 18.9264C250.871 19.5866 250.62 20.7657 250.62 22.4635V29.7265C250.62 30.3867 250.793 30.8741 251.138 31.1885C251.516 31.5029 252.16 31.8016 253.072 32.0846C253.764 32.2732 254.11 32.5876 254.11 33.0278C254.11 33.2165 254.031 33.3894 253.874 33.5466C253.748 33.6724 253.575 33.7352 253.355 33.7352C252.317 33.7352 251.248 33.6881 250.148 33.5938C248.765 33.5309 247.821 33.4994 247.318 33.4994C246.815 33.4994 245.966 33.5309 244.772 33.5938C243.828 33.6881 242.869 33.7352 241.895 33.7352ZM270.899 34.254C269.012 34.254 267.283 33.8296 265.711 32.9806C264.139 32.1317 262.897 30.9527 261.985 29.4435C261.105 27.9029 260.665 26.1893 260.665 24.3028C260.665 22.2591 261.168 20.3727 262.174 18.6434C263.18 16.9141 264.532 15.5464 266.23 14.5403C267.959 13.5027 269.861 12.984 271.937 12.984C273.854 12.984 275.615 13.4399 277.219 14.3517C278.854 15.2634 280.143 16.4897 281.086 18.0303C282.029 19.5395 282.501 21.1744 282.501 22.9351C282.501 25.0417 282.061 26.9596 281.18 28.6889C280.3 30.3867 278.979 31.7387 277.219 32.7448C275.489 33.751 273.383 34.254 270.899 34.254ZM271.795 32.0374C272.895 32.0374 273.729 31.5815 274.295 30.6697C274.986 29.5064 275.332 27.3055 275.332 24.067C275.332 21.4574 274.955 19.3351 274.2 17.7002C273.446 16.0338 272.455 15.2006 271.229 15.2006C270.412 15.2006 269.736 15.4678 269.201 16.0023C268.667 16.5368 268.289 17.3857 268.069 18.5491C267.881 19.681 267.786 21.2059 267.786 23.1238C267.786 24.633 267.959 26.0793 268.305 27.4627C268.651 28.8147 269.122 29.9151 269.72 30.764C270.349 31.6129 271.04 32.0374 271.795 32.0374ZM294.019 35.1029C293.579 35.1029 293.296 34.93 293.17 34.5842L286.285 17.8416C285.97 17.0556 285.625 16.4268 285.247 15.9552C284.901 15.4835 284.446 15.1534 283.88 14.9648C283.565 14.839 283.345 14.7132 283.219 14.5875C283.094 14.4303 283.031 14.2102 283.031 13.9272C283.031 13.5499 283.424 13.3612 284.21 13.3612C284.776 13.3612 285.294 13.3927 285.766 13.4556C286.269 13.487 286.615 13.5027 286.804 13.5027C287.432 13.5971 288.187 13.6442 289.067 13.6442C289.948 13.6442 290.718 13.5971 291.378 13.5027C291.567 13.5027 291.913 13.487 292.416 13.4556C292.95 13.3927 293.501 13.3612 294.067 13.3612C294.35 13.3612 294.601 13.4241 294.821 13.5499C295.073 13.6442 295.198 13.8014 295.198 14.0215C295.198 14.2416 295.136 14.3988 295.01 14.4931C294.884 14.5875 294.727 14.6818 294.538 14.7761C294.381 14.839 294.255 14.8862 294.161 14.9176C293.784 15.0748 293.516 15.2792 293.359 15.5307C293.233 15.7822 293.17 16.191 293.17 16.7569C293.17 17.3543 293.281 17.9517 293.501 18.5491L296.047 25.4347C296.047 25.4662 296.079 25.4819 296.142 25.4819C296.205 25.4819 296.236 25.4662 296.236 25.4347L299.349 18.0774C299.506 17.5115 299.585 17.1185 299.585 16.8984C299.585 16.584 299.427 16.2381 299.113 15.8608C298.798 15.4835 298.39 15.2006 297.887 15.0119C297.572 14.8862 297.352 14.7604 297.226 14.6346C297.101 14.4774 297.038 14.2573 297.038 13.9744C297.038 13.5971 297.478 13.4084 298.358 13.4084C299.427 13.4084 300.386 13.4556 301.235 13.5499L302.65 13.5971C303.122 13.5971 303.861 13.5656 304.867 13.5027C305.873 13.4399 306.753 13.4084 307.508 13.4084C307.791 13.4084 308.042 13.4713 308.262 13.5971C308.514 13.6914 308.64 13.8486 308.64 14.0687C308.64 14.2888 308.577 14.446 308.451 14.5403C308.325 14.6346 308.168 14.7289 307.979 14.8233C307.822 14.8862 307.696 14.9333 307.602 14.9648C307.225 15.122 306.942 15.3106 306.753 15.5307C306.596 15.7508 306.517 16.0652 306.517 16.4739C306.517 17.0713 306.659 17.763 306.942 18.5491L309.583 25.529C309.583 25.5605 309.614 25.5762 309.677 25.5762C309.74 25.5762 309.771 25.5605 309.771 25.529L312.177 19.115C312.428 18.3604 312.538 17.7002 312.507 17.1342C312.507 16.6311 312.397 16.2067 312.177 15.8608C311.957 15.4835 311.627 15.2163 311.186 15.0591C310.809 14.9333 310.542 14.8233 310.385 14.7289C310.227 14.6032 310.149 14.4145 310.149 14.163C310.149 13.9429 310.259 13.7857 310.479 13.6914C310.73 13.5656 310.998 13.5027 311.281 13.5027L314.488 13.5971C315.337 13.5971 316.374 13.5656 317.6 13.5027C318.386 13.5027 318.779 13.6914 318.779 14.0687C318.779 14.3516 318.717 14.5717 318.591 14.7289C318.465 14.8547 318.245 14.9805 317.931 15.1062C316.673 15.5464 315.761 16.5054 315.195 17.9831L308.498 34.5842C308.467 34.7099 308.357 34.8042 308.168 34.8671C308.011 34.9614 307.838 35.0086 307.649 35.0086C307.272 35.0086 307.005 34.8671 306.847 34.5842L300.716 20.7657C300.716 20.7342 300.685 20.7185 300.622 20.7185C300.559 20.7185 300.528 20.7342 300.528 20.7657L294.915 34.5842C294.853 34.7414 294.727 34.8671 294.538 34.9614C294.381 35.0558 294.208 35.1029 294.019 35.1029ZM320.836 33.7352C320.616 33.7352 320.396 33.6724 320.175 33.5466C319.987 33.3894 319.893 33.2165 319.893 33.0278C319.893 32.6191 320.254 32.2889 320.977 32.0374C321.575 31.8488 322.015 31.6444 322.298 31.4243C322.581 31.2042 322.722 30.8112 322.722 30.2452V19.3037C322.722 17.8259 322.251 17.0084 321.307 16.8512C321.182 16.8198 321.056 16.7255 320.93 16.5683C320.836 16.4111 320.789 16.2067 320.789 15.9552C320.789 15.4835 320.946 15.2006 321.26 15.1062C322.455 14.8233 323.744 14.4774 325.128 14.0687C326.511 13.6285 327.643 13.1883 328.523 12.7481C328.586 12.7167 328.728 12.6381 328.948 12.5123C329.168 12.3866 329.341 12.3237 329.466 12.3237C329.781 12.3237 329.938 12.5281 329.938 12.9368L329.844 13.9272C329.749 14.9648 329.702 15.515 329.702 15.5779C329.702 15.9866 329.734 16.2224 329.797 16.2853C330.991 15.1848 332.107 14.3674 333.145 13.8329C334.183 13.2984 335.377 13.0311 336.729 13.0311C338.459 13.0311 339.873 13.6442 340.974 14.8704C342.074 16.0966 342.625 17.7473 342.625 19.8224V30.2924C342.625 30.8584 342.75 31.2514 343.002 31.4715C343.285 31.6601 343.741 31.8488 344.37 32.0374C344.998 32.2575 345.313 32.5876 345.313 33.0278C345.313 33.2165 345.219 33.3894 345.03 33.5466C344.873 33.6724 344.7 33.7352 344.511 33.7352C343.536 33.7352 342.593 33.6881 341.681 33.5938C340.549 33.5309 339.732 33.4994 339.229 33.4994C338.694 33.4994 337.893 33.5309 336.824 33.5938C335.943 33.6881 335.016 33.7352 334.041 33.7352C333.852 33.7352 333.68 33.6724 333.522 33.5466C333.365 33.3894 333.287 33.2165 333.287 33.0278C333.287 32.5876 333.585 32.2575 334.183 32.0374C334.78 31.8488 335.189 31.6601 335.409 31.4715C335.66 31.2514 335.786 30.8584 335.786 30.2924V21.0015C335.786 19.8382 335.535 18.9264 335.032 18.2661C334.528 17.6058 333.868 17.2757 333.051 17.2757C332.485 17.2757 331.966 17.37 331.494 17.5587C331.023 17.7159 330.504 17.9831 329.938 18.3604C329.686 18.5176 329.561 18.8006 329.561 19.2093V30.2924C329.561 30.8584 329.671 31.2356 329.891 31.4243C330.142 31.6129 330.567 31.8173 331.164 32.0374C331.762 32.2575 332.06 32.5876 332.06 33.0278C332.06 33.2165 331.982 33.3894 331.825 33.5466C331.667 33.6724 331.494 33.7352 331.306 33.7352C330.362 33.7352 329.466 33.6881 328.617 33.5938C327.548 33.5309 326.762 33.4994 326.259 33.4994C325.756 33.4994 324.907 33.5309 323.713 33.5938C322.769 33.6881 321.81 33.7352 320.836 33.7352ZM359.477 33.7352C359.257 33.7352 359.037 33.6724 358.817 33.5466C358.628 33.3894 358.534 33.2165 358.534 33.0278C358.534 32.6191 358.817 32.3047 359.383 32.0846C360.263 31.8016 360.814 31.5658 361.034 31.3771C361.254 31.157 361.364 30.7798 361.364 30.2452V16.8041C360.389 16.8041 359.572 16.7726 358.911 16.7098C358.723 16.6783 358.566 16.4897 358.44 16.1438C358.314 15.798 358.251 15.4835 358.251 15.2006C358.251 14.9805 358.408 14.8233 358.723 14.7289C359.32 14.5089 360.2 14.1473 361.364 13.6442C361.584 10.5315 362.338 7.98478 363.628 6.00397C364.948 3.99173 366.52 2.54543 368.344 1.66507C370.199 0.753271 372.038 0.297372 373.862 0.297372C376.094 0.297372 377.698 0.611785 378.672 1.24061C379.678 1.838 380.181 2.81268 380.181 4.16466C380.181 4.91925 380.008 5.51663 379.663 5.95681C379.317 6.39699 378.845 6.61708 378.248 6.61708C377.776 6.61708 377.194 6.16118 376.503 5.24938C375.748 4.43191 375.009 3.77164 374.286 3.26858C373.594 2.76552 372.793 2.51399 371.881 2.51399C370.655 2.51399 369.727 3.04849 369.098 4.1175C368.501 5.15506 368.202 6.82145 368.202 9.11667V12.9368C368.202 13.4084 368.47 13.6442 369.004 13.6442H374.192C374.443 13.6442 374.632 13.7228 374.758 13.88C374.915 14.0372 374.994 14.2259 374.994 14.446C374.994 14.7289 374.946 15.0434 374.852 15.3892C374.789 15.7036 374.695 15.9709 374.569 16.191C374.412 16.4425 374.286 16.5683 374.192 16.5683H370.089C369.366 16.5683 368.863 16.6626 368.58 16.8512C368.328 17.0084 368.202 17.3071 368.202 17.7473V29.302C368.202 29.8994 368.265 30.3553 368.391 30.6697C368.548 30.9841 368.831 31.2514 369.24 31.4715C369.68 31.6601 370.356 31.8488 371.268 32.0374C371.582 32.1003 371.802 32.2103 371.928 32.3675C372.085 32.4933 372.164 32.682 372.164 32.9335C372.164 33.1221 372.085 33.3108 371.928 33.4994C371.771 33.6566 371.598 33.7352 371.409 33.7352C370.34 33.7352 369.193 33.6881 367.966 33.5938C366.394 33.5309 365.373 33.4994 364.901 33.4994C364.398 33.4994 363.549 33.5309 362.354 33.5938C361.411 33.6881 360.452 33.7352 359.477 33.7352ZM385.027 34.254C383.141 34.254 381.412 33.8296 379.84 32.9806C378.267 32.1317 377.026 30.9527 376.114 29.4435C375.233 27.9029 374.793 26.1893 374.793 24.3028C374.793 22.2591 375.296 20.3727 376.302 18.6434C377.308 16.9141 378.66 15.5464 380.358 14.5403C382.088 13.5027 383.99 12.984 386.065 12.984C387.983 12.984 389.744 13.4399 391.347 14.3517C392.982 15.2634 394.271 16.4897 395.214 18.0303C396.158 19.5395 396.629 21.1744 396.629 22.9351C396.629 25.0417 396.189 26.9596 395.309 28.6889C394.428 30.3867 393.108 31.7387 391.347 32.7448C389.618 33.751 387.511 34.254 385.027 34.254ZM385.923 32.0374C387.024 32.0374 387.857 31.5815 388.423 30.6697C389.115 29.5064 389.461 27.3055 389.461 24.067C389.461 21.4574 389.083 19.3351 388.329 17.7002C387.574 16.0338 386.584 15.2006 385.357 15.2006C384.54 15.2006 383.864 15.4678 383.329 16.0023C382.795 16.5368 382.418 17.3857 382.198 18.5491C382.009 19.681 381.915 21.2059 381.915 23.1238C381.915 24.633 382.088 26.0793 382.433 27.4627C382.779 28.8147 383.251 29.9151 383.848 30.764C384.477 31.6129 385.169 32.0374 385.923 32.0374ZM397.831 33.7824C397.045 33.7824 396.652 33.5938 396.652 33.2165C396.652 32.9335 396.715 32.7291 396.841 32.6033C396.967 32.4461 397.187 32.3047 397.501 32.1789C397.847 32.0531 398.193 31.833 398.539 31.5186C398.885 31.2042 399.341 30.654 399.907 29.868L404.434 23.7369C404.623 23.4854 404.717 23.281 404.717 23.1238C404.717 22.9666 404.638 22.7622 404.481 22.5107L400.991 17.4172C400.457 16.5997 400.048 16.0338 399.765 15.7193C399.482 15.3735 399.105 15.122 398.633 14.9648C398.319 14.839 398.099 14.7132 397.973 14.5875C397.847 14.4303 397.784 14.2102 397.784 13.9272C397.784 13.5499 398.177 13.3612 398.963 13.3612C399.529 13.3612 400.048 13.3927 400.52 13.4556C401.023 13.487 401.369 13.5027 401.557 13.5027C402.217 13.5971 402.988 13.6442 403.868 13.6442C404.749 13.6442 405.566 13.5971 406.321 13.5027C407.924 13.4084 408.867 13.3612 409.15 13.3612C409.433 13.3612 409.685 13.4241 409.905 13.5499C410.156 13.6442 410.282 13.8014 410.282 14.0215C410.282 14.2102 410.219 14.3674 410.094 14.4931C409.968 14.5875 409.795 14.6818 409.575 14.7761C409.386 14.839 409.245 14.8862 409.15 14.9176C408.71 15.0748 408.364 15.2477 408.113 15.4364C407.893 15.5936 407.783 15.8294 407.783 16.1438C407.783 16.4582 407.987 16.9298 408.396 17.5587L410.565 20.7185C410.628 20.8128 410.691 20.8757 410.754 20.9072C410.848 20.9072 410.927 20.8443 410.99 20.7185L412.216 18.4547C412.687 17.5429 412.908 16.7726 412.876 16.1438C412.876 15.6093 412.577 15.232 411.98 15.0119C411.917 14.9805 411.791 14.9333 411.603 14.8704C411.414 14.7761 411.273 14.6818 411.178 14.5875C411.084 14.4617 411.037 14.3045 411.037 14.1158C411.037 13.8958 411.147 13.7385 411.367 13.6442C411.618 13.5185 411.886 13.4556 412.169 13.4556L415.376 13.5027C415.942 13.5027 416.46 13.487 416.932 13.4556L418.394 13.3612C419.18 13.3612 419.573 13.5499 419.573 13.9272C419.573 14.2102 419.51 14.4303 419.384 14.5875C419.259 14.7132 419.039 14.839 418.724 14.9648C418.41 15.0905 418.08 15.3106 417.734 15.625C417.388 15.9394 416.916 16.4897 416.319 17.2757L412.829 21.8032C412.609 22.1177 412.499 22.3692 412.499 22.5578C412.499 22.715 412.593 22.9351 412.782 23.2181L416.602 29.1605C417.042 29.8208 417.545 30.4182 418.111 30.9527C418.708 31.4557 419.29 31.8173 419.856 32.0374C420.17 32.1632 420.391 32.3047 420.516 32.4619C420.642 32.5876 420.705 32.792 420.705 33.075C420.705 33.4523 420.312 33.6409 419.526 33.6409C418.96 33.6409 418.378 33.6252 417.781 33.5938C417.184 33.5309 416.759 33.4994 416.508 33.4994C415.627 33.4051 414.715 33.3579 413.772 33.3579C412.86 33.3579 411.98 33.4051 411.131 33.4994C410.848 33.4994 410.392 33.5309 409.763 33.5938C409.166 33.6252 408.6 33.6409 408.066 33.6409C407.688 33.6409 407.405 33.578 407.217 33.4523C407.028 33.3265 406.934 33.1693 406.934 32.9806C406.934 32.7291 407.012 32.5562 407.17 32.4619C407.327 32.3361 407.594 32.2103 407.971 32.0846C408.411 31.9588 408.742 31.7544 408.962 31.4715C409.213 31.1885 409.339 30.7483 409.339 30.1509C409.339 29.7736 409.292 29.4592 409.197 29.2077C409.135 28.9562 408.977 28.6417 408.726 28.2644L406.415 24.9631C406.383 24.9317 406.336 24.9159 406.273 24.9159C406.211 24.9159 406.163 24.9317 406.132 24.9631L404.104 28.6889C403.601 29.5378 403.349 30.2295 403.349 30.764C403.349 31.4872 403.648 31.9745 404.245 32.2261C404.34 32.2575 404.481 32.3204 404.67 32.4147C404.89 32.4776 405.047 32.5719 405.142 32.6977C405.236 32.792 405.283 32.9335 405.283 33.1221C405.283 33.3422 405.157 33.4994 404.906 33.5938C404.686 33.7195 404.434 33.7824 404.151 33.7824L402.265 33.7352C401.982 33.7038 401.62 33.6881 401.18 33.6881C400.174 33.6881 399.058 33.7195 397.831 33.7824ZM432.807 47.1292C431.392 47.1292 430.685 46.862 430.685 46.3275C430.685 46.1074 430.763 45.9188 430.92 45.7615C431.046 45.6043 431.298 45.4471 431.675 45.2899C432.272 45.007 432.76 44.6925 433.137 44.3467C433.514 44.0008 433.892 43.4506 434.269 42.696C434.803 41.5641 435.181 39.8977 435.401 37.6968C435.621 35.496 435.731 33.3737 435.731 31.33V20.1997C435.731 19.1307 435.574 18.3919 435.259 17.9831C434.945 17.5429 434.426 17.2757 433.703 17.1814C433.514 17.1499 433.373 17.0556 433.278 16.8984C433.184 16.7098 433.137 16.5054 433.137 16.2853C433.137 16.0652 433.184 15.8766 433.278 15.7193C433.404 15.5621 433.546 15.4678 433.703 15.4364C435.149 15.1534 436.438 14.7918 437.57 14.3517C438.702 13.9115 440.007 13.3612 441.485 12.701C442.051 12.4494 442.396 12.3237 442.522 12.3237C442.742 12.3237 442.9 12.3866 442.994 12.5123C443.12 12.6381 443.182 12.7953 443.182 12.984L442.947 15.0591C442.695 17.1971 442.569 18.8478 442.569 20.0111L442.617 29.302C442.617 31.3771 442.491 33.3894 442.239 35.3387C441.988 37.2881 441.485 39.096 440.73 40.7624C439.975 42.3973 438.796 43.8593 437.193 45.1484C435.621 46.469 434.159 47.1292 432.807 47.1292ZM438.985 10.5787C437.916 10.5787 436.989 10.1857 436.203 9.39964C435.416 8.61361 435.023 7.68609 435.023 6.61708C435.023 5.45375 435.401 4.47907 436.155 3.69304C436.941 2.907 437.885 2.51399 438.985 2.51399C440.148 2.51399 441.123 2.907 441.909 3.69304C442.695 4.47907 443.088 5.45375 443.088 6.61708C443.088 7.71753 442.695 8.66077 441.909 9.4468C441.123 10.2014 440.148 10.5787 438.985 10.5787ZM461.688 34.5842C461.405 34.5842 461.264 34.4269 461.264 34.1125C461.264 33.6409 461.311 33.1221 461.405 32.5562L461.5 31.1413C461.5 30.8269 461.468 30.6383 461.405 30.5754C460.619 31.6129 459.535 32.4933 458.151 33.2165C456.799 33.9396 455.432 34.3012 454.048 34.3012C453.105 34.3012 452.225 34.0025 451.407 33.4051C450.621 32.7763 449.992 31.9431 449.521 30.9055C449.08 29.868 448.86 28.7203 448.86 27.4627V18.7849C448.86 17.9988 448.719 17.4015 448.436 16.9927C448.184 16.5525 447.713 16.2696 447.021 16.1438C446.801 16.1124 446.612 16.018 446.455 15.8608C446.329 15.7036 446.266 15.4993 446.266 15.2477C446.266 15.0276 446.329 14.839 446.455 14.6818C446.581 14.5246 446.754 14.4303 446.974 14.3988C448.232 14.3359 449.411 14.2102 450.511 14.0215C451.643 13.8329 452.916 13.5656 454.331 13.2198C454.866 13.0626 455.243 12.984 455.463 12.984C455.903 12.984 456.108 13.204 456.076 13.6442C455.825 14.9333 455.699 16.1438 455.699 17.2757V26.2836C455.699 27.4155 455.935 28.3116 456.406 28.9719C456.909 29.6321 457.554 29.978 458.34 30.0094C459.409 30.0094 460.289 29.6636 460.981 28.9719C461.17 28.7832 461.327 28.4531 461.453 27.9815C461.578 27.4784 461.641 26.8653 461.641 26.1422V18.7849C461.641 17.9988 461.437 17.37 461.028 16.8984C460.619 16.3953 460.022 16.1281 459.236 16.0966C458.45 16.0338 458.057 15.6722 458.057 15.0119C458.057 14.6661 458.167 14.4145 458.387 14.2573C458.607 14.1001 458.89 14.0215 459.236 14.0215C461.846 13.8643 463.669 13.7385 464.707 13.6442C465.776 13.5185 466.75 13.3455 467.631 13.1254C468.008 13.0311 468.228 12.984 468.291 12.984C468.763 12.984 468.999 13.1726 468.999 13.5499C468.999 13.6442 468.936 13.9115 468.81 14.3517C468.747 14.7289 468.668 15.2792 468.574 16.0023C468.511 16.694 468.48 17.2443 468.48 17.653V28.5946C468.48 29.7265 468.763 30.2924 469.329 30.2924L470.461 30.3396C470.775 30.3396 471.011 30.4182 471.168 30.5754C471.325 30.7326 471.404 30.9527 471.404 31.2356C471.404 31.5815 471.341 31.8488 471.215 32.0374C471.089 32.1946 470.869 32.2889 470.555 32.3204C468.228 32.5405 465.697 33.185 462.962 34.254C462.396 34.4741 461.971 34.5842 461.688 34.5842ZM473.652 33.7352C473.432 33.7352 473.212 33.6724 472.991 33.5466C472.803 33.3894 472.708 33.2165 472.708 33.0278C472.708 32.6191 473.07 32.2889 473.793 32.0374C474.391 31.8488 474.831 31.6444 475.114 31.4243C475.397 31.2042 475.538 30.8112 475.538 30.2452V19.3037C475.538 17.8259 475.082 17.0084 474.17 16.8512C473.793 16.7884 473.605 16.4897 473.605 15.9552C473.605 15.4835 473.777 15.2006 474.123 15.1062C477.802 14.1944 480.317 13.3612 481.669 12.6067C481.984 12.418 482.188 12.3237 482.282 12.3237C482.597 12.3237 482.754 12.5123 482.754 12.8896L482.66 13.9272C482.565 15.0591 482.518 15.6407 482.518 15.6722C482.518 15.9866 482.55 16.1752 482.612 16.2381H482.707C483.776 15.2006 484.861 14.4145 485.961 13.88C487.093 13.3141 488.319 13.0311 489.64 13.0311C490.551 13.0311 491.432 13.3927 492.281 14.1158C493.13 14.8075 493.743 15.6879 494.12 16.7569H494.356C496.305 14.273 498.648 13.0311 501.383 13.0311C502.892 13.0311 504.15 13.6442 505.156 14.8704C506.193 16.0652 506.712 17.7159 506.712 19.8224V30.2924C506.712 30.8584 506.838 31.2514 507.09 31.4715C507.373 31.6601 507.828 31.8488 508.457 32.0374C509.086 32.2575 509.401 32.5876 509.401 33.0278C509.401 33.2165 509.306 33.3894 509.118 33.5466C508.96 33.6724 508.787 33.7352 508.599 33.7352C507.624 33.7352 506.681 33.6881 505.769 33.5938C504.637 33.5309 503.82 33.4994 503.317 33.4994C502.845 33.4994 502.106 33.5309 501.1 33.5938C500.345 33.6881 499.512 33.7352 498.6 33.7352C498.412 33.7352 498.239 33.6724 498.082 33.5466C497.924 33.3894 497.846 33.2165 497.846 33.0278C497.846 32.5876 498.145 32.2575 498.742 32.0374C499.151 31.9116 499.434 31.7544 499.591 31.5658C499.779 31.3771 499.874 31.0627 499.874 30.6225V21.0015C499.874 19.8696 499.654 18.9735 499.214 18.3133C498.805 17.653 498.239 17.3071 497.516 17.2757C497.17 17.2757 496.777 17.37 496.337 17.5587C495.896 17.7473 495.472 18.0146 495.063 18.3604C494.875 18.5491 494.733 18.7692 494.639 19.0207C494.576 19.2408 494.544 19.5709 494.544 20.0111V30.2924C494.544 30.8898 494.623 31.2985 494.78 31.5186C494.969 31.7073 495.315 31.8802 495.818 32.0374C496.447 32.2575 496.761 32.5876 496.761 33.0278C496.761 33.2165 496.667 33.3894 496.478 33.5466C496.321 33.6724 496.148 33.7352 495.959 33.7352C495.016 33.7352 494.167 33.6881 493.413 33.5938C492.406 33.5309 491.652 33.4994 491.149 33.4994C490.677 33.4994 489.938 33.5309 488.932 33.5938C488.178 33.6881 487.344 33.7352 486.433 33.7352C486.244 33.7352 486.071 33.6724 485.914 33.5466C485.757 33.3894 485.678 33.2165 485.678 33.0278C485.678 32.5876 485.977 32.2575 486.574 32.0374C486.983 31.9116 487.266 31.7544 487.423 31.5658C487.612 31.3771 487.706 31.0627 487.706 30.6225V21.0015C487.706 19.8696 487.502 18.9892 487.093 18.3604C486.684 17.7002 486.118 17.3543 485.395 17.3229C484.609 17.3229 483.76 17.653 482.848 18.3133C482.534 18.5333 482.377 19.0364 482.377 19.8224V30.2924C482.377 30.8584 482.44 31.2671 482.565 31.5186C482.723 31.7387 483.037 31.9116 483.509 32.0374C484.106 32.2575 484.405 32.5876 484.405 33.0278C484.405 33.2165 484.326 33.3894 484.169 33.5466C484.012 33.6724 483.839 33.7352 483.65 33.7352C482.707 33.7352 481.858 33.6881 481.103 33.5938C480.16 33.5309 479.421 33.4994 478.887 33.4994C478.384 33.4994 477.566 33.5309 476.434 33.5938C475.554 33.6881 474.626 33.7352 473.652 33.7352ZM511.781 45.7144C511.53 45.7144 511.309 45.6515 511.121 45.5257C510.932 45.4 510.838 45.227 510.838 45.007C510.838 44.5668 511.199 44.2366 511.923 44.0166C512.614 43.7965 513.07 43.5607 513.29 43.3091C513.542 43.089 513.668 42.7275 513.668 42.2244V19.9168C513.668 19.2879 513.479 18.7377 513.102 18.2661C512.756 17.763 512.3 17.4643 511.734 17.37C511.514 17.3071 511.357 17.2128 511.262 17.087C511.168 16.9613 511.121 16.7569 511.121 16.4739C511.121 16.0023 511.309 15.7193 511.687 15.625C512.85 15.3735 514.092 15.0276 515.413 14.5875C516.765 14.1473 517.881 13.7071 518.761 13.2669C518.824 13.2355 518.965 13.1569 519.186 13.0311C519.406 12.9053 519.579 12.8425 519.704 12.8425C520.019 12.8425 520.176 13.0468 520.176 13.4556L520.082 14.4931C520.05 14.6818 520.019 14.9176 519.987 15.2006C519.956 15.4835 519.94 15.8137 519.94 16.191C519.94 16.5054 519.972 16.694 520.034 16.7569C520.663 16.0966 521.732 15.3735 523.241 14.5875C524.751 13.8014 526.165 13.4084 527.486 13.4084C529.09 13.4084 530.504 13.8486 531.731 14.7289C532.957 15.6093 533.884 16.7726 534.513 18.2189C535.173 19.6338 535.504 21.1273 535.504 22.6993C535.504 24.6487 535.001 26.5352 533.994 28.3588C533.02 30.1824 531.683 31.6601 529.986 32.792C528.319 33.9239 526.496 34.4898 524.515 34.4898C524.012 34.4898 523.383 34.3955 522.628 34.2069C521.874 34.0496 521.213 33.8453 520.648 33.5938C520.522 33.5938 520.459 33.7667 520.459 34.1125V41.7056C520.459 42.3659 520.632 42.8532 520.978 43.1676C521.355 43.4821 522 43.7807 522.911 44.0637C523.603 44.2524 523.949 44.5668 523.949 45.007C523.949 45.1956 523.87 45.3528 523.713 45.4786C523.587 45.6358 523.414 45.7144 523.194 45.7144C522.125 45.7144 521.056 45.6672 519.987 45.5729C518.667 45.51 517.739 45.4786 517.205 45.4786C516.702 45.4786 515.853 45.51 514.658 45.5729C513.715 45.6672 512.756 45.7144 511.781 45.7144ZM524.185 32.1317C524.688 32.1317 525.254 31.8802 525.883 31.3771C526.511 30.8426 527.062 30.0094 527.533 28.8775C528.005 27.7142 528.241 26.2365 528.241 24.4443C528.241 21.4888 527.785 19.4923 526.873 18.4547C525.993 17.4172 525.034 16.8984 523.996 16.8984C523.21 16.8984 522.424 17.1499 521.638 17.653C520.883 18.1561 520.506 18.612 520.506 19.0207L520.459 26.9439C520.459 27.6356 520.6 28.3902 520.883 29.2077C521.166 30.0252 521.575 30.7169 522.11 31.2828C522.675 31.8488 523.367 32.1317 524.185 32.1317ZM544.446 34.254C542.12 34.254 540.17 33.7352 538.598 32.6977C538.284 32.2261 538.048 31.4715 537.891 30.4339C537.765 29.3649 537.734 28.2016 537.797 26.9439C537.797 26.7553 537.891 26.6138 538.079 26.5194C538.268 26.3937 538.504 26.3308 538.787 26.3308C539.038 26.3308 539.259 26.4251 539.447 26.6138C539.667 26.771 539.824 26.9439 539.919 27.1326C540.673 28.6732 541.412 29.868 542.135 30.7169C542.89 31.5658 543.802 31.9902 544.871 31.9902C545.625 31.9902 546.207 31.7544 546.616 31.2828C547.056 30.8112 547.276 30.2452 547.276 29.585C547.276 28.8618 546.977 28.233 546.38 27.6985C545.814 27.164 545.059 26.6609 544.116 26.1893C542.45 25.3718 541.098 24.4443 540.06 23.4068C539.054 22.3378 538.551 20.9543 538.551 19.2565C538.551 17.4015 539.306 15.8923 540.815 14.7289C542.324 13.5656 544.179 12.984 546.38 12.984C547.355 12.984 548.314 13.094 549.257 13.3141C550.2 13.5342 550.876 13.77 551.285 14.0215C551.536 14.3359 551.725 14.9333 551.851 15.8137C552.008 16.694 552.087 17.7159 552.087 18.8792C552.087 19.0364 551.992 19.1622 551.804 19.2565C551.646 19.3508 551.426 19.398 551.143 19.398C550.923 19.398 550.687 19.3194 550.436 19.1622C550.184 18.9735 550.027 18.8006 549.964 18.6434C549.556 17.4172 549.021 16.4897 548.361 15.8608C547.732 15.2006 547.04 14.8704 546.286 14.8704C545.563 14.8704 544.934 15.1062 544.399 15.5779C543.865 16.018 543.597 16.584 543.597 17.2757C543.597 17.8416 543.88 18.3761 544.446 18.8792C545.012 19.3823 545.798 19.901 546.804 20.4355C548.942 21.5674 550.436 22.6364 551.285 23.6426C552.134 24.6487 552.558 25.9692 552.558 27.6042C552.558 29.7422 551.866 31.3929 550.483 32.5562C549.131 33.6881 547.119 34.254 544.446 34.254ZM576.577 34.254C574.69 34.254 572.961 33.8296 571.389 32.9806C569.817 32.1317 568.575 30.9527 567.663 29.4435C566.783 27.9029 566.343 26.1893 566.343 24.3028C566.343 22.2591 566.846 20.3727 567.852 18.6434C568.858 16.9141 570.21 15.5464 571.908 14.5403C573.637 13.5027 575.539 12.984 577.614 12.984C579.532 12.984 581.293 13.4399 582.897 14.3517C584.532 15.2634 585.821 16.4897 586.764 18.0303C587.707 19.5395 588.179 21.1744 588.179 22.9351C588.179 25.0417 587.739 26.9596 586.858 28.6889C585.978 30.3867 584.657 31.7387 582.897 32.7448C581.167 33.751 579.061 34.254 576.577 34.254ZM577.473 32.0374C578.573 32.0374 579.407 31.5815 579.973 30.6697C580.664 29.5064 581.01 27.3055 581.01 24.067C581.01 21.4574 580.633 19.3351 579.878 17.7002C579.124 16.0338 578.133 15.2006 576.907 15.2006C576.09 15.2006 575.414 15.4678 574.879 16.0023C574.345 16.5368 573.967 17.3857 573.747 18.5491C573.559 19.681 573.464 21.2059 573.464 23.1238C573.464 24.633 573.637 26.0793 573.983 27.4627C574.329 28.8147 574.8 29.9151 575.398 30.764C576.027 31.6129 576.718 32.0374 577.473 32.0374ZM600.075 34.5842C599.855 34.5842 599.666 34.4427 599.509 34.1597C599.352 33.8767 599.084 33.3108 598.707 32.4619L597.717 30.1981L597.009 28.5003C595.343 24.9159 594.368 22.8408 594.085 22.2749L591.963 17.8416C591.586 16.9927 591.224 16.3482 590.878 15.908C590.532 15.4678 590.092 15.1534 589.558 14.9648C589.243 14.839 589.023 14.7132 588.897 14.5875C588.772 14.4303 588.709 14.2102 588.709 13.9272C588.709 13.5499 589.102 13.3612 589.888 13.3612C590.454 13.3612 590.972 13.3927 591.444 13.4556C591.947 13.487 592.293 13.5027 592.482 13.5027C593.142 13.5971 593.912 13.6442 594.793 13.6442C595.704 13.6442 596.585 13.5971 597.434 13.5027C597.717 13.5027 598.157 13.487 598.754 13.4556C599.383 13.3927 599.965 13.3612 600.499 13.3612C600.782 13.3612 601.034 13.4241 601.254 13.5499C601.505 13.6442 601.631 13.8014 601.631 14.0215C601.631 14.2416 601.568 14.3988 601.442 14.4931C601.317 14.5875 601.159 14.6818 600.971 14.7761C600.814 14.839 600.688 14.8862 600.593 14.9176C599.839 15.232 599.462 15.908 599.462 16.9456V17.4172C599.462 17.8888 599.524 18.2504 599.65 18.5019L602.669 25.812H602.81L605.451 18.7377C605.608 18.329 605.687 17.8574 605.687 17.3229C605.687 16.7569 605.545 16.2696 605.262 15.8608C605.011 15.4521 604.634 15.1534 604.131 14.9648C603.753 14.839 603.486 14.7289 603.329 14.6346C603.172 14.5089 603.093 14.3202 603.093 14.0687C603.093 13.8486 603.203 13.6914 603.423 13.5971C603.675 13.4713 603.942 13.4084 604.225 13.4084L607.432 13.5027C608.438 13.5027 609.554 13.4713 610.78 13.4084C611.566 13.4084 611.959 13.5971 611.959 13.9744C611.959 14.2573 611.897 14.4774 611.771 14.6346C611.645 14.7604 611.425 14.8862 611.111 15.0119C609.853 15.4521 608.941 16.4111 608.375 17.8888L604.697 27.2269C604.508 27.6356 604.021 28.6889 603.235 30.3867L602.857 31.2356C602.134 32.9335 601.631 34.0496 601.348 34.5842H600.075ZM620.992 34.254C619.325 34.254 617.8 33.7981 616.417 32.8863C615.065 31.9745 613.996 30.7326 613.21 29.1605C612.424 27.5885 612.031 25.8435 612.031 23.9255C612.031 21.9447 612.503 20.1211 613.446 18.4547C614.389 16.7884 615.662 15.4678 617.266 14.4931C618.901 13.5185 620.677 13.0311 622.595 13.0311C623.916 13.0311 625.126 13.3298 626.227 13.9272C627.359 14.5246 628.255 15.3263 628.915 16.3325C629.575 17.3386 629.905 18.4547 629.905 19.681C629.905 20.3098 629.78 20.7814 629.528 21.0958C629.308 21.3788 628.946 21.5203 628.443 21.5203H619.105C618.665 21.5203 618.335 21.646 618.115 21.8976C617.926 22.1491 617.832 22.5736 617.832 23.1709C617.832 24.9002 618.382 26.3465 619.483 27.5099C620.583 28.6732 621.998 29.2548 623.727 29.2548C624.576 29.2548 625.378 29.0976 626.132 28.7832C626.887 28.4374 627.704 27.95 628.585 27.3212C628.868 27.1011 629.088 26.9911 629.245 26.9911C629.591 26.9911 629.764 27.1954 629.764 27.6042C629.764 27.8871 629.67 28.3116 629.481 28.8775C629.009 30.2924 628.003 31.5501 626.463 32.6505C624.953 33.7195 623.13 34.254 620.992 34.254ZM621.605 19.4451C622.359 19.4451 622.91 19.4294 623.256 19.398C623.633 19.3665 623.963 19.3037 624.246 19.2093C624.372 19.1779 624.482 19.0207 624.576 18.7377C624.702 18.4547 624.765 18.1403 624.765 17.7945C624.765 16.977 624.497 16.3167 623.963 15.8137C623.46 15.2792 622.8 15.0119 621.982 15.0119C621.039 15.0119 620.19 15.4049 619.435 16.191C618.681 16.977 618.335 17.8259 618.398 18.7377C618.398 18.9578 618.461 19.1307 618.586 19.2565C618.712 19.3823 618.885 19.4451 619.105 19.4451H621.605ZM632.87 33.7352C632.618 33.7352 632.398 33.6724 632.209 33.5466C632.021 33.3894 631.926 33.2165 631.926 33.0278C631.926 32.5876 632.288 32.2575 633.011 32.0374C633.703 31.8173 634.159 31.5972 634.379 31.3771C634.63 31.1256 634.756 30.7483 634.756 30.2452V19.2565C634.756 18.5962 634.662 18.0932 634.473 17.7473C634.316 17.37 633.986 17.1028 633.483 16.9456C633.263 16.8827 633.09 16.7884 632.964 16.6626C632.87 16.5368 632.822 16.3325 632.822 16.0495C632.822 15.5779 633.027 15.2949 633.435 15.2006C634.567 14.949 635.762 14.6189 637.02 14.2102C638.277 13.8014 639.346 13.3927 640.227 12.984C640.824 12.6381 641.217 12.4652 641.406 12.4652C641.72 12.4652 641.877 12.6538 641.877 13.0311L641.83 14.446L641.736 16.8041C641.736 17.1185 641.799 17.2757 641.925 17.2757C642.774 16.1124 643.733 15.1062 644.802 14.2573C645.871 13.4084 646.955 12.984 648.056 12.984C650.162 12.984 651.216 13.77 651.216 15.3421C651.216 16.1595 650.901 17.0242 650.272 17.936C649.643 18.8163 648.983 19.2565 648.292 19.2565C648.009 19.2565 647.694 19.1936 647.348 19.0679C647.002 18.9106 646.657 18.7377 646.311 18.5491C645.43 18.1089 644.833 17.8888 644.519 17.8888C643.607 17.8888 642.884 18.2347 642.349 18.9264C641.846 19.5866 641.595 20.7657 641.595 22.4635V29.7265C641.595 30.3867 641.767 30.8741 642.113 31.1885C642.491 31.5029 643.135 31.8016 644.047 32.0846C644.739 32.2732 645.085 32.5876 645.085 33.0278C645.085 33.2165 645.006 33.3894 644.849 33.5466C644.723 33.6724 644.55 33.7352 644.33 33.7352C643.292 33.7352 642.223 33.6881 641.123 33.5938C639.739 33.5309 638.796 33.4994 638.293 33.4994C637.79 33.4994 636.941 33.5309 635.746 33.5938C634.803 33.6881 633.844 33.7352 632.87 33.7352ZM673.559 34.254C671.39 34.254 669.755 33.7352 668.654 32.6977C667.585 31.6287 667.051 30.1038 667.051 28.123V17.2757C667.051 16.9927 666.941 16.7884 666.72 16.6626C666.5 16.5368 666.123 16.4582 665.589 16.4268H664.881C664.693 16.4268 664.504 16.2381 664.315 15.8608C664.158 15.4835 664.079 15.122 664.079 14.7761C664.079 14.556 664.174 14.4145 664.362 14.3517C666.029 13.8171 668.513 12.135 671.814 9.30531C671.877 9.27387 671.987 9.19527 672.144 9.0695C672.333 8.9123 672.49 8.80225 672.616 8.73937C672.773 8.67649 672.93 8.64505 673.087 8.64505C673.402 8.64505 673.606 8.72365 673.7 8.88086C673.826 9.00662 673.873 9.27387 673.842 9.68261L673.512 12.6067C673.417 13.2984 673.811 13.6442 674.691 13.6442H680.35C680.413 13.6442 680.492 13.7543 680.586 13.9744C680.68 14.1944 680.728 14.3831 680.728 14.5403C680.728 15.0434 680.665 15.515 680.539 15.9552C680.413 16.3639 680.272 16.5683 680.114 16.5683H675.776C675.115 16.5683 674.628 16.6626 674.314 16.8512C674.031 17.0399 673.889 17.3386 673.889 17.7473V26.5666C673.889 28.0129 674.156 29.0976 674.691 29.8208C675.225 30.5439 675.964 30.9055 676.907 30.9055C677.536 30.9055 678.039 30.8584 678.417 30.764C678.794 30.6697 679.108 30.5597 679.36 30.4339C679.643 30.3081 679.847 30.2138 679.973 30.1509C680.099 30.088 680.209 30.0566 680.303 30.0566C680.46 30.0566 680.586 30.1666 680.68 30.3867C680.775 30.5754 680.822 30.8112 680.822 31.0942C680.822 31.3143 680.445 31.6915 679.69 32.2261C678.967 32.7291 678.039 33.185 676.907 33.5938C675.807 34.0339 674.691 34.254 673.559 34.254ZM682.883 33.7352C682.568 33.7352 682.332 33.6724 682.175 33.5466C682.018 33.4208 681.939 33.2479 681.939 33.0278C681.939 32.6191 682.301 32.2889 683.024 32.0374C683.118 32.006 683.339 31.9274 683.684 31.8016C684.062 31.6758 684.329 31.5029 684.486 31.2828C684.675 31.0313 684.769 30.6854 684.769 30.2452V7.84329C684.769 6.86861 684.643 6.0983 684.392 5.53235C684.172 4.96641 683.7 4.60484 682.977 4.44763C682.631 4.38475 682.458 4.13322 682.458 3.69304C682.458 3.2843 682.615 3.04849 682.93 2.98561C684.25 2.73408 686.483 2.02665 689.627 0.863317L690.617 0.48602C690.9 0.391696 691.12 0.344533 691.278 0.344533C691.623 0.344533 691.796 0.548902 691.796 0.95764L691.702 2.04237L691.56 3.50439V15.0119C691.56 15.7351 691.639 16.1595 691.796 16.2853C692.96 15.2792 694.029 14.4931 695.003 13.9272C696.009 13.3298 697.22 13.0311 698.635 13.0311C700.396 13.0311 701.842 13.6442 702.974 14.8704C704.106 16.0652 704.672 17.7002 704.672 19.7753V30.1509C704.672 30.7483 704.797 31.157 705.049 31.3771C705.3 31.5972 705.725 31.8173 706.322 32.0374C706.668 32.1632 706.92 32.3047 707.077 32.4619C707.234 32.5876 707.313 32.7763 707.313 33.0278C707.313 33.2165 707.218 33.3894 707.03 33.5466C706.872 33.6724 706.621 33.7352 706.275 33.7352C705.206 33.7352 704.294 33.6881 703.54 33.5938C702.596 33.5309 701.81 33.4994 701.182 33.4994C700.49 33.4994 699.735 33.5309 698.918 33.5938C698.32 33.6881 697.503 33.7352 696.465 33.7352C695.679 33.7352 695.286 33.4837 695.286 32.9806C695.286 32.5405 695.601 32.2261 696.23 32.0374C696.733 31.8802 697.126 31.6758 697.409 31.4243C697.692 31.1413 697.833 30.6854 697.833 30.0566V20.8128C697.833 19.8382 697.566 19.005 697.031 18.3133C696.497 17.6215 695.852 17.2757 695.098 17.2757C694.029 17.2757 693.023 17.6215 692.079 18.3133C691.891 18.439 691.765 18.5962 691.702 18.7849C691.639 18.9735 691.608 19.2565 691.608 19.6338V30.1509C691.608 30.7169 691.733 31.1256 691.985 31.3771C692.236 31.5972 692.614 31.8016 693.117 31.9902C693.746 32.2418 694.06 32.5719 694.06 32.9806C694.06 33.2007 693.981 33.3894 693.824 33.5466C693.698 33.6724 693.51 33.7352 693.258 33.7352C692.315 33.7352 691.388 33.6881 690.476 33.5938C689.344 33.5309 688.526 33.4994 688.023 33.4994C687.489 33.4994 686.687 33.5309 685.618 33.5938C684.769 33.6881 683.857 33.7352 682.883 33.7352ZM717.987 34.254C716.321 34.254 714.796 33.7981 713.412 32.8863C712.06 31.9745 710.991 30.7326 710.205 29.1605C709.419 27.5885 709.026 25.8435 709.026 23.9255C709.026 21.9447 709.498 20.1211 710.441 18.4547C711.384 16.7884 712.658 15.4678 714.261 14.4931C715.896 13.5185 717.673 13.0311 719.591 13.0311C720.911 13.0311 722.122 13.3298 723.222 13.9272C724.354 14.5246 725.25 15.3263 725.91 16.3325C726.571 17.3386 726.901 18.4547 726.901 19.681C726.901 20.3098 726.775 20.7814 726.523 21.0958C726.303 21.3788 725.942 21.5203 725.439 21.5203H716.101C715.66 21.5203 715.33 21.646 715.11 21.8976C714.922 22.1491 714.827 22.5736 714.827 23.1709C714.827 24.9002 715.377 26.3465 716.478 27.5099C717.578 28.6732 718.993 29.2548 720.722 29.2548C721.571 29.2548 722.373 29.0976 723.128 28.7832C723.882 28.4374 724.7 27.95 725.58 27.3212C725.863 27.1011 726.083 26.9911 726.24 26.9911C726.586 26.9911 726.759 27.1954 726.759 27.6042C726.759 27.8871 726.665 28.3116 726.476 28.8775C726.005 30.2924 724.998 31.5501 723.458 32.6505C721.949 33.7195 720.125 34.254 717.987 34.254ZM718.6 19.4451C719.355 19.4451 719.905 19.4294 720.251 19.398C720.628 19.3665 720.958 19.3037 721.241 19.2093C721.367 19.1779 721.477 19.0207 721.571 18.7377C721.697 18.4547 721.76 18.1403 721.76 17.7945C721.76 16.977 721.493 16.3167 720.958 15.8137C720.455 15.2792 719.795 15.0119 718.977 15.0119C718.034 15.0119 717.185 15.4049 716.431 16.191C715.676 16.977 715.33 17.8259 715.393 18.7377C715.393 18.9578 715.456 19.1307 715.582 19.2565C715.708 19.3823 715.88 19.4451 716.101 19.4451H718.6ZM855.235 30.6697C855.393 30.6697 855.503 30.7011 855.566 30.764C855.628 30.8269 855.66 30.9684 855.66 31.1885C855.66 31.44 855.55 31.723 855.33 32.0374C855.141 32.3204 854.968 32.4619 854.811 32.4619C852.107 32.7763 849.607 33.3579 847.312 34.2069C846.935 34.3955 846.652 34.4898 846.463 34.4898C846.369 34.4898 846.228 34.3798 846.039 34.1597C845.85 33.9396 845.756 33.7667 845.756 33.6409C845.882 32.9492 845.976 32.1317 846.039 31.1885V30.9055C845.347 31.9431 844.435 32.7606 843.303 33.3579C842.172 33.9553 840.993 34.254 839.766 34.254C838.068 34.254 836.512 33.8296 835.097 32.9806C833.682 32.1003 832.566 30.9055 831.749 29.3963C830.963 27.8871 830.57 26.205 830.57 24.35C830.57 22.1805 831.057 20.2469 832.032 18.5491C833.006 16.8512 834.358 15.5307 836.088 14.5875C837.817 13.6442 839.798 13.1726 842.03 13.1726C842.942 13.1726 843.869 13.2984 844.813 13.5499L845.426 13.6914C845.552 13.6914 845.614 13.5185 845.614 13.1726V7.84329C845.614 6.71141 845.489 5.89393 845.237 5.39087C844.986 4.88781 844.53 4.57339 843.869 4.44763C843.492 4.3533 843.303 4.10177 843.303 3.69304C843.303 3.2843 843.476 3.04849 843.822 2.98561C844.954 2.76552 846.18 2.4511 847.501 2.04237C848.853 1.60219 849.969 1.19345 850.849 0.816153C851.541 0.50174 851.95 0.344533 852.076 0.344533C852.233 0.344533 852.359 0.407416 852.453 0.533182C852.579 0.627507 852.642 0.753272 852.642 0.910479C852.61 1.03624 852.563 1.36638 852.5 1.90088C852.469 2.40394 852.437 2.93845 852.406 3.50439L852.123 27.84C852.123 28.9404 852.201 29.7107 852.359 30.1509C852.516 30.5911 852.799 30.8112 853.207 30.8112L855.047 30.6697H855.235ZM852.642 0.95764V0.910479V0.95764ZM842.36 30.8584C842.832 30.8584 843.398 30.7483 844.058 30.5282C844.718 30.3081 845.237 30.0094 845.614 29.6321L845.567 18.7377C845.567 18.2975 845.363 17.8259 844.954 17.3229C844.545 16.7884 844.027 16.3482 843.398 16.0023C842.8 15.6565 842.25 15.4835 841.747 15.4835C840.615 15.4835 839.672 16.191 838.917 17.6058C838.194 19.0207 837.833 20.8286 837.833 23.0295C837.833 25.3247 838.257 27.2112 839.106 28.6889C839.955 30.1352 841.04 30.8584 842.36 30.8584ZM866.457 34.254C864.571 34.254 862.842 33.8296 861.27 32.9806C859.698 32.1317 858.456 30.9527 857.544 29.4435C856.663 27.9029 856.223 26.1893 856.223 24.3028C856.223 22.2591 856.726 20.3727 857.732 18.6434C858.739 16.9141 860.091 15.5464 861.788 14.5403C863.518 13.5027 865.42 12.984 867.495 12.984C869.413 12.984 871.174 13.4399 872.777 14.3517C874.412 15.2634 875.701 16.4897 876.644 18.0303C877.588 19.5395 878.059 21.1744 878.059 22.9351C878.059 25.0417 877.619 26.9596 876.739 28.6889C875.858 30.3867 874.538 31.7387 872.777 32.7448C871.048 33.751 868.941 34.254 866.457 34.254ZM867.354 32.0374C868.454 32.0374 869.287 31.5815 869.853 30.6697C870.545 29.5064 870.891 27.3055 870.891 24.067C870.891 21.4574 870.513 19.3351 869.759 17.7002C869.004 16.0338 868.014 15.2006 866.788 15.2006C865.97 15.2006 865.294 15.4678 864.76 16.0023C864.225 16.5368 863.848 17.3857 863.628 18.5491C863.439 19.681 863.345 21.2059 863.345 23.1238C863.345 24.633 863.518 26.0793 863.864 27.4627C864.209 28.8147 864.681 29.9151 865.278 30.764C865.907 31.6129 866.599 32.0374 867.354 32.0374ZM902.767 14.0687C903.018 14.0687 903.207 14.1787 903.333 14.3988C903.49 14.5875 903.568 14.8547 903.568 15.2006C903.568 15.4521 903.506 15.7665 903.38 16.1438C903.254 16.5211 903.097 16.8355 902.908 17.087C902.719 17.3071 902.515 17.4172 902.295 17.4172H901.022C900.204 17.4172 899.638 17.5429 899.324 17.7945C899.292 17.8259 899.245 17.8574 899.182 17.8888C899.119 17.9202 899.088 18.1246 899.088 18.5019C899.088 18.8478 899.088 19.3508 899.088 20.0111C899.088 21.646 898.648 23.1709 897.767 24.5858C896.919 25.9692 895.755 27.0854 894.277 27.9343C892.8 28.7518 891.212 29.1605 889.514 29.1605C888.477 29.1605 887.376 28.9562 886.213 28.5474C885.71 28.9562 885.458 29.3177 885.458 29.6321C885.458 30.1038 885.914 30.4496 886.826 30.6697C887.769 30.8898 889.593 31.1099 892.297 31.33C895.818 31.6129 898.349 32.1474 899.89 32.9335C901.462 33.6881 902.248 34.8042 902.248 36.282C902.248 38.0113 901.603 39.7248 900.314 41.4226C899.057 43.1205 897.422 44.5039 895.409 45.5729C893.429 46.6733 891.432 47.2236 889.42 47.2236C886.276 47.2236 883.823 46.7519 882.063 45.8087C880.302 44.8655 879.421 43.5607 879.421 41.8943C879.421 40.8567 879.531 40.0549 879.752 39.489C880.003 38.9545 880.538 38.3886 881.355 37.7912L883.902 35.9047C881.764 34.8986 880.695 33.4208 880.695 31.4715C880.695 30.7798 881.135 30.1509 882.015 29.585C883.084 28.8933 883.918 28.2487 884.515 27.6513C883.32 26.9282 882.361 26.0164 881.638 24.9159C880.946 23.7841 880.601 22.5421 880.601 21.1901C880.601 19.6181 881.056 18.2189 881.968 16.9927C882.88 15.7351 884.09 14.7604 885.6 14.0687C887.109 13.3455 888.712 12.984 890.41 12.984C890.945 12.984 891.526 13.0311 892.155 13.1254C892.784 13.2198 893.413 13.3298 894.042 13.4556L896.305 13.88C897.626 14.1001 898.915 14.2102 900.173 14.2102C900.613 14.2102 901.147 14.1787 901.776 14.1158L902.767 14.0687ZM890.08 26.9911C891.023 26.9911 891.762 26.4566 892.297 25.3876C892.863 24.2871 893.146 22.8094 893.146 20.9543C893.146 19.1622 892.847 17.7316 892.25 16.6626C891.684 15.5936 890.913 15.0591 889.939 15.0591C889.058 15.0591 888.319 15.5936 887.722 16.6626C887.125 17.7316 886.826 19.0836 886.826 20.7185C886.826 22.5107 887.14 24.0041 887.769 25.1989C888.398 26.3937 889.168 26.9911 890.08 26.9911ZM895.928 39.7248C895.928 39.2532 895.755 38.8759 895.409 38.5929C895.095 38.31 894.513 38.0741 893.664 37.8855C892.847 37.6968 891.621 37.5082 889.986 37.3195C888.539 37.1623 887.345 36.958 886.401 36.7064C884.704 37.744 883.855 38.9388 883.855 40.2908C883.855 41.5799 884.389 42.6331 885.458 43.4506C886.527 44.2995 887.895 44.724 889.561 44.724C891.794 44.724 893.334 44.2995 894.183 43.4506C894.718 42.9161 895.142 42.3187 895.457 41.6585C895.771 40.9982 895.928 40.3536 895.928 39.7248ZM909.118 35.1973C908.018 35.1973 907.059 34.7885 906.241 33.971C905.455 33.185 905.062 32.2418 905.062 31.1413C905.062 29.978 905.455 28.9876 906.241 28.1701C907.059 27.3526 908.018 26.9439 909.118 26.9439C910.313 26.9439 911.303 27.3526 912.089 28.1701C912.907 28.9562 913.315 29.9466 913.315 31.1413C913.315 32.2418 912.907 33.185 912.089 33.971C911.272 34.7885 910.281 35.1973 909.118 35.1973Z" fill="white"/>
<path d="M741.189 33.7352C740.875 33.7352 740.639 33.6724 740.482 33.5466C740.325 33.4208 740.246 33.2479 740.246 33.0278C740.246 32.6191 740.608 32.2889 741.331 32.0374C741.425 32.006 741.645 31.9274 741.991 31.8016C742.368 31.6758 742.636 31.5029 742.793 31.2828C742.981 31.0313 743.076 30.6854 743.076 30.2452V7.84329C743.076 6.86861 742.95 6.0983 742.698 5.53235C742.478 4.96641 742.007 4.60484 741.284 4.44763C740.938 4.38475 740.765 4.13322 740.765 3.69304C740.765 3.2843 740.922 3.04849 741.236 2.98561C742.431 2.76552 743.815 2.3725 745.387 1.80656C746.99 1.20917 747.886 0.879037 748.075 0.816153L748.971 0.48602C749.254 0.391696 749.474 0.344533 749.631 0.344533C749.977 0.344533 750.15 0.548902 750.15 0.95764L750.056 2.04237L749.914 3.50439V30.1509C749.914 30.6854 750.024 31.0627 750.244 31.2828C750.464 31.5029 750.732 31.6601 751.046 31.7544C751.361 31.8488 751.565 31.9116 751.659 31.9431C752.382 32.1946 752.744 32.5247 752.744 32.9335C752.744 33.1536 752.665 33.3265 752.508 33.4523C752.351 33.578 752.115 33.6409 751.801 33.6409C751.109 33.6409 750.134 33.6095 748.877 33.5466L746.33 33.4994C745.795 33.4994 744.994 33.5309 743.925 33.5938C743.076 33.6881 742.164 33.7352 741.189 33.7352ZM759.673 34.254C758.29 34.254 757.111 33.8296 756.136 32.9806C755.193 32.1003 754.721 31.047 754.721 29.8208C754.721 28.7518 755.051 27.84 755.711 27.0854C756.403 26.3308 757.456 25.6391 758.871 25.0103L762.927 23.2181C763.556 22.9351 763.949 22.6836 764.106 22.4635C764.264 22.2434 764.342 21.819 764.342 21.1901L764.389 18.5962C764.452 16.7098 763.823 15.7665 762.503 15.7665C762.126 15.7665 761.733 15.8608 761.324 16.0495C760.915 16.2067 760.616 16.3953 760.428 16.6154C760.27 16.8041 760.192 17.1028 760.192 17.5115C760.192 17.7316 760.208 17.9831 760.239 18.2661C760.27 18.5176 760.286 18.7534 760.286 18.9735C760.286 19.2879 759.736 19.6967 758.636 20.1997C757.535 20.6714 756.608 20.9072 755.853 20.9072C755.601 20.9072 755.381 20.8128 755.193 20.6242C755.036 20.4041 754.957 20.1369 754.957 19.8224C754.957 19.3194 755.13 18.832 755.476 18.3604C755.822 17.8888 756.403 17.3229 757.221 16.6626C758.478 15.6565 759.893 14.8075 761.465 14.1158C763.069 13.3927 764.405 13.0311 765.474 13.0311C767.266 13.0311 768.681 13.6128 769.719 14.7761C770.788 15.908 771.306 17.4329 771.275 19.3508L771.039 28.5003C771.008 29.2234 771.118 29.8522 771.369 30.3867C771.652 30.8898 771.998 31.1413 772.407 31.1413C772.973 31.1413 773.476 30.937 773.916 30.5282C774.01 30.4339 774.105 30.3867 774.199 30.3867C774.356 30.3867 774.482 30.4496 774.576 30.5754C774.702 30.6697 774.765 30.7955 774.765 30.9527C774.765 31.33 774.451 31.833 773.822 32.4619C772.627 33.6566 771.259 34.254 769.719 34.254C768.744 34.254 767.895 34.0339 767.172 33.5938C766.449 33.1536 765.773 32.4619 765.144 31.5186H765.05C764.012 32.5247 763.084 33.2322 762.267 33.6409C761.45 34.0496 760.585 34.254 759.673 34.254ZM762.597 30.9998C763.1 30.9998 763.509 30.7955 763.823 30.3867C764.012 30.1352 764.106 29.7736 764.106 29.302L764.248 25.6705C764.248 25.2304 764.091 25.0103 763.776 25.0103C763.65 25.0103 763.493 25.0574 763.305 25.1518C762.424 25.6234 761.811 26.0793 761.465 26.5194C761.151 26.9596 760.994 27.6828 760.994 28.6889C760.994 29.5064 761.151 30.1038 761.465 30.4811C761.78 30.8269 762.157 30.9998 762.597 30.9998ZM775.743 33.8296C775.586 33.8296 775.35 33.6724 775.035 33.3579C774.721 33.0121 774.564 32.6977 774.564 32.4147C774.564 32.1946 774.69 31.8802 774.941 31.4715C775.224 31.0627 775.507 30.654 775.79 30.2452C775.916 30.0566 776.041 29.8837 776.167 29.7265C776.293 29.5378 776.419 29.3492 776.545 29.1605L778.714 25.7649C780.538 22.8723 782.44 19.8067 784.421 16.5683C784.483 16.4425 784.515 16.3482 784.515 16.2853C784.515 16.0966 784.311 16.0023 783.902 16.0023H781.78C781.308 16.0023 780.915 16.0652 780.6 16.191C780.286 16.3167 779.972 16.5368 779.657 16.8512C779.374 17.1342 778.557 18.2504 777.205 20.1997L776.45 21.2845C776.293 21.4417 776.104 21.5203 775.884 21.5203C775.633 21.5203 775.397 21.4574 775.177 21.3316C774.957 21.1744 774.862 21.0015 774.894 20.8128C774.925 20.6871 775.13 19.8224 775.507 18.2189C775.916 16.6154 776.12 15.232 776.12 14.0687C776.12 13.7228 776.23 13.4241 776.45 13.1726C776.702 12.9211 776.969 12.7953 777.252 12.7953C777.566 12.7953 777.881 12.9525 778.195 13.2669C778.447 13.487 779.217 13.5971 780.506 13.5971L782.487 13.5499C786.417 13.5499 789.813 13.487 792.674 13.3612C792.957 13.3612 793.208 13.5499 793.429 13.9272C793.649 14.273 793.759 14.6189 793.759 14.9648C793.759 15.122 793.712 15.2792 793.617 15.4364C793.083 16.0652 792.407 16.9456 791.589 18.0774L784.043 30.3867C783.949 30.5125 783.902 30.6383 783.902 30.764C783.902 30.9841 784.185 31.0942 784.751 31.0942H787.156C787.659 31.0942 788.099 31.0156 788.477 30.8584C788.854 30.7011 789.231 30.4182 789.608 30.0094C790.017 29.5693 790.363 29.1134 790.646 28.6417C790.96 28.1387 791.243 27.6671 791.495 27.2269C791.746 26.7553 791.951 26.378 792.108 26.095C792.297 25.7491 792.58 25.5762 792.957 25.5762C793.208 25.5762 793.429 25.6548 793.617 25.812C793.806 25.9378 793.9 26.1107 793.9 26.3308C793.9 26.8024 793.727 27.7299 793.381 29.1134C793.067 30.4968 792.721 31.8173 792.344 33.075C792.281 33.2951 792.155 33.468 791.967 33.5938C791.809 33.751 791.621 33.8296 791.401 33.8296L788.948 33.7352C788.319 33.7352 787.109 33.7038 785.317 33.6409C783.556 33.578 781.78 33.5466 779.987 33.5466C779.359 33.5466 778.478 33.6095 777.346 33.7352L775.743 33.8296ZM799.097 46.9406C798.185 46.9406 797.336 46.6105 796.55 45.9502C795.764 45.3214 795.371 44.5825 795.371 43.7336C795.371 43.0104 795.529 42.3659 795.843 41.7999C796.189 41.234 796.692 40.951 797.352 40.951C797.698 40.951 798.217 41.0453 798.909 41.234C799.066 41.2654 799.286 41.3126 799.569 41.3755C799.883 41.4384 800.15 41.4698 800.371 41.4698C800.968 41.4698 801.377 41.3755 801.597 41.1868C801.848 40.9982 802.131 40.5894 802.446 39.9606C802.54 39.772 802.744 39.4261 803.059 38.9231C803.373 38.42 803.829 37.5082 804.427 36.1877C804.867 35.213 805.087 34.3641 805.087 33.6409C805.087 33.2007 805.024 32.8077 804.898 32.4619C804.772 32.0846 804.584 31.5972 804.332 30.9998L798.484 17.936C798.107 17.087 797.745 16.4425 797.399 16.0023C797.054 15.5621 796.613 15.2477 796.079 15.0591C795.764 14.9333 795.544 14.8075 795.419 14.6818C795.293 14.5246 795.23 14.3045 795.23 14.0215C795.23 13.6442 795.623 13.4556 796.409 13.4556C797.384 13.4556 798.437 13.487 799.569 13.5499C800.386 13.6128 800.937 13.6442 801.22 13.6442C801.848 13.6442 802.697 13.6128 803.766 13.5499C804.898 13.487 805.873 13.4556 806.69 13.4556C806.973 13.4556 807.225 13.5185 807.445 13.6442C807.696 13.7385 807.822 13.8958 807.822 14.1158C807.822 14.3359 807.759 14.4931 807.634 14.5875C807.508 14.6818 807.351 14.7761 807.162 14.8704C807.005 14.9333 806.879 14.9805 806.785 15.0119C806.407 15.1691 806.124 15.3892 805.936 15.6722C805.747 15.9237 805.653 16.3167 805.653 16.8512C805.653 17.5115 805.841 18.2975 806.219 19.2093L808.954 25.8592C808.986 25.9221 809.017 25.9535 809.048 25.9535C809.08 25.9535 809.111 25.9221 809.143 25.8592L811.406 18.9264C811.627 18.329 811.737 17.7002 811.737 17.0399C811.737 16.5368 811.579 16.1124 811.265 15.7665C810.951 15.3892 810.589 15.1377 810.18 15.0119C809.803 14.8862 809.536 14.7761 809.379 14.6818C809.221 14.556 809.143 14.3674 809.143 14.1158C809.143 13.8958 809.253 13.7385 809.473 13.6442C809.724 13.5185 809.992 13.4556 810.275 13.4556L812.586 13.5971L813.717 13.6442C813.875 13.6442 814.362 13.6128 815.179 13.5499L817.066 13.4556C817.852 13.4556 818.245 13.6442 818.245 14.0215C818.245 14.3045 818.182 14.5246 818.056 14.6818C817.931 14.8075 817.71 14.9333 817.396 15.0591C816.201 15.4993 815.29 16.4582 814.661 17.936L807.492 35.1973C807.178 35.9833 806.313 38.027 804.898 41.3283L803.766 43.9694C803.358 44.9441 802.744 45.6829 801.927 46.186C801.109 46.6891 800.166 46.9406 799.097 46.9406Z" fill="#9CF159"/>
</svg>
