<svg width="770" height="49" viewBox="0 0 770 49" fill="none" xmlns="http://www.w3.org/2000/svg">
<path d="M1.93281 34.6372C1.17822 34.6372 0.800927 34.4642 0.800927 34.1184C0.800927 33.9297 0.926692 33.7883 1.17822 33.6939C1.4612 33.5682 1.91709 33.4581 2.54592 33.3638C3.74069 33.1437 4.71537 32.735 5.46997 32.1376C6.22456 31.5402 6.75906 30.6913 7.07347 29.5908L12.8272 9.4055C13.2045 7.99064 13.3932 7.00024 13.3932 6.43429C13.3932 5.77403 13.1574 5.44389 12.6858 5.44389H8.77131C7.38789 5.44389 6.27172 5.71115 5.4228 6.24565C4.60533 6.74871 3.83502 7.44042 3.11187 8.32078C2.79745 8.66663 2.5302 9.02821 2.31011 9.4055C1.71273 10.223 1.30399 10.6317 1.0839 10.6317C0.895251 10.6317 0.753765 10.6003 0.659441 10.5374C0.596558 10.4431 0.565117 10.2701 0.565117 10.0186C0.565117 9.7042 0.722324 9.21685 1.03674 8.55659C1.13106 8.3365 1.41403 7.75483 1.88565 6.81159C2.38871 5.83691 2.76601 4.87795 3.01754 3.93471C3.08042 3.71462 3.19047 3.51025 3.34768 3.3216C3.53632 3.10151 3.69353 2.99147 3.8193 2.99147C4.00794 2.99147 4.29092 3.18012 4.66821 3.55741C4.85686 3.74606 5.17127 3.88755 5.61145 3.98187C6.05163 4.0762 6.93199 4.12336 8.25252 4.12336H25.0894C26.3785 4.12336 27.2588 4.0762 27.7304 3.98187C28.2335 3.85611 28.5951 3.6989 28.8152 3.51025C28.8466 3.47881 28.9566 3.38449 29.1453 3.22728C29.3339 3.07007 29.4911 2.99147 29.6169 2.99147C29.9313 2.99147 30.0885 3.1644 30.0885 3.51025C30.0885 3.82466 29.9313 4.26484 29.6169 4.83079C29.3968 5.20808 29.1139 5.93124 28.768 7.00024C28.4536 8.06924 28.1863 9.16969 27.9662 10.3016C27.8719 10.7418 27.699 10.9618 27.4475 10.9618C27.2274 10.9618 27.0544 10.8675 26.9287 10.6789C26.8344 10.4902 26.7872 10.223 26.7872 9.87712C26.7872 8.36794 26.5357 7.25177 26.0326 6.52862C25.561 5.80547 24.7592 5.44389 23.6273 5.44389H18.9111C18.471 5.44389 18.1251 5.53822 17.8736 5.72687C17.622 5.91551 17.3705 6.29281 17.119 6.85875C16.8989 7.4247 16.6159 8.32078 16.2701 9.54699L10.5635 29.5908C10.4377 29.9996 10.3748 30.424 10.3748 30.8642C10.3748 32.1848 11.2237 33.0179 12.9216 33.3638C13.3932 33.4581 13.7076 33.5525 13.8648 33.6468C14.022 33.7411 14.1006 33.8983 14.1006 34.1184C14.1006 34.4642 13.629 34.6372 12.6858 34.6372C11.5853 34.6372 10.6735 34.59 9.95036 34.4957C9.00712 34.4328 8.2368 34.4014 7.63942 34.4014C6.91627 34.4014 5.98875 34.4328 4.85686 34.4957C4.00794 34.59 3.03326 34.6372 1.93281 34.6372ZM26.9792 35.2503C26.7591 35.2503 26.5704 35.1245 26.4132 34.873C26.256 34.6215 26.1774 34.3385 26.1774 34.0241C26.1774 33.6153 26.2246 33.1437 26.3189 32.6092C26.4447 32.0747 26.6019 31.493 26.7905 30.8642L33.4404 8.08497C33.912 6.54434 34.1478 5.47533 34.1478 4.87795C34.1478 4.59498 33.9906 4.39061 33.6762 4.26484C33.3932 4.10764 32.9687 3.93471 32.4028 3.74606C31.8368 3.58885 31.5539 3.41593 31.5539 3.22728C31.5539 3.10151 31.601 2.99147 31.6954 2.89714C31.8211 2.77138 32.0412 2.64561 32.3556 2.51985C33.0473 2.23688 33.9434 1.92246 35.0439 1.57661C36.1757 1.23075 36.8832 1.05783 37.1661 1.05783C37.7007 1.05783 37.9679 1.21503 37.9679 1.52945C37.9679 1.90674 37.8893 2.3312 37.7321 2.80282L31.3181 24.969C31.2552 25.1891 31.2552 25.3148 31.3181 25.3463C31.4124 25.3463 31.5067 25.2677 31.601 25.1105C33.6762 22.0292 35.8142 19.4982 38.0151 17.5174C40.2474 15.5366 42.071 14.5462 43.4859 14.5462C44.492 14.5462 45.278 14.892 45.844 15.5837C46.4099 16.244 46.6929 17.0457 46.6929 17.989C46.6929 20.3471 46.0798 22.8938 44.8536 25.6292C43.6273 28.3646 42.1653 30.6284 40.4675 32.4206C39.9959 32.9236 39.2098 33.4896 38.1094 34.1184C37.0404 34.7472 36.1129 35.0616 35.3268 35.0616C34.981 35.0616 34.588 34.8573 34.1478 34.4485C33.7076 34.0398 33.4875 33.6625 33.4875 33.3166C33.4875 33.0651 33.6133 32.7821 33.8648 32.4677C34.1478 32.1219 34.4308 31.9489 34.7137 31.9489C35.1225 31.9489 35.5469 32.1376 35.9871 32.5149C36.2386 32.735 36.443 32.8922 36.6002 32.9865C36.7889 33.0808 36.9932 33.128 37.2133 33.128C38.0937 33.128 39.0212 32.342 39.9959 30.7699C41.002 29.1664 41.8509 27.2485 42.5426 25.0161C43.2343 22.7524 43.5802 20.7558 43.5802 19.0266C43.5802 17.5174 42.9828 16.7628 41.788 16.7628C40.7505 16.7628 39.4614 17.5803 37.9207 19.2152C36.3801 20.8187 34.8709 22.7209 33.3932 24.9218C31.9469 27.0913 30.7836 29.0249 29.9032 30.7227C29.746 31.0686 29.5102 31.5245 29.1958 32.0904C28.6298 33.2538 28.1896 34.0712 27.8752 34.5429C27.5608 35.0145 27.2621 35.2503 26.9792 35.2503ZM52.3656 35.1088C51.7053 35.1088 51.0293 34.8573 50.3376 34.3542C49.6773 33.8511 49.1271 33.2223 48.6869 32.4677C48.2468 31.6817 48.0267 30.9271 48.0267 30.2039C48.0267 28.0659 48.5926 25.8022 49.7245 23.4126C50.8878 20.9916 52.4127 18.9637 54.2992 17.3287C56.2171 15.6938 58.2294 14.8763 60.336 14.8763C61.4364 14.8763 62.2853 15.1121 62.8827 15.5837C63.5115 16.0239 63.8259 16.6527 63.8259 17.4702C63.8259 19.2624 62.8355 20.6615 60.8547 21.6676C58.8739 22.6737 56.28 23.4755 53.073 24.0729C53.0416 24.0729 52.963 24.0886 52.8372 24.12C52.7114 24.1515 52.6014 24.1987 52.5071 24.2615C52.4442 24.3244 52.397 24.4187 52.3656 24.5445C51.7053 26.4624 51.3752 27.9873 51.3752 29.1192C51.3752 30.2197 51.5795 31.0686 51.9883 31.666C52.4285 32.2634 53.0573 32.562 53.8748 32.562C54.8809 32.562 55.7612 32.3262 56.5158 31.8546C57.2704 31.383 57.9936 30.7699 58.6853 30.0153C58.9997 29.6694 59.2827 29.4965 59.5342 29.4965C59.8486 29.4965 60.0058 29.6537 60.0058 29.9681C60.0058 30.1253 59.9744 30.2511 59.9115 30.3454C58.9683 31.8861 57.8521 33.0651 56.563 33.8826C55.2739 34.7001 53.8748 35.1088 52.3656 35.1088ZM53.4031 22.9882C54.032 22.9882 54.9752 22.7838 56.2329 22.3751C57.4905 21.9349 58.6067 21.306 59.5814 20.4886C60.5875 19.6711 61.0906 18.6964 61.0906 17.5645C61.0906 17.1558 60.9648 16.8099 60.7133 16.527C60.4932 16.2126 60.1945 16.0553 59.8172 16.0553C59.0311 16.0553 58.1036 16.4955 57.0346 17.3759C55.9971 18.2562 55.0695 19.2466 54.2521 20.3471C53.466 21.4475 53.073 22.2336 53.073 22.7052C53.073 22.831 53.1045 22.9096 53.1673 22.941C53.2302 22.9724 53.3088 22.9882 53.4031 22.9882ZM77.881 47.8897C77.3779 47.8897 77.1264 47.7482 77.1264 47.4652C77.1264 47.2452 77.2679 47.0408 77.5508 46.8521C77.8652 46.6949 78.1954 46.5849 78.5412 46.522C79.2329 46.4277 79.846 46.1761 80.3805 45.7674C80.9151 45.3901 81.2923 44.9185 81.5124 44.3526L87.219 29.2135C87.2819 29.0878 87.3134 28.9149 87.3134 28.6948C87.3134 28.4432 87.2348 28.3175 87.0776 28.3175C86.9518 28.3175 86.7474 28.459 86.4644 28.7419C84.6409 30.7856 82.8801 32.3577 81.1823 33.4581C79.5159 34.5271 77.8652 35.0616 76.2303 35.0616C75.2242 35.0616 74.4224 34.7944 73.825 34.2599C73.2276 33.7254 72.929 33.0337 72.929 32.1848C72.929 30.2668 73.5892 28.0817 74.9098 25.6292C76.2303 23.1768 77.881 20.8973 79.8618 18.7907C81.0565 17.5016 82.3928 16.4798 83.8705 15.7252C85.3797 14.9706 86.716 14.5933 87.8793 14.5933C89.0426 14.5933 89.9387 15.0021 90.5675 15.8195C90.7248 16.0082 90.882 16.2283 91.0392 16.4798C91.2278 16.7313 91.4007 16.8571 91.5579 16.8571C91.9038 16.8571 92.2025 16.6056 92.454 16.1025L92.8785 15.2064C93.1615 14.5462 93.5859 14.216 94.1519 14.216C94.4034 14.216 94.5292 14.4361 94.5292 14.8763C94.5292 15.2221 94.4505 15.5994 94.2933 16.0082L85.0967 43.7866C85.0024 44.1325 84.9553 44.4312 84.9553 44.6827C84.9553 45.4687 85.4112 45.9089 86.323 46.0032C86.7003 46.0347 87.0304 46.0975 87.3134 46.1919C87.5963 46.3176 87.7378 46.4906 87.7378 46.7107C87.7378 47.0565 87.2819 47.2294 86.3701 47.2294C84.9553 47.2294 83.4146 47.2923 81.7482 47.4181C80.1133 47.5753 78.8871 47.7325 78.0696 47.8897H77.881ZM77.4093 33.3638C78.1954 33.3638 79.1858 32.9551 80.3805 32.1376C81.6068 31.3201 82.8015 30.2983 83.9649 29.0721C85.1282 27.8458 86.04 26.6668 86.7003 25.5349C88.4295 22.548 89.2942 20.2056 89.2942 18.5078C89.2942 17.8475 89.137 17.2973 88.8225 16.8571C88.5081 16.3855 88.0522 16.1497 87.4549 16.1497C86.4802 16.1497 85.0653 17.0772 83.2103 18.9322C81.3867 20.7558 79.7674 22.8938 78.3526 25.3463C76.9377 27.7672 76.2303 29.8267 76.2303 31.5245C76.2303 32.1848 76.3089 32.6564 76.4661 32.9393C76.6548 33.2223 76.9692 33.3638 77.4093 33.3638ZM98.3331 35.0616C97.9872 35.0616 97.6256 34.9044 97.2483 34.59C96.9025 34.307 96.6352 33.9612 96.4466 33.5525C96.2579 33.1437 96.2108 32.8136 96.3051 32.562L101.257 20.6301C101.54 19.9069 101.682 19.4038 101.682 19.1209C101.682 18.8379 101.587 18.6964 101.399 18.6964C100.99 18.6964 99.858 19.5296 98.0029 21.196C97.9715 21.2274 97.8929 21.2432 97.7671 21.2432C97.5156 21.2432 97.3898 21.1803 97.3898 21.0545C97.3898 20.6143 97.5785 20.1427 97.9558 19.6397C98.6789 18.665 99.5121 17.8003 100.455 17.0457C101.43 16.2912 102.358 15.7095 103.238 15.3008C104.118 14.892 104.794 14.6876 105.266 14.6876C105.549 14.6876 105.832 14.8763 106.115 15.2536C106.398 15.5994 106.461 15.9296 106.303 16.244C105.329 18.2877 103.992 21.2432 102.295 25.1105L100.503 29.2607C100.157 30.0467 99.9837 30.6913 99.9837 31.1944C99.9837 31.6031 100.109 31.8075 100.361 31.8075C100.801 31.8075 101.509 31.3358 102.483 30.3926C103.489 29.4179 104.81 28.0188 106.445 26.1952C108.08 24.3716 109.699 22.3751 111.303 20.2056C112.906 18.0047 113.944 16.4798 114.415 15.6309C114.698 15.1278 115.091 14.8763 115.594 14.8763C115.877 14.8763 116.145 15.0807 116.396 15.4894C116.679 15.8981 116.758 16.2283 116.632 16.4798L110.595 30.3454C110.375 30.8799 110.265 31.3044 110.265 31.6188C110.265 31.9961 110.422 32.1848 110.737 32.1848C111.271 32.1848 112.073 31.7917 113.142 31.0057C114.211 30.1882 115.201 29.3236 116.113 28.4118C116.145 28.3804 116.192 28.3646 116.255 28.3646C116.349 28.3646 116.443 28.4118 116.538 28.5061C116.632 28.569 116.679 28.6633 116.679 28.7891C116.679 29.0721 116.333 29.6223 115.642 30.4398C114.573 31.7603 113.393 32.8607 112.104 33.7411C110.847 34.6215 109.542 35.0616 108.19 35.0616C107.844 35.0616 107.514 34.8573 107.2 34.4485C106.917 34.0712 106.775 33.6782 106.775 33.2695C106.775 33.1752 106.806 33.0337 106.869 32.845C108.913 28.4432 110.108 25.7707 110.454 24.8275L110.548 24.4502C110.548 24.293 110.485 24.2144 110.359 24.2144C110.202 24.2144 110.045 24.293 109.888 24.4502C106.335 28.3175 103.71 31.0529 102.012 32.6564C100.314 34.2599 99.0876 35.0616 98.3331 35.0616ZM122.281 35.0616C121.778 35.0616 121.338 34.8887 120.961 34.5429C120.615 34.2284 120.442 33.8669 120.442 33.4581C120.442 33.1437 120.489 32.8922 120.584 32.7035C121.936 29.9681 123.476 26.3524 125.205 21.8563C125.488 21.0074 125.819 20.1427 126.196 19.2624C126.227 19.1995 126.243 19.1052 126.243 18.9794C126.243 18.7907 126.149 18.6964 125.96 18.6964C125.677 18.6964 125.127 18.9008 124.309 19.3095C123.492 19.6868 122.816 20.0798 122.281 20.4886C122.219 20.5515 122.108 20.5829 121.951 20.5829C121.668 20.5829 121.527 20.4886 121.527 20.2999C121.527 19.9855 121.841 19.5139 122.47 18.8851C123.13 18.2562 124.011 17.5803 125.111 16.8571C126.212 16.1339 127.391 15.4894 128.648 14.9235C128.9 14.7977 129.167 14.8291 129.45 15.0178C129.764 15.175 130 15.4108 130.157 15.7252C130.346 16.0082 130.409 16.2283 130.346 16.3855L124.592 30.0153C124.372 30.4869 124.262 30.9428 124.262 31.383C124.262 31.7603 124.514 31.9489 125.017 31.9489C125.583 31.9489 126.243 31.6188 126.998 30.9585C127.784 30.2983 128.853 29.2921 130.205 27.9402C130.268 27.8773 130.33 27.8458 130.393 27.8458C130.582 27.8458 130.676 27.9245 130.676 28.0817C130.676 28.7419 130.173 29.638 129.167 30.7699C128.161 31.8703 126.982 32.8607 125.63 33.7411C124.309 34.6215 123.193 35.0616 122.281 35.0616ZM131.808 10.2073C131.337 10.2073 130.943 10.0186 130.629 9.64131C130.315 9.26402 130.157 8.83956 130.157 8.36794C130.157 7.5819 130.409 6.90592 130.912 6.33997C131.415 5.77403 132.044 5.49106 132.799 5.49106C133.27 5.49106 133.647 5.69542 133.93 6.10416C134.245 6.5129 134.402 6.98452 134.402 7.51902C134.402 8.24217 134.135 8.871 133.6 9.4055C133.097 9.94001 132.5 10.2073 131.808 10.2073ZM136.78 35.1088C136.214 35.1088 135.616 34.8887 134.988 34.4485C134.359 34.0398 133.84 33.4738 133.431 32.7507C133.022 31.9961 132.818 31.1629 132.818 30.2511C132.818 28.2074 133.305 25.9908 134.28 23.6013C135.286 21.1803 136.717 19.1209 138.572 17.423C140.427 15.7252 142.612 14.8763 145.127 14.8763C145.945 14.8763 146.574 15.0335 147.014 15.3479C147.485 15.6309 147.721 15.9767 147.721 16.3855C147.721 16.92 147.564 17.4388 147.25 17.9418C146.935 18.4449 146.621 18.6964 146.306 18.6964C146.086 18.6964 145.898 18.6021 145.74 18.4134C145.583 18.2248 145.395 17.9418 145.175 17.5645C144.954 17.1244 144.687 16.7785 144.373 16.527C144.09 16.2754 143.712 16.1497 143.241 16.1497C142.266 16.1497 141.229 16.92 140.128 18.4606C139.028 19.9698 138.1 21.8091 137.346 23.9786C136.591 26.148 136.214 28.0817 136.214 29.7795C136.214 30.7542 136.402 31.4459 136.78 31.8546C137.188 32.2634 137.754 32.4677 138.478 32.4677C139.389 32.4677 140.112 32.3105 140.647 31.9961C141.213 31.6817 141.889 31.1629 142.675 30.4398C142.706 30.4083 142.785 30.3297 142.911 30.2039C143.068 30.0467 143.194 29.9524 143.288 29.921C143.382 29.8581 143.492 29.8267 143.618 29.8267C143.87 29.8267 143.995 30.031 143.995 30.4398C143.995 30.8171 143.634 31.3987 142.911 32.1848C142.188 32.9393 141.276 33.6153 140.175 34.2127C139.075 34.8101 137.943 35.1088 136.78 35.1088ZM159.604 35.3918C158.88 35.3918 158.283 35.2031 157.811 34.8258C157.371 34.4485 156.978 33.8669 156.632 33.0808L154.84 28.0817C154.62 27.4843 154.321 26.9969 153.944 26.6196C153.567 26.2109 153.142 26.0065 152.671 26.0065C152.388 26.0065 151.963 26.6668 151.397 27.9873C151.083 28.7419 150.706 29.6852 150.265 30.8171C149.825 31.9489 149.464 32.8922 149.181 33.6468C148.961 34.2756 148.788 34.6686 148.662 34.8258C148.536 35.0145 148.3 35.1088 147.954 35.1088C147.703 35.1088 147.436 34.9988 147.153 34.7787C146.87 34.5586 146.728 34.3228 146.728 34.0712C146.728 33.5996 146.854 32.9393 147.106 32.0904L154.982 7.66051C155.296 6.68583 155.453 5.78975 155.453 4.97227C155.453 4.59498 155.107 4.28056 154.416 4.02903C153.598 3.71462 153.189 3.49453 153.189 3.36876C153.189 3.11724 153.284 2.94431 153.472 2.84998C154.196 2.50413 155.17 2.12683 156.396 1.7181C157.623 1.30936 158.424 1.10499 158.802 1.10499C159.305 1.10499 159.556 1.2622 159.556 1.57661C159.556 2.01679 159.509 2.37836 159.415 2.66134L153.048 22.0449C153.017 22.1392 153.001 22.2493 153.001 22.3751C153.001 22.4694 153.032 22.5165 153.095 22.5165C153.252 22.5165 153.378 22.4222 153.472 22.2336C155.076 20.0012 156.821 18.2091 158.707 16.8571C160.625 15.5051 162.37 14.8291 163.942 14.8291C164.666 14.8291 165.31 15.0178 165.876 15.3951C166.442 15.7724 166.725 16.2912 166.725 16.9514C166.725 17.989 166.175 19.1209 165.074 20.3471C163.974 21.5419 162.653 22.6266 161.113 23.6013C159.572 24.5759 158.236 25.2205 157.104 25.5349C156.947 25.5978 156.852 25.6607 156.821 25.7236C156.79 25.7864 156.805 25.8965 156.868 26.0537L159.038 31.1944C159.195 31.5716 159.415 31.9018 159.698 32.1848C159.981 32.4363 160.28 32.562 160.594 32.562C161.128 32.562 161.694 32.2948 162.292 31.7603C162.889 31.2258 163.424 30.5812 163.895 29.8267C164.052 29.5751 164.178 29.4179 164.273 29.355C164.398 29.2607 164.524 29.2135 164.65 29.2135C164.713 29.2135 164.776 29.2764 164.838 29.4022C164.901 29.528 164.933 29.6537 164.933 29.7795C164.933 30.4083 164.587 31.1629 163.895 32.0433C163.235 32.9236 162.465 33.7097 161.584 34.4014C160.735 35.0616 160.075 35.3918 159.604 35.3918ZM154.652 24.8275C155.878 24.8275 157.167 24.4502 158.519 23.6956C159.902 22.9096 161.066 21.9978 162.009 20.9602C162.952 19.9226 163.424 19.058 163.424 18.3663C163.424 17.3602 162.858 16.8571 161.726 16.8571C160.908 16.8571 159.902 17.3444 158.707 18.3191C157.513 19.2938 156.444 20.3785 155.5 21.5733C154.557 22.7681 154.086 23.5855 154.086 24.0257C154.086 24.2458 154.133 24.4345 154.227 24.5917C154.321 24.7489 154.463 24.8275 154.652 24.8275ZM183.292 34.7787C182.066 34.7787 181.091 34.4328 180.368 33.7411C179.645 33.0494 179.283 32.1061 179.283 30.9114C179.283 29.2135 179.645 27.3113 180.368 25.2048L186.31 7.23605C186.625 6.38713 186.782 5.53822 186.782 4.6893C186.782 4.37489 186.389 4.10764 185.603 3.88755C184.628 3.63602 184.141 3.40021 184.141 3.18012C184.141 2.89715 184.392 2.67706 184.895 2.51985C185.618 2.26832 186.625 1.96963 187.914 1.62377C189.234 1.24648 190.036 1.05783 190.319 1.05783C190.822 1.05783 191.073 1.21503 191.073 1.52945C191.073 1.93819 190.963 2.45697 190.743 3.08579C190.146 4.65786 189.061 7.72339 187.489 12.2824C185.949 16.8099 184.832 20.1427 184.141 22.2807C184.078 22.4694 184.046 22.5794 184.046 22.6109C184.046 22.7681 184.109 22.8467 184.235 22.8467C184.361 22.8467 184.518 22.7366 184.707 22.5165C186.562 20.0641 188.307 18.1776 189.942 16.8571C191.608 15.5366 193.039 14.8763 194.233 14.8763C195.239 14.8763 196.073 15.2064 196.733 15.8667C197.393 16.527 197.723 17.3602 197.723 18.3663C197.723 20.6929 196.969 23.1454 195.46 25.7236C193.95 28.3017 192.064 30.4555 189.8 32.1848C187.536 33.914 185.367 34.7787 183.292 34.7787ZM184.518 33.2695C185.115 33.2695 185.98 32.7979 187.112 31.8546C188.275 30.8799 189.407 29.6537 190.508 28.176C191.639 26.6668 192.598 24.969 193.384 23.0825C194.202 21.196 194.611 19.6868 194.611 18.5549C194.611 18.0204 194.469 17.5803 194.186 17.2344C193.935 16.8571 193.62 16.6685 193.243 16.6685C192.268 16.6685 191.152 17.2187 189.894 18.3191C188.637 19.3881 187.175 21.0702 185.508 23.3655C184.471 24.8432 183.638 26.1952 183.009 27.4214C182.38 28.6162 182.066 29.5122 182.066 30.1096C182.066 30.9585 182.301 31.6974 182.773 32.3262C183.276 32.9551 183.858 33.2695 184.518 33.2695ZM200.893 35.2031C200.642 35.2031 200.375 35.0774 200.092 34.8258C199.84 34.6057 199.714 34.3542 199.714 34.0712C199.714 33.7254 199.809 33.238 199.997 32.6092C200.217 31.9804 200.485 31.2572 200.799 30.4398L205.138 19.1209C205.264 18.8379 205.327 18.5078 205.327 18.1305C205.327 17.6903 205.169 17.4702 204.855 17.4702C204.446 17.4702 204.022 17.5331 203.582 17.6589C203.173 17.7532 202.843 17.8632 202.591 17.989C202.497 18.0519 202.371 18.0833 202.214 18.0833C201.931 18.0833 201.79 17.9261 201.79 17.6117C201.79 17.3602 201.9 17.0772 202.12 16.7628C202.371 16.4484 202.701 16.1497 203.11 15.8667C203.99 15.2064 204.981 14.8763 206.081 14.8763C207.339 14.8763 207.968 15.3951 207.968 16.4326C207.968 17.0929 207.653 18.2248 207.025 19.8283L204.902 25.1576L204.855 25.3463C204.855 25.5035 204.934 25.5978 205.091 25.6292C205.28 25.6607 205.405 25.5978 205.468 25.4406C207.355 22.2336 209.225 19.6397 211.08 17.6589C212.967 15.6466 214.46 14.6405 215.561 14.6405C216.315 14.6405 216.866 14.8606 217.212 15.3008C217.589 15.7409 217.777 16.3069 217.777 16.9986C217.777 17.9104 217.542 18.775 217.07 19.5925C216.598 20.41 216.048 20.8187 215.419 20.8187C214.916 20.8187 214.665 20.2685 214.665 19.168C214.665 18.1619 214.366 17.6589 213.769 17.6589C213.046 17.6589 211.977 18.5707 210.562 20.3943C209.807 21.3689 208.722 22.941 207.308 25.1105C205.924 27.2799 204.761 29.1978 203.818 30.8642C203.755 30.9585 203.409 31.5874 202.78 32.7507C202.277 33.6939 201.9 34.3385 201.648 34.6843C201.397 35.0302 201.145 35.2031 200.893 35.2031ZM221.027 35.0616C219.895 35.0616 218.889 34.5271 218.009 33.4581C217.16 32.3577 216.735 31.1157 216.735 29.7323C216.735 27.7201 217.254 25.5506 218.292 23.224C219.329 20.8659 220.713 18.8851 222.442 17.2816C224.203 15.678 226.074 14.8763 228.054 14.8763C229.595 14.8763 230.805 15.4108 231.686 16.4798C232.566 17.5174 233.006 18.8379 233.006 20.4414C233.006 22.4222 232.488 24.5602 231.45 26.8554C230.444 29.1507 229.013 31.1 227.158 32.7035C225.335 34.2756 223.291 35.0616 221.027 35.0616ZM221.782 33.6468C222.977 33.6468 224.219 32.8293 225.508 31.1944C226.797 29.528 227.866 27.5472 228.715 25.2519C229.564 22.9253 229.988 20.8816 229.988 19.1209C229.988 18.2091 229.831 17.5174 229.516 17.0457C229.233 16.5427 228.715 16.2912 227.96 16.2912C226.797 16.2912 225.571 17.0615 224.281 18.6021C222.992 20.1113 221.908 22.0135 221.027 24.3087C220.178 26.5725 219.754 28.7105 219.754 30.7227C219.754 32.6721 220.43 33.6468 221.782 33.6468ZM261.44 14.5933C261.785 14.5933 262.1 14.892 262.383 15.4894C262.666 16.0868 262.807 16.9043 262.807 17.9418C262.807 22.155 261.015 26.3838 257.431 30.6284C254.884 33.5839 252.479 35.0616 250.215 35.0616C249.335 35.0616 248.659 34.6372 248.187 33.7883C247.715 32.9079 247.48 31.8389 247.48 30.5812C247.48 30.0467 247.527 29.4965 247.621 28.9306C246.489 30.5341 245.121 31.9647 243.518 33.2223C241.914 34.4485 240.688 35.0616 239.839 35.0616C238.959 35.0616 238.236 34.7472 237.67 34.1184C237.135 33.4581 236.868 32.5463 236.868 31.383C236.868 30.3454 237.12 29.1349 237.623 27.7515L240.452 20.0641C240.578 19.7811 240.641 19.5296 240.641 19.3095C240.641 18.9322 240.468 18.7436 240.122 18.7436C239.902 18.7436 239.493 18.9165 238.896 19.2624C238.33 19.5768 237.827 19.9855 237.387 20.4886C237.261 20.6458 237.12 20.7558 236.962 20.8187C236.837 20.8816 236.727 20.913 236.632 20.913C236.538 20.913 236.444 20.8816 236.349 20.8187C236.255 20.7558 236.208 20.6772 236.208 20.5829C236.208 20.237 236.397 19.8283 236.774 19.3567C237.906 17.9733 239.132 16.8571 240.452 16.0082C241.773 15.1278 242.795 14.6876 243.518 14.6876C243.77 14.6876 243.99 14.7977 244.178 15.0178C244.398 15.2379 244.508 15.5208 244.508 15.8667C244.508 16.1182 244.477 16.3069 244.414 16.4326L240.122 28.7419C239.902 29.3708 239.792 29.9524 239.792 30.4869C239.792 31.0843 239.934 31.5559 240.217 31.9018C240.531 32.2162 240.956 32.3734 241.49 32.3734C242.213 32.3734 243.078 31.9332 244.084 31.0529C245.09 30.1725 246.002 29.1821 246.819 28.0817C247.637 26.9498 248.093 26.1323 248.187 25.6292L248.753 22.9882C248.91 22.2336 249.067 21.4633 249.225 20.6772C249.413 19.8597 249.57 19.168 249.696 18.6021C249.916 17.6274 250.278 16.9829 250.781 16.6685C250.875 16.6056 251.08 16.4798 251.394 16.2912C251.708 16.1025 252.039 15.961 252.384 15.8667C252.73 15.7409 253.092 15.678 253.469 15.678C253.752 15.678 253.894 16.0553 253.894 16.8099C253.894 17.6274 253.752 18.4292 253.469 19.2152L252.573 21.5733C252.164 22.7681 251.818 23.6799 251.536 24.3087C251.315 24.8118 251.111 25.4091 250.922 26.1009C250.734 26.7611 250.608 27.2799 250.545 27.6572C250.419 28.3804 250.356 29.0878 250.356 29.7795C250.356 31.5716 250.891 32.4677 251.96 32.4677C253.092 32.4677 254.287 31.8546 255.544 30.6284C256.833 29.4022 257.902 27.8773 258.751 26.0537C259.6 24.2301 260.025 22.4851 260.025 20.8187C260.025 20.2213 259.82 19.5768 259.412 18.8851C259.286 18.665 259.097 18.382 258.846 18.0362C258.594 17.6589 258.468 17.3759 258.468 17.1872C258.468 16.7156 258.83 16.1654 259.553 15.5366C260.308 14.9077 260.936 14.5933 261.44 14.5933ZM266.205 35.156C265.891 35.156 265.592 34.9673 265.309 34.59C265.058 34.2442 264.932 33.8826 264.932 33.5053C264.932 33.411 264.963 33.2695 265.026 33.0808L270.497 19.6868C270.811 18.9637 270.968 18.4134 270.968 18.0362C270.968 17.7532 270.843 17.6117 270.591 17.6117C269.994 17.6117 269.428 17.7532 268.893 18.0362C268.39 18.3191 267.793 18.9008 267.101 19.7811C267.007 19.9069 266.881 19.9698 266.724 19.9698C266.535 19.9698 266.425 19.844 266.394 19.5925C266.362 19.341 266.457 18.9794 266.677 18.5078C266.897 18.0047 267.133 17.5803 267.384 17.2344C267.856 16.5112 268.5 15.9453 269.318 15.5366C270.135 15.1278 271.063 14.9077 272.1 14.8763C272.541 14.8763 272.918 15.0178 273.232 15.3008C273.578 15.5837 273.751 15.9453 273.751 16.3855C273.751 16.4798 273.72 16.6527 273.657 16.9043L270.544 24.9218L270.497 25.1105C270.497 25.2362 270.56 25.2991 270.686 25.2991C270.811 25.2991 270.906 25.2362 270.968 25.1105C272.855 21.9034 274.789 19.4038 276.769 17.6117C278.782 15.7881 280.527 14.8763 282.004 14.8763C282.759 14.8763 283.388 15.1593 283.891 15.7252C284.425 16.2912 284.693 17.03 284.693 17.9418C284.693 18.6335 284.535 19.341 284.221 20.0641L279.882 30.3454C279.693 30.8485 279.599 31.2258 279.599 31.4773C279.599 31.8546 279.772 32.0433 280.118 32.0433C280.778 32.0433 281.721 31.6345 282.948 30.8171C284.174 29.9681 285.023 29.3079 285.494 28.8363C285.526 28.8048 285.573 28.7891 285.636 28.7891C285.73 28.7891 285.809 28.8363 285.872 28.9306C285.966 28.9935 286.013 29.0878 286.013 29.2135C286.013 29.4651 285.95 29.6852 285.825 29.8738C284.535 31.4459 283.152 32.7035 281.674 33.6468C280.197 34.59 278.75 35.0616 277.335 35.0616C276.958 35.0616 276.596 34.9044 276.251 34.59C275.936 34.2756 275.779 33.914 275.779 33.5053C275.779 33.2852 275.81 33.1123 275.873 32.9865L276.817 30.8642C277.131 30.1725 277.76 28.7262 278.703 26.5253C279.678 24.293 280.527 22.2493 281.25 20.3943C281.627 19.3567 281.816 18.5864 281.816 18.0833C281.816 17.2658 281.486 16.8571 280.825 16.8571C280.291 16.8571 279.615 17.1715 278.797 17.8003C277.98 18.3977 277.084 19.3095 276.109 20.5357C275.355 21.4475 274.128 23.224 272.431 25.865C270.733 28.4747 269.145 31.0843 267.667 33.6939C267.384 34.2284 267.133 34.6057 266.913 34.8258C266.692 35.0459 266.457 35.156 266.205 35.156ZM292.311 48.0784C291.116 48.0784 290.173 47.874 289.481 47.4652C288.758 47.0565 288.397 46.4748 288.397 45.7202C288.397 45.2801 288.617 44.8399 289.057 44.3997C289.497 43.9595 289.89 43.7394 290.236 43.7394C290.393 43.7394 290.566 43.818 290.755 43.9753C290.943 44.1639 291.132 44.3526 291.321 44.5412C291.478 44.7298 291.619 44.9028 291.745 45.06C292.437 45.8146 293.254 46.1919 294.198 46.1919C294.826 46.1919 295.361 46.0189 295.801 45.6731C296.21 45.3272 296.619 44.6984 297.027 43.7866C297.436 42.9062 297.908 41.5857 298.442 39.825L304.762 18.4134C304.793 18.3191 304.809 18.1934 304.809 18.0362C304.809 17.7217 304.573 17.5645 304.102 17.5645L301.178 17.6117C300.769 17.6117 300.564 17.423 300.564 17.0457C300.564 16.7628 300.659 16.4955 300.847 16.244C301.036 15.9925 301.24 15.851 301.461 15.8195L304.762 15.6309C305.202 15.568 305.501 15.2536 305.658 14.6876L306.035 13.1785C306.727 10.3802 307.702 8.08497 308.959 6.29281C310.217 4.46921 311.538 3.14868 312.921 2.3312C314.304 1.51373 315.609 1.10499 316.835 1.10499C318.219 1.10499 319.304 1.4194 320.09 2.04823C320.876 2.64561 321.269 3.43165 321.269 4.40633C321.269 5.16092 321.064 5.75831 320.655 6.19849C320.247 6.60722 319.807 6.81159 319.335 6.81159C319.115 6.81159 318.926 6.68583 318.769 6.43429C318.612 6.15132 318.376 5.66398 318.062 4.97227C317.496 3.68318 316.568 3.03863 315.279 3.03863C314.367 3.03863 313.613 3.25872 313.015 3.6989C312.418 4.10764 311.868 4.84651 311.365 5.91551C310.893 6.95308 310.327 8.54087 309.667 10.6789L309.195 12.4239L308.676 14.1689C308.645 14.2946 308.598 14.4518 308.535 14.6405C308.472 14.7977 308.441 14.9549 308.441 15.1121C308.441 15.3951 308.598 15.5366 308.912 15.5366C309.635 15.5366 310.563 15.5051 311.695 15.4422L314.1 15.3951C314.32 15.3951 314.43 15.568 314.43 15.9139C314.43 16.1654 314.289 16.4641 314.006 16.8099C313.754 17.1244 313.44 17.2816 313.062 17.2816L308.771 17.3287C308.11 17.3287 307.717 17.5803 307.592 18.0833C305.328 25.3463 303.284 32.5149 301.461 39.5892C301.052 41.1613 300.297 42.5918 299.197 43.8809C298.096 45.2015 296.902 46.2233 295.612 46.9465C294.323 47.7011 293.223 48.0784 292.311 48.0784ZM317.792 35.0616C316.66 35.0616 315.654 34.5271 314.774 33.4581C313.925 32.3577 313.501 31.1157 313.501 29.7323C313.501 27.7201 314.019 25.5506 315.057 23.224C316.094 20.8659 317.478 18.8851 319.207 17.2816C320.968 15.678 322.839 14.8763 324.819 14.8763C326.36 14.8763 327.571 15.4108 328.451 16.4798C329.331 17.5174 329.771 18.8379 329.771 20.4414C329.771 22.4222 329.253 24.5602 328.215 26.8554C327.209 29.1507 325.778 31.1 323.923 32.7035C322.1 34.2756 320.056 35.0616 317.792 35.0616ZM318.547 33.6468C319.742 33.6468 320.984 32.8293 322.273 31.1944C323.562 29.528 324.631 27.5472 325.48 25.2519C326.329 22.9253 326.753 20.8816 326.753 19.1209C326.753 18.2091 326.596 17.5174 326.281 17.0457C325.998 16.5427 325.48 16.2912 324.725 16.2912C323.562 16.2912 322.336 17.0615 321.046 18.6021C319.757 20.1113 318.673 22.0135 317.792 24.3087C316.943 26.5725 316.519 28.7105 316.519 30.7227C316.519 32.6721 317.195 33.6468 318.547 33.6468ZM331.747 35.0616C331.212 35.0616 330.756 34.9044 330.379 34.59C330.002 34.2756 329.813 33.8354 329.813 33.2695C329.813 32.735 330.065 32.1061 330.568 31.383C331.071 30.6598 331.527 30.2983 331.935 30.2983C332.313 30.2983 332.564 30.5812 332.69 31.1472C332.879 31.8703 333.177 32.2319 333.586 32.2319H333.68C334.089 32.2319 334.482 32.0433 334.859 31.666C335.583 30.9428 336.636 29.7638 338.019 28.1288L339.764 26.1009C339.984 25.8808 340.031 25.5978 339.906 25.2519L338.114 18.6493C338.019 18.3034 337.925 18.0833 337.831 17.989C337.736 17.8947 337.595 17.8475 337.406 17.8475C337.155 17.8475 336.793 18.0676 336.321 18.5078C335.85 18.9165 335.331 19.5139 334.765 20.2999C334.734 20.3314 334.639 20.4729 334.482 20.7244C334.356 20.9445 334.183 21.0545 333.963 21.0545C333.743 21.0545 333.633 20.7873 333.633 20.2528C333.633 19.6554 333.916 18.9322 334.482 18.0833C335.048 17.203 335.724 16.4484 336.51 15.8195C337.296 15.1907 338.019 14.8763 338.679 14.8763C339.183 14.8763 339.576 15.0649 339.859 15.4422C340.173 15.8195 340.44 16.4326 340.66 17.2816L341.839 22.2807C341.902 22.5323 341.997 22.658 342.122 22.658C342.248 22.658 342.374 22.5637 342.5 22.3751L345.801 17.6589C346.335 16.9043 346.98 16.2597 347.735 15.7252C348.489 15.1593 349.259 14.8763 350.046 14.8763C350.611 14.8763 351.146 15.1278 351.649 15.6309C352.184 16.1025 352.451 16.5427 352.451 16.9514C352.451 17.3602 352.215 17.8947 351.743 18.5549C351.303 19.1838 350.894 19.4982 350.517 19.4982C350.171 19.4982 349.888 19.2309 349.668 18.6964C349.511 18.2877 349.354 18.0047 349.197 17.8475C349.039 17.6903 348.851 17.6117 348.631 17.6117C347.939 17.6117 347.043 18.272 345.942 19.5925C344.685 21.0388 343.647 22.3908 342.83 23.6484C342.673 23.9 342.594 24.1829 342.594 24.4973C342.594 24.686 342.641 24.9532 342.735 25.2991L344.339 31.1C344.559 31.8546 344.889 32.2319 345.329 32.2319C345.801 32.2319 346.32 31.8861 346.886 31.1944C347.452 30.5026 347.97 29.5908 348.442 28.459C348.631 28.0188 348.835 27.7987 349.055 27.7987C349.181 27.7987 349.275 27.8616 349.338 27.9873C349.432 28.1131 349.48 28.3961 349.48 28.8363C349.48 29.4651 349.244 30.2826 348.772 31.2887C348.332 32.2948 347.735 33.1752 346.98 33.9297C346.225 34.6843 345.424 35.0616 344.575 35.0616C343.757 35.0616 343.128 34.8101 342.688 34.307C342.28 33.804 341.918 33.0022 341.604 31.9018L340.566 27.61C340.472 27.2013 340.362 26.9969 340.236 26.9969C340.173 26.9969 340.094 27.0441 340 27.1384C339.906 27.2327 339.843 27.2956 339.811 27.3271L338.066 29.5908C336.18 31.9489 335.237 33.128 335.237 33.128C334.608 33.8511 334.026 34.3542 333.492 34.6372C332.957 34.9201 332.375 35.0616 331.747 35.0616ZM354.982 48.0784C353.945 48.0784 353.08 47.8583 352.388 47.4181C351.665 46.9779 351.303 46.522 351.303 46.0504C351.303 45.6416 351.508 45.2172 351.917 44.777C352.294 44.3683 352.703 44.1639 353.143 44.1639C353.394 44.1639 353.63 44.2425 353.85 44.3997C354.07 44.5569 354.322 44.7927 354.605 45.1071C355.234 45.7989 355.972 46.1447 356.821 46.1447C357.607 46.1447 358.283 45.7517 358.849 44.9657C359.384 44.1796 359.903 43.032 360.406 41.5228L367.15 20.8187C367.276 20.3156 367.339 20.017 367.339 19.9226C367.339 19.4825 367.15 19.2624 366.773 19.2624C366.364 19.2624 365.342 19.6711 363.707 20.4886L363.518 20.5357C363.424 20.5357 363.314 20.5043 363.188 20.4414C363.094 20.3785 363.047 20.2999 363.047 20.2056C363.047 20.017 363.188 19.7811 363.471 19.4982C364.603 18.492 365.594 17.7217 366.442 17.1872C367.291 16.6213 368.376 15.9925 369.697 15.3008L370.546 14.8763C370.923 14.7505 371.284 14.8606 371.63 15.2064C372.008 15.5523 372.133 15.8824 372.008 16.1968C371.567 17.3287 370.954 19.0737 370.168 21.4318L363.896 40.4381C363.518 41.57 362.795 42.7333 361.726 43.9281C360.657 45.1229 359.494 46.1133 358.236 46.8993C356.979 47.6853 355.894 48.0784 354.982 48.0784ZM372.432 10.2073C371.96 10.2073 371.567 10.0186 371.253 9.64131C370.939 9.26402 370.781 8.83956 370.781 8.36794C370.781 7.5819 371.033 6.90592 371.536 6.33997C372.039 5.77403 372.668 5.49106 373.422 5.49106C373.894 5.49106 374.271 5.69542 374.554 6.10416C374.869 6.5129 375.026 6.98452 375.026 7.51902C375.026 8.24217 374.759 8.871 374.224 9.4055C373.721 9.94001 373.124 10.2073 372.432 10.2073ZM376.101 35.0616C375.755 35.0616 375.393 34.9044 375.016 34.59C374.67 34.307 374.403 33.9612 374.214 33.5525C374.026 33.1437 373.978 32.8136 374.073 32.562L379.025 20.6301C379.308 19.9069 379.449 19.4038 379.449 19.1209C379.449 18.8379 379.355 18.6964 379.166 18.6964C378.757 18.6964 377.626 19.5296 375.771 21.196C375.739 21.2274 375.661 21.2432 375.535 21.2432C375.283 21.2432 375.157 21.1803 375.157 21.0545C375.157 20.6143 375.346 20.1427 375.723 19.6397C376.447 18.665 377.28 17.8003 378.223 17.0457C379.198 16.2912 380.125 15.7095 381.006 15.3008C381.886 14.892 382.562 14.6876 383.033 14.6876C383.316 14.6876 383.599 14.8763 383.882 15.2536C384.165 15.5994 384.228 15.9296 384.071 16.244C383.096 18.2877 381.76 21.2432 380.062 25.1105L378.27 29.2607C377.924 30.0467 377.751 30.6913 377.751 31.1944C377.751 31.6031 377.877 31.8075 378.129 31.8075C378.569 31.8075 379.276 31.3358 380.251 30.3926C381.257 29.4179 382.578 28.0188 384.213 26.1952C385.847 24.3716 387.467 22.3751 389.07 20.2056C390.674 18.0047 391.711 16.4798 392.183 15.6309C392.466 15.1278 392.859 14.8763 393.362 14.8763C393.645 14.8763 393.912 15.0807 394.164 15.4894C394.447 15.8981 394.525 16.2283 394.4 16.4798L388.363 30.3454C388.143 30.8799 388.033 31.3044 388.033 31.6188C388.033 31.9961 388.19 32.1848 388.504 32.1848C389.039 32.1848 389.841 31.7917 390.91 31.0057C391.979 30.1882 392.969 29.3236 393.881 28.4118C393.912 28.3804 393.959 28.3646 394.022 28.3646C394.117 28.3646 394.211 28.4118 394.305 28.5061C394.4 28.569 394.447 28.6633 394.447 28.7891C394.447 29.0721 394.101 29.6223 393.409 30.4398C392.34 31.7603 391.161 32.8607 389.872 33.7411C388.614 34.6215 387.31 35.0616 385.958 35.0616C385.612 35.0616 385.282 34.8573 384.967 34.4485C384.684 34.0712 384.543 33.6782 384.543 33.2695C384.543 33.1752 384.574 33.0337 384.637 32.845C386.681 28.4432 387.875 25.7707 388.221 24.8275L388.316 24.4502C388.316 24.293 388.253 24.2144 388.127 24.2144C387.97 24.2144 387.813 24.293 387.655 24.4502C384.103 28.3175 381.477 31.0529 379.779 32.6564C378.081 34.2599 376.855 35.0616 376.101 35.0616ZM399.783 35.2031C399.563 35.2031 399.358 35.0459 399.17 34.7315C399.012 34.4171 398.934 34.1027 398.934 33.7883C398.934 33.5053 399.295 32.3891 400.018 30.4398L404.357 19.0737C404.42 18.8222 404.452 18.6335 404.452 18.5078C404.452 18.2562 404.373 18.0519 404.216 17.8947C404.059 17.706 403.839 17.6117 403.556 17.6117C402.99 17.6117 402.455 17.7532 401.952 18.0362C401.449 18.2877 400.852 18.8693 400.16 19.7811C400.066 19.9069 399.94 19.9698 399.783 19.9698C399.594 19.9698 399.484 19.844 399.453 19.5925C399.421 19.3095 399.484 18.9165 399.641 18.4134C399.83 17.8789 400.034 17.4859 400.254 17.2344C401.512 15.6938 403.068 14.9077 404.923 14.8763C405.552 14.8763 406.102 15.0178 406.574 15.3008C407.046 15.5523 407.281 15.961 407.281 16.527C407.281 16.8414 407.219 17.1401 407.093 17.423L404.405 24.403L404.357 24.5917C404.357 24.7174 404.42 24.7803 404.546 24.7803C404.672 24.7803 404.766 24.7174 404.829 24.5917C409.042 18.1148 412.611 14.8763 415.535 14.8763C416.289 14.8763 416.918 15.1278 417.421 15.6309C417.956 16.1025 418.223 16.7785 418.223 17.6589C418.223 18.2248 418.113 18.8222 417.893 19.451L416.195 24.403L416.148 24.5917C416.148 24.7174 416.211 24.7803 416.337 24.7803C416.462 24.7803 416.557 24.7174 416.62 24.5917C418.569 21.4161 420.471 19.0108 422.326 17.3759C424.213 15.7095 425.942 14.8763 427.514 14.8763C428.237 14.8763 428.834 15.1278 429.306 15.6309C429.809 16.1025 430.061 16.7942 430.061 17.706C430.061 18.3348 429.903 19.058 429.589 19.8755L425.533 30.3454C425.344 30.8485 425.25 31.2258 425.25 31.4773C425.25 31.8546 425.423 32.0433 425.769 32.0433C426.712 32.0433 428.457 30.7699 431.004 28.2231C431.035 28.1917 431.083 28.176 431.145 28.176C431.24 28.176 431.318 28.2231 431.381 28.3175C431.476 28.3804 431.523 28.4747 431.523 28.6004C431.523 29.1349 431.24 29.7009 430.674 30.2983C429.416 31.7446 428.158 32.9079 426.901 33.7883C425.675 34.6372 424.386 35.0616 423.034 35.0616C422.688 35.0616 422.342 34.8887 421.996 34.5429C421.682 34.197 421.524 33.804 421.524 33.3638C421.524 33.238 421.556 33.0808 421.619 32.8922L427.089 18.7907C427.184 18.5078 427.231 18.2562 427.231 18.0362C427.231 17.6589 427.121 17.3759 426.901 17.1872C426.681 16.9671 426.413 16.8571 426.099 16.8571C425.533 16.8571 424.826 17.1558 423.977 17.7532C423.159 18.3191 422.263 19.1995 421.289 20.3943C420.503 21.3375 419.402 22.8938 417.987 25.0633C416.604 27.2013 415.456 29.0878 414.544 30.7227C413.758 32.2005 413.035 33.3166 412.375 34.0712C411.715 34.8258 411.196 35.2031 410.819 35.2031C410.598 35.2031 410.394 35.0616 410.205 34.7787C410.048 34.5271 409.97 34.2442 409.97 33.9297C409.97 33.5525 410.331 32.3891 411.054 30.4398L415.44 18.6493C415.535 18.3663 415.582 18.1148 415.582 17.8947C415.582 17.4859 415.425 17.1872 415.11 16.9986C414.827 16.8099 414.576 16.7156 414.356 16.7156C413.821 16.7156 413.13 17.03 412.281 17.6589C411.463 18.2562 410.583 19.1366 409.64 20.2999C408.885 21.2117 407.8 22.7681 406.385 24.969C404.97 27.1384 403.807 29.0563 402.895 30.7227L402.424 31.6188C401.669 33.0022 401.119 33.9455 400.773 34.4485C400.427 34.9516 400.097 35.2031 399.783 35.2031ZM428.413 47.8897C427.91 47.8897 427.658 47.7482 427.658 47.4652C427.658 47.2452 427.816 47.0408 428.13 46.8521C428.444 46.6949 428.759 46.5849 429.073 46.522C429.796 46.3962 430.347 46.2076 430.724 45.9561C431.07 45.736 431.337 45.343 431.526 44.777L440.628 19.3567C440.817 18.8222 440.911 18.4449 440.911 18.2248C440.911 17.9104 440.644 17.8003 440.109 17.8947C439.323 18.0204 438.647 18.1619 438.081 18.3191C437.547 18.4763 436.965 18.6964 436.336 18.9794C436.242 19.0423 436.1 19.0737 435.912 19.0737C435.534 19.0737 435.346 18.9322 435.346 18.6493C435.346 18.2091 435.582 17.8789 436.053 17.6589C437.908 16.6842 439.732 15.961 441.524 15.4894C441.964 15.3951 442.247 15.1435 442.373 14.7348C442.845 13.1313 443.269 12.0309 443.646 11.4335C444.024 10.8361 444.542 10.5374 445.203 10.5374C445.486 10.5374 445.706 10.616 445.863 10.7732C446.052 10.9304 446.114 11.1505 446.052 11.4335L445.25 14.1689L445.155 14.5933C445.155 14.9392 445.266 15.0807 445.486 15.0178C446.209 14.892 446.9 14.8291 447.561 14.8291C451.648 14.8291 453.692 16.7942 453.692 20.7244C453.692 22.7052 453.079 24.8275 451.852 27.0913C450.658 29.355 449.101 31.2572 447.183 32.7979C445.266 34.307 443.316 35.0616 441.335 35.0616C440.958 35.0616 440.314 34.7787 439.402 34.2127C439.244 34.087 439.072 34.0241 438.883 34.0241C438.631 34.0241 438.38 34.3699 438.128 35.0616L435.016 44.2582C434.921 44.5098 434.874 44.7456 434.874 44.9657C434.874 45.7831 435.566 46.239 436.949 46.3334C437.327 46.3648 437.657 46.4277 437.94 46.522C438.223 46.6478 438.364 46.8207 438.364 47.0408C438.364 47.3866 437.908 47.5596 436.996 47.5596L434.167 47.5124C433.632 47.5124 433.271 47.5281 433.082 47.5596C431.258 47.7797 429.702 47.8897 428.413 47.8897ZM442.231 33.4581C443.175 33.4581 444.275 32.7821 445.533 31.4302C446.822 30.0467 447.922 28.3961 448.834 26.4781C449.746 24.5288 450.202 22.7524 450.202 21.1488C450.202 19.451 449.903 18.272 449.306 17.6117C448.708 16.9514 447.812 16.6056 446.617 16.5741C445.863 16.5741 445.266 16.6056 444.825 16.6685L440.486 29.4022C440.298 29.9996 440.203 30.5812 440.203 31.1472C440.203 31.5245 440.251 31.8861 440.345 32.2319C440.628 33.0494 441.257 33.4581 442.231 33.4581ZM455.411 35.0616C454.688 35.0616 454.09 34.8573 453.619 34.4485C453.116 34.0712 452.864 33.5839 452.864 32.9865C452.864 32.3262 453.021 31.8075 453.336 31.4302C453.619 31.0214 453.902 30.8171 454.185 30.8171C454.373 30.8171 454.593 30.9114 454.845 31.1C455.128 31.2887 455.395 31.493 455.647 31.7131C456.087 32.059 456.511 32.3262 456.92 32.5149C457.329 32.7035 457.848 32.7979 458.476 32.7979C459.294 32.7979 459.954 32.5149 460.457 31.9489C460.992 31.3516 461.275 30.6756 461.306 29.921C461.306 28.5061 460.85 26.9655 459.939 25.2991C458.995 23.6327 458.524 22.3436 458.524 21.4318C458.524 20.2999 458.901 19.2309 459.656 18.2248C460.442 17.2187 461.338 16.4169 462.344 15.8195C463.381 15.1907 464.199 14.8763 464.796 14.8763C465.362 14.8763 465.944 15.1121 466.541 15.5837C467.139 16.0553 467.437 16.4641 467.437 16.8099C467.437 17.0929 467.233 17.4545 466.824 17.8947C466.447 18.3348 466.117 18.5549 465.834 18.5549C465.645 18.5549 465.441 18.4449 465.221 18.2248C465.032 18.0047 464.906 17.8632 464.843 17.8003C464.34 17.2973 463.759 17.0457 463.098 17.0457C462.564 17.0457 462.108 17.2658 461.731 17.706C461.385 18.1462 461.212 18.6964 461.212 19.3567C461.212 19.734 461.369 20.3785 461.684 21.2903C462.029 22.2021 462.391 23.0039 462.768 23.6956C463.146 24.3873 463.476 25.2205 463.759 26.1952C464.042 27.1384 464.183 27.9402 464.183 28.6004C464.183 29.7952 463.727 30.8957 462.815 31.9018C461.904 32.8765 460.756 33.6468 459.373 34.2127C458.021 34.7787 456.7 35.0616 455.411 35.0616ZM481.754 35.0616C480.622 35.0616 479.616 34.5271 478.736 33.4581C477.887 32.3577 477.462 31.1157 477.462 29.7323C477.462 27.7201 477.981 25.5506 479.019 23.224C480.056 20.8659 481.439 18.8851 483.169 17.2816C484.929 15.678 486.8 14.8763 488.781 14.8763C490.322 14.8763 491.532 15.4108 492.413 16.4798C493.293 17.5174 493.733 18.8379 493.733 20.4414C493.733 22.4222 493.214 24.5602 492.177 26.8554C491.171 29.1507 489.74 31.1 487.885 32.7035C486.061 34.2756 484.018 35.0616 481.754 35.0616ZM482.508 33.6468C483.703 33.6468 484.945 32.8293 486.234 31.1944C487.523 29.528 488.592 27.5472 489.441 25.2519C490.29 22.9253 490.715 20.8816 490.715 19.1209C490.715 18.2091 490.557 17.5174 490.243 17.0457C489.96 16.5427 489.441 16.2912 488.687 16.2912C487.523 16.2912 486.297 17.0615 485.008 18.6021C483.719 20.1113 482.634 22.0135 481.754 24.3087C480.905 26.5725 480.481 28.7105 480.481 30.7227C480.481 32.6721 481.157 33.6468 482.508 33.6468ZM500.189 35.0616C499.34 35.0616 498.617 34.6372 498.019 33.7883C497.453 32.9393 497.17 31.9647 497.17 30.8642C497.17 30.1725 497.28 29.5437 497.5 28.9777L500.566 20.8187C500.849 20.0327 500.99 19.4982 500.99 19.2152C500.99 18.8693 500.818 18.6964 500.472 18.6964C500.283 18.6964 499.906 18.9322 499.34 19.4038C498.805 19.844 498.271 20.3471 497.736 20.913C497.516 21.1646 497.312 21.2903 497.123 21.2903C496.903 21.2903 496.793 21.2117 496.793 21.0545C496.793 20.6458 496.982 20.1742 497.359 19.6397C498.491 18.099 499.607 16.8885 500.708 16.0082C501.808 15.1278 502.72 14.6876 503.443 14.6876C503.757 14.6876 504.04 14.8449 504.292 15.1593C504.575 15.4422 504.716 15.7724 504.716 16.1497C504.716 16.3069 504.701 16.4326 504.669 16.527L500.425 28.7891C500.204 29.5122 500.094 30.0782 500.094 30.4869C500.094 31.0843 500.236 31.5559 500.519 31.9018C500.833 32.2162 501.273 32.3734 501.839 32.3734C503.317 32.3734 504.748 31.8232 506.131 30.7227C507.546 29.6223 508.678 28.2074 509.527 26.4781C510.407 24.7489 510.847 22.9882 510.847 21.196C510.847 20.6615 510.737 20.127 510.517 19.5925C510.329 19.058 510.061 18.5864 509.715 18.1776C509.338 17.7689 509.15 17.2501 509.15 16.6213C509.15 16.1811 509.448 15.7567 510.046 15.3479C510.643 14.9077 511.272 14.6876 511.932 14.6876C512.309 14.6876 512.624 14.9863 512.875 15.5837C513.158 16.1497 513.3 16.9357 513.3 17.9418C513.3 22.4379 511.806 26.4153 508.819 29.8738C507.373 31.5716 505.895 32.8607 504.386 33.7411C502.908 34.6215 501.509 35.0616 500.189 35.0616ZM518.919 35.1088C518.259 35.1088 517.583 34.8573 516.891 34.3542C516.231 33.8511 515.681 33.2223 515.241 32.4677C514.801 31.6817 514.58 30.9271 514.58 30.2039C514.58 28.0659 515.146 25.8022 516.278 23.4126C517.442 20.9916 518.967 18.9637 520.853 17.3287C522.771 15.6938 524.783 14.8763 526.89 14.8763C527.99 14.8763 528.839 15.1121 529.437 15.5837C530.065 16.0239 530.38 16.6527 530.38 17.4702C530.38 19.2624 529.389 20.6615 527.409 21.6676C525.428 22.6737 522.834 23.4755 519.627 24.0729C519.595 24.0729 519.517 24.0886 519.391 24.12C519.265 24.1515 519.155 24.1987 519.061 24.2615C518.998 24.3244 518.951 24.4187 518.919 24.5445C518.259 26.4624 517.929 27.9873 517.929 29.1192C517.929 30.2197 518.133 31.0686 518.542 31.666C518.982 32.2634 519.611 32.562 520.429 32.562C521.435 32.562 522.315 32.3262 523.07 31.8546C523.824 31.383 524.547 30.7699 525.239 30.0153C525.554 29.6694 525.836 29.4965 526.088 29.4965C526.402 29.4965 526.56 29.6537 526.56 29.9681C526.56 30.1253 526.528 30.2511 526.465 30.3454C525.522 31.8861 524.406 33.0651 523.117 33.8826C521.828 34.7001 520.429 35.1088 518.919 35.1088ZM519.957 22.9882C520.586 22.9882 521.529 22.7838 522.787 22.3751C524.044 21.9349 525.161 21.306 526.135 20.4886C527.141 19.6711 527.644 18.6964 527.644 17.5645C527.644 17.1558 527.519 16.8099 527.267 16.527C527.047 16.2126 526.748 16.0553 526.371 16.0553C525.585 16.0553 524.657 16.4955 523.588 17.3759C522.551 18.2562 521.623 19.2466 520.806 20.3471C520.02 21.4475 519.627 22.2336 519.627 22.7052C519.627 22.831 519.658 22.9096 519.721 22.941C519.784 22.9724 519.863 22.9882 519.957 22.9882ZM532.824 35.2031C532.572 35.2031 532.305 35.0774 532.022 34.8258C531.77 34.6057 531.645 34.3542 531.645 34.0712C531.645 33.7254 531.739 33.238 531.928 32.6092C532.148 31.9804 532.415 31.2572 532.729 30.4398L537.068 19.1209C537.194 18.8379 537.257 18.5078 537.257 18.1305C537.257 17.6903 537.1 17.4702 536.785 17.4702C536.377 17.4702 535.952 17.5331 535.512 17.6589C535.103 17.7532 534.773 17.8632 534.522 17.989C534.427 18.0519 534.301 18.0833 534.144 18.0833C533.861 18.0833 533.72 17.9261 533.72 17.6117C533.72 17.3602 533.83 17.0772 534.05 16.7628C534.301 16.4484 534.632 16.1497 535.04 15.8667C535.921 15.2064 536.911 14.8763 538.012 14.8763C539.269 14.8763 539.898 15.3951 539.898 16.4326C539.898 17.0929 539.584 18.2248 538.955 19.8283L536.833 25.1576L536.785 25.3463C536.785 25.5035 536.864 25.5978 537.021 25.6292C537.21 25.6607 537.336 25.5978 537.398 25.4406C539.285 22.2336 541.156 19.6397 543.011 17.6589C544.897 15.6466 546.391 14.6405 547.491 14.6405C548.246 14.6405 548.796 14.8606 549.142 15.3008C549.519 15.7409 549.708 16.3069 549.708 16.9986C549.708 17.9104 549.472 18.775 549 19.5925C548.529 20.41 547.978 20.8187 547.35 20.8187C546.847 20.8187 546.595 20.2685 546.595 19.168C546.595 18.1619 546.296 17.6589 545.699 17.6589C544.976 17.6589 543.907 18.5707 542.492 20.3943C541.737 21.3689 540.653 22.941 539.238 25.1105C537.854 27.2799 536.691 29.1978 535.748 30.8642C535.685 30.9585 535.339 31.5874 534.71 32.7507C534.207 33.6939 533.83 34.3385 533.578 34.6843C533.327 35.0302 533.075 35.2031 532.824 35.2031ZM560.324 35.0616C559.915 35.0616 559.491 34.8573 559.051 34.4485C558.61 34.0398 558.39 33.6625 558.39 33.3166C558.39 32.7507 558.485 32.2162 558.673 31.7131C558.862 31.1786 558.988 30.8328 559.051 30.6756L563.531 18.0833L563.578 17.8947C563.578 17.6431 563.405 17.5174 563.059 17.5174L561.173 17.423C560.607 17.3916 560.324 17.1715 560.324 16.7628C560.324 16.637 560.497 16.4169 560.843 16.1025C561.189 15.7881 561.55 15.6309 561.927 15.6309H563.625C563.94 15.6309 564.16 15.5837 564.286 15.4894C564.443 15.3951 564.6 15.1593 564.757 14.782L565.889 12.471C566.078 12.0937 566.486 11.6536 567.115 11.1505C567.744 10.616 568.184 10.3487 568.436 10.3487C568.593 10.3487 568.719 10.4273 568.813 10.5846C568.907 10.7418 568.955 10.9461 568.955 11.1977C568.955 11.4492 568.907 11.6693 568.813 11.8579L567.587 15.0178L567.54 15.2064C567.54 15.3322 567.587 15.4265 567.681 15.4894C567.807 15.5208 567.98 15.5366 568.2 15.5366C569.049 15.5366 570.228 15.6623 571.737 15.9139C572.209 16.0082 572.507 16.1025 572.633 16.1968C572.759 16.2912 572.822 16.4326 572.822 16.6213C572.822 16.7156 572.743 16.8257 572.586 16.9514C572.46 17.0772 572.24 17.1558 571.926 17.1872C570.008 17.313 568.687 17.3916 567.964 17.423C567.147 17.4545 566.659 17.6903 566.502 18.1305L562.305 29.7323C562.179 30.0782 562.116 30.4083 562.116 30.7227C562.116 31.3201 562.462 31.6188 563.154 31.6188C563.72 31.6188 564.333 31.3673 564.993 30.8642C565.685 30.3612 566.424 29.7323 567.21 28.9777C567.524 28.6633 567.823 28.5061 568.106 28.5061C568.357 28.5061 568.483 28.6162 568.483 28.8363C568.483 29.245 568.2 29.7638 567.634 30.3926C566.471 31.6503 565.119 32.7507 563.578 33.6939C562.069 34.6057 560.984 35.0616 560.324 35.0616ZM572.796 35.2503C572.576 35.2503 572.388 35.1245 572.231 34.873C572.073 34.6215 571.995 34.3385 571.995 34.0241C571.995 33.6153 572.042 33.1437 572.136 32.6092C572.262 32.0747 572.419 31.493 572.608 30.8642L579.258 8.08497C579.729 6.54434 579.965 5.47533 579.965 4.87795C579.965 4.59498 579.808 4.39061 579.493 4.26484C579.211 4.10764 578.786 3.93471 578.22 3.74606C577.654 3.58885 577.371 3.41593 577.371 3.22728C577.371 3.10151 577.418 2.99147 577.513 2.89714C577.638 2.77138 577.859 2.64561 578.173 2.51985C578.865 2.23688 579.761 1.92246 580.861 1.57661C581.993 1.23075 582.7 1.05783 582.983 1.05783C583.518 1.05783 583.785 1.21503 583.785 1.52945C583.785 1.90674 583.707 2.3312 583.549 2.80282L577.135 24.969C577.072 25.1891 577.072 25.3148 577.135 25.3463C577.23 25.3463 577.324 25.2677 577.418 25.1105C579.493 22.0292 581.631 19.4982 583.832 17.5174C586.065 15.5366 587.888 14.5462 589.303 14.5462C590.309 14.5462 591.095 14.892 591.661 15.5837C592.227 16.244 592.51 17.0457 592.51 17.989C592.51 20.3471 591.897 22.8938 590.671 25.6292C589.445 28.3646 587.983 30.6284 586.285 32.4206C585.813 32.9236 585.027 33.4896 583.927 34.1184C582.858 34.7472 581.93 35.0616 581.144 35.0616C580.798 35.0616 580.405 34.8573 579.965 34.4485C579.525 34.0398 579.305 33.6625 579.305 33.3166C579.305 33.0651 579.431 32.7821 579.682 32.4677C579.965 32.1219 580.248 31.9489 580.531 31.9489C580.94 31.9489 581.364 32.1376 581.804 32.5149C582.056 32.735 582.26 32.8922 582.418 32.9865C582.606 33.0808 582.811 33.128 583.031 33.128C583.911 33.128 584.839 32.342 585.813 30.7699C586.819 29.1664 587.668 27.2485 588.36 25.0161C589.052 22.7524 589.397 20.7558 589.397 19.0266C589.397 17.5174 588.8 16.7628 587.605 16.7628C586.568 16.7628 585.279 17.5803 583.738 19.2152C582.197 20.8187 580.688 22.7209 579.211 24.9218C577.764 27.0913 576.601 29.0249 575.721 30.7227C575.563 31.0686 575.327 31.5245 575.013 32.0904C574.447 33.2538 574.007 34.0712 573.693 34.5429C573.378 35.0145 573.079 35.2503 572.796 35.2503ZM598.183 35.1088C597.523 35.1088 596.847 34.8573 596.155 34.3542C595.495 33.8511 594.944 33.2223 594.504 32.4677C594.064 31.6817 593.844 30.9271 593.844 30.2039C593.844 28.0659 594.41 25.8022 595.542 23.4126C596.705 20.9916 598.23 18.9637 600.117 17.3287C602.034 15.6938 604.047 14.8763 606.153 14.8763C607.254 14.8763 608.103 15.1121 608.7 15.5837C609.329 16.0239 609.643 16.6527 609.643 17.4702C609.643 19.2624 608.653 20.6615 606.672 21.6676C604.691 22.6737 602.097 23.4755 598.89 24.0729C598.859 24.0729 598.78 24.0886 598.655 24.12C598.529 24.1515 598.419 24.1987 598.324 24.2615C598.261 24.3244 598.214 24.4187 598.183 24.5445C597.523 26.4624 597.192 27.9873 597.192 29.1192C597.192 30.2197 597.397 31.0686 597.806 31.666C598.246 32.2634 598.875 32.562 599.692 32.562C600.698 32.562 601.579 32.3262 602.333 31.8546C603.088 31.383 603.811 30.7699 604.503 30.0153C604.817 29.6694 605.1 29.4965 605.352 29.4965C605.666 29.4965 605.823 29.6537 605.823 29.9681C605.823 30.1253 605.792 30.2511 605.729 30.3454C604.786 31.8861 603.669 33.0651 602.38 33.8826C601.091 34.7001 599.692 35.1088 598.183 35.1088ZM599.22 22.9882C599.849 22.9882 600.793 22.7838 602.05 22.3751C603.308 21.9349 604.424 21.306 605.399 20.4886C606.405 19.6711 606.908 18.6964 606.908 17.5645C606.908 17.1558 606.782 16.8099 606.531 16.527C606.31 16.2126 606.012 16.0553 605.634 16.0553C604.848 16.0553 603.921 16.4955 602.852 17.3759C601.814 18.2562 600.887 19.2466 600.069 20.3471C599.283 21.4475 598.89 22.2336 598.89 22.7052C598.89 22.831 598.922 22.9096 598.985 22.941C599.048 22.9724 599.126 22.9882 599.22 22.9882ZM718.895 29.355C718.738 29.921 718.659 30.4083 718.659 30.8171C718.659 31.5088 718.879 31.8546 719.32 31.8546C719.917 31.8546 720.672 31.5402 721.583 30.9114C722.527 30.2511 723.313 29.4808 723.942 28.6004C724.067 28.4432 724.193 28.3646 724.319 28.3646C724.57 28.3646 724.665 28.4904 724.602 28.7419C724.602 29.3079 724.146 30.1096 723.234 31.1472C722.354 32.1533 721.348 33.0651 720.216 33.8826C719.084 34.6686 718.188 35.0616 717.527 35.0616C717.024 35.0616 716.553 34.8415 716.113 34.4014C715.672 33.9612 715.452 33.4738 715.452 32.9393C715.452 32.7821 715.515 32.3734 715.641 31.7131L716.49 27.8458C716.521 27.6258 716.506 27.4843 716.443 27.4214C716.38 27.3271 716.301 27.3428 716.207 27.4686C714.037 30.2039 712.135 32.1533 710.5 33.3166C708.865 34.48 707.199 35.0616 705.501 35.0616C704.589 35.0616 703.85 34.7472 703.285 34.1184C702.719 33.4896 702.436 32.6721 702.436 31.666C702.436 29.9053 702.986 27.8458 704.086 25.4877C705.218 23.0982 706.649 20.9288 708.378 18.9794C709.604 17.596 710.846 16.527 712.104 15.7724C713.362 14.9863 714.493 14.5933 715.5 14.5933C715.908 14.5933 716.238 14.6562 716.49 14.782C716.773 14.8763 717.339 15.2064 718.188 15.7724C718.942 16.244 719.335 16.4955 719.367 16.527L719.555 16.1968L722.715 5.58538C722.841 5.08232 722.904 4.7679 722.904 4.64214C722.904 4.29629 722.81 4.02903 722.621 3.84039C722.432 3.6203 722.086 3.41593 721.583 3.22728C721.049 3.03863 720.672 2.91287 720.452 2.84998C720.263 2.75566 720.169 2.66134 720.169 2.56701C720.169 2.34692 720.294 2.17399 720.546 2.04823C720.797 1.92246 721.206 1.81242 721.772 1.7181C724.35 1.3408 725.812 1.15215 726.158 1.15215C726.535 1.15215 726.724 1.37224 726.724 1.81242C726.724 2.15827 726.661 2.51985 726.535 2.89714L718.895 29.355ZM707.246 32.845C708.598 32.845 710.17 32.059 711.962 30.4869C713.755 28.8834 715.295 26.9969 716.584 24.8275C717.873 22.6266 718.518 20.6929 718.518 19.0266C718.518 18.1148 718.314 17.4073 717.905 16.9043C717.496 16.3698 716.914 16.1025 716.16 16.1025C714.996 16.1025 713.582 16.9986 711.915 18.7907C710.249 20.5515 708.787 22.6266 707.529 25.0161C706.271 27.4057 705.643 29.4179 705.643 31.0529C705.643 31.7446 705.753 32.2162 705.973 32.4677C706.224 32.7193 706.649 32.845 707.246 32.845ZM731.611 35.0616C730.479 35.0616 729.473 34.5271 728.593 33.4581C727.744 32.3577 727.319 31.1157 727.319 29.7323C727.319 27.7201 727.838 25.5506 728.876 23.224C729.913 20.8659 731.297 18.8851 733.026 17.2816C734.787 15.678 736.658 14.8763 738.638 14.8763C740.179 14.8763 741.389 15.4108 742.27 16.4798C743.15 17.5174 743.59 18.8379 743.59 20.4414C743.59 22.4222 743.072 24.5602 742.034 26.8554C741.028 29.1507 739.597 31.1 737.742 32.7035C735.919 34.2756 733.875 35.0616 731.611 35.0616ZM732.366 33.6468C733.561 33.6468 734.802 32.8293 736.092 31.1944C737.381 29.528 738.45 27.5472 739.299 25.2519C740.148 22.9253 740.572 20.8816 740.572 19.1209C740.572 18.2091 740.415 17.5174 740.1 17.0457C739.817 16.5427 739.299 16.2912 738.544 16.2912C737.381 16.2912 736.154 17.0615 734.865 18.6021C733.576 20.1113 732.492 22.0135 731.611 24.3087C730.762 26.5725 730.338 28.7105 730.338 30.7227C730.338 32.6721 731.014 33.6468 732.366 33.6468ZM749.763 48.0784C746.933 48.0784 744.591 47.6067 742.736 46.6635C740.849 45.7202 739.906 44.4626 739.906 42.8905C739.906 41.9473 740.771 41.0355 742.5 40.1551C744.229 39.2748 746.493 38.3787 749.291 37.4669C749.543 37.3726 749.574 37.2311 749.386 37.0424C748.568 36.3507 747.987 35.8005 747.641 35.3918C747.295 34.983 747.122 34.5586 747.122 34.1184C747.122 33.3638 747.908 32.4048 749.48 31.2415C749.732 31.0214 749.857 30.8328 749.857 30.6756C749.857 30.5812 749.732 30.4869 749.48 30.3926C748.537 29.9524 747.892 29.3865 747.546 28.6948C747.201 28.0031 747.028 27.107 747.028 26.0065C747.028 24.5602 747.436 22.9567 748.254 21.196C749.103 19.4353 750.219 17.9418 751.602 16.7156C753.017 15.4894 754.511 14.8763 756.083 14.8763C756.837 14.8763 757.372 14.9706 757.686 15.1593C758.001 15.3165 758.189 15.4108 758.252 15.4422C758.315 15.4737 758.472 15.568 758.724 15.7252C759.007 15.8824 759.29 15.961 759.573 15.961C759.887 15.961 760.579 15.8667 761.648 15.678C761.868 15.6466 762.261 15.5837 762.827 15.4894C763.393 15.3951 763.849 15.3479 764.195 15.3479C764.415 15.3479 764.635 15.4422 764.855 15.6309C765.106 15.8195 765.232 16.0868 765.232 16.4326C765.232 16.9671 765.138 17.3759 764.949 17.6589C764.792 17.9418 764.603 18.0833 764.383 18.0833C763.912 18.0833 763.236 17.9733 762.355 17.7532C762.135 17.7217 761.868 17.6746 761.554 17.6117C761.271 17.5488 760.988 17.5174 760.705 17.5174C760.202 17.5174 760.013 17.7375 760.139 18.1776C760.264 18.6493 760.327 19.2152 760.327 19.8755C760.327 21.479 759.903 23.1296 759.054 24.8275C758.205 26.5253 757.12 27.9402 755.8 29.0721C754.479 30.2039 753.143 30.7699 751.791 30.7699C751.414 30.7699 751.068 30.9585 750.753 31.3358C750.408 31.776 750.235 32.2319 750.235 32.7035C750.235 33.2695 750.376 33.7411 750.659 34.1184C750.942 34.4642 751.492 34.9201 752.31 35.4861L754.668 37.0424C756.617 38.3001 757.781 39.0704 758.158 39.3534C758.818 39.825 759.29 40.2809 759.573 40.7211C759.856 41.1613 759.997 41.6172 759.997 42.0888C759.997 43.1263 759.463 44.101 758.394 45.0128C757.325 45.9561 755.988 46.6949 754.385 47.2294C752.781 47.7954 751.241 48.0784 749.763 48.0784ZM751.65 29.638C752.53 29.638 753.442 28.9463 754.385 27.5629C755.36 26.1795 756.177 24.5759 756.837 22.7524C757.529 20.8973 757.875 19.451 757.875 18.4134C757.875 17.9104 757.702 17.423 757.356 16.9514C757.042 16.4484 756.664 16.1968 756.224 16.1968C755.312 16.1968 754.354 16.8257 753.347 18.0833C752.373 19.341 751.54 20.8659 750.848 22.658C750.156 24.4502 749.779 26.0223 749.716 27.3742C749.716 27.9716 749.905 28.5061 750.282 28.9777C750.659 29.4179 751.115 29.638 751.65 29.638ZM751.178 46.6635C752.97 46.6635 754.306 46.3491 755.187 45.7202C756.099 45.0914 756.554 44.3211 756.554 43.4093C756.554 42.2774 755.91 41.3185 754.621 40.5324C754.243 40.2809 753.756 39.9665 753.159 39.5892C752.593 39.2119 752.168 38.9446 751.885 38.7874C751.319 38.473 750.879 38.3158 750.565 38.3158C750.282 38.3158 749.889 38.3787 749.386 38.5045C747.374 39.1333 745.833 39.8093 744.764 40.5324C743.695 41.2556 743.16 42.0731 743.16 42.9849C743.16 43.6451 743.553 44.2582 744.339 44.8242C745.125 45.3901 746.132 45.8303 747.358 46.1447C748.615 46.4906 749.889 46.6635 751.178 46.6635ZM766.319 35.0616C765.721 35.0616 765.218 34.8258 764.81 34.3542C764.401 33.8826 764.196 33.3324 764.196 32.7035C764.196 31.8546 764.495 31.1315 765.093 30.5341C765.69 29.9367 766.413 29.638 767.262 29.638C767.859 29.638 768.362 29.8738 768.771 30.3454C769.18 30.8171 769.384 31.3673 769.384 31.9961C769.384 32.845 769.086 33.5682 768.488 34.1656C767.891 34.7629 767.168 35.0616 766.319 35.0616Z" fill="white"/>
<path d="M621.34 35.0616C620.9 35.0616 620.428 34.8415 619.925 34.4014C619.454 33.9612 619.218 33.4896 619.218 32.9865L619.312 32.4206L628.273 6.90592C628.587 6.057 628.745 5.2238 628.745 4.40633C628.745 4.12336 628.587 3.85611 628.273 3.60457C627.99 3.35305 627.628 3.18012 627.188 3.08579C626.497 2.92859 626.151 2.72422 626.151 2.47269C626.151 2.15827 626.245 1.98535 626.434 1.95391C627.314 1.73382 628.446 1.51373 629.829 1.29364C631.213 1.07355 632.093 0.963502 632.47 0.963502C632.628 0.963502 632.753 1.02639 632.848 1.15215C632.973 1.27792 633.036 1.45084 633.036 1.67093C633.036 1.98535 632.942 2.42553 632.753 2.99147L623.227 30.1568C623.069 30.597 622.991 31.0529 622.991 31.5245C622.991 32.0275 623.148 32.2791 623.462 32.2791C624.06 32.2791 624.877 31.8075 625.915 30.8642C626.952 29.8895 627.817 28.9149 628.509 27.9402C628.729 27.6572 628.949 27.4057 629.169 27.1856C629.421 26.9655 629.609 26.8554 629.735 26.8554C629.829 26.8554 629.892 26.9183 629.924 27.0441C629.955 27.1699 629.971 27.3113 629.971 27.4686C629.971 28.4432 629.436 29.528 628.367 30.7227C627.33 31.9175 626.104 32.9393 624.689 33.7883C623.305 34.6372 622.189 35.0616 621.34 35.0616ZM634.316 35.0616C633.719 35.0616 633.168 34.8415 632.665 34.4014C632.162 33.9612 631.911 33.4896 631.911 32.9865C631.911 31.3201 632.728 29.245 634.363 26.7611C636.03 24.2773 638.199 21.872 640.872 19.5453C644.236 16.5898 646.405 15.1121 647.38 15.1121C647.883 15.1121 648.323 15.3322 648.7 15.7724C649.078 16.3069 649.282 16.5741 649.314 16.5741L649.549 16.1968C650.178 15.1278 650.445 14.6562 650.351 14.782C650.54 14.4676 650.728 14.3104 650.917 14.3104C651.357 14.3104 651.766 14.4204 652.143 14.6405C652.521 14.8606 652.709 15.0807 652.709 15.3008C652.709 15.458 652.599 15.851 652.379 16.4798L647.097 30.4869C646.971 30.7699 646.908 31.0371 646.908 31.2887C646.908 31.8232 647.176 32.0904 647.71 32.0904C648.276 32.0904 648.952 31.8232 649.738 31.2887C650.555 30.7227 651.263 30.0467 651.86 29.2607C651.955 29.1035 652.096 29.0249 652.285 29.0249C652.505 29.0249 652.615 29.1978 652.615 29.5437C652.615 29.7638 652.395 30.2039 651.955 30.8642C651.514 31.493 651.059 32.0433 650.587 32.5149C649.707 33.3324 648.81 33.9612 647.899 34.4014C647.018 34.8415 646.201 35.0616 645.446 35.0616C644.943 35.0616 644.472 34.8573 644.031 34.4485C643.623 34.0712 643.418 33.6625 643.418 33.2223C643.418 32.8765 643.513 32.5149 643.701 32.1376C643.513 32.4834 643.544 32.3577 643.796 31.7603C644.079 31.1315 644.409 30.4083 644.786 29.5908C645.195 28.7419 645.572 27.9402 645.918 27.1856C646.075 26.8397 646.138 26.5882 646.107 26.431C646.107 26.2423 646.012 26.2581 645.824 26.4781C642.962 29.6852 640.683 31.9175 638.985 33.1752C637.287 34.4328 635.731 35.0616 634.316 35.0616ZM636.957 32.0904C637.649 32.0904 638.686 31.5245 640.07 30.3926C641.453 29.2293 642.994 27.6258 644.692 25.5821C645.886 24.1987 646.83 22.9253 647.521 21.7619C648.213 20.5986 648.559 19.734 648.559 19.168C648.559 18.9165 648.355 18.6178 647.946 18.272C647.474 17.9261 647.081 17.7532 646.767 17.7532C646.201 17.7532 645.415 18.0362 644.409 18.6021C643.434 19.168 642.538 19.844 641.72 20.6301C640.117 22.2021 638.686 23.9786 637.429 25.9594C636.202 27.9087 635.589 29.4179 635.589 30.4869C635.589 30.9585 635.715 31.3516 635.967 31.666C636.218 31.9489 636.548 32.0904 636.957 32.0904ZM673.634 15.2536C673.634 15.5051 673.493 15.851 673.21 16.2912C672.927 16.7313 672.565 17.1715 672.125 17.6117L659.768 29.7795H659.91C660.539 29.7795 661.12 29.9524 661.655 30.2983C662.221 30.6127 662.897 31.1 663.683 31.7603C664.469 32.3891 665.066 32.845 665.475 33.128C665.915 33.411 666.371 33.5525 666.843 33.5525C667.786 33.5525 668.399 33.1437 668.682 32.3262C668.996 31.5088 669.154 30.4083 669.154 29.0249C669.154 28.459 669.201 28.0974 669.295 27.9402C669.389 27.7515 669.578 27.6572 669.861 27.6572C670.238 27.6572 670.584 27.893 670.899 28.3646C671.244 28.8048 671.417 29.3708 671.417 30.0625C671.417 30.8799 671.024 31.7603 670.238 32.7035C669.484 33.6153 668.603 34.3856 667.597 35.0145C666.591 35.6747 665.805 36.0049 665.239 36.0049C664.547 36.0049 663.887 35.8005 663.258 35.3918C662.661 34.983 661.969 34.4014 661.183 33.6468C660.523 33.0179 660.036 32.5778 659.721 32.3262C659.407 32.0747 659.108 31.9489 658.825 31.9489C657.913 31.9489 657.19 32.2162 656.656 32.7507C656.121 33.2852 655.854 33.9297 655.854 34.6843C655.854 35.1245 655.618 35.3446 655.147 35.3446C655.052 35.3446 654.911 35.1874 654.722 34.873C654.565 34.59 654.486 34.2913 654.486 33.9769C654.486 33.128 654.864 32.342 655.618 31.6188L668.258 19.3567C667.88 19.3252 667.44 19.2152 666.937 19.0266C666.434 18.8379 665.947 18.6178 665.475 18.3663C664.689 17.9575 663.982 17.6589 663.353 17.4702C662.755 17.2501 662.126 17.1401 661.466 17.1401C660.9 17.1401 660.382 17.3759 659.91 17.8475C659.438 18.2877 659.202 18.7436 659.202 19.2152C659.202 19.8755 659.36 20.4414 659.674 20.913C659.8 21.0702 659.863 21.2274 659.863 21.3847C659.863 21.5104 659.8 21.6362 659.674 21.7619C659.485 21.982 659.155 22.2178 658.684 22.4694C658.212 22.6895 657.898 22.7995 657.74 22.7995C657.552 22.7995 657.332 22.658 657.08 22.3751C656.86 22.0606 656.75 21.6676 656.75 21.196C656.75 20.41 656.923 19.7183 657.269 19.1209C657.646 18.5235 658.259 17.8318 659.108 17.0457C659.643 16.5427 660.382 16.0553 661.325 15.5837C662.299 15.1121 663.054 14.8763 663.589 14.8763C664.06 14.8763 664.516 14.9392 664.956 15.0649C665.428 15.1907 666.009 15.3794 666.701 15.6309C666.89 15.6938 667.314 15.8667 667.975 16.1497C668.666 16.4012 669.232 16.527 669.672 16.527C670.113 16.527 670.474 16.4641 670.757 16.3383C671.072 16.1811 671.417 15.9139 671.795 15.5366C672.361 14.9706 672.832 14.6876 673.21 14.6876C673.304 14.6876 673.398 14.7505 673.493 14.8763C673.587 15.0021 673.634 15.1278 673.634 15.2536ZM671.098 48.0784C670.563 48.0784 670.076 47.9054 669.636 47.5596C669.196 47.2137 668.976 46.7264 668.976 46.0975C668.976 45.4687 669.164 44.9185 669.542 44.4469C669.919 43.9753 670.343 43.7394 670.815 43.7394C671.098 43.7394 671.334 43.8023 671.522 43.9281C671.711 44.0539 671.963 44.2582 672.277 44.5412C672.812 45.0128 673.283 45.2486 673.692 45.2486C674.761 45.2486 675.893 44.5726 677.088 43.2207C678.282 41.8687 679.43 40.0922 680.53 37.8914C681.191 36.5079 681.647 34.9516 681.898 33.2223C682.181 31.493 682.323 29.4651 682.323 27.1384C682.323 25.0004 682.165 23.224 681.851 21.8091C681.568 20.3628 681.206 19.3095 680.766 18.6493C680.326 17.989 679.933 17.6589 679.587 17.6589C679.147 17.6589 678.644 18.0204 678.078 18.7436C677.512 19.4353 677.135 20.0956 676.946 20.7244C676.883 20.9759 676.757 21.2746 676.569 21.6205C676.38 21.9349 676.207 22.0921 676.05 22.0921C675.924 22.0921 675.814 21.9663 675.72 21.7148C675.657 21.4318 675.626 21.1174 675.626 20.7715C675.626 19.8597 675.877 18.9479 676.38 18.0362C676.883 17.0929 677.512 16.3383 678.267 15.7724C679.053 15.175 679.791 14.8763 680.483 14.8763C681.961 14.8763 683.014 15.9139 683.643 17.989C684.115 19.4667 684.476 21.0231 684.728 22.658C685.011 24.2615 685.152 26.1795 685.152 28.4118C685.152 29.4179 685.137 30.1882 685.105 30.7227V30.9114C685.105 31.3201 685.168 31.5245 685.294 31.5245C685.451 31.5245 685.624 31.3044 685.813 30.8642C688.516 25.7078 689.868 20.5357 689.868 15.3479C689.868 15.1907 689.978 15.0021 690.199 14.782C690.45 14.5619 690.639 14.4518 690.765 14.4518C691.016 14.4518 691.33 14.6719 691.708 15.1121C692.117 15.5208 692.321 15.9767 692.321 16.4798C692.321 19.4038 691.252 23.0668 689.114 27.4686C686.976 31.8389 684.146 36.1935 680.625 40.5324C678.801 42.7962 677.056 44.6198 675.39 46.0032C673.755 47.3866 672.324 48.0784 671.098 48.0784Z" fill="#9CF159"/>
</svg>
