<svg width="879" height="259" viewBox="0 0 879 259" fill="none" xmlns="http://www.w3.org/2000/svg">
<path d="M54.7805 241.915C54.0097 242.706 53.4697 242.95 53.1604 242.648C52.9198 242.414 52.8318 242.16 52.8962 241.888C52.9598 241.548 53.124 241.104 53.3887 240.558C53.8192 239.704 54.0483 239.022 54.0758 238.513C54.1369 237.969 53.8581 237.395 53.2395 236.792L40.095 223.974C39.1328 223.035 38.363 222.553 37.7856 222.526C37.1738 222.466 36.3464 222.799 35.3033 223.525C35.1013 223.663 34.8139 223.752 34.441 223.79C34.0338 223.795 33.7099 223.681 33.4693 223.446C33.2975 223.278 33.2765 222.956 33.4062 222.479C33.536 222.003 33.6679 221.695 33.802 221.558C34.2712 221.077 34.7747 220.629 35.3126 220.215L36.6711 218.925L51.7013 203.513L53.0572 202.019C53.5247 201.402 53.993 200.853 54.4622 200.372C54.5962 200.235 54.9 200.095 55.3734 199.953C55.8468 199.812 56.1695 199.824 56.3413 199.992C56.5818 200.227 56.7047 200.548 56.7098 200.955C56.6805 201.329 56.5993 201.618 56.4661 201.823C55.7675 202.952 55.4224 203.856 55.431 204.535C55.4386 205.146 55.9236 205.92 56.8858 206.859L69.9788 219.627C70.5974 220.23 71.161 220.512 71.6696 220.471C72.2118 220.397 72.9043 220.133 73.7472 219.681C74.2869 219.403 74.7092 219.245 75.0142 219.207C75.3184 219.102 75.5907 219.166 75.8313 219.401C76.0375 219.602 76.0404 219.839 75.8402 220.113C75.7079 220.387 75.4741 220.695 75.139 221.039C74.3012 221.898 73.5962 222.518 73.0239 222.898C72.419 223.381 71.8149 223.932 71.2117 224.55C70.642 225.134 70.0899 225.769 69.5554 226.455C69.2229 227.002 68.6209 227.723 67.7496 228.616C66.9788 229.406 66.4388 229.651 66.1295 229.349C65.889 229.115 65.8009 228.861 65.8654 228.589C65.929 228.249 66.0932 227.805 66.3578 227.259C66.8554 226.336 67.1515 225.586 67.246 225.007C67.3406 224.429 67.0786 223.838 66.46 223.235L52.6454 209.763C51.3395 208.49 50.4185 208.128 49.8823 208.678L41.8394 216.925C41.2697 217.51 41.6378 218.439 42.9436 219.712L56.7583 233.184C57.3769 233.787 57.974 234.034 58.5497 233.925C59.1253 233.816 59.8681 233.501 60.7781 232.981C61.3177 232.702 61.74 232.544 62.045 232.506C62.3492 232.401 62.6216 232.465 62.8621 232.7C63.0683 232.901 63.0713 233.138 62.8711 233.413C62.7387 233.686 62.505 233.994 62.1699 234.338C61.3321 235.197 60.627 235.817 60.0548 236.197C59.4498 236.68 58.8458 237.231 58.2426 237.849C57.6729 238.434 57.1208 239.069 56.5863 239.754C56.2537 240.301 55.6518 241.022 54.7805 241.915Z" fill="white"/>
<path d="M96.9718 228.195C96.2124 228.858 95.6907 229.026 95.4066 228.701C95.1856 228.448 95.1024 228.17 95.1569 227.867C95.2792 227.57 95.4941 227.159 95.8018 226.635C96.3763 225.688 96.7339 224.93 96.8745 224.361C97.0829 223.797 96.903 223.189 96.3348 222.538L72.3279 195.039C71.7913 194.424 70.9114 193.854 69.6883 193.329C68.4337 192.768 67.3297 192.744 66.3763 193.258C66.2001 193.348 66.0285 193.37 65.8615 193.325C65.6629 193.243 65.4847 193.112 65.3269 192.931C65.0112 192.57 64.9483 192.242 65.1383 191.949C66.4137 190.198 67.4428 188.567 68.2257 187.055C68.977 185.507 69.4138 184.585 69.5361 184.287L69.5972 184.138C69.6695 184.075 69.7892 184.066 69.9562 184.111C70.1232 184.156 70.2541 184.233 70.3488 184.342L71.4714 185.847C71.9311 186.592 72.4136 187.254 72.9186 187.833C73.1712 188.122 73.3313 188.269 73.399 188.274C73.4495 187.529 73.7262 186.459 74.229 185.064C74.7364 183.602 75.3973 182.133 76.2118 180.657C77.0624 179.15 78.012 177.939 79.0607 177.023C80.8325 175.476 82.8135 174.607 85.0037 174.415C87.2301 174.192 89.3993 174.56 91.5115 175.52C93.5921 176.444 95.39 177.773 96.9052 179.509C98.7677 181.642 100.04 184.195 100.723 187.167C101.375 190.103 101.313 193.024 100.537 195.931C99.7303 198.802 98.2239 201.2 96.0182 203.126C95.2226 203.82 94.0885 204.492 92.6157 205.14C91.1745 205.825 89.9956 206.153 89.079 206.125C89.0067 206.188 89.2681 206.597 89.8633 207.352C90.4585 208.107 90.9297 208.683 91.2769 209.081L100.132 219.224C100.605 219.766 101.187 219.959 101.878 219.801C102.601 219.68 103.245 219.469 103.809 219.167C104.442 218.87 104.864 218.66 105.077 218.538C105.637 218.304 106.055 218.163 106.33 218.113C106.673 218.068 106.956 218.173 107.177 218.426C107.461 218.751 107.205 219.261 106.409 219.956C105.433 220.808 104.482 221.543 103.555 222.16C102.552 222.909 101.725 223.567 101.074 224.135C100.496 224.64 99.8402 225.276 99.1078 226.043C98.6239 226.657 97.9119 227.374 96.9718 228.195ZM95.3639 200.734C96.2317 199.977 96.9397 198.817 97.4878 197.255C98.0406 195.626 98.0834 193.741 97.6162 191.6C97.1852 189.427 96.0069 187.238 94.0813 185.033C90.893 181.38 87.9193 179.58 85.1603 179.631C82.4059 179.614 80.1428 180.379 78.371 181.926C77.5755 182.621 76.8655 183.559 76.241 184.741C75.585 185.887 75.1367 186.98 74.8962 188.018C74.6557 189.056 74.6459 189.702 74.8669 189.955C76.2874 191.582 77.9085 193.512 79.7302 195.745C80.3254 196.5 81.0334 197.347 81.8541 198.287C83.0853 199.698 84.5787 200.751 86.3344 201.449C88.0586 202.11 89.7583 202.378 91.4337 202.254C93.0775 202.093 94.3876 201.587 95.3639 200.734Z" fill="white"/>
<path d="M127.553 177.651C125.433 179.224 123.114 180.168 120.597 180.481C118.119 180.766 115.702 180.408 113.345 179.407C111.027 178.378 109.053 176.764 107.423 174.567C105.849 172.447 104.864 169.951 104.466 167.078C104.106 164.177 104.418 161.376 105.402 158.673C106.424 155.943 108.072 153.733 110.346 152.046C112.543 150.416 114.948 149.468 117.561 149.203C120.145 148.899 122.629 149.267 125.015 150.307C127.41 151.279 129.365 152.787 130.881 154.83C132.597 157.143 133.698 159.673 134.183 162.421C134.668 165.169 134.385 167.889 133.335 170.582C132.255 173.235 130.328 175.592 127.553 177.651ZM127.48 175.016C130.371 172.871 131.569 170.337 131.076 167.416C130.731 165.341 129.429 162.781 127.169 159.736C125.796 157.885 124.12 156.35 122.139 155.13C120.158 153.911 118.15 153.219 116.116 153.055C114.081 152.891 112.274 153.395 110.693 154.568C109.575 155.397 108.74 156.286 108.188 157.233C107.636 158.181 107.347 159.322 107.321 160.656C107.285 162.058 107.619 163.514 108.321 165.024C108.995 166.497 109.947 168.062 111.177 169.719C112.607 171.647 114.313 173.22 116.294 174.44C118.246 175.621 120.22 176.308 122.216 176.501C124.222 176.626 125.976 176.131 127.48 175.016Z" fill="white"/>
<path d="M176.43 145.409C174.358 146.62 172.17 147.204 169.865 147.16C167.578 147.052 165.404 146.376 163.344 145.134C161.301 143.826 159.613 142.032 158.281 139.753C156.732 137.1 155.895 134.337 155.772 131.462C155.666 128.522 156.232 125.828 157.471 123.381C158.685 120.893 160.494 118.946 162.898 117.541C165.592 115.967 168.378 115.312 171.256 115.576C171.972 115.658 172.45 115.907 172.692 116.321C173.007 116.86 173.023 117.601 172.741 118.545C172.458 119.488 172.047 120.117 171.509 120.432C171.301 120.553 171.058 120.612 170.778 120.609C170.474 120.564 170.149 120.532 169.804 120.511C168.307 120.329 166.851 120.263 165.435 120.312C164.018 120.362 162.957 120.592 162.253 121.004C160.222 122.191 159.121 124.112 158.951 126.77C158.821 129.402 159.641 132.232 161.408 135.257C162.522 137.163 163.966 138.682 165.739 139.814C167.489 140.905 169.355 141.482 171.338 141.546C173.321 141.611 175.183 141.134 176.924 140.117C178.126 139.415 179.053 138.623 179.705 137.741C180.333 136.818 180.854 135.569 181.268 133.993C181.354 133.665 181.5 133.44 181.708 133.319C181.915 133.198 182.129 133.184 182.35 133.277C182.571 133.37 182.755 133.541 182.9 133.79C183.166 134.245 183.231 135.069 183.094 136.262C182.85 138.128 182.155 139.84 181.009 141.399C179.863 142.958 178.337 144.295 176.43 145.409Z" fill="white"/>
<path d="M206.747 129.038C204.428 130.197 202.078 130.648 199.695 130.39C197.355 130.111 195.166 129.167 193.126 127.557C191.065 125.904 189.337 123.682 187.942 120.892C186.74 118.487 186.171 115.954 186.235 113.293C186.343 110.609 187.04 108.194 188.328 106.048C189.595 103.858 191.344 102.205 193.577 101.089C196.152 99.8009 198.643 99.5218 201.047 100.252C203.472 100.917 205.276 102.43 206.456 104.792C207.122 106.122 206.811 107.11 205.523 107.754L191.935 114.548C191.334 114.849 190.99 115.235 190.904 115.707C190.84 116.115 191.044 116.792 191.516 117.736C192.525 119.754 193.888 121.407 195.606 122.695C197.366 123.961 199.255 124.734 201.273 125.013C203.312 125.228 205.233 124.884 207.036 123.982C209.569 122.716 211.19 120.698 211.898 117.929C211.984 117.457 212.134 117.167 212.349 117.059C212.693 116.888 212.972 117.016 213.186 117.446C213.594 118.262 213.659 119.356 213.38 120.73C213.058 122.447 212.306 124.057 211.126 125.56C209.924 127.02 208.464 128.179 206.747 129.038ZM196.925 109.557C198.943 108.548 200.478 107.647 201.53 106.852C201.852 106.638 201.787 106.08 201.337 105.178C200.714 103.933 199.63 103.16 198.084 102.86C196.56 102.495 195.047 102.688 193.544 103.439C192.6 103.912 191.763 104.706 191.033 105.822C190.325 106.874 189.863 107.99 189.648 109.171C189.434 110.352 189.541 111.371 189.97 112.23C190.185 112.659 190.55 112.745 191.065 112.488L196.925 109.557Z" fill="white"/>
<path d="M243.425 112.662C242.802 112.914 242.15 112.711 241.47 112.055L224.361 95.6749C224.101 95.4174 223.927 95.3066 223.838 95.3426C223.704 95.3966 223.678 95.5883 223.76 95.9178C223.869 96.4433 224.618 98.8069 226.007 103.009C227.44 107.193 228.508 110.281 229.211 112.275C229.535 113.076 229.938 113.561 230.42 113.728C230.902 113.896 231.619 113.942 232.573 113.867C233.179 113.829 233.629 113.854 233.924 113.942C234.245 113.967 234.468 114.136 234.594 114.447C234.756 114.848 234.392 115.228 233.502 115.588C232.39 116.038 231.495 116.322 230.818 116.441C230.07 116.64 229.296 116.901 228.495 117.225C227.783 117.513 227.178 117.809 226.68 118.114C226.333 118.41 225.648 118.765 224.625 119.179C223.735 119.539 223.209 119.518 223.047 119.118C222.939 118.851 222.969 118.606 223.138 118.382C223.306 118.159 223.506 117.948 223.737 117.751C224.012 117.536 224.208 117.38 224.323 117.281C225.15 116.636 225.745 116.059 226.108 115.55C226.498 114.978 226.576 114.273 226.341 113.436L221.11 95.1258C220.532 93.1849 219.054 92.4106 216.675 92.803C216.239 92.876 215.797 92.8732 215.352 92.7947C214.95 92.6982 214.686 92.4942 214.56 92.1827C214.416 91.8268 214.812 91.4598 215.746 91.0818L217.869 90.3784L219.926 89.702L222.635 88.5284C222.947 88.4025 223.344 88.5525 223.827 88.9785L240.88 104.449C241.3 104.849 241.599 105.012 241.777 104.94C241.911 104.886 241.986 104.623 242.002 104.151L242.744 85.0553L242.751 83.3438C242.726 81.4899 242.802 80.527 242.98 80.455L245.183 79.5641C246.118 79.1862 247.145 78.7187 248.266 78.1618C249.414 77.5424 250.076 77.1967 250.254 77.1247C251.144 76.7647 251.67 76.785 251.832 77.1855C252.048 77.7194 251.698 78.3269 250.783 79.0078C249.983 79.5903 249.388 80.1675 248.998 80.7394C248.59 81.2669 248.539 81.9089 248.845 82.6653C250.177 85.9582 251.817 89.5663 253.767 93.4896L257.218 100.87C257.586 101.653 258.056 102.11 258.627 102.242C259.242 102.355 260.103 102.37 261.207 102.285C261.813 102.247 262.264 102.272 262.558 102.36C262.879 102.386 263.103 102.554 263.229 102.866C263.391 103.266 263.027 103.647 262.137 104.007C260.98 104.475 259.996 104.795 259.186 104.967C258.171 105.274 257.307 105.572 256.595 105.86C255.883 106.148 255.056 106.534 254.113 107.019C253.41 107.458 252.481 107.912 251.324 108.38C250.434 108.74 249.908 108.72 249.746 108.319C249.62 108.008 249.641 107.74 249.809 107.517C250.004 107.231 250.333 106.891 250.795 106.497C251.621 105.852 252.172 105.293 252.446 104.819C252.765 104.328 252.754 103.659 252.412 102.814C250.18 97.2961 247.919 92.1528 245.628 87.384C245.448 86.939 245.269 86.7525 245.091 86.8245C244.913 86.8965 244.82 87.2445 244.814 87.8684L244.128 111.135C244.112 111.608 244.042 111.947 243.918 112.152C243.856 112.384 243.692 112.554 243.425 112.662Z" fill="white"/>
<path d="M271.769 100.925C270.67 101.27 270.056 101.237 269.926 100.825C269.826 100.504 269.868 100.239 270.054 100.03C270.271 99.7604 270.626 99.4478 271.118 99.0922C272.04 98.5012 272.679 97.9736 273.036 97.5093C273.379 96.9992 273.421 96.3319 273.163 95.5076L267.256 76.6846C266.983 75.8144 266.613 75.2766 266.146 75.0709C265.665 74.8195 264.999 74.7015 264.148 74.7168C263.541 74.7061 263.079 74.6751 262.761 74.624C262.474 74.5126 262.281 74.2967 262.18 73.9761C262.051 73.5639 262.49 73.1997 263.497 72.8836C264.642 72.5243 265.511 72.3271 266.104 72.292C266.865 72.1537 267.635 71.9623 268.414 71.718C269.147 71.4881 269.911 71.1979 270.707 70.8477C271.259 70.5234 272.085 70.1889 273.184 69.8439C274.283 69.499 274.897 69.5326 275.026 69.9448C275.127 70.2654 275.069 70.5604 274.851 70.8298C274.666 71.0391 274.327 71.3215 273.834 71.6772C273.051 72.225 272.487 72.754 272.144 73.2641C271.832 73.7141 271.806 74.3512 272.065 75.1756L274.242 82.114C274.3 82.2971 274.411 82.413 274.578 82.4615C274.789 82.4956 274.95 82.4453 275.058 82.3106C275.367 82.0124 275.965 81.6738 276.853 81.2948C277.786 80.9014 278.664 80.5753 279.489 80.3166C280.725 79.9286 282.162 79.7794 283.8 79.8691C285.424 79.913 286.957 80.3879 288.398 81.2939C289.871 82.1397 290.909 83.5244 291.513 85.4479C292.418 88.3332 291.987 90.8077 290.22 92.8715C288.453 94.9353 285.852 96.5061 282.417 97.584C281.226 97.9577 280.266 98.1836 279.536 98.2618C278.591 98.4576 277.729 98.6777 276.951 98.922C276.172 99.1663 275.339 99.478 274.452 99.857C273.808 100.21 272.914 100.566 271.769 100.925ZM282.5 95.4449C284.149 94.9275 285.404 93.9553 286.264 92.5283C287.11 91.0555 287.231 89.3573 286.627 87.4338C285.923 85.1897 284.856 83.7134 283.426 83.005C282.028 82.2364 280.23 82.197 278.031 82.8869C276.795 83.2749 275.975 83.7083 275.572 84.1869C275.354 84.4564 275.25 84.7657 275.259 85.1151C275.3 85.4042 275.385 85.7549 275.514 86.1671L277.756 93.3116C278.072 94.3191 278.713 94.9984 279.678 95.3495C280.644 95.7005 281.584 95.7323 282.5 95.4449Z" fill="white"/>
<path d="M335.776 84.7259C333.424 85.2032 331.164 85.0495 328.997 84.2648C326.867 83.4236 325.028 82.0826 323.479 80.2419C321.967 78.3445 320.949 76.1023 320.424 73.515C319.813 70.5043 319.913 67.6188 320.724 64.8583C321.573 62.0413 322.978 59.6745 324.941 57.7581C326.893 55.7945 329.234 54.536 331.962 53.9823C335.02 53.3619 337.868 53.641 340.507 54.8197C341.158 55.1286 341.53 55.5182 341.626 55.9886C341.75 56.6001 341.526 57.3068 340.954 58.1085C340.382 58.9103 339.79 59.3732 339.179 59.4973C338.944 59.545 338.694 59.5222 338.43 59.4288C338.157 59.2884 337.86 59.1527 337.539 59.0218C336.182 58.3667 334.825 57.8339 333.468 57.4235C332.112 57.0131 331.033 56.889 330.234 57.0513C327.929 57.519 326.267 58.9828 325.247 61.4426C324.275 63.8929 324.138 66.835 324.834 70.269C325.273 72.4329 326.15 74.3367 327.463 75.9804C328.766 77.5771 330.346 78.7258 332.203 79.4267C334.059 80.1275 335.975 80.2774 337.951 79.8765C339.315 79.5997 340.448 79.1494 341.35 78.5256C342.243 77.8547 343.139 76.8402 344.039 75.4821C344.226 75.1992 344.437 75.0339 344.673 74.9861C344.908 74.9384 345.115 74.9943 345.294 75.1538C345.474 75.3134 345.592 75.5343 345.649 75.8165C345.754 76.334 345.549 77.1347 345.035 78.2187C344.202 79.9061 342.991 81.3027 341.403 82.4085C339.816 83.5144 337.94 84.2868 335.776 84.7259Z" fill="white"/>
<path d="M376.432 78.3086C375.764 78.389 375.189 78.0233 374.704 77.2115L362.469 56.9295C362.286 56.6132 362.147 56.4608 362.052 56.4722C361.909 56.4895 361.834 56.6677 361.826 57.0071C361.794 57.5428 361.899 60.02 362.142 64.4387C362.432 68.8517 362.655 72.1124 362.813 74.2207C362.916 75.0785 363.178 75.6512 363.6 75.9388C364.021 76.2265 364.702 76.4587 365.642 76.6355C366.237 76.7572 366.665 76.899 366.926 77.061C367.229 77.1695 367.401 77.3905 367.441 77.7241C367.493 78.153 367.042 78.4249 366.089 78.5397C364.898 78.6833 363.96 78.7238 363.275 78.6612C362.501 78.6578 361.685 78.7078 360.828 78.8112C360.065 78.903 359.404 79.0311 358.843 79.1953C358.432 79.39 357.678 79.5533 356.582 79.6854C355.629 79.8003 355.126 79.6433 355.075 79.2144C355.04 78.9284 355.133 78.6996 355.354 78.528C355.576 78.3563 355.823 78.2055 356.098 78.0758C356.42 77.9403 356.649 77.8401 356.787 77.7752C357.753 77.3687 358.478 76.967 358.962 76.5703C359.488 76.1201 359.747 75.4604 359.739 74.5911L359.475 55.5499C359.424 53.5254 358.2 52.3918 355.802 52.149C355.361 52.1053 354.936 51.9874 354.526 51.795C354.164 51.597 353.963 51.3311 353.922 50.9975C353.876 50.6163 354.354 50.3654 355.355 50.2448L357.588 50.1207L359.75 50.0052L362.672 49.5806C363.005 49.5404 363.349 49.789 363.704 50.3264L376.121 69.716C376.423 70.2115 376.669 70.4478 376.859 70.4248C377.002 70.4076 377.143 70.173 377.282 69.7212L382.989 51.4834L383.443 49.8332C383.904 48.0372 384.229 47.1278 384.42 47.1048L386.779 46.8205C387.779 46.6999 388.894 46.5173 390.121 46.2727C391.391 45.9747 392.121 45.8142 392.311 45.7912C393.264 45.6763 393.767 45.8333 393.818 46.2622C393.887 46.8341 393.391 47.329 392.329 47.7471C391.405 48.1002 390.68 48.5018 390.154 48.952C389.622 49.3545 389.405 49.9608 389.503 50.771C389.928 54.2974 390.568 58.2089 391.425 62.5053L392.827 70.5312C392.978 71.3832 393.312 71.9474 393.829 72.2235C394.393 72.4939 395.219 72.7328 396.308 72.94C396.903 73.0617 397.331 73.2035 397.592 73.3654C397.895 73.4739 398.067 73.695 398.107 74.0286C398.159 74.4575 397.708 74.7293 396.755 74.8442C395.516 74.9935 394.483 75.0455 393.656 75.0002C392.596 75.0312 391.684 75.0926 390.922 75.1845C390.159 75.2764 389.26 75.4332 388.223 75.6548C387.43 75.8954 386.414 76.0904 385.175 76.2397C384.222 76.3546 383.719 76.1975 383.668 75.7686C383.628 75.4351 383.718 75.1824 383.939 75.0107C384.202 74.7857 384.608 74.5434 385.157 74.2838C386.123 73.8773 386.801 73.4814 387.189 73.0961C387.626 72.7051 387.789 72.0569 387.68 71.1514C386.968 65.2422 386.129 59.6866 385.164 54.4847C385.107 54.0082 384.983 53.7814 384.792 53.8044C384.601 53.8273 384.421 54.1391 384.252 54.7397L377.509 77.0185C377.37 77.4703 377.214 77.7792 377.041 77.9452C376.921 78.153 376.718 78.2742 376.432 78.3086Z" fill="white"/>
<path d="M418.771 74.7787C416.181 74.8839 413.852 74.33 411.785 73.1169C409.766 71.9019 408.158 70.1417 406.959 67.8365C405.759 65.4833 405.095 62.7479 404.968 59.6305C404.859 56.9447 405.38 54.4015 406.532 52.0007C407.731 49.5981 409.359 47.6824 411.415 46.2538C413.468 44.7772 415.742 43.9882 418.236 43.8869C421.114 43.77 423.499 44.5378 425.392 46.1903C427.33 47.793 428.353 49.9132 428.46 52.551C428.521 54.0378 427.832 54.8104 426.393 54.8689L411.213 55.4856C410.542 55.5129 410.07 55.7242 409.798 56.1196C409.572 56.465 409.48 57.1653 409.523 58.2205C409.614 60.4746 410.179 62.5414 411.216 64.4208C412.301 66.2983 413.706 67.7785 415.432 68.8614C417.203 69.8943 419.096 70.3699 421.11 70.288C423.94 70.173 426.246 68.9985 428.029 66.7642C428.301 66.3689 428.557 66.1663 428.797 66.1566C429.181 66.141 429.382 66.373 429.402 66.8526C429.439 67.7638 429.048 68.7885 428.23 69.9267C427.231 71.3604 425.885 72.52 424.191 73.4055C422.496 74.243 420.689 74.7008 418.771 74.7787ZM417.813 52.9836C420.067 52.892 421.837 52.7 423.122 52.4076C423.504 52.3441 423.674 51.8087 423.633 50.8015C423.577 49.4107 422.906 48.261 421.62 47.3524C420.38 46.394 418.92 45.9488 417.242 46.017C416.187 46.0599 415.097 46.4405 413.973 47.1587C412.896 47.827 412.017 48.6553 411.336 49.6438C410.656 50.6322 410.335 51.606 410.374 52.5652C410.393 53.0449 410.691 53.273 411.267 53.2496L417.813 52.9836Z" fill="white"/>
<path d="M439.089 93.5643C438.081 93.5319 437.585 93.2998 437.598 92.8681C437.609 92.5322 437.738 92.2722 437.984 92.088C438.276 91.9533 438.713 91.7993 439.295 91.6259C440.361 91.324 441.14 91.0128 441.63 90.6924C442.167 90.4215 442.45 89.8542 442.477 88.9907L443.649 52.5055C443.675 51.6899 443.42 50.6732 442.883 49.4553C442.347 48.1895 441.555 47.4197 440.508 47.1459C440.317 47.0917 440.176 46.9912 440.085 46.8442C439.995 46.6492 439.954 46.4317 439.962 46.1919C439.977 45.7121 440.155 45.4297 440.494 45.3445C442.62 44.9325 444.485 44.4401 446.088 43.8673C447.693 43.2465 448.641 42.8688 448.934 42.7341L449.08 42.6668C449.176 42.6698 449.269 42.7449 449.361 42.8919C449.452 43.0389 449.495 43.1844 449.491 43.3283L449.287 45.1947C449.115 46.0536 449.017 46.8669 448.992 47.6345C448.98 48.0183 448.997 48.235 449.044 48.2845C449.588 47.7737 450.52 47.1793 451.838 46.5013C453.206 45.7768 454.691 45.1522 456.293 44.6273C457.942 44.104 459.463 43.8647 460.854 43.9094C463.205 43.9849 465.247 44.6988 466.98 46.0511C468.762 47.405 470.099 49.1528 470.99 51.2946C471.883 53.3883 472.293 55.5866 472.219 57.8894C472.128 60.72 471.32 63.4554 469.794 66.0958C468.27 68.6882 466.234 70.7839 463.685 72.3829C461.138 73.934 458.402 74.6625 455.475 74.5685C454.42 74.5346 453.132 74.2531 451.612 73.7241C450.091 73.243 449.004 72.6798 448.353 72.0345C448.257 72.0315 448.169 72.5089 448.091 73.4669C448.012 74.4248 447.964 75.1677 447.947 75.6954L447.515 89.1525C447.492 89.8721 447.787 90.4098 448.399 90.7657C449.011 91.1695 449.626 91.4534 450.245 91.6174C450.911 91.8309 451.362 91.9654 451.601 92.0211C452.17 92.2315 452.573 92.4125 452.808 92.5642C453.09 92.7653 453.225 93.0338 453.214 93.3696C453.201 93.8014 452.666 94.0003 451.61 93.9664C450.315 93.9248 449.118 93.8143 448.019 93.635C446.775 93.499 445.721 93.4171 444.857 93.3894C444.09 93.3647 443.177 93.3834 442.118 93.4454C441.346 93.5647 440.336 93.6043 439.089 93.5643ZM456.626 72.3723C457.778 72.4093 459.086 72.0431 460.551 71.2738C462.066 70.458 463.382 69.1075 464.5 67.2224C465.665 65.3388 466.294 62.9338 466.388 60.0073C466.544 55.1618 465.595 51.8176 463.541 49.9747C461.536 48.0854 459.359 47.103 457.008 47.0275C455.953 46.9936 454.793 47.1965 453.531 47.6362C452.269 48.0279 451.197 48.5217 450.313 49.1177C449.43 49.7136 448.983 50.1795 448.972 50.5153C448.903 52.6742 448.774 55.1914 448.585 58.0668C448.506 59.0248 448.447 60.1274 448.407 61.3748C448.347 63.2458 448.722 65.0348 449.531 66.7417C450.342 68.4005 451.404 69.7553 452.714 70.8059C454.027 71.8086 455.331 72.3307 456.626 72.3723Z" fill="white"/>
<path d="M488.24 75.8029C487.142 75.6863 486.616 75.4133 486.661 74.9837C486.697 74.6496 486.841 74.4236 487.095 74.3057C487.402 74.1452 487.852 73.9999 488.445 73.8697C489.478 73.6898 490.253 73.4342 490.771 73.103C491.336 72.7769 491.667 72.1604 491.764 71.2535L493.823 51.8505C493.986 50.3231 493.78 49.529 493.208 49.4682L488.912 49.0121C487.862 48.9006 487.041 49.1273 486.45 49.6921C485.912 50.2142 485.342 51.2639 484.74 52.8411C484.599 53.2606 484.341 53.6435 483.967 53.9899C483.592 54.3363 483.237 54.4917 482.903 54.4563C482.712 54.436 482.556 54.3228 482.433 54.1167C482.31 53.9105 482.266 53.6404 482.301 53.3063C482.317 53.1631 482.392 52.9056 482.528 52.5339C482.8 51.7905 483.098 50.8084 483.42 49.5876C483.748 48.3191 483.955 47.2792 484.041 46.4677C484.132 45.6085 484.536 45.217 485.252 45.293C485.586 45.3284 485.96 45.4406 486.375 45.6294C486.794 45.7705 487.166 45.9065 487.49 46.0374C488.695 46.5033 489.871 46.797 491.016 46.9186L505.766 48.4844C507.532 48.6719 508.571 48.6615 508.882 48.4533C509.088 48.3303 509.342 48.2125 509.644 48.0997C509.945 47.9869 510.168 47.9381 510.311 47.9533C510.454 47.9685 510.609 48.1056 510.774 48.3645C510.945 48.5757 511.015 48.8245 510.985 49.1109C510.949 49.445 510.848 49.9411 510.682 50.5992C510.505 51.3528 510.392 51.9682 510.341 52.4456C510.25 53.3047 510.181 54.4076 510.134 55.7543L510.119 55.8975C510.084 56.2316 509.953 56.5556 509.726 56.8694C509.553 57.1406 509.323 57.261 509.037 57.2306C508.702 57.1951 508.436 56.9738 508.238 56.5666C508.093 56.1167 508.017 55.6984 508.009 55.3114C508.07 52.4699 506.883 50.92 504.448 50.6615L500.152 50.2055C499.437 50.1295 498.997 50.8552 498.835 52.3826L496.768 71.8571C496.677 72.7163 496.873 73.3647 497.358 73.8023C497.847 74.1922 498.599 74.6099 499.614 75.0555C500.167 75.3072 500.552 75.5412 500.77 75.7575C501.042 75.9311 501.16 76.1849 501.124 76.5191C501.078 76.9487 500.507 77.1052 499.409 76.9886C498.168 76.8569 497.197 76.6814 496.496 76.4622C495.552 76.2654 494.674 76.1239 493.862 76.0378C493.051 75.9516 492.163 75.9056 491.198 75.8997C490.467 75.9669 489.481 75.9346 488.24 75.8029Z" fill="white"/>
<path d="M516.896 79.1128C515.809 78.9158 515.305 78.6048 515.382 78.1797C515.442 77.8491 515.603 77.6344 515.865 77.5355C516.182 77.398 516.642 77.2862 517.243 77.2C518.333 77.1051 519.144 76.9352 519.677 76.6902C520.217 76.3981 520.565 75.8269 520.719 74.9768L524.24 55.5655C524.394 54.7153 524.265 54.0821 523.853 53.6659C523.496 53.2109 522.895 52.7604 522.049 52.3143C521.516 52.0226 521.121 51.7802 520.864 51.5871C520.662 51.3553 520.591 51.0742 520.651 50.7436C520.728 50.3185 521.31 50.2045 522.396 50.4015C523.624 50.6242 524.532 50.8621 525.12 51.1151C525.953 51.3638 526.771 51.5609 527.574 51.7066C528.33 51.8436 529.141 51.942 530.008 52.0017C530.648 51.9714 531.558 52.0633 532.739 52.2775C533.825 52.4745 534.33 52.7855 534.253 53.2106C534.193 53.5412 534.004 53.7753 533.686 53.9128C533.425 54.0117 532.993 54.1042 532.392 54.1903C531.443 54.3109 530.699 54.5173 530.158 54.8095C529.673 55.063 529.353 55.6148 529.199 56.4649L527.85 63.9036C527.798 64.1869 528.009 64.3715 528.481 64.4571L541.658 66.8471C541.894 66.8899 542.047 66.7224 542.115 66.3446L543.439 59.0476C543.593 58.1975 543.492 57.545 543.135 57.09C542.826 56.6437 542.268 56.2253 541.46 55.835C540.928 55.5433 540.533 55.3009 540.275 55.1078C540.073 54.876 540.002 54.5949 540.062 54.2643C540.113 53.9809 540.285 53.8413 540.577 53.8454C540.925 53.8109 541.335 53.8365 541.807 53.9222C542.941 54.1278 543.825 54.3614 544.461 54.623C545.294 54.8716 546.088 55.0645 546.844 55.2016C547.647 55.3472 548.482 55.4499 549.349 55.5096C550.036 55.4878 550.97 55.584 552.15 55.7982C552.623 55.8838 552.992 55.9996 553.258 56.1455C553.58 56.2527 553.716 56.4479 553.664 56.7313C553.604 57.0619 553.415 57.296 553.098 57.4335C552.836 57.5324 552.404 57.6249 551.803 57.711C550.807 57.823 550.015 58.0209 549.427 58.3045C548.895 58.5494 548.552 59.097 548.398 59.9471L544.877 79.3584C544.723 80.2085 544.876 80.846 545.335 81.2708C545.795 81.6957 546.514 82.1676 547.493 82.6867C548.026 82.9784 548.393 83.2401 548.595 83.4719C548.852 83.665 548.951 83.9268 548.891 84.2574C548.814 84.6825 548.232 84.7965 547.146 84.5995C545.918 84.3767 544.963 84.1303 544.28 83.8601C543.353 83.5943 542.487 83.3886 541.685 83.243C540.882 83.0974 539.999 82.9861 539.038 82.9093C538.303 82.9225 537.322 82.8177 536.094 82.595C535.008 82.398 534.504 82.0869 534.581 81.6619C534.641 81.3312 534.802 81.1165 535.063 81.0177C535.381 80.8801 535.84 80.7683 536.441 80.6822C537.485 80.5787 538.272 80.4045 538.805 80.1595C539.393 79.8759 539.764 79.3091 539.918 78.4589L541.524 69.6034C541.55 69.4617 541.543 69.363 541.505 69.3072C541.466 69.2514 541.399 69.2149 541.305 69.1978L527.561 66.705C527.467 66.6879 527.387 66.7223 527.323 66.8082C527.306 66.9026 527.284 67.0207 527.259 67.1624L525.678 75.8762C525.524 76.7264 525.653 77.3596 526.065 77.7758C526.525 78.2007 527.268 78.6769 528.294 79.2045C528.827 79.4962 529.194 79.758 529.396 79.9897C529.654 80.1828 529.752 80.4446 529.692 80.7753C529.615 81.2003 529.034 81.3143 527.947 81.1173C526.719 80.8946 525.764 80.6481 525.081 80.378C524.154 80.1122 523.289 79.9065 522.486 79.7608C521.683 79.6152 520.801 79.504 519.839 79.4271C519.105 79.4403 518.124 79.3355 516.896 79.1128Z" fill="white"/>
<path d="M558.589 87.0223C557.478 86.7181 556.979 86.3576 557.093 85.941C557.182 85.6169 557.361 85.4171 557.63 85.3416C557.959 85.2325 558.426 85.1614 559.033 85.1283C560.127 85.1294 560.95 85.0313 561.502 84.8339C562.066 84.5903 562.463 84.0519 562.691 83.2185L567.9 64.1908C568.141 63.3112 568.121 62.6587 567.839 62.2332C567.57 61.7614 567.074 61.302 566.35 60.8551C565.845 60.5178 565.473 60.2417 565.233 60.0267C565.053 59.7782 565.007 59.4918 565.095 59.1678C565.209 58.7511 565.776 58.6822 566.794 58.9611C567.952 59.278 568.789 59.5819 569.307 59.8729C570.022 60.1683 570.773 60.4237 571.56 60.6392C572.301 60.842 573.101 61.0112 573.959 61.1468C574.599 61.1727 575.475 61.3378 576.586 61.642C577.697 61.9462 578.195 62.3066 578.081 62.7233C577.993 63.0474 577.784 63.264 577.456 63.3731C577.186 63.4486 576.748 63.5029 576.142 63.536C575.186 63.5729 574.426 63.7132 573.862 63.9568C573.356 64.1668 572.99 64.6885 572.762 65.5218L570.841 72.5356C570.79 72.7208 570.822 72.8787 570.935 73.0093C571.095 73.1526 571.257 73.197 571.422 73.1424C571.843 73.0587 572.529 73.0972 573.48 73.2581C574.478 73.4317 575.393 73.6326 576.226 73.8608C577.476 74.203 578.766 74.8547 580.095 75.8159C581.437 76.7308 582.47 77.959 583.192 79.5005C583.974 81.0085 584.098 82.7346 583.566 84.6791C582.768 87.5957 581.067 89.4443 578.465 90.2247C575.862 91.0052 572.825 90.9201 569.352 89.9694C568.149 89.6398 567.219 89.3105 566.562 88.9815C565.662 88.6354 564.818 88.3546 564.031 88.1391C563.244 87.9236 562.375 87.7354 561.423 87.5745C560.691 87.5232 559.746 87.3392 558.589 87.0223ZM570.579 88.2151C572.246 88.6714 573.827 88.5319 575.322 87.7967C576.83 87.0152 577.85 85.6522 578.383 83.7077C579.004 81.4392 578.904 79.6205 578.085 78.2514C577.324 76.8488 575.833 75.8433 573.611 75.2348C572.361 74.8926 571.437 74.8138 570.839 74.9984C570.51 75.1075 570.255 75.3115 570.074 75.6102C569.952 75.8753 569.833 76.2162 569.719 76.6328L567.742 83.855C567.463 84.8735 567.635 85.7915 568.257 86.6088C568.879 87.4261 569.653 87.9616 570.579 88.2151ZM583.38 93.8101C582.454 93.5566 582.048 93.2215 582.162 92.8048C582.251 92.4808 582.43 92.281 582.7 92.2055C583.028 92.0963 583.496 92.0252 584.102 91.9922C585.209 91.9469 586.039 91.8257 586.59 91.6284C587.188 91.4437 587.601 90.9347 587.83 90.1014L592.925 71.4904C593.204 70.4719 593.205 69.651 592.928 69.0276C592.65 68.4043 592.091 67.9027 591.249 67.523C590.812 67.3037 590.456 67.057 590.183 66.7831C589.968 66.4756 589.906 66.1598 589.994 65.8357C590.108 65.419 590.628 65.3375 591.554 65.591C592.712 65.9079 593.596 66.2245 594.206 66.5408C595.014 66.8616 595.788 67.1234 596.529 67.3262C597.316 67.5417 598.185 67.7299 599.136 67.8908C599.961 67.9674 600.976 68.1705 602.179 68.5C603.105 68.7536 603.511 69.0887 603.397 69.5053C603.308 69.8294 603.07 70.0628 602.683 70.2056C602.354 70.3147 601.946 70.3522 601.458 70.318C599.517 70.135 598.293 70.9695 597.786 72.8213L592.691 91.4324C592.462 92.2657 592.535 92.9078 592.91 93.3586C593.33 93.8221 594.005 94.3553 594.935 94.9583C595.44 95.2956 595.783 95.5885 595.964 95.837C596.203 96.052 596.279 96.3215 596.19 96.6456C596.076 97.0622 595.556 97.1438 594.63 96.8903C593.426 96.5607 592.45 96.2188 591.701 95.8644C590.708 95.4929 589.841 95.2058 589.1 95.003C588.36 94.8002 587.467 94.6056 586.423 94.4194C585.645 94.3554 584.63 94.1524 583.38 93.8101Z" fill="white"/>
<path d="M604.787 100.408C603.885 100.08 603.507 99.7128 603.655 99.3068C603.77 98.991 603.995 98.792 604.331 98.7099C604.668 98.6278 605.108 98.6092 605.654 98.6541C606.503 98.7072 607.364 98.5859 608.237 98.2904C609.127 97.9497 610.244 97.3343 611.589 96.4439L619.431 91.0959C619.816 90.8785 620.058 90.6344 620.156 90.3637C620.238 90.1381 620.23 89.8798 620.131 89.5886L617.655 79.1136C617.442 78.0146 617.183 77.1802 616.879 76.6102C616.621 76.0567 616.186 75.5668 615.575 75.1405C615.128 74.8248 614.802 74.5276 614.597 74.2488C614.391 73.97 614.346 73.6727 614.461 73.3569C614.608 72.9509 615.133 72.9118 616.036 73.2396C616.983 73.5837 617.801 73.9321 618.49 74.2845C619.36 74.7025 620.359 75.1164 621.487 75.5262L623.271 76.0977C623.603 76.1673 624.175 76.3496 624.987 76.6446L625.19 76.7184C626.092 77.0462 626.47 77.4131 626.322 77.8191C626.24 78.0447 626.062 78.1842 625.787 78.2376C625.558 78.3074 625.215 78.3362 624.76 78.324C624.26 78.2955 623.841 78.3223 623.505 78.4044C623.23 78.4578 623.036 78.6424 622.921 78.9582C622.741 79.4545 622.772 80.2828 623.014 81.4433L624.431 87.2436C624.496 87.625 624.699 87.6987 625.04 87.4649L630.384 83.5079C630.925 83.1427 631.286 82.712 631.466 82.2158C631.663 81.6744 631.501 81.2069 630.98 80.8134C630.504 80.4363 630.155 80.1308 629.934 79.8972C629.774 79.6348 629.751 79.3456 629.866 79.0298C630.013 78.6238 630.538 78.5847 631.44 78.9125C631.666 78.9944 632.169 79.228 632.948 79.6133C633.789 79.9698 634.457 80.2382 634.953 80.4185C635.946 80.779 636.842 81.0535 637.642 81.2419C638.458 81.3852 639.024 81.5142 639.34 81.6289C640.242 81.9567 640.619 82.3236 640.472 82.7297C640.357 83.0455 640.132 83.2444 639.795 83.3266C639.521 83.3799 639.08 83.3985 638.473 83.3823C636.078 83.2272 634.091 83.7056 632.513 84.8175L625.914 89.6976C625.635 89.9027 625.551 90.2041 625.662 90.6019L628.342 103.679C628.572 104.733 628.861 105.553 629.21 106.139C629.559 106.725 630.03 107.254 630.625 107.726C631.072 108.041 631.398 108.339 631.604 108.617C631.809 108.896 631.854 109.194 631.739 109.509C631.592 109.915 631.067 109.954 630.164 109.627C629.307 109.315 628.489 108.967 627.71 108.582C626.84 108.164 625.796 107.733 624.578 107.291L622.05 106.449C621.447 106.281 620.627 106.009 619.589 105.632C618.551 105.255 618.114 104.841 618.278 104.389C618.409 104.029 618.643 103.807 618.979 103.725C619.332 103.598 619.826 103.573 620.462 103.651C621.856 103.749 622.684 103.437 622.947 102.715C623.078 102.354 623.09 101.899 622.983 101.349L621.351 93.4021C621.322 93.3406 621.262 93.2935 621.172 93.2607C621.082 93.2279 621.006 93.2259 620.945 93.2546L614.044 98.3316C613.704 98.5655 613.436 98.9531 613.239 99.4945C613.124 99.8103 613.077 100.151 613.098 100.516C613.18 100.852 613.362 101.123 613.645 101.327C614.121 101.705 614.439 102.024 614.599 102.287C614.821 102.52 614.874 102.795 614.759 103.111C614.612 103.517 614.087 103.556 613.185 103.228C612.914 103.13 612.426 102.927 611.72 102.62C611.06 102.329 610.301 102.028 609.444 101.716C608.858 101.503 607.795 101.194 606.257 100.788C605.593 100.649 605.103 100.522 604.787 100.408Z" fill="white"/>
<path d="M657.276 121.2C656.411 120.783 656.073 120.38 656.261 119.991C656.407 119.688 656.619 119.524 656.898 119.499C657.241 119.451 657.713 119.466 658.315 119.543C659.348 119.722 660.132 119.754 660.667 119.639C661.246 119.545 661.723 119.109 662.098 118.33L669.544 102.897C670.858 100.173 670.625 98.1154 668.845 96.7236C668.606 96.5553 668.399 96.322 668.223 96.024C668.111 95.7035 668.128 95.392 668.274 95.0894C668.378 94.8732 668.645 94.7621 669.075 94.756C669.547 94.7708 669.891 94.8303 670.108 94.9346C670.713 95.2266 671.34 95.5827 671.99 96.0029L673.775 96.9437L684.604 102.168C685.728 102.711 686.636 103.095 687.326 103.321C688.08 103.525 688.565 103.68 688.781 103.784C688.868 103.826 688.945 103.942 689.012 104.135C689.079 104.327 689.071 104.51 688.987 104.683L687.731 106.955C687.019 108.21 686.548 109.075 686.319 109.551C685.464 111.323 684.755 112.074 684.193 111.803C683.934 111.678 683.812 111.379 683.826 110.906C683.841 110.434 683.949 109.713 684.15 108.744C684.372 107.732 684.347 106.734 684.075 105.75C683.804 104.767 683.322 104.108 682.631 103.774L678.252 101.582C677.474 101.207 676.798 101.227 676.224 101.643C675.715 102.036 675.324 102.514 675.053 103.076L666.637 120.52C666.262 121.299 666.239 121.954 666.569 122.486C666.919 122.975 667.54 123.621 668.432 124.424C668.867 124.847 669.151 125.197 669.284 125.474C669.48 125.729 669.506 126.008 669.36 126.311C669.172 126.7 668.581 126.654 667.587 126.175C666.463 125.632 665.608 125.14 665.022 124.697C664.199 124.194 663.42 123.765 662.685 123.41C661.993 123.076 661.151 122.723 660.158 122.351C659.404 122.147 658.443 121.763 657.276 121.2Z" fill="white"/>
<path d="M674.142 151.991C673.267 151.49 672.937 151.053 673.151 150.678C673.318 150.386 673.553 150.216 673.857 150.169C674.178 150.187 674.637 150.255 675.232 150.374C676.316 150.607 677.149 150.696 677.733 150.643C678.334 150.655 678.849 150.286 679.278 149.536L697.396 117.846C697.801 117.137 698.052 116.119 698.147 114.792C698.267 113.422 697.928 112.372 697.13 111.639C696.987 111.502 696.91 111.347 696.898 111.175C696.91 110.96 696.975 110.749 697.094 110.541C697.333 110.124 697.622 109.957 697.961 110.041C700.033 110.672 701.911 111.11 703.596 111.355C705.304 111.558 706.319 111.668 706.641 111.686L706.802 111.695C706.885 111.743 706.933 111.853 706.944 112.025C706.956 112.198 706.927 112.347 706.855 112.472L705.801 114.026C705.247 114.704 704.78 115.377 704.398 116.044C704.208 116.377 704.121 116.576 704.139 116.642C704.86 116.446 705.961 116.357 707.444 116.375C708.992 116.375 710.596 116.518 712.257 116.805C713.96 117.115 715.415 117.615 716.624 118.306C718.665 119.473 720.136 121.06 721.034 123.067C721.974 125.097 722.337 127.268 722.122 129.577C721.931 131.846 721.264 133.98 720.12 135.98C718.715 138.439 716.72 140.477 714.135 142.096C711.575 143.673 708.794 144.572 705.794 144.791C702.817 144.969 700.057 144.331 697.515 142.878C696.599 142.354 695.593 141.502 694.498 140.323C693.379 139.186 692.682 138.18 692.409 137.304C692.325 137.257 692.024 137.638 691.506 138.447C690.988 139.257 690.598 139.891 690.336 140.349L683.653 152.037C683.296 152.663 683.305 153.276 683.68 153.877C684.031 154.52 684.441 155.059 684.912 155.494C685.4 155.994 685.736 156.325 685.92 156.485C686.325 156.938 686.596 157.286 686.733 157.53C686.888 157.84 686.882 158.141 686.715 158.432C686.5 158.807 685.935 158.733 685.018 158.209C683.893 157.566 682.887 156.907 682 156.234C680.964 155.532 680.071 154.966 679.321 154.537C678.655 154.156 677.839 153.745 676.875 153.304C676.136 153.048 675.226 152.61 674.142 151.991ZM699.561 141.476C700.561 142.048 701.889 142.337 703.544 142.344C705.264 142.332 707.059 141.755 708.929 140.612C710.841 139.494 712.523 137.663 713.976 135.121C716.383 130.913 717.11 127.513 716.158 124.923C715.271 122.315 713.807 120.428 711.765 119.26C710.849 118.736 709.729 118.373 708.408 118.17C707.11 117.926 705.931 117.86 704.871 117.973C703.811 118.086 703.198 118.288 703.031 118.58C701.959 120.455 700.667 122.619 699.154 125.071C698.636 125.881 698.067 126.827 697.448 127.911C696.518 129.536 696.012 131.292 695.928 133.179C695.868 135.025 696.171 136.719 696.838 138.261C697.528 139.761 698.436 140.833 699.561 141.476Z" fill="white"/>
<path d="M730.667 163.571C728.516 162.125 726.966 160.301 726.016 158.101C725.107 155.927 724.85 153.556 725.247 150.988C725.67 148.381 726.752 145.783 728.494 143.194C729.994 140.963 731.918 139.22 734.266 137.965C736.654 136.737 739.099 136.155 741.602 136.218C744.131 136.242 746.432 136.95 748.503 138.343C750.892 139.95 752.362 141.98 752.911 144.432C753.527 146.871 753.098 149.185 751.624 151.376C750.794 152.611 749.781 152.826 748.587 152.023L735.981 143.544C735.423 143.169 734.918 143.06 734.464 143.218C734.078 143.363 733.59 143.873 733 144.75C731.741 146.622 730.974 148.622 730.699 150.751C730.464 152.907 730.722 154.931 731.473 156.825C732.291 158.705 733.536 160.208 735.209 161.333C737.559 162.914 740.113 163.33 742.872 162.583C743.325 162.425 743.651 162.413 743.851 162.547C744.169 162.761 744.195 163.068 743.927 163.466C743.418 164.223 742.497 164.818 741.164 165.252C739.511 165.817 737.739 165.957 735.85 165.669C733.988 165.342 732.26 164.643 730.667 163.571ZM742.782 145.429C744.654 146.688 746.195 147.58 747.404 148.104C747.75 148.278 748.204 147.947 748.766 147.111C749.543 145.956 749.682 144.632 749.182 143.139C748.749 141.632 747.835 140.411 746.441 139.473C745.565 138.884 744.461 138.546 743.13 138.461C741.866 138.363 740.667 138.511 739.534 138.905C738.401 139.3 737.566 139.896 737.031 140.692C736.763 141.091 736.868 141.451 737.346 141.772L742.782 145.429Z" fill="white"/>
<path d="M747.836 174.477C747.077 173.89 746.829 173.425 747.093 173.083C747.299 172.818 747.574 172.697 747.919 172.721C748.265 172.745 748.69 172.862 749.196 173.071C749.988 173.38 750.845 173.527 751.767 173.512C752.719 173.459 753.97 173.213 755.523 172.775L764.621 170.072C765.054 169.982 765.359 169.824 765.535 169.596C765.682 169.406 765.753 169.157 765.748 168.85L766.582 158.119C766.714 157.007 766.722 156.133 766.607 155.498C766.529 154.892 766.264 154.293 765.812 153.701C765.482 153.264 765.262 152.881 765.152 152.553C765.042 152.225 765.089 151.928 765.295 151.662C765.559 151.321 766.071 151.443 766.83 152.031C767.628 152.647 768.301 153.228 768.85 153.774C769.55 154.437 770.375 155.136 771.325 155.87L772.85 156.958C773.145 157.125 773.634 157.474 774.318 158.002L774.489 158.134C775.248 158.721 775.496 159.186 775.231 159.528C775.085 159.717 774.872 159.796 774.594 159.763C774.354 159.76 774.019 159.683 773.59 159.532C773.122 159.353 772.715 159.251 772.37 159.226C772.092 159.193 771.85 159.31 771.645 159.576C771.322 159.993 771.099 160.792 770.976 161.971L770.557 167.927C770.503 168.31 770.674 168.442 771.07 168.323L777.366 166.184C777.993 166.001 778.467 165.701 778.79 165.283C779.143 164.827 779.131 164.333 778.755 163.799C778.416 163.295 778.177 162.898 778.038 162.608C777.965 162.309 778.032 162.027 778.237 161.761C778.502 161.419 779.013 161.542 779.773 162.129C779.963 162.276 780.37 162.651 780.995 163.256C781.687 163.852 782.242 164.311 782.66 164.634C783.495 165.28 784.265 165.815 784.969 166.238C785.703 166.623 786.202 166.918 786.468 167.124C787.228 167.711 787.475 168.176 787.211 168.517C787.005 168.783 786.73 168.904 786.385 168.88C786.107 168.847 785.681 168.73 785.108 168.53C782.874 167.652 780.836 167.502 778.994 168.08L771.222 170.716C770.894 170.827 770.722 171.088 770.706 171.501L769.273 184.772C769.17 185.846 769.196 186.715 769.349 187.38C769.503 188.045 769.791 188.692 770.214 189.323C770.543 189.76 770.763 190.142 770.874 190.47C770.984 190.798 770.937 191.095 770.731 191.361C770.467 191.703 769.955 191.58 769.196 190.993C768.474 190.435 767.801 189.854 767.176 189.249C766.475 188.586 765.612 187.858 764.587 187.065L762.436 185.493C761.913 185.149 761.214 184.64 760.341 183.964C759.468 183.289 759.178 182.761 759.471 182.382C759.706 182.078 759.996 181.938 760.342 181.962C760.716 181.949 761.195 182.076 761.776 182.344C763.074 182.862 763.958 182.817 764.428 182.21C764.663 181.906 764.813 181.476 764.879 180.92L765.747 172.854C765.738 172.786 765.696 172.723 765.62 172.665C765.544 172.606 765.472 172.581 765.405 172.589L757.285 175.322C756.89 175.441 756.516 175.728 756.164 176.184C755.958 176.449 755.81 176.759 755.718 177.113C755.694 177.458 755.785 177.772 755.992 178.053C756.33 178.557 756.536 178.959 756.608 179.258C756.748 179.548 756.715 179.826 756.51 180.091C756.245 180.433 755.733 180.31 754.974 179.723C754.746 179.547 754.343 179.205 753.765 178.697C753.225 178.219 752.594 177.701 751.872 177.143C751.379 176.761 750.461 176.143 749.12 175.288C748.53 174.953 748.102 174.682 747.836 174.477Z" fill="white"/>
<path d="M786.207 206.692C784.241 204.93 782.853 202.847 782.042 200.444C781.267 198.073 781.134 195.632 781.643 193.123C782.188 190.646 783.373 188.389 785.2 186.352C786.962 184.386 789.211 182.921 791.945 181.956C794.716 181.023 797.523 180.768 800.367 181.191C803.247 181.646 805.742 182.818 807.85 184.709C809.888 186.535 811.297 188.702 812.08 191.208C812.895 193.679 813.031 196.187 812.49 198.732C812.017 201.273 810.931 203.491 809.233 205.385C807.31 207.529 805.051 209.114 802.456 210.14C799.861 211.165 797.139 211.432 794.291 210.942C791.475 210.416 788.78 208.999 786.207 206.692ZM788.775 206.093C791.455 208.496 794.177 209.164 796.94 208.095C798.904 207.342 801.152 205.554 803.684 202.731C805.222 201.015 806.39 199.065 807.189 196.88C807.987 194.695 808.263 192.589 808.017 190.563C807.77 188.537 806.914 186.867 805.449 185.553C804.413 184.624 803.375 183.984 802.336 183.633C801.297 183.282 800.121 183.227 798.809 183.468C797.429 183.713 796.069 184.332 794.729 185.322C793.422 186.277 792.079 187.523 790.701 189.06C789.099 190.847 787.899 192.833 787.1 195.018C786.333 197.167 786.055 199.239 786.266 201.233C786.545 203.223 787.381 204.843 788.775 206.093Z" fill="white"/>
<path d="M806.502 224.495C805.736 223.7 805.508 223.153 805.819 222.853C806.061 222.62 806.317 222.539 806.587 222.612C806.925 222.686 807.364 222.864 807.902 223.145C808.103 223.285 808.455 223.512 808.958 223.827C809.53 224.143 810.036 224.288 810.478 224.262C810.953 224.27 811.415 224.058 811.865 223.625L825.911 210.082C827.189 208.849 827.402 207.41 826.55 205.765C826.288 205.217 826.109 204.79 826.013 204.482C825.985 204.176 826.091 203.907 826.333 203.674C826.644 203.374 827.133 203.569 827.799 204.26C828.532 205.021 829.197 205.78 829.794 206.537L831.242 208.142C831.608 208.522 832.193 209.059 832.995 209.753C833.93 210.584 834.814 211.432 835.647 212.296C838.279 215.026 839.93 217.568 840.6 219.923C841.338 222.278 840.878 224.256 839.219 225.855C837.906 227.121 836.485 227.791 834.956 227.865C833.427 227.939 831.941 227.539 830.497 226.664C830.329 226.559 830.194 226.522 830.092 226.554C830.024 226.553 830.072 226.673 830.238 226.913C831.162 228.356 831.692 229.978 831.829 231.78C832.034 233.583 831.463 235.134 830.115 236.433C827.835 238.632 825.361 239.317 822.694 238.488C820.095 237.659 817.33 235.725 814.398 232.684L813.202 231.237C812.208 229.928 811.361 228.912 810.661 228.186C809.66 227.217 808.642 226.265 807.607 225.33C806.605 224.429 806.087 223.995 806.052 224.028L806.502 224.495ZM825.52 220.361C827.485 222.399 829.314 223.57 831.006 223.872C832.731 224.209 834.164 223.828 835.304 222.728C837.723 220.396 837.25 217.485 833.885 213.995C832.985 213.062 832.231 212.556 831.621 212.477C831.045 212.433 830.463 212.694 829.876 213.26L825.366 217.608C824.502 218.441 824.554 219.358 825.52 220.361ZM816.608 231.553C818.274 233.281 819.902 234.278 821.493 234.545C823.152 234.813 824.689 234.264 826.106 232.898C827.765 231.298 828.372 229.646 827.928 227.941C827.551 226.236 826.397 224.382 824.465 222.378C823.165 221.03 822.084 220.773 821.22 221.606L816.451 226.204C814.724 227.87 814.776 229.653 816.608 231.553Z" fill="white"/>
</svg>
