<svg width="545" height="430" viewBox="0 0 545 430" fill="none" xmlns="http://www.w3.org/2000/svg">
<path d="M525.312 161.318C528.806 161.318 530.553 160.656 530.553 159.33C530.553 158.487 530.071 157.824 529.108 157.342C528.144 156.86 526.638 156.439 524.59 156.077C519.77 155.234 516.216 153.848 513.927 151.921C511.638 149.873 510.493 146.8 510.493 142.704V61.0187C510.493 56.8019 511.397 53.7899 513.204 51.9827C514.891 50.1755 518.023 48.8502 522.602 48.0068C526.578 47.284 528.565 46.0792 528.565 44.3925C528.565 43.0672 526.818 42.4045 523.325 42.4045C519.951 42.4045 516.096 42.525 511.759 42.766L502.18 42.9467H457.362C456.759 42.9467 455.735 42.8262 454.29 42.5853C452.844 42.3443 451.519 42.1636 450.314 42.0431C449.711 42.0431 449.29 42.3443 449.049 42.9467C448.687 43.5491 448.507 44.0913 448.507 44.5732C448.386 46.8623 448.266 48.79 448.145 50.3562C448.025 51.9224 447.904 53.308 447.784 54.5128C447.302 58.1272 447.061 60.8982 447.061 62.8259C447.061 64.0307 447.362 64.9945 447.964 65.7174C448.446 66.3198 448.988 66.621 449.591 66.621C450.193 66.621 451.037 66.0186 452.121 64.8138C453.205 63.609 453.808 62.5247 453.928 61.5608C454.531 58.0669 455.735 55.0549 457.543 52.5248C459.229 49.9948 462.362 48.7297 466.94 48.7297H490.795C492.361 48.7297 493.626 49.3924 494.59 50.7176C495.554 51.9224 496.036 53.3682 496.036 55.0549V86.6809C496.036 89.9338 495.915 92.2832 495.674 93.729C495.433 95.0542 494.831 95.7169 493.867 95.7169C493.506 95.7169 493.205 95.6566 492.964 95.5361C486.819 93.488 480.373 92.4639 473.627 92.4639C462.542 92.4639 453.808 95.3554 447.422 101.138C440.916 106.921 437.663 114.994 437.663 125.355C437.663 131.379 438.627 136.379 440.555 140.355C442.483 144.21 444.651 147.102 447.061 149.029C449.35 150.957 452.241 152.945 455.735 154.993C462.603 159.089 472.241 161.137 484.651 161.137C486.217 161.137 488.566 160.957 491.699 160.595C498.927 159.993 503.807 159.692 506.337 159.692C508.626 159.692 511.337 159.933 514.469 160.415C519.048 161.017 522.662 161.318 525.312 161.318ZM482.12 153.728C477.422 153.728 472.904 152.523 468.566 150.114C464.229 147.583 460.735 144.27 458.085 140.174C455.314 135.957 453.928 131.319 453.928 126.259C453.928 120.114 455.314 115.174 458.085 111.439C460.735 107.705 463.808 104.873 467.301 102.946C472.723 99.9337 478.988 98.4277 486.096 98.4277C492.723 98.4277 496.036 100.596 496.036 104.934V140.897C496.036 144.993 494.831 148.186 492.421 150.475C490.012 152.644 486.578 153.728 482.12 153.728ZM425.209 162.945C429.306 162.945 432.619 161.921 435.149 159.872C437.679 157.704 438.944 155.234 438.944 152.463C438.944 148.728 437.92 145.355 435.872 142.343C433.944 139.331 431.414 137.825 428.281 137.825C426.836 137.825 425.571 138.066 424.486 138.547C423.282 139.029 422.258 139.572 421.414 140.174C420.571 140.776 419.908 141.198 419.426 141.439C417.017 143.126 414.848 143.969 412.92 143.969C408.704 143.849 404.005 140.656 398.824 134.391C393.523 128.126 387.981 118.789 382.198 106.379C376.415 93.8494 370.873 78.669 365.572 60.838C365.21 59.5127 365.03 58.4284 365.03 57.585C365.03 55.2959 366.114 53.5489 368.283 52.3441C370.451 51.0188 374.066 49.7538 379.126 48.549C381.174 48.1876 382.017 46.9225 381.656 44.7539C381.535 44.031 381.053 43.4286 380.21 42.9467C379.246 42.3443 378.282 42.0431 377.319 42.0431C372.861 42.0431 368.283 42.2238 363.584 42.5853C357.801 42.8262 353.765 42.9467 351.476 42.9467H308.103C305.934 42.9467 301.717 42.8262 295.452 42.5853C289.188 42.3443 284.609 42.2238 281.718 42.2238C279.549 42.2238 278.766 43.0672 279.368 44.7539C279.609 45.8382 280.091 46.6816 280.814 47.284C281.537 47.7659 282.682 48.1876 284.248 48.549C289.428 49.8743 293.043 51.3803 295.091 53.067C297.139 54.6332 298.705 57.2838 299.79 61.0187L325.091 142.704C325.572 144.15 325.813 145.596 325.813 147.041C325.813 148.848 325.151 150.294 323.825 151.379C322.38 152.463 320.03 153.547 316.777 154.632C315.573 154.993 314.789 155.415 314.428 155.897C313.946 156.378 313.826 157.162 314.067 158.246C314.549 160.053 315.874 160.957 318.042 160.957C322.5 160.957 327.078 160.776 331.777 160.415C338.042 160.174 342.259 160.053 344.428 160.053C346.837 160.053 351.054 160.174 357.078 160.415C361.777 160.776 366.355 160.957 370.813 160.957C371.656 160.957 372.379 160.716 372.981 160.234C373.463 159.752 373.644 159.15 373.523 158.427C373.041 156.499 371.355 155.234 368.463 154.632C363.524 153.547 359.969 152.282 357.801 150.836C355.512 149.27 353.825 146.62 352.741 142.885L327.801 62.103C327.078 59.6934 326.717 57.6452 326.717 55.9585C326.717 54.0308 327.38 52.5851 328.705 51.6212C330.03 50.6574 332.319 50.1755 335.572 50.1755H342.982C346.717 50.1755 349.548 51.0188 351.476 52.7056C353.403 54.2718 354.849 56.6814 355.813 59.9343C363.042 84.0303 370.873 103.789 379.306 119.21C387.62 134.632 395.752 145.776 403.704 152.644C411.655 159.511 418.824 162.945 425.209 162.945ZM279.998 167.643C284.697 167.643 288.371 165.896 291.022 162.402C293.673 158.909 294.998 153.969 294.998 147.583C294.998 146.74 294.456 145.776 293.371 144.692C292.287 143.608 291.444 143.065 290.841 143.065C289.998 143.065 288.311 143.547 285.781 144.511C278.432 147.162 272.167 148.487 266.986 148.487C258.553 148.487 251.926 145.294 247.107 138.909C245.42 136.861 244.577 134.813 244.577 132.764C244.577 132.162 244.698 130.897 244.938 128.969L261.565 61.3801C262.167 57.7657 263.372 54.9947 265.179 53.067C266.866 51.0188 269.336 49.5731 272.589 48.7297C273.793 48.3683 274.697 47.8864 275.299 47.284C275.781 46.6816 275.902 45.8382 275.661 44.7539C275.54 44.031 275.058 43.4286 274.215 42.9467C273.251 42.4648 272.227 42.2238 271.143 42.2238C268.733 42.2238 264.396 42.3443 258.131 42.5853C251.866 42.8262 247.589 42.9467 245.3 42.9467C242.89 42.9467 238.553 42.8262 232.288 42.5853C226.023 42.3443 221.746 42.2238 219.457 42.2238C218.252 42.2238 217.228 42.4648 216.385 42.9467C215.541 43.4286 215.24 44.031 215.481 44.7539C215.722 45.7177 216.505 46.5611 217.83 47.284C219.035 47.8864 220.361 48.308 221.806 48.549C226.023 49.5128 229.035 50.6574 230.842 51.9827C232.65 53.1875 233.553 55.0549 233.553 57.585C233.553 58.7898 233.372 60.1151 233.011 61.5608L222.891 103.126V103.669C222.891 104.391 222.589 104.753 221.987 104.753C221.505 104.753 220.903 104.15 220.18 102.946L192.71 62.6452C190.662 59.7536 189.638 57.2838 189.638 55.2356C189.638 51.9827 192.771 49.8743 199.036 48.9104C200.24 48.6695 201.325 48.2478 202.289 47.6454C203.132 46.9225 203.433 46.0792 203.192 45.1153C203.072 44.3924 202.409 43.7901 201.204 43.3081C199.879 42.8262 198.554 42.5853 197.228 42.5853C194.578 42.5853 191.204 42.7057 187.108 42.9467L177.711 43.1274C176.144 43.1274 174.398 43.0672 172.47 42.9467C170.422 42.8262 168.855 42.7057 167.771 42.5853C164.518 42.2238 161.265 42.0431 158.012 42.0431C154.639 42.0431 153.193 43.0069 153.675 44.9346C154.036 46.0189 154.639 46.802 155.482 47.284C156.326 47.6454 157.711 48.0671 159.639 48.549C166.988 50.4767 172.952 54.573 177.53 60.838L239.878 143.427C245.541 151.138 252.047 157.101 259.396 161.318C266.745 165.535 273.613 167.643 279.998 167.643ZM202.699 200.715C203.904 200.715 204.868 200.293 205.591 199.45C206.314 198.607 206.675 197.462 206.675 196.016C206.675 194.691 206.555 193.607 206.314 192.763C205.23 188.547 203.844 180.414 202.157 168.366C201.434 162.583 200.772 158.487 200.169 156.077C199.808 154.391 198.483 153.427 196.194 153.186C191.254 152.824 186.676 151.439 182.459 149.029C178.242 146.499 174.085 142.885 169.989 138.186C164.206 131.56 158.182 121.439 151.917 107.825C145.532 94.2109 139.628 78.5485 134.207 60.838C133.845 59.5127 133.664 58.4284 133.664 57.585C133.664 55.1754 134.749 53.3682 136.917 52.1634C139.086 50.8381 142.7 49.6333 147.761 48.549C148.965 48.4285 149.809 48.0068 150.291 47.284C150.652 46.5611 150.652 45.7177 150.291 44.7539C150.17 44.031 149.688 43.4286 148.845 42.9467C147.881 42.3443 146.978 42.0431 146.134 42.0431C141.556 42.0431 136.857 42.2238 132.038 42.5853C125.773 42.8262 121.556 42.9467 119.388 42.9467H76.1956C74.1474 42.9467 69.9909 42.8262 63.7259 42.5853C57.22 42.3443 52.5816 42.2238 49.8105 42.2238C47.6419 42.2238 46.8588 43.0672 47.4612 44.7539C47.7021 45.8382 48.184 46.6816 48.9069 47.284C49.6298 47.7659 50.7744 48.1876 52.3406 48.549C57.5212 49.8743 61.1356 51.3803 63.1838 53.067C65.2319 54.6332 66.7982 57.2838 67.8825 61.0187L93.1833 143.065C93.6652 144.391 93.9061 145.716 93.9061 147.041C93.9061 149.571 92.9423 151.499 91.0146 152.824C88.9665 154.029 86.4364 154.752 83.4244 154.993C81.6172 154.993 80.8341 155.897 81.075 157.704C81.4365 159.39 82.8822 162.643 85.4123 167.463C85.7738 168.186 87.2195 171.258 89.7496 176.679C92.2797 182.101 94.3278 187.402 95.8941 192.583C97.8217 198.004 100.472 200.715 103.846 200.715C104.81 200.715 105.593 200.293 106.195 199.45C106.797 198.607 107.099 197.522 107.099 196.197C107.099 195.595 106.978 194.691 106.737 193.486C104.328 184.691 103.123 178.246 103.123 174.149C103.123 167.161 106.376 163.668 112.882 163.668H172.158C178.182 163.668 182.881 166.077 186.254 170.896C189.627 175.715 192.82 183.185 195.832 193.306C196.435 195.354 197.338 197.101 198.543 198.546C199.868 199.992 201.254 200.715 202.699 200.715ZM134.207 156.619C130.592 156.619 127.881 155.897 126.074 154.451C124.267 153.005 122.882 150.716 121.918 147.583L95.1712 58.85C94.5688 56.8019 94.2676 55.2356 94.2676 54.1513C94.2676 52.7056 94.7495 51.6815 95.7133 51.0791C96.6772 50.3562 98.3639 49.9948 100.774 49.9948H114.327C117.219 49.9948 119.388 50.5972 120.833 51.802C122.159 53.0068 123.183 54.8742 123.906 57.4043C129.93 78.7292 137.098 97.8253 145.411 114.692C153.724 131.439 161.375 143.969 168.363 152.282C168.845 152.885 169.086 153.487 169.086 154.089C169.086 154.571 168.905 154.993 168.543 155.354C168.182 155.716 167.7 155.897 167.098 155.897L134.207 156.619Z" fill="white"/>
<path d="M541.216 393.422C542.421 393.422 543.264 393.121 543.746 392.519C544.228 392.037 544.348 391.434 544.107 390.711C543.866 389.988 543.264 389.266 542.3 388.543C541.457 387.82 540.372 387.278 539.047 386.916C534.348 385.711 530.915 384.386 528.746 382.94C526.578 381.374 524.891 378.784 523.686 375.169L498.385 292.942C497.662 290.773 497.301 289.026 497.301 287.701C497.301 285.773 498.024 284.328 499.47 283.364C500.795 282.279 503.144 281.376 506.518 280.653C508.686 280.051 509.53 278.725 509.048 276.677C508.927 275.954 508.445 275.352 507.602 274.87C506.638 274.388 505.674 274.147 504.71 274.147L494.952 274.328C485.313 274.81 474.952 275.051 463.868 275.051C455.434 275.051 445.314 274.81 433.507 274.328L420.495 273.966C417.844 273.966 416.76 274.81 417.242 276.496L421.037 290.412C422.001 293.062 422.905 296.135 423.748 299.629C423.989 300.592 424.471 301.376 425.194 301.978C425.796 302.58 426.399 302.882 427.001 302.882C428.808 302.882 429.712 301.857 429.712 299.809C429.712 295.111 429.953 291.617 430.435 289.328C430.917 286.918 432.121 285.111 434.049 283.906C435.856 282.581 438.748 281.918 442.724 281.918H460.434C463.085 281.918 465.193 282.46 466.759 283.545C468.326 284.629 469.47 286.557 470.193 289.328L479.41 321.134C479.651 321.737 479.771 322.58 479.771 323.664C479.771 326.074 478.386 327.279 475.615 327.279C473.928 327.279 471.88 327.158 469.47 326.917C466.579 326.676 464.109 326.556 462.061 326.556C455.796 326.556 450.374 327.821 445.796 330.351C441.097 332.881 437.483 336.254 434.953 340.471C432.423 344.688 431.157 349.266 431.157 354.206C431.278 366.133 436.218 375.651 445.977 382.76C455.735 389.748 469.832 393.241 488.265 393.241C489.349 393.241 491.819 393.121 495.674 392.88C499.53 392.639 506.036 392.519 515.192 392.519C519.409 392.519 523.867 392.699 528.565 393.061C534.589 393.302 538.806 393.422 541.216 393.422ZM486.819 386.555C481.639 386.555 476.94 384.748 472.723 381.133C468.386 377.519 465.012 373.001 462.603 367.579C460.073 362.158 458.808 357.037 458.808 352.218C458.808 345.712 460.374 340.833 463.506 337.58C466.639 334.206 470.795 332.52 475.976 332.52C478.386 332.52 480.313 333.062 481.759 334.146C483.205 335.23 484.289 337.038 485.012 339.568L487.723 347.881C490.494 356.676 493.265 365.652 496.036 374.808C496.518 376.254 496.759 377.76 496.759 379.326C496.759 384.145 493.446 386.555 486.819 386.555ZM418.003 395.049C421.979 395.049 424.991 394.145 427.039 392.338C429.087 390.531 430.111 388.242 430.111 385.47C430.111 382.458 429.328 379.748 427.762 377.338C426.196 374.928 424.328 373.724 422.16 373.724C420.955 373.724 419.69 374.266 418.365 375.35C416.919 376.314 415.955 376.977 415.473 377.338C412.943 379.145 410.835 380.049 409.148 380.049C404.449 380.049 398.787 375.109 392.16 365.23C385.413 355.23 379.028 343.303 373.004 329.447C366.859 315.592 362.281 303.484 359.269 293.123C358.908 291.797 358.727 290.593 358.727 289.508C358.727 286.617 360.112 284.448 362.884 283.002C365.534 281.436 369.63 280.472 375.172 280.111C378.064 279.99 379.51 278.786 379.51 276.496C379.51 275.171 377.703 274.509 374.088 274.509C370.835 274.509 367.281 274.629 363.426 274.87L354.57 275.051H307.222L299.089 274.87C295.475 274.629 292.041 274.509 288.788 274.509C285.897 274.509 284.451 275.171 284.451 276.496C284.451 278.183 286.68 279.388 291.138 280.111C295.716 280.954 299.21 282.34 301.62 284.267C304.029 286.075 305.836 289.026 307.041 293.123L331.98 374.808C332.462 376.374 332.703 377.94 332.703 379.507C332.703 381.916 331.92 383.784 330.354 385.109C328.667 386.434 326.137 387.458 322.764 388.181C321.077 388.543 319.932 388.964 319.33 389.446C318.607 389.928 318.246 390.591 318.246 391.434C318.246 392.76 320.053 393.422 323.667 393.422C327.884 393.422 331.438 393.241 334.33 392.88C337.944 392.639 340.896 392.519 343.185 392.519C345.836 392.519 349.33 392.639 353.667 392.88C356.92 393.241 360.655 393.422 364.871 393.422C367.763 393.422 369.209 392.76 369.209 391.434C369.209 389.988 367.04 388.904 362.703 388.181C358.004 387.338 354.269 385.892 351.498 383.844C348.607 381.796 346.559 378.784 345.354 374.808L320.053 290.954C319.089 287.822 318.607 285.532 318.607 284.087C318.607 282.641 319.149 281.617 320.234 281.014C321.318 280.412 323.185 280.111 325.836 280.111H342.643C344.932 280.111 346.739 280.773 348.065 282.099C349.269 283.304 350.414 285.894 351.498 289.87C355.835 305.532 361.679 321.496 369.028 337.76C376.257 354.025 384.208 367.639 392.883 378.603C401.558 389.567 409.931 395.049 418.003 395.049ZM281.788 398.482C285.403 398.482 288.415 396.916 290.824 393.784C293.234 390.772 294.439 387.398 294.439 383.663C294.439 382.82 294.077 381.916 293.354 380.952C292.511 379.989 291.788 379.507 291.186 379.507C290.945 379.507 289.62 379.868 287.21 380.591C281.186 382.88 275.825 384.025 271.126 384.025C264.981 384.025 259.5 382.639 254.68 379.868C249.741 377.097 245.765 373.422 242.753 368.844C242.271 368.001 242.03 367.037 242.03 365.953C242.03 365.35 242.15 364.326 242.391 362.881L256.668 298.183C258.114 291.436 260.042 286.918 262.451 284.629C264.74 282.219 267.752 280.834 271.487 280.472C273.054 280.352 274.319 279.87 275.282 279.027C276.126 278.183 276.547 277.34 276.547 276.496C276.547 275.774 275.945 275.292 274.74 275.051C273.415 274.689 271.909 274.509 270.222 274.509L262.451 274.689C257.873 274.93 254.018 275.051 250.885 275.051L241.307 274.87C239.861 274.75 237.934 274.689 235.524 274.689C232.753 274.689 231.368 275.352 231.368 276.677C231.368 277.521 231.97 278.304 233.175 279.027C234.38 279.749 236.006 280.171 238.054 280.292C240.464 280.533 242.211 281.014 243.295 281.737C244.259 282.34 244.741 283.665 244.741 285.713C244.741 287.4 244.5 289.267 244.018 291.315L232.09 345.712C231.97 346.676 231.789 347.519 231.548 348.242C231.307 348.965 230.886 349.327 230.283 349.327C229.681 349.327 229.139 348.905 228.657 348.061C228.054 347.098 227.693 346.495 227.572 346.254L194.681 295.653C192.754 292.641 191.79 289.93 191.79 287.52C191.79 285.593 192.392 284.026 193.597 282.822C194.802 281.496 196.368 280.713 198.296 280.472C199.501 280.231 200.525 279.81 201.368 279.207C202.211 278.484 202.633 277.701 202.633 276.858C202.633 275.533 200.826 274.87 197.211 274.87L183.115 275.051C180.103 275.051 176.308 274.93 171.73 274.689L165.405 274.509C162.634 274.509 161.248 275.171 161.248 276.496C161.248 277.942 163.417 279.147 167.754 280.111C171.007 280.713 174.26 282.159 177.513 284.448C180.646 286.737 183.537 289.809 186.188 293.665L233.717 365.411C241.066 376.495 248.837 384.808 257.03 390.35C265.102 395.772 273.355 398.482 281.788 398.482ZM200.544 429.205C201.387 429.205 201.989 428.783 202.351 427.94C202.833 427.096 203.074 426.012 203.074 424.687C203.074 424.084 202.712 420.651 201.989 414.386C200.664 403.542 200.001 395.35 200.001 389.808C200.001 388.723 199.519 388.001 198.556 387.639C197.712 387.278 196.568 387.097 195.122 387.097C191.026 387.097 187.532 386.193 184.64 384.386C181.749 382.458 178.195 379.206 173.978 374.627C171.207 371.736 167.05 365.591 161.508 356.194C155.846 346.676 150.303 336.194 144.882 324.749C139.34 313.183 135.183 302.641 132.412 293.123C132.051 291.797 131.87 290.593 131.87 289.508C131.87 286.617 133.256 284.448 136.027 283.002C138.677 281.436 142.773 280.472 148.316 280.111C151.207 279.99 152.653 278.786 152.653 276.496C152.653 275.171 150.846 274.509 147.231 274.509C143.978 274.509 140.424 274.629 136.569 274.87L127.713 275.051H81.8106L73.6782 274.87C70.0638 274.629 66.6302 274.509 63.3772 274.509C60.4857 274.509 59.0399 275.171 59.0399 276.496C59.0399 278.183 61.2688 279.388 65.7266 280.111C70.3048 280.954 73.7987 282.34 76.2083 284.267C78.6179 286.075 80.4251 289.026 81.6299 293.123L107.111 376.796C107.473 377.88 107.654 378.904 107.654 379.868C107.654 384.446 103.678 386.736 95.7261 386.736C95.0032 386.736 94.2803 386.976 93.5574 387.458C92.7141 387.94 92.2924 388.543 92.2924 389.266C92.2924 389.748 93.0755 392.157 94.6417 396.494C98.979 409.145 101.81 418.181 103.136 423.602C103.979 427.337 105.063 429.205 106.389 429.205C107.232 429.205 107.895 428.783 108.376 427.94C108.738 427.096 108.919 426.012 108.919 424.687C108.919 423.602 108.738 421.795 108.376 419.265C107.533 412.759 107.111 407.699 107.111 404.085C107.111 396.374 108.798 392.519 112.172 392.519H179.399C182.532 392.519 185.845 395.651 189.339 401.916C192.712 408.301 195.363 415.53 197.291 423.602C198.134 427.337 199.218 429.205 200.544 429.205ZM135.484 387.458C130.906 387.458 127.593 386.796 125.545 385.47C123.376 384.025 121.689 381.193 120.485 376.977L94.461 290.954C93.4972 287.822 93.0153 285.532 93.0153 284.087C93.0153 282.641 93.5574 281.617 94.6417 281.014C95.7261 280.412 97.5935 280.111 100.244 280.111H115.244C117.533 280.111 119.34 280.773 120.665 282.099C121.87 283.304 123.015 285.894 124.099 289.87C127.232 301.436 131.81 313.664 137.834 326.556C143.737 339.447 149.882 351.073 156.267 361.435C162.653 371.796 167.833 379.025 171.809 383.121C172.773 384.085 173.255 384.928 173.255 385.651C173.255 386.254 173.014 386.736 172.532 387.097C171.93 387.338 171.207 387.458 170.363 387.458H135.484Z" fill="white"/>
</svg>
