<svg width="785" height="243" viewBox="0 0 785 243" fill="none" xmlns="http://www.w3.org/2000/svg">
<path d="M22.4578 86.9876C20.8813 85.8685 20.3052 85.0099 20.7297 84.412C20.9999 84.0314 21.4295 83.8868 22.0188 83.978C22.6081 84.0693 23.4227 84.3614 24.4626 84.8543C26.8529 85.9788 28.8188 86.4341 30.3604 86.2204C31.9949 85.9908 33.4875 84.9247 34.8382 83.022L60.8861 46.3272C62.2367 44.4245 62.7938 42.776 62.5572 41.3818C62.4135 39.9717 61.4439 38.3432 59.6482 36.4963C58.0858 34.8966 57.5747 33.7163 58.1149 32.9552C58.5394 32.3572 59.5399 32.6178 61.1164 33.7369C63.1822 35.2033 65.6443 37.0328 68.5027 39.2253L75.3761 44.227L86.6055 52.0756L93.6525 56.8327C94.5766 57.4887 94.8922 58.0807 94.5993 58.6085C94.3993 59.1206 93.7678 60.4709 92.7047 62.6595C91.6961 64.8867 90.7479 66.6255 89.8604 67.8758C89.2815 68.6912 88.6116 68.8288 87.8505 68.2886C87.5787 68.0956 87.427 67.9062 87.3955 67.7203C87.3639 67.5344 87.4095 67.2398 87.5324 66.8364C87.6166 66.4874 87.9008 65.6264 88.385 64.2532C88.8692 62.8801 89.0482 61.8217 88.922 61.078C88.6592 58.6841 87.3591 56.6575 85.0215 54.9981L74.3392 47.4153C73.7956 47.0294 72.9775 46.8574 71.8849 46.8994C70.8308 46.887 70.053 47.2341 69.5513 47.9408L57.2799 65.2282C56.9326 65.7174 56.7597 66.2488 56.7614 66.8223C56.8561 67.38 57.0937 67.7939 57.4742 68.064L65.547 73.7946C67.0692 74.8751 68.3222 75.3558 69.3061 75.2366C70.29 75.1175 71.5589 74.424 73.1129 73.1562C74.2881 72.1918 75.2018 71.9411 75.8542 72.4042C76.0716 72.5585 76.1926 72.8488 76.2171 73.275C76.3346 73.6854 76.2582 74.0808 75.9881 74.4614L74.4016 76.5236L71.6916 79.9958L68.7052 84.3755L67.3976 86.3904C66.7415 87.3146 66.1689 87.603 65.6796 87.2557C64.8642 86.6769 64.8564 85.3633 65.6564 83.315C66.2564 81.7787 66.4503 80.5266 66.2382 79.5585C66.1191 78.5746 65.5431 77.716 64.5102 76.9828L56.9266 71.5996C55.8937 70.8664 55.0633 70.4813 54.4355 70.4444C53.862 70.4461 53.2665 70.8819 52.6491 71.7517L41.5353 87.4081C40.1075 89.4195 39.5119 91.1224 39.7485 92.5166C40.0395 93.9495 41.1363 95.3413 43.039 96.6919L49.0732 100.975C50.8672 102.249 52.4122 103.182 53.7081 103.775C55.0585 104.406 56.315 104.767 57.4778 104.857C58.6791 104.892 59.934 104.679 61.2423 104.218C62.6437 103.741 64.4238 102.961 66.5829 101.877C67.4651 101.441 68.0964 101.357 68.477 101.627C69.1837 102.129 69.2669 102.76 68.7267 103.522C68.225 104.228 66.8648 105.511 64.646 107.37C62.4659 109.174 60.7453 110.446 59.4842 111.186C59.3527 111.256 59.1361 111.389 58.8344 111.583C58.5327 111.778 58.2618 111.872 58.0215 111.865C57.797 111.951 57.576 111.916 57.3586 111.762C56.2713 110.99 51.5453 107.513 43.1805 101.33C39.5452 98.504 35.8793 95.7791 32.1826 93.155C30.6605 92.0745 29.1892 91.1527 27.7687 90.3897C24.8804 88.5847 23.1101 87.4507 22.4578 86.9876Z" fill="#9CF159"/>
<path d="M72.8501 121.813C71.1647 120.865 70.5017 120.072 70.861 119.433C71.0897 119.026 71.5018 118.837 72.0974 118.866C72.693 118.895 73.5337 119.1 74.6197 119.48C77.173 120.38 79.2794 120.647 80.9389 120.279C82.5984 119.912 83.9834 118.74 85.094 116.764L107.143 77.536C108.319 75.4438 108.719 73.6425 108.345 72.1318C108.028 70.6539 106.873 69.2398 104.879 67.8895C103.982 67.3088 103.37 66.697 103.043 66.0544C102.774 65.4444 102.753 64.9359 102.982 64.5291C103.341 63.8899 104.364 64.0439 106.049 64.9911C108.664 66.461 110.391 67.4701 111.231 68.0181L115.066 70.174C115.938 70.664 117.22 71.3082 118.913 72.1065C121.975 73.5981 124 74.6215 124.988 75.1768C131.961 79.0966 136.504 82.9881 138.615 86.8514C140.759 90.6566 140.524 94.8838 137.911 99.5331C136.899 101.335 135.648 102.811 134.16 103.963C132.729 105.147 131.424 105.905 130.244 106.236C128.791 106.643 127.511 106.88 126.403 106.945C125.387 106.986 124.018 106.904 122.296 106.702C121.998 106.687 121.784 106.796 121.653 107.029C121.555 107.203 121.606 107.384 121.806 107.573C123.79 109.759 125.334 111.774 126.438 113.618C127.601 115.495 128.254 117.736 128.396 120.34C128.629 122.918 127.864 125.776 126.1 128.915C124.434 131.878 122.598 134.058 120.59 135.453C118.615 136.79 116.71 137.593 114.876 137.863C113.133 138.107 111.174 138.191 108.999 138.115C103.936 137.87 98.441 136.082 92.5132 132.75L89.947 131.193C88.4758 130.136 86.6361 128.988 84.4277 127.746C82.9748 126.93 81.1696 125.992 79.0121 124.932C77.2868 124.192 75.2328 123.152 72.8501 121.813ZM109.231 99.1286C113.241 101.382 117.23 102.516 121.2 102.529C122.424 102.529 123.834 102.06 125.432 101.122C127.088 100.218 128.536 98.661 129.777 96.4526C131.541 93.3143 132.13 90.0893 131.545 86.7775C131.017 83.4984 128.341 80.5032 123.518 77.7921C121.251 76.5181 119.531 75.9721 118.358 76.1541C117.276 76.3106 116.343 77.0863 115.559 78.4811L107.034 93.6493C105.825 95.7996 106.557 97.626 109.231 99.1286ZM95.7425 129.862C98.2996 131.299 101.009 132.057 103.871 132.136C106.732 132.215 109.403 131.613 111.883 130.33C114.363 129.047 116.289 127.186 117.661 124.745C119.327 121.781 119.998 119.022 119.674 116.469C119.408 113.949 118.693 111.751 117.531 109.873C115.732 106.951 112.828 104.362 108.818 102.108C107.132 101.161 105.687 100.808 104.481 101.048C103.308 101.23 102.51 101.698 102.085 102.454L92.3346 119.801C91.028 122.126 90.6655 124.064 91.247 125.614C91.8613 127.107 93.3598 128.522 95.7425 129.862Z" fill="#9CF159"/>
<path d="M186.083 176.832C180.321 174.729 175.427 171.416 171.4 166.895C167.373 162.373 164.702 157.246 163.388 151.515C162.159 145.744 162.573 140.04 164.631 134.404C166.848 128.329 170.437 123.358 175.397 119.491C180.38 115.562 186.07 113.097 192.468 112.096C198.865 111.096 205.132 111.716 211.27 113.956C213.462 114.757 216.675 116.355 220.909 118.753C225.23 121.11 227.902 122.831 228.926 123.914C229.193 124.154 229.324 124.379 229.318 124.59C229.397 124.761 229.411 125.014 229.359 125.35C228.203 130.464 227.304 133.897 226.664 135.651C226.481 136.152 226.165 136.533 225.714 136.794C225.327 137.079 224.945 137.152 224.569 137.015C224.006 136.809 223.647 136.43 223.494 135.877C223.341 135.325 223.288 134.596 223.335 133.69C223.331 131.56 222.967 129.546 222.24 127.648C221.775 126.201 220.421 124.465 218.18 122.44C216.023 120.376 213.004 118.635 209.121 117.217C204.424 115.503 199.717 115.275 194.999 116.534C190.367 117.753 186.218 120.177 182.551 123.806C178.907 127.373 176.182 131.63 174.376 136.577C172.296 142.276 171.626 147.709 172.365 152.876C173.128 157.98 174.965 162.377 177.877 166.065C180.811 169.691 184.408 172.282 188.666 173.836C191.798 174.979 194.397 175.538 196.465 175.512C198.555 175.423 200.199 175.101 201.395 174.544C202.507 174.027 203.542 173.234 204.5 172.164C205.521 171.117 206.305 169.842 206.854 168.339C207.265 167.212 207.617 166.347 207.908 165.744L209.031 162.96C209.579 161.457 209.766 160.46 209.59 159.97C209.244 158.779 208.129 157.556 206.245 156.301C204.361 155.045 202.762 154.178 201.447 153.698C201.134 153.583 200.784 153.278 200.397 152.782C200.073 152.309 199.991 151.853 200.151 151.415C200.311 150.977 200.667 150.681 201.22 150.528C201.835 150.397 202.3 150.39 202.613 150.504C204.053 151.03 205.878 151.767 208.086 152.715C210.42 153.709 212.495 154.537 214.312 155.2C215.439 155.612 216.839 156.052 218.513 156.521C220.187 156.99 221.619 157.442 222.809 157.876C223.185 158.013 223.546 158.287 223.893 158.698C224.303 159.131 224.416 159.598 224.233 160.099C224.096 160.475 223.708 160.759 223.07 160.952C222.455 161.082 221.979 161.122 221.643 161.07C220.191 160.966 219.057 161.155 218.242 161.638C217.427 162.121 216.686 162.986 216.018 164.233C214.882 166.373 213.868 168.664 212.976 171.107L212.05 173.643C211.936 173.956 211.884 174.292 211.895 174.651C211.992 174.97 212.049 175.204 212.065 175.352C212.122 175.585 212.238 175.947 212.414 176.437C212.676 176.887 212.772 177.206 212.704 177.394C212.315 178.459 211.66 178.894 210.737 178.699C210.276 178.602 209.293 178.669 207.789 178.901C204.195 179.221 200.649 179.31 197.152 179.169C193.655 179.028 189.965 178.249 186.083 176.832Z" fill="#9CF159"/>
<path d="M226.89 189.87C226.045 189.679 225.391 189.395 224.93 189.017C224.454 188.705 224.26 188.353 224.348 187.963C224.539 187.118 225.781 186.613 228.074 186.447C230.092 186.288 231.901 185.842 233.502 185.11C235.117 184.313 236.67 182.887 238.159 180.832C243.398 173.677 248.013 167.167 252.003 161.302C256.074 155.387 260.991 147.989 266.757 139.108C267.928 137.254 268.809 135.471 269.401 133.759C269.611 133.738 270.095 133.711 270.854 133.678C271.694 133.594 272.49 133.398 273.243 133.089C273.851 132.817 274.374 132.32 274.81 131.598C275.311 130.891 275.657 130.422 275.845 130.192C275.925 130.141 275.99 130.156 276.04 130.236C276.171 130.265 276.261 130.32 276.311 130.399C276.368 130.754 276.384 131.134 276.361 131.538C276.403 131.958 276.452 132.345 276.509 132.7C277.898 148.938 279.763 167.608 282.103 188.709C282.531 192.565 283.346 195.312 284.547 196.951C285.764 198.524 287.499 199.77 289.751 200.689C290.748 201.12 291.455 201.621 291.872 202.194C292.369 202.716 292.566 203.205 292.463 203.66C292.316 204.31 291.3 204.422 289.414 203.996L284.191 202.611C280.608 201.528 277.874 200.774 275.988 200.348L265.724 198.132C263.839 197.706 262.984 197.102 263.16 196.322C263.248 195.932 263.622 195.64 264.28 195.447C265.019 195.204 265.858 195.12 266.798 195.196C270.911 195.442 273.225 194.427 273.739 192.151C274.21 190.07 274.132 184.516 273.505 175.49C273.478 175.005 273.284 174.654 272.923 174.435C272.628 174.232 272.025 174.027 271.114 173.822L252.679 169.657C251.963 169.495 251.279 169.955 250.624 171.038C249.438 172.957 247.976 175.497 246.237 178.658C244.512 181.754 243.584 183.595 243.451 184.18C243.143 185.546 243.399 186.834 244.219 188.044C245.104 189.269 246.315 190.261 247.853 191.018C248.95 191.608 249.696 192.084 250.093 192.447C250.554 192.825 250.734 193.241 250.631 193.696C250.469 194.412 249.445 194.556 247.56 194.13C246.389 193.866 245.421 193.613 244.655 193.371L238.727 191.93C237.622 191.68 236.379 191.433 234.999 191.19C233.669 191.026 232.679 190.871 232.028 190.724C230.164 190.507 228.451 190.223 226.89 189.87ZM271.159 170.449C271.549 170.537 271.881 170.578 272.156 170.571C272.431 170.565 272.59 170.464 272.634 170.269L272.66 169.25L270.429 143.731C270.303 142.472 270.142 141.821 269.947 141.777C269.817 141.747 269.432 142.241 268.792 143.259L254.517 165.151L254.146 165.887C254.072 166.212 254.158 166.437 254.403 166.561C254.714 166.699 255.259 166.856 256.04 167.033L271.159 170.449Z" fill="#9CF159"/>
<path d="M362.041 213.415C358.988 213.123 356.371 212.472 354.191 211.46C352.077 210.454 350.286 208.877 348.817 206.727C346.125 202.653 343.911 199.193 342.173 196.349C340.442 193.438 338.288 189.348 335.711 184.079C334.874 182.324 333.571 180.894 331.801 179.787C329.713 178.516 327.158 177.569 324.137 176.946L323.938 176.927C323.075 176.844 322.58 177.467 322.453 178.794L320.78 196.314C320.311 201.225 322.261 204.291 326.632 205.512C327.741 205.819 328.548 206.131 329.054 206.447C329.559 206.763 329.79 207.154 329.746 207.618C329.676 208.348 328.679 208.621 326.754 208.437C324.63 208.234 322.719 207.918 321.018 207.488C319.843 207.174 318.525 206.948 317.065 206.809C315.871 206.695 314.636 206.644 313.363 206.656C312.162 206.608 311.296 206.559 310.765 206.508C308.085 206.52 305.849 206.441 304.057 206.269C302.133 206.086 301.205 205.629 301.275 204.899C301.32 204.434 301.62 204.094 302.176 203.88C302.732 203.665 303.584 203.512 304.731 203.421C307.364 203.203 309.295 202.618 310.525 201.663C311.761 200.643 312.493 198.938 312.721 196.549L316.772 154.142C317.038 151.355 317.092 149.384 316.934 148.231C316.849 147.017 316.401 146.104 315.589 145.49C314.843 144.884 313.518 144.389 311.612 144.006C310.556 143.838 309.749 143.526 309.19 143.071C308.697 142.622 308.473 142.165 308.517 141.701C308.587 140.971 309.584 140.698 311.509 140.882C314.362 141.154 316.217 141.365 317.074 141.514L321.255 141.913C322.25 142.008 323.75 142.084 325.753 142.142C329.356 142.285 331.688 142.407 332.75 142.509C340.05 143.206 345.458 145.129 348.975 148.278C352.564 151.366 354.102 155.598 353.589 160.974C352.904 168.141 348.456 173.342 340.245 176.576C340.039 176.623 339.924 176.779 339.899 177.045C339.88 177.244 339.954 177.519 340.121 177.87C343.7 184.574 346.589 189.739 348.787 193.364C351.052 196.996 354.094 200.903 357.914 205.085C359.374 206.631 360.914 207.682 362.535 208.239C364.156 208.795 366.327 209.204 369.048 209.463C370.044 209.559 370.507 209.971 370.437 210.701C370.316 211.962 369.335 212.772 367.492 213.132C365.716 213.498 363.899 213.593 362.041 213.415ZM328.138 175.018C331.058 175.296 333.71 174.88 336.093 173.768C338.549 172.596 340.482 170.939 341.892 168.797C343.368 166.661 344.23 164.299 344.477 161.711C344.927 156.999 344.281 153.254 342.537 150.475C340.8 147.631 337.044 145.933 331.27 145.381C329.213 145.185 327.756 145.715 326.899 146.973C326.115 148.17 325.485 150.554 325.01 154.125C324.447 158.626 323.841 164.26 323.195 171.029C323.049 172.556 323.355 173.556 324.114 174.03C324.872 174.505 326.214 174.834 328.138 175.018Z" fill="#9CF159"/>
<path d="M379.488 212.663C378.622 212.691 377.918 212.58 377.377 212.33C376.837 212.147 376.561 211.856 376.548 211.456C376.521 210.59 377.596 209.789 379.774 209.053C381.687 208.392 383.326 207.506 384.692 206.395C386.055 205.218 387.2 203.447 388.125 201.084C391.398 192.842 394.23 185.382 396.619 178.703C399.073 171.955 401.974 163.558 405.324 153.514C405.991 151.425 406.396 149.478 406.539 147.672C406.737 147.599 407.199 147.451 407.926 147.228C408.717 146.936 409.438 146.546 410.09 146.059C410.61 145.642 410.991 145.03 411.232 144.222C411.54 143.411 411.756 142.871 411.881 142.6C411.945 142.531 412.012 142.529 412.081 142.594C412.214 142.59 412.315 142.62 412.384 142.684C412.528 143.013 412.639 143.376 412.719 143.774C412.865 144.17 413.009 144.532 413.153 144.861C418.577 160.23 425.072 177.833 432.639 197.669C434.021 201.294 435.5 203.748 437.075 205.032C438.648 206.249 440.64 207.02 443.051 207.343C444.124 207.51 444.934 207.817 445.482 208.267C446.094 208.648 446.408 209.071 446.423 209.538C446.444 210.204 445.488 210.568 443.556 210.629L438.152 210.601C434.412 210.453 431.576 210.409 429.644 210.471L419.152 210.904C417.22 210.965 416.241 210.596 416.216 209.796C416.203 209.397 416.491 209.021 417.08 208.668C417.734 208.247 418.525 207.956 419.454 207.793C423.497 206.997 425.482 205.433 425.408 203.101C425.34 200.969 423.869 195.613 420.996 187.033C420.848 186.571 420.572 186.28 420.167 186.159C419.83 186.036 419.195 185.99 418.262 186.019L399.372 186.619C398.639 186.643 398.091 187.26 397.73 188.472C397.064 190.628 396.287 193.454 395.398 196.951C394.506 200.381 394.07 202.396 394.089 202.995C394.133 204.395 394.704 205.577 395.802 206.543C396.967 207.506 398.388 208.161 400.067 208.508C401.277 208.803 402.119 209.077 402.594 209.328C403.136 209.578 403.414 209.936 403.428 210.403C403.452 211.136 402.497 211.533 400.565 211.594C399.365 211.632 398.365 211.631 397.563 211.589L391.463 211.683C390.33 211.719 389.065 211.792 387.668 211.903C386.34 212.079 385.342 212.177 384.676 212.199C382.817 212.458 381.087 212.613 379.488 212.663ZM417.458 182.743C417.858 182.731 418.19 182.687 418.454 182.612C418.718 182.537 418.847 182.399 418.841 182.199L418.61 181.206L410.039 157.066C409.601 155.879 409.282 155.289 409.082 155.295C408.949 155.3 408.701 155.874 408.337 157.02L400.019 181.796L399.844 182.602C399.855 182.935 399.995 183.131 400.263 183.189C400.598 183.245 401.166 183.261 401.966 183.235L417.458 182.743Z" fill="#9CF159"/>
<path d="M458.055 209.766C456.151 210.102 455.135 209.909 455.008 209.187C454.927 208.727 455.126 208.32 455.605 207.965C456.084 207.609 456.864 207.235 457.945 206.841C461.255 205.648 462.839 202.729 462.696 198.083C461.821 177.387 460.701 163.165 459.334 155.418C459.068 153.908 458.844 152.831 458.663 152.186C458.469 151.475 458.234 150.907 457.956 150.482C457.732 149.98 457.284 149.552 456.612 149.196C455.4 148.462 454.239 148.024 453.131 147.881C452.088 147.726 450.613 147.614 448.705 147.545C448.025 147.529 447.46 147.392 447.008 147.133C446.544 146.809 446.272 146.417 446.191 145.957C446.11 145.498 446.321 145.156 446.823 144.932C447.39 144.696 448.232 144.48 449.348 144.283C450.202 144.133 452.687 143.83 456.804 143.374C460.921 142.919 463.406 142.616 464.259 142.466C465.178 142.304 465.895 142.719 466.408 143.711L467.549 146.15C468.557 148.41 469.345 149.997 469.912 150.912L492.437 187.658C492.739 188.214 493.217 188.434 493.874 188.319C494.334 188.238 494.627 187.983 494.755 187.554L507.034 143.755C507.3 140.662 507.457 138.096 507.503 136.057C507.55 135.169 507.803 134.684 508.262 134.603L511.808 133.978C512.792 133.804 515.127 133.223 518.811 132.235C520.484 131.736 521.845 131.395 522.895 131.21C524.274 130.966 525.021 131.173 525.137 131.83C525.218 132.289 525.085 132.685 524.737 133.017C524.455 133.338 523.857 133.782 522.941 134.349C522.385 134.65 521.65 135.085 520.734 135.652C519.819 136.22 518.751 136.882 517.531 137.639C516.866 138.095 516.357 138.659 516.001 139.331C515.712 139.991 515.63 140.682 515.758 141.404C516.777 147.182 517.831 152.581 518.919 157.601C520.073 162.61 521.477 168.455 523.129 175.137C524.473 180.451 525.476 184.606 526.14 187.603C526.565 189.627 527.466 191.093 528.845 192C530.212 192.842 532.184 193.273 534.759 193.293C535.91 193.293 536.772 193.378 537.343 193.548C537.915 193.718 538.241 194.032 538.322 194.492C538.449 195.214 537.561 195.743 535.657 196.079C533.228 196.507 531.11 196.779 529.302 196.895C527.178 197.134 525.427 197.376 524.048 197.619C522.932 197.816 521.466 198.142 519.651 198.597C518.242 199.049 516.289 199.495 513.795 199.935C511.891 200.271 510.875 200.078 510.748 199.356C510.585 198.436 511.565 197.654 513.685 197.01C515.542 196.411 516.74 195.523 517.277 194.345C517.813 193.167 517.874 191.397 517.457 189.033C516.275 182.337 515.056 176.188 513.797 170.589C512.593 164.911 511.865 161.553 511.614 160.515C511.193 158.896 510.616 156.392 509.883 153.001C509.701 152.356 509.446 152.063 509.118 152.121C508.856 152.167 508.585 152.553 508.307 153.279L493.803 203.461C493.807 203.867 493.546 204.116 493.021 204.208C492.627 204.278 492.291 204.1 492.013 203.675C485.109 191.015 476.319 176.488 465.642 160.093C465.453 159.788 465.194 159.665 464.866 159.723C464.538 159.781 464.37 159.979 464.362 160.319C464.72 169.26 465.087 176.134 465.461 180.942C465.835 185.75 466.555 191.174 467.62 197.214C467.944 199.052 468.792 200.595 470.163 201.843C471.599 203.079 473.337 203.72 475.376 203.767C476.527 203.767 477.388 203.852 477.96 204.022C478.531 204.192 478.858 204.506 478.939 204.966C479.066 205.688 478.178 206.217 476.274 206.553C473.845 206.981 471.956 207.213 470.608 207.248C469.272 207.348 468.046 207.496 466.93 207.693C465.945 207.867 464.808 208.135 463.518 208.498C460.992 209.147 459.171 209.57 458.055 209.766Z" fill="#9CF159"/>
<path d="M585.252 181.539C579.689 183.403 574.04 183.854 568.304 182.893C562.61 181.848 557.515 179.442 553.019 175.675C548.586 171.887 545.353 166.959 543.32 160.89C541.372 155.075 540.815 149.215 541.649 143.311C542.483 137.406 544.826 132.122 548.677 127.457C552.506 122.729 557.803 119.232 564.567 116.966C570.13 115.102 575.758 114.693 581.452 115.738C587.188 116.699 592.272 119.074 596.705 122.862C601.201 126.629 604.466 131.546 606.499 137.615C608.447 143.43 609.004 149.29 608.17 155.194C607.336 161.099 605.004 166.415 601.174 171.143C597.323 175.808 592.016 179.273 585.252 181.539ZM585.403 177.27C592.483 174.898 597.157 170.907 599.426 165.295C601.673 159.621 601.515 152.959 598.953 145.31C596.941 139.305 594.213 134.208 590.771 130.018C587.328 125.827 583.339 122.945 578.804 121.371C574.311 119.712 569.504 119.741 564.384 121.456C557.367 123.807 552.725 127.788 550.457 133.399C548.167 138.947 548.293 145.514 550.835 153.1C552.846 159.105 555.553 164.245 558.953 168.519C562.417 172.773 566.396 175.728 570.889 177.387C575.445 179.025 580.283 178.986 585.403 177.27Z" fill="#9CF159"/>
<path d="M688.574 137.065C687.858 137.422 686.442 137.496 684.325 137.285C682.269 137.045 680.182 136.372 678.066 135.267C677.232 134.789 671.659 132.355 661.347 127.963C651.095 123.541 643.629 120.3 638.95 118.239C631.38 115.012 626.924 113.1 625.583 112.503C624.332 111.935 623.467 111.771 622.99 112.009C622.692 112.157 622.587 112.47 622.676 112.947C622.735 113.365 622.884 113.812 623.122 114.29C630.175 129.173 635.606 140.433 639.416 148.068C641.44 152.125 644.539 153.559 648.714 152.37C649.818 152.043 650.667 151.88 651.264 151.88C651.86 151.881 652.262 152.09 652.471 152.507C652.798 153.163 652.097 153.923 650.367 154.786C648.159 155.887 646.415 156.646 645.132 157.062C643.88 157.538 642.746 158.029 641.732 158.535C640.837 158.982 639.823 159.562 638.69 160.277C636.452 161.616 634.827 162.539 633.813 163.045C632.083 163.908 631.054 164.012 630.726 163.356C630.548 162.998 630.608 162.595 630.906 162.148C631.265 161.671 631.906 161.016 632.831 160.182C635.457 157.829 635.967 154.52 634.36 150.255C632.843 146.169 630.597 140.771 627.622 134.06C624.676 127.26 621.507 120.46 618.114 113.659C616.655 110.736 614.823 108.931 612.618 108.243C610.472 107.526 607.669 107.434 604.21 107.967C603.584 108.056 602.854 108.085 602.019 108.055C601.154 107.965 600.603 107.681 600.365 107.204C600.127 106.726 600.172 106.294 600.5 105.907C600.888 105.49 601.321 105.162 601.798 104.924L608.196 102.068C611.119 100.758 613.654 99.5679 615.802 98.4965C616.279 98.2584 616.696 98.1991 617.054 98.3187C617.441 98.3488 617.993 98.558 618.708 98.9462C619.93 99.6032 628.066 103.292 643.116 110.014C658.167 116.735 668.896 121.515 675.303 124.353C676.912 125.04 677.956 125.264 678.433 125.026C678.97 124.758 678.956 123.983 678.39 122.701C676.248 118.107 670.251 105.938 660.4 86.1924C659.804 85.1484 658.657 84.4169 656.958 83.998C655.319 83.5494 653.917 83.5034 652.754 83.8602C649.832 84.7222 648.192 84.7953 647.835 84.0795C647.686 83.7812 647.955 83.3491 648.641 82.7833C649.327 82.2174 650.118 81.7112 651.012 81.2648L656.113 78.7202L660.542 76.3985C662.392 75.3268 664.301 74.2999 666.269 73.3178C667.999 72.4546 669.028 72.3512 669.355 73.0074C669.772 73.8426 669.085 74.9302 667.295 76.2703C665.296 77.789 664.103 79.0551 663.714 80.0684C663.326 81.0818 663.444 82.3639 664.069 83.9148C665.021 86.1219 671.851 99.9617 684.559 125.434C685.75 127.82 687 130.028 688.31 132.056L689.337 133.891C690.081 135.382 689.827 136.44 688.574 137.065Z" fill="#9CF159"/>
<path d="M732.16 108.303C725.925 112.177 721.378 115.095 718.52 117.057C717.585 117.698 716.386 118.602 714.922 119.768C713.826 120.763 712.234 121.977 710.145 123.41C708.551 124.504 707.509 124.694 707.018 123.979C706.717 123.539 706.693 123.151 706.947 122.815C707.202 122.479 707.831 121.805 708.834 120.793C710.659 118.975 711.654 117.362 711.82 115.954C712.041 114.509 711.473 112.797 710.115 110.818L684.652 73.7142C683.332 71.7904 681.977 70.6991 680.586 70.4404C679.213 70.089 677.35 70.4376 674.997 71.4863C673.84 72.0381 673.012 72.3636 672.514 72.4627C671.978 72.5069 671.56 72.3091 671.258 71.8694C670.768 71.1548 671.319 70.2505 672.914 69.1566L677.67 66.0138C678.532 65.503 680.035 64.512 682.179 63.0408C684.433 61.4942 687.169 59.4141 690.389 56.8005C691.505 55.9534 692.512 55.1817 693.409 54.4855C694.36 53.7515 695.166 53.1582 695.826 52.7055C702.971 47.8017 709.673 44.9009 715.929 44.0032C722.148 43.0505 727.688 43.8175 732.547 46.304C737.424 48.6979 741.579 52.3959 745.012 57.398C748.558 62.565 750.567 68.2612 751.039 74.4865C751.473 80.6569 750.378 86.5427 747.753 92.144C745.129 97.7453 741.233 102.319 736.066 105.865L732.16 108.303ZM733.096 103.658C737.329 100.753 740.377 97.1249 742.242 92.7728C744.161 88.383 744.764 83.7242 744.051 78.7965C743.355 73.7761 741.385 68.9023 738.141 64.1751C734.67 59.118 730.534 55.4475 725.733 53.1635C720.931 50.8796 716.065 49.9742 711.134 50.4473C706.22 50.8276 701.84 52.3381 697.992 54.9786C695.079 56.9779 692.936 58.5692 691.565 59.7526C690.249 60.8983 689.424 62.1113 689.09 63.3917C688.756 64.6722 689.136 66.1094 690.23 67.7035L715.466 104.477C717.541 107.5 720.036 108.78 722.951 108.315C725.922 107.813 729.303 106.261 733.096 103.658Z" fill="#9CF159"/>
</svg>
