<svg width="689" height="1934" viewBox="0 0 689 1934" fill="none" xmlns="http://www.w3.org/2000/svg">
<path d="M85.6314 1516.91C64.7542 1516.91 45.3683 1513.93 27.4737 1507.96C9.57899 1502 0.631657 1495.54 0.631657 1488.58C0.631657 1472.67 8.58485 1464.72 24.4912 1464.72C56.304 1464.72 83.6431 1453.29 106.508 1430.42C129.374 1406.56 148.76 1381.71 164.666 1355.86C181.567 1330.01 192.502 1313.61 197.473 1306.65C216.362 1279.81 229.783 1261.91 237.736 1252.97C246.683 1243.02 257.122 1234.57 269.052 1227.61C274.023 1224.63 277.005 1222.15 277.999 1220.16C279.987 1217.18 278.993 1215.19 275.017 1214.19C232.268 1205.25 199.958 1189.34 178.087 1166.47C156.216 1142.62 145.28 1109.81 145.28 1068.05C145.28 1017.35 166.654 977.09 209.403 947.265C252.151 917.441 304.344 902.528 365.981 902.528C392.823 902.528 413.203 903.025 427.121 904.02L504.665 905.511C529.519 905.511 545.922 905.014 553.875 904.02C558.846 904.02 565.308 904.02 573.261 904.02C581.214 903.025 593.144 902.528 609.051 902.528C631.916 902.528 643.349 907.002 643.349 915.949C643.349 922.908 640.366 928.376 634.401 932.353C629.431 935.335 620.98 938.815 609.051 942.791C591.156 947.762 577.238 955.218 567.296 965.16C558.349 974.107 553.875 989.019 553.875 1009.9V1414.02C553.875 1429.92 557.852 1440.86 565.805 1446.82C574.752 1452.79 584.197 1457.26 594.138 1460.25C605.074 1463.23 613.027 1465.22 617.998 1466.21C629.928 1470.19 638.378 1474.16 643.349 1478.14C649.314 1481.12 652.296 1486.09 652.296 1493.05C652.296 1502 642.355 1506.47 622.472 1506.47C594.635 1506.47 572.267 1504.98 555.367 1502C533.495 1500.01 514.606 1499.02 498.7 1499.02C481.8 1499.02 463.408 1500.01 443.525 1502C428.613 1504.98 408.233 1506.47 382.385 1506.47H377.911C358.028 1506.47 348.087 1502 348.087 1493.05C348.087 1486.09 350.572 1481.12 355.543 1478.14C361.508 1474.16 370.455 1470.19 382.385 1466.21C406.244 1459.25 423.145 1452.79 433.086 1446.82C444.022 1439.87 449.49 1427.44 449.49 1409.54V1249.98C449.49 1246.01 447.999 1242.53 445.016 1239.54C443.028 1236.56 440.045 1235.07 436.069 1235.07C416.186 1233.08 404.753 1232.09 401.771 1232.09C395.806 1232.09 387.853 1233.08 377.911 1235.07C365.981 1238.05 355.046 1246.01 345.104 1258.93C336.157 1270.86 317.765 1298.7 289.929 1342.44C217.356 1458.75 149.257 1516.91 85.6314 1516.91ZM370.455 1191.83C396.303 1191.83 415.689 1190.33 428.613 1187.35C442.531 1183.38 449.49 1176.42 449.49 1166.47V1002.44C449.49 980.569 443.525 965.657 431.595 957.704C419.665 949.75 397.297 945.774 364.49 945.774C334.666 945.774 308.818 957.207 286.946 980.072C266.069 1001.94 255.631 1028.29 255.631 1059.11C255.631 1094.9 266.566 1126.21 288.438 1153.05C310.309 1178.9 337.648 1191.83 370.455 1191.83Z" fill="#9CF159"/>
<path d="M468.171 1012.08C468.707 1012.21 469.249 1011.89 469.382 1011.35L471.553 1002.62C471.686 1002.08 471.36 1001.54 470.824 1001.41C470.288 1001.27 469.745 1001.6 469.612 1002.13L467.683 1009.9L459.919 1007.97C459.383 1007.84 458.84 1008.16 458.707 1008.7C458.574 1009.23 458.9 1009.78 459.436 1009.91L468.171 1012.08ZM421.143 934.516L467.555 1011.63L469.269 1010.59L422.857 933.484L421.143 934.516Z" fill="white"/>
<path d="M421.03 933.759C421.163 933.223 421.705 932.896 422.241 933.03L430.976 935.2C431.512 935.333 431.838 935.876 431.705 936.412C431.572 936.948 431.029 937.274 430.493 937.141L422.729 935.212L420.8 942.975C420.667 943.511 420.124 943.838 419.588 943.705C419.052 943.572 418.726 943.029 418.859 942.493L421.03 933.759ZM467.555 1011.63L421.143 934.516L422.857 933.484L469.269 1010.59L467.555 1011.63Z" fill="white"/>
<path d="M474.019 1142.07C474.57 1142.02 475.055 1142.42 475.103 1142.97L475.894 1151.94C475.943 1152.49 475.536 1152.98 474.986 1153.02C474.436 1153.07 473.95 1152.67 473.902 1152.12L473.199 1144.15L465.23 1144.85C464.68 1144.9 464.194 1144.49 464.146 1143.94C464.097 1143.39 464.504 1142.91 465.054 1142.86L474.019 1142.07ZM415.538 1211.4L473.341 1142.42L474.874 1143.7L417.071 1212.69L415.538 1211.4Z" fill="white"/>
<path d="M415.308 1212.14C415.357 1212.69 415.842 1213.09 416.392 1213.04L425.358 1212.25C425.908 1212.2 426.314 1211.72 426.266 1211.17C426.217 1210.62 425.732 1210.21 425.182 1210.26L417.213 1210.96L416.51 1202.99C416.462 1202.44 415.976 1202.04 415.426 1202.09C414.876 1202.13 414.469 1202.62 414.518 1203.17L415.308 1212.14ZM473.341 1142.42L415.538 1211.4L417.071 1212.69L474.874 1143.7L473.341 1142.42Z" fill="white"/>
<path d="M408.655 1215.93C409.185 1216.08 409.489 1216.64 409.334 1217.17L406.808 1225.8C406.653 1226.33 406.097 1226.64 405.567 1226.48C405.037 1226.33 404.733 1225.77 404.888 1225.24L407.134 1217.56L399.456 1215.32C398.926 1215.16 398.622 1214.61 398.777 1214.08C398.932 1213.55 399.487 1213.24 400.017 1213.4L408.655 1215.93ZM328.948 1259.22L407.894 1216.01L408.855 1217.76L329.908 1260.98L328.948 1259.22Z" fill="white"/>
<path d="M328.468 1259.82C328.313 1260.35 328.617 1260.9 329.147 1261.06L337.786 1263.59C338.316 1263.74 338.871 1263.44 339.026 1262.91C339.181 1262.38 338.877 1261.82 338.347 1261.67L330.669 1259.42L332.915 1251.74C333.07 1251.21 332.766 1250.66 332.236 1250.5C331.706 1250.35 331.15 1250.65 330.995 1251.18L328.468 1259.82ZM407.894 1216.01L328.948 1259.22L329.908 1260.98L408.855 1217.76L407.894 1216.01Z" fill="white"/>
<path d="M272.115 1216.62C272.668 1216.61 273.118 1217.06 273.121 1217.61L273.169 1226.61C273.172 1227.16 272.727 1227.61 272.175 1227.62C271.622 1227.62 271.172 1227.17 271.169 1226.62L271.126 1218.62L263.126 1218.66C262.574 1218.67 262.124 1218.22 262.121 1217.67C262.118 1217.12 262.563 1216.67 263.115 1216.66L272.115 1216.62ZM208.115 1280.9L271.41 1216.91L272.832 1218.32L209.537 1282.3L208.115 1280.9Z" fill="white"/>
<path d="M207.826 1281.6C207.829 1282.16 208.279 1282.6 208.831 1282.6L217.831 1282.55C218.383 1282.55 218.828 1282.1 218.825 1281.54C218.822 1280.99 218.372 1280.55 217.82 1280.55L209.82 1280.59L209.777 1272.59C209.774 1272.04 209.324 1271.6 208.772 1271.6C208.219 1271.6 207.774 1272.05 207.777 1272.6L207.826 1281.6ZM271.41 1216.91L208.115 1280.9L209.537 1282.3L272.832 1218.32L271.41 1216.91Z" fill="white"/>
<path d="M170.114 1493.79C170.612 1494.03 170.821 1494.63 170.581 1495.13L166.679 1503.24C166.439 1503.74 165.841 1503.94 165.344 1503.71C164.846 1503.47 164.637 1502.87 164.876 1502.37L168.346 1495.16L161.137 1491.69C160.639 1491.45 160.43 1490.86 160.67 1490.36C160.909 1489.86 161.507 1489.65 162.004 1489.89L170.114 1493.79ZM84.4079 1523.5L169.35 1493.75L170.011 1495.64L85.0689 1525.38L84.4079 1523.5Z" fill="white"/>
<path d="M83.8373 1524.01C83.5978 1524.51 83.8071 1525.1 84.3048 1525.34L92.4145 1529.25C92.9121 1529.48 93.5097 1529.28 93.7492 1528.78C93.9887 1528.28 93.7794 1527.68 93.2818 1527.44L86.0731 1523.97L89.5424 1516.77C89.7819 1516.27 89.5726 1515.67 89.075 1515.43C88.5773 1515.19 87.9797 1515.4 87.7402 1515.9L83.8373 1524.01ZM169.35 1493.75L84.4079 1523.5L85.0689 1525.38L170.011 1495.64L169.35 1493.75Z" fill="white"/>
<path d="M540.651 993.63C540.099 993.634 539.647 993.19 539.643 992.638L539.571 983.638C539.566 983.086 540.01 982.634 540.563 982.63C541.115 982.626 541.566 983.07 541.571 983.622L541.635 991.622L549.635 991.557C550.187 991.553 550.638 991.997 550.643 992.549C550.647 993.102 550.203 993.553 549.651 993.557L540.651 993.63ZM604.482 929.182L541.356 993.331L539.93 991.928L603.056 927.779L604.482 929.182Z" fill="white"/>
<path d="M604.769 928.472C604.764 927.92 604.313 927.476 603.761 927.481L594.761 927.553C594.209 927.557 593.765 928.009 593.769 928.561C593.774 929.113 594.225 929.557 594.777 929.553L602.777 929.488L602.841 937.488C602.846 938.04 603.297 938.485 603.849 938.48C604.402 938.476 604.846 938.024 604.841 937.472L604.769 928.472ZM541.356 993.331L604.482 929.182L603.056 927.779L539.93 991.928L541.356 993.331Z" fill="white"/>
<path d="M534.396 1422.46C533.852 1422.56 533.492 1423.08 533.59 1423.62L535.197 1432.48C535.295 1433.02 535.816 1433.38 536.359 1433.29C536.903 1433.19 537.263 1432.67 537.165 1432.12L535.737 1424.25L543.608 1422.82C544.152 1422.72 544.512 1422.2 544.414 1421.66C544.315 1421.12 543.794 1420.76 543.251 1420.86L534.396 1422.46ZM609.121 1473.88L535.144 1422.62L534.005 1424.27L607.982 1475.53L609.121 1473.88Z" fill="white"/>
<path d="M609.536 1474.52C609.634 1475.07 609.274 1475.59 608.73 1475.69L599.875 1477.29C599.332 1477.39 598.811 1477.03 598.713 1476.49C598.614 1475.94 598.975 1475.42 599.518 1475.33L607.389 1473.9L605.961 1466.03C605.863 1465.48 606.223 1464.96 606.767 1464.86C607.31 1464.77 607.831 1465.13 607.929 1465.67L609.536 1474.52ZM535.144 1422.62L609.121 1473.88L607.982 1475.53L534.005 1424.27L535.144 1422.62Z" fill="white"/>
<circle cx="176.5" cy="1163.5" r="6.5" fill="white"/>
<circle cx="128.5" cy="1508.5" r="6.5" fill="white"/>
<path d="M108.376 1443.1C108.873 1443.34 109.083 1443.94 108.843 1444.43L104.94 1452.54C104.701 1453.04 104.103 1453.25 103.605 1453.01C103.108 1452.77 102.898 1452.17 103.138 1451.68L106.607 1444.47L99.3986 1441C98.9009 1440.76 98.6917 1440.16 98.9312 1439.66C99.1707 1439.17 99.7682 1438.96 100.266 1439.2L108.376 1443.1ZM22.6695 1472.8L107.611 1443.06L108.272 1444.94L23.3305 1474.69L22.6695 1472.8Z" fill="white"/>
<path d="M22.0989 1473.31C21.8594 1473.81 22.0687 1474.41 22.5664 1474.65L30.6761 1478.55C31.1737 1478.79 31.7713 1478.58 32.0108 1478.08C32.2503 1477.59 32.041 1476.99 31.5434 1476.75L24.3347 1473.28L27.804 1466.07C28.0435 1465.57 27.8342 1464.98 27.3366 1464.74C26.8389 1464.5 26.2413 1464.71 26.0018 1465.2L22.0989 1473.31ZM107.611 1443.06L22.6695 1472.8L23.3305 1474.69L108.272 1444.94L107.611 1443.06Z" fill="white"/>
<circle cx="66.7616" cy="1457.81" r="6.5" fill="white"/>
<circle cx="239.5" cy="1251.5" r="6.5" fill="white"/>
<circle cx="554.5" cy="1202.5" r="6.5" fill="white"/>
<circle cx="571.5" cy="1449.5" r="6.5" fill="white"/>
<path d="M468.156 1422.02C468.7 1422.11 469.06 1422.64 468.962 1423.18L467.355 1432.03C467.256 1432.58 466.736 1432.94 466.193 1432.84C465.649 1432.74 465.289 1432.22 465.387 1431.68L466.815 1423.81L458.944 1422.38C458.4 1422.28 458.04 1421.76 458.138 1421.21C458.237 1420.67 458.757 1420.31 459.301 1420.41L468.156 1422.02ZM393.43 1473.44L467.408 1422.18L468.547 1423.82L394.57 1475.08L393.43 1473.44Z" fill="white"/>
<path d="M393.016 1474.08C392.917 1474.62 393.278 1475.14 393.821 1475.24L402.677 1476.85C403.22 1476.95 403.741 1476.59 403.839 1476.04C403.938 1475.5 403.577 1474.98 403.034 1474.88L395.162 1473.45L396.591 1465.58C396.689 1465.04 396.329 1464.52 395.785 1464.42C395.242 1464.32 394.721 1464.68 394.623 1465.22L393.016 1474.08ZM467.408 1422.18L393.43 1473.44L394.57 1475.08L468.547 1423.82L467.408 1422.18Z" fill="white"/>
<circle r="6.5" transform="matrix(-1 0 0 1 431.052 1449.05)" fill="white"/>
<circle cx="368.5" cy="1238.5" r="6.5" fill="white"/>
<circle cx="444.5" cy="1178.5" r="6.5" fill="white"/>
<circle cx="444.5" cy="972.5" r="6.5" fill="white"/>
<circle cx="571.5" cy="961.5" r="6.5" fill="white"/>
<circle cx="500.5" cy="1496.5" r="6.5" fill="white"/>
<circle cx="372.5" cy="903.5" r="6.5" fill="white"/>
<circle cx="255.5" cy="1069.5" r="6.5" fill="white"/>
<circle cx="145.5" cy="1069.5" r="6.5" fill="white"/>
<circle cx="177.5" cy="975.5" r="6.5" fill="white"/>
<path d="M144.293 1114.71C144.683 1115.1 145.317 1115.1 145.707 1114.71L152.071 1108.34C152.462 1107.95 152.462 1107.32 152.071 1106.93C151.681 1106.54 151.047 1106.54 150.657 1106.93L145 1112.59L139.343 1106.93C138.953 1106.54 138.319 1106.54 137.929 1106.93C137.538 1107.32 137.538 1107.95 137.929 1108.34L144.293 1114.71ZM144 1024V1114H146V1024H144Z" fill="white"/>
<path d="M144.293 1023.29C144.683 1022.9 145.317 1022.9 145.707 1023.29L152.071 1029.66C152.462 1030.05 152.462 1030.68 152.071 1031.07C151.681 1031.46 151.047 1031.46 150.657 1031.07L145 1025.41L139.343 1031.07C138.953 1031.46 138.319 1031.46 137.929 1031.07C137.538 1030.68 137.538 1030.05 137.929 1029.66L144.293 1023.29ZM144 1114V1024H146V1114H144Z" fill="white"/>
<path d="M554.293 1247.71C554.683 1248.1 555.317 1248.1 555.707 1247.71L562.071 1241.34C562.462 1240.95 562.462 1240.32 562.071 1239.93C561.681 1239.54 561.047 1239.54 560.657 1239.93L555 1245.59L549.343 1239.93C548.953 1239.54 548.319 1239.54 547.929 1239.93C547.538 1240.32 547.538 1240.95 547.929 1241.34L554.293 1247.71ZM554 1157V1247H556V1157H554Z" fill="white"/>
<path d="M554.293 1156.29C554.683 1155.9 555.317 1155.9 555.707 1156.29L562.071 1162.66C562.462 1163.05 562.462 1163.68 562.071 1164.07C561.681 1164.46 561.047 1164.46 560.657 1164.07L555 1158.41L549.343 1164.07C548.953 1164.46 548.319 1164.46 547.929 1164.07C547.538 1163.68 547.538 1163.05 547.929 1162.66L554.293 1156.29ZM554 1247V1157H556V1247H554Z" fill="white"/>
<path d="M417.707 903.707C418.098 903.317 418.098 902.683 417.707 902.293L411.343 895.929C410.953 895.538 410.319 895.538 409.929 895.929C409.538 896.319 409.538 896.953 409.929 897.343L415.586 903L409.929 908.657C409.538 909.047 409.538 909.681 409.929 910.071C410.319 910.462 410.953 910.462 411.343 910.071L417.707 903.707ZM327 904H417V902H327V904Z" fill="white"/>
<path d="M326.293 903.707C325.902 903.317 325.902 902.683 326.293 902.293L332.657 895.929C333.047 895.538 333.681 895.538 334.071 895.929C334.462 896.319 334.462 896.953 334.071 897.343L328.414 903L334.071 908.657C334.462 909.047 334.462 909.681 334.071 910.071C333.681 910.462 333.047 910.462 332.657 910.071L326.293 903.707ZM417 904H327V902H417V904Z" fill="white"/>
<path d="M545.707 1497.71C546.098 1497.32 546.098 1496.68 545.707 1496.29L539.343 1489.93C538.953 1489.54 538.319 1489.54 537.929 1489.93C537.538 1490.32 537.538 1490.95 537.929 1491.34L543.586 1497L537.929 1502.66C537.538 1503.05 537.538 1503.68 537.929 1504.07C538.319 1504.46 538.953 1504.46 539.343 1504.07L545.707 1497.71ZM455 1498H545V1496H455V1498Z" fill="white"/>
<path d="M454.293 1497.71C453.902 1497.32 453.902 1496.68 454.293 1496.29L460.657 1489.93C461.047 1489.54 461.681 1489.54 462.071 1489.93C462.462 1490.32 462.462 1490.95 462.071 1491.34L456.414 1497L462.071 1502.66C462.462 1503.05 462.462 1503.68 462.071 1504.07C461.681 1504.46 461.047 1504.46 460.657 1504.07L454.293 1497.71ZM545 1498H455V1496H545V1498Z" fill="white"/>
<path d="M255.293 1114.71C255.683 1115.1 256.317 1115.1 256.707 1114.71L263.071 1108.34C263.462 1107.95 263.462 1107.32 263.071 1106.93C262.681 1106.54 262.047 1106.54 261.657 1106.93L256 1112.59L250.343 1106.93C249.953 1106.54 249.319 1106.54 248.929 1106.93C248.538 1107.32 248.538 1107.95 248.929 1108.34L255.293 1114.71ZM255 1024V1114H257V1024H255Z" fill="white"/>
<path d="M255.293 1023.29C255.683 1022.9 256.317 1022.9 256.707 1023.29L263.071 1029.66C263.462 1030.05 263.462 1030.68 263.071 1031.07C262.681 1031.46 262.047 1031.46 261.657 1031.07L256 1025.41L250.343 1031.07C249.953 1031.46 249.319 1031.46 248.929 1031.07C248.538 1030.68 248.538 1030.05 248.929 1029.66L255.293 1023.29ZM255 1114V1024H257V1114H255Z" fill="white"/>
<path d="M149.009 1010.85C149.085 1011.4 149.589 1011.78 150.136 1011.71L159.052 1010.48C159.599 1010.4 159.982 1009.9 159.907 1009.35C159.832 1008.81 159.327 1008.42 158.78 1008.5L150.854 1009.59L149.765 1001.66C149.69 1001.12 149.185 1000.73 148.638 1000.81C148.091 1000.88 147.708 1001.39 147.783 1001.93L149.009 1010.85ZM203.581 938.396L149.203 1010.11L150.797 1011.32L205.175 939.604L203.581 938.396Z" fill="white"/>
<path d="M204.242 938.009C204.789 937.934 205.294 938.317 205.369 938.864L206.595 947.78C206.67 948.327 206.288 948.832 205.74 948.907C205.193 948.982 204.689 948.599 204.613 948.052L203.524 940.127L195.598 941.217C195.051 941.292 194.547 940.909 194.471 940.362C194.396 939.815 194.779 939.31 195.326 939.235L204.242 938.009ZM149.203 1010.11L203.581 938.396L205.175 939.604L150.797 1011.32L149.203 1010.11Z" fill="white"/>
<path d="M149.009 1127.86C149.085 1127.32 149.589 1126.93 150.136 1127.01L159.052 1128.24C159.599 1128.31 159.982 1128.82 159.907 1129.36C159.832 1129.91 159.327 1130.29 158.78 1130.22L150.854 1129.13L149.765 1137.05C149.69 1137.6 149.185 1137.98 148.638 1137.91C148.091 1137.83 147.708 1137.33 147.783 1136.78L149.009 1127.86ZM203.581 1200.32L149.203 1128.6L150.797 1127.4L205.175 1199.11L203.581 1200.32Z" fill="white"/>
<path d="M204.242 1200.71C204.789 1200.78 205.294 1200.4 205.369 1199.85L206.595 1190.93C206.67 1190.39 206.288 1189.88 205.74 1189.81C205.193 1189.73 204.689 1190.12 204.613 1190.66L203.524 1198.59L195.598 1197.5C195.051 1197.42 194.547 1197.81 194.471 1198.35C194.396 1198.9 194.779 1199.4 195.326 1199.48L204.242 1200.71ZM149.203 1128.6L203.581 1200.32L205.175 1199.11L150.797 1127.4L149.203 1128.6Z" fill="white"/>
</svg>
